G04*
G04 #@! TF.GenerationSoftware,Altium Limited,Altium Designer,23.8.1 (32)*
G04*
G04 Layer_Physical_Order=2*
G04 Layer_Color=16711680*
%FSLAX44Y44*%
%MOMM*%
G71*
G04*
G04 #@! TF.SameCoordinates,C7883470-4D28-45A4-81C0-78593BF10AE1*
G04*
G04*
G04 #@! TF.FilePolarity,Positive*
G04*
G01*
G75*
%ADD14C,0.2540*%
%ADD20R,1.1500X1.4500*%
%ADD43C,1.8000*%
%ADD44C,1.7250*%
%ADD45C,0.8250*%
%ADD46C,0.5750*%
%ADD47O,5.0000X9.0000*%
%ADD48C,3.4036*%
%ADD49C,2.0066*%
%ADD50C,0.5000*%
%ADD51C,0.4500*%
%ADD52R,1.0000X1.4000*%
%ADD53R,1.3800X0.9200*%
%ADD54R,0.9200X1.3800*%
G04:AMPARAMS|DCode=55|XSize=1.24mm|YSize=0.59mm|CornerRadius=0.0738mm|HoleSize=0mm|Usage=FLASHONLY|Rotation=180.000|XOffset=0mm|YOffset=0mm|HoleType=Round|Shape=RoundedRectangle|*
%AMROUNDEDRECTD55*
21,1,1.2400,0.4425,0,0,180.0*
21,1,1.0925,0.5900,0,0,180.0*
1,1,0.1475,-0.5463,0.2213*
1,1,0.1475,0.5463,0.2213*
1,1,0.1475,0.5463,-0.2213*
1,1,0.1475,-0.5463,-0.2213*
%
%ADD55ROUNDEDRECTD55*%
G36*
X1419625Y1526713D02*
X1422754Y1525763D01*
X1425639Y1524222D01*
X1428167Y1522147D01*
X1430242Y1519619D01*
X1431783Y1516734D01*
X1432733Y1513605D01*
X1433048Y1510408D01*
X1433036Y1510350D01*
Y733740D01*
X1433048Y733681D01*
X1432733Y730485D01*
X1431783Y727356D01*
X1430242Y724471D01*
X1428167Y721943D01*
X1425639Y719868D01*
X1422754Y718327D01*
X1419625Y717377D01*
X1416429Y717062D01*
X1416370Y717074D01*
X912810D01*
X912751Y717062D01*
X909555Y717377D01*
X906426Y718327D01*
X903541Y719868D01*
X901013Y721943D01*
X898938Y724471D01*
X897397Y727356D01*
X896447Y730485D01*
X896132Y733681D01*
X896144Y733740D01*
Y1510350D01*
X896132Y1510408D01*
X896447Y1513605D01*
X897397Y1516734D01*
X898938Y1519619D01*
X901013Y1522147D01*
X903541Y1524222D01*
X906426Y1525763D01*
X909555Y1526713D01*
X912751Y1527028D01*
X912810Y1527016D01*
X1416370D01*
X1416429Y1527028D01*
X1419625Y1526713D01*
D02*
G37*
%LPC*%
G36*
X1347918Y1514077D02*
X1313882D01*
X1313102Y1513922D01*
X1312440Y1513480D01*
X1308630Y1509670D01*
X1308188Y1509008D01*
X1308033Y1508228D01*
Y1474192D01*
X1308188Y1473412D01*
X1308630Y1472750D01*
X1312440Y1468940D01*
X1313102Y1468498D01*
X1313882Y1468343D01*
X1347918D01*
X1348698Y1468498D01*
X1349360Y1468940D01*
X1353170Y1472750D01*
X1353612Y1473412D01*
X1353767Y1474192D01*
Y1508228D01*
X1353612Y1509008D01*
X1353170Y1509670D01*
X1349360Y1513480D01*
X1348698Y1513922D01*
X1347918Y1514077D01*
D02*
G37*
G36*
X1022918D02*
X988882D01*
X988102Y1513922D01*
X987440Y1513480D01*
X983630Y1509670D01*
X983188Y1509008D01*
X983033Y1508228D01*
Y1474192D01*
X983188Y1473412D01*
X983630Y1472750D01*
X987440Y1468940D01*
X988102Y1468498D01*
X988882Y1468343D01*
X1022918D01*
X1023698Y1468498D01*
X1024360Y1468940D01*
X1028170Y1472750D01*
X1028612Y1473412D01*
X1028767Y1474192D01*
Y1508228D01*
X1028612Y1509008D01*
X1028170Y1509670D01*
X1024360Y1513480D01*
X1023698Y1513922D01*
X1022918Y1514077D01*
D02*
G37*
G36*
X1293622Y1452150D02*
X1055878D01*
X1054602Y1451896D01*
X1053520Y1451174D01*
X1043361Y1441013D01*
X1042638Y1439932D01*
X1042384Y1438656D01*
Y1432130D01*
X1042638Y1430854D01*
X1043361Y1429772D01*
X1053090Y1420043D01*
X1054172Y1419320D01*
X1055448Y1419066D01*
X1061805D01*
X1063081Y1419320D01*
X1064162Y1420043D01*
X1067455Y1423335D01*
X1068177Y1424417D01*
X1068431Y1425692D01*
Y1433211D01*
X1071399Y1436179D01*
X1093716D01*
X1097866Y1432030D01*
X1097187Y1430855D01*
X1096367Y1427794D01*
Y1424626D01*
X1097187Y1421565D01*
X1098771Y1418822D01*
X1101012Y1416581D01*
X1103756Y1414997D01*
X1106816Y1414177D01*
X1109984D01*
X1113045Y1414997D01*
X1115788Y1416581D01*
X1118029Y1418822D01*
X1119613Y1421565D01*
X1119964Y1422876D01*
X1126836D01*
X1127187Y1421565D01*
X1128771Y1418822D01*
X1131012Y1416581D01*
X1133755Y1414997D01*
X1136816Y1414177D01*
X1139984D01*
X1143045Y1414997D01*
X1145788Y1416581D01*
X1148029Y1418822D01*
X1149613Y1421565D01*
X1150433Y1424626D01*
Y1427794D01*
X1149613Y1430855D01*
X1148029Y1433598D01*
X1145788Y1435839D01*
X1143045Y1437423D01*
X1139984Y1438243D01*
X1136816D01*
X1133755Y1437423D01*
X1131012Y1435839D01*
X1128771Y1433598D01*
X1127187Y1430855D01*
X1126836Y1429544D01*
X1119964D01*
X1119613Y1430855D01*
X1118029Y1433598D01*
X1115788Y1435839D01*
X1113045Y1437423D01*
X1109984Y1438243D01*
X1106816D01*
X1103756Y1437423D01*
X1102581Y1436745D01*
X1099780Y1439546D01*
X1100266Y1440719D01*
X1206535D01*
X1207020Y1439546D01*
X1204220Y1436745D01*
X1203045Y1437423D01*
X1199984Y1438243D01*
X1196816D01*
X1193755Y1437423D01*
X1191012Y1435839D01*
X1188771Y1433598D01*
X1187187Y1430855D01*
X1186367Y1427794D01*
Y1424626D01*
X1187187Y1421565D01*
X1188771Y1418822D01*
X1191012Y1416581D01*
X1193755Y1414997D01*
X1196816Y1414177D01*
X1199984D01*
X1203045Y1414997D01*
X1205788Y1416581D01*
X1208029Y1418822D01*
X1209613Y1421565D01*
X1210433Y1424626D01*
Y1427794D01*
X1209613Y1430855D01*
X1208934Y1432030D01*
X1213084Y1436179D01*
X1219556D01*
X1220082Y1434909D01*
X1218771Y1433598D01*
X1217187Y1430855D01*
X1216367Y1427794D01*
Y1424626D01*
X1217187Y1421565D01*
X1218771Y1418822D01*
X1221012Y1416581D01*
X1223755Y1414997D01*
X1226816Y1414177D01*
X1229984D01*
X1233044Y1414997D01*
X1235788Y1416581D01*
X1238029Y1418822D01*
X1238846Y1420237D01*
X1240105Y1420402D01*
X1246303Y1414204D01*
X1245645Y1413066D01*
X1244984Y1413243D01*
X1241816D01*
X1238755Y1412423D01*
X1236012Y1410839D01*
X1233771Y1408598D01*
X1232187Y1405854D01*
X1231367Y1402794D01*
Y1399626D01*
X1232187Y1396565D01*
X1233771Y1393821D01*
X1236012Y1391581D01*
X1238755Y1389997D01*
X1241816Y1389177D01*
X1244984D01*
X1248045Y1389997D01*
X1250788Y1391581D01*
X1253029Y1393821D01*
X1254613Y1396565D01*
X1255433Y1399626D01*
Y1402794D01*
X1255256Y1403455D01*
X1256395Y1404112D01*
X1315688Y1344819D01*
Y1339999D01*
X1314632Y1339293D01*
X1314075Y1339524D01*
X1313395D01*
X1266008Y1386911D01*
X1264926Y1387634D01*
X1263650Y1387888D01*
X1196744D01*
X1195469Y1387634D01*
X1194387Y1386911D01*
X1189220Y1381745D01*
X1188045Y1382423D01*
X1184984Y1383243D01*
X1181816D01*
X1178756Y1382423D01*
X1176012Y1380839D01*
X1174528Y1379355D01*
X1173258Y1379881D01*
Y1386353D01*
X1177581Y1390675D01*
X1178756Y1389997D01*
X1181816Y1389177D01*
X1184984D01*
X1188045Y1389997D01*
X1190789Y1391581D01*
X1193029Y1393821D01*
X1194613Y1396565D01*
X1195433Y1399626D01*
Y1402794D01*
X1194613Y1405854D01*
X1193029Y1408598D01*
X1190789Y1410839D01*
X1188045Y1412423D01*
X1184984Y1413243D01*
X1181816D01*
X1178756Y1412423D01*
X1176012Y1410839D01*
X1173771Y1408598D01*
X1172187Y1405854D01*
X1171367Y1402794D01*
Y1399626D01*
X1172187Y1396565D01*
X1172866Y1395390D01*
X1167567Y1390091D01*
X1166844Y1389010D01*
X1166590Y1387734D01*
Y1373382D01*
X1165320Y1373215D01*
X1164613Y1375854D01*
X1163029Y1378598D01*
X1160788Y1380839D01*
X1158044Y1382423D01*
X1154984Y1383243D01*
X1151816D01*
X1148755Y1382423D01*
X1146011Y1380839D01*
X1143771Y1378598D01*
X1142187Y1375854D01*
X1141367Y1372794D01*
Y1369626D01*
X1142187Y1366565D01*
X1143600Y1364117D01*
X1143250Y1363204D01*
X1142949Y1362847D01*
X1130517D01*
X1129241Y1362593D01*
X1128159Y1361871D01*
X1119639Y1353350D01*
X1118052Y1353559D01*
X1118029Y1353599D01*
X1115788Y1355839D01*
X1113045Y1357423D01*
X1109984Y1358243D01*
X1106816D01*
X1103756Y1357423D01*
X1101012Y1355839D01*
X1098771Y1353599D01*
X1097187Y1350855D01*
X1096367Y1347794D01*
Y1344626D01*
X1097187Y1341566D01*
X1098771Y1338822D01*
X1101012Y1336581D01*
X1103756Y1334997D01*
X1106816Y1334177D01*
X1109984D01*
X1113045Y1334997D01*
X1115788Y1336581D01*
X1118029Y1338822D01*
X1119613Y1341566D01*
X1119964Y1342876D01*
X1121156D01*
X1122432Y1343130D01*
X1123513Y1343853D01*
X1124236Y1344934D01*
X1124490Y1346210D01*
Y1348771D01*
X1125616Y1349897D01*
X1126754Y1349239D01*
X1126367Y1347794D01*
Y1344626D01*
X1127187Y1341566D01*
X1127866Y1340391D01*
X1012803Y1225328D01*
X1011936D01*
X1010660Y1225074D01*
X1009578Y1224352D01*
X1008856Y1223270D01*
X1008602Y1221994D01*
Y1220635D01*
X1007332Y1220108D01*
X1007119Y1220322D01*
X1005352Y1221342D01*
X1003381Y1221870D01*
X1002321D01*
X1001795Y1223140D01*
X1051775Y1273120D01*
X1052455D01*
X1054109Y1273805D01*
X1055375Y1275071D01*
X1056060Y1276725D01*
Y1278515D01*
X1055375Y1280169D01*
X1054109Y1281435D01*
X1052455Y1282120D01*
X1050665D01*
X1049011Y1281435D01*
X1047745Y1280169D01*
X1047060Y1278515D01*
Y1277835D01*
X1005267Y1236042D01*
X1004094Y1236528D01*
Y1277223D01*
X1005360Y1277233D01*
X1006045Y1275579D01*
X1007311Y1274313D01*
X1008965Y1273628D01*
X1010755D01*
X1012409Y1274313D01*
X1013675Y1275579D01*
X1014360Y1277233D01*
Y1277913D01*
X1042229Y1305782D01*
X1082058D01*
X1082539Y1305301D01*
X1084193Y1304616D01*
X1085983D01*
X1087637Y1305301D01*
X1088903Y1306567D01*
X1089588Y1308221D01*
Y1310011D01*
X1088903Y1311665D01*
X1087637Y1312931D01*
X1085983Y1313616D01*
X1084193D01*
X1082539Y1312931D01*
X1082058Y1312450D01*
X1040848D01*
X1039572Y1312196D01*
X1038490Y1311474D01*
X1009645Y1282628D01*
X1008965D01*
X1007311Y1281943D01*
X1006045Y1280677D01*
X1005360Y1279023D01*
X1004094Y1279033D01*
Y1296559D01*
X1080097Y1372562D01*
X1081367Y1372036D01*
Y1369626D01*
X1082187Y1366565D01*
X1083771Y1363821D01*
X1086012Y1361581D01*
X1088755Y1359997D01*
X1091816Y1359177D01*
X1094984D01*
X1098045Y1359997D01*
X1100788Y1361581D01*
X1103029Y1363821D01*
X1104613Y1366565D01*
X1105433Y1369626D01*
Y1372794D01*
X1104613Y1375854D01*
X1103029Y1378598D01*
X1100788Y1380839D01*
X1098045Y1382423D01*
X1094984Y1383243D01*
X1094092D01*
X1093413Y1384513D01*
X1093419Y1384522D01*
X1110046D01*
X1111322Y1384776D01*
X1112404Y1385499D01*
X1117580Y1390675D01*
X1118755Y1389997D01*
X1121816Y1389177D01*
X1124984D01*
X1128044Y1389997D01*
X1130788Y1391581D01*
X1133029Y1393821D01*
X1134613Y1396565D01*
X1135433Y1399626D01*
Y1402794D01*
X1134613Y1405854D01*
X1133029Y1408598D01*
X1130788Y1410839D01*
X1128044Y1412423D01*
X1124984Y1413243D01*
X1121816D01*
X1118755Y1412423D01*
X1116011Y1410839D01*
X1113771Y1408598D01*
X1112187Y1405854D01*
X1111367Y1402794D01*
Y1399626D01*
X1112187Y1396565D01*
X1112865Y1395390D01*
X1108665Y1391190D01*
X1102193D01*
X1101667Y1392460D01*
X1103029Y1393821D01*
X1104613Y1396565D01*
X1105433Y1399626D01*
Y1402794D01*
X1104613Y1405854D01*
X1103029Y1408598D01*
X1100788Y1410839D01*
X1098045Y1412423D01*
X1094984Y1413243D01*
X1091816D01*
X1088755Y1412423D01*
X1086012Y1410839D01*
X1083771Y1408598D01*
X1082187Y1405854D01*
X1081367Y1402794D01*
Y1399626D01*
X1082187Y1396565D01*
X1082865Y1395390D01*
X986719Y1299243D01*
X985996Y1298162D01*
X985742Y1296886D01*
Y1243566D01*
X985261Y1243085D01*
X984576Y1241431D01*
Y1239641D01*
X985261Y1237987D01*
X986527Y1236721D01*
X988181Y1236036D01*
X989971D01*
X991625Y1236721D01*
X992891Y1237987D01*
X993576Y1239641D01*
Y1241431D01*
X992891Y1243085D01*
X992410Y1243566D01*
Y1295505D01*
X996566Y1299660D01*
X997621Y1298920D01*
X997426Y1297940D01*
Y1234622D01*
X977210Y1214406D01*
X940562D01*
X939286Y1214152D01*
X938204Y1213429D01*
X930077Y1205302D01*
X929354Y1204220D01*
X929100Y1202944D01*
Y885952D01*
X929354Y884676D01*
X930077Y883595D01*
X939983Y873689D01*
X941064Y872966D01*
X942340Y872712D01*
X1048512D01*
X1049788Y872966D01*
X1050870Y873689D01*
X1053918Y876737D01*
X1054510Y877560D01*
X1067710D01*
Y881976D01*
X1068980Y882228D01*
X1069335Y881371D01*
X1070601Y880105D01*
X1072255Y879420D01*
X1072935D01*
X1075262Y877093D01*
X1076344Y876370D01*
X1076950Y876249D01*
Y872850D01*
X1094750D01*
Y886050D01*
X1077138D01*
X1076965Y886469D01*
X1075699Y887735D01*
X1074045Y888420D01*
X1072255D01*
X1070601Y887735D01*
X1069335Y886469D01*
X1068980Y885611D01*
X1067710Y885864D01*
Y888345D01*
X1074581Y895216D01*
X1076950D01*
Y891950D01*
X1094750D01*
Y905150D01*
X1089196D01*
X1089189Y906420D01*
X1094304Y911535D01*
X1095026Y912616D01*
X1095280Y913892D01*
Y938276D01*
X1095026Y939552D01*
X1094304Y940633D01*
X1087302Y947635D01*
Y948315D01*
X1086617Y949969D01*
X1085351Y951235D01*
X1083697Y951920D01*
X1081907D01*
X1080253Y951235D01*
X1078987Y949969D01*
X1078302Y948315D01*
Y946525D01*
X1078987Y944871D01*
X1080253Y943605D01*
X1081907Y942920D01*
X1082587D01*
X1088612Y936895D01*
Y935340D01*
X1087342Y934814D01*
X1086254Y935902D01*
X1083746Y937350D01*
X1080948Y938100D01*
X1078052D01*
X1075254Y937350D01*
X1074437Y936878D01*
X1071794Y939521D01*
Y953236D01*
X1073923D01*
X1074991Y953449D01*
X1075896Y954054D01*
X1076468Y954909D01*
X1077728Y955160D01*
X1078810Y955882D01*
X1090133Y967206D01*
X1090920Y966880D01*
Y966880D01*
X1108720D01*
Y966880D01*
X1109970D01*
Y966880D01*
X1127770D01*
Y966880D01*
X1129020D01*
Y966880D01*
X1143909D01*
X1144435Y965610D01*
X1139805Y960980D01*
X1129020D01*
Y960980D01*
X1127770D01*
Y960980D01*
X1127750Y960980D01*
X1109970D01*
Y960980D01*
X1108720D01*
Y960980D01*
X1108700Y960980D01*
X1090920D01*
Y947780D01*
X1104245D01*
X1187418Y864607D01*
Y843026D01*
X1187672Y841750D01*
X1188394Y840668D01*
X1200586Y828476D01*
X1201668Y827754D01*
X1202944Y827500D01*
X1365504D01*
X1366780Y827754D01*
X1367861Y828476D01*
X1377260Y837875D01*
X1377982Y838956D01*
X1378236Y840232D01*
Y1151128D01*
X1377982Y1152404D01*
X1377260Y1153485D01*
X1367861Y1162884D01*
X1366780Y1163606D01*
X1365504Y1163860D01*
X1342644D01*
X1342457Y1163823D01*
X1342266Y1163839D01*
X1341824Y1163697D01*
X1341368Y1163606D01*
X1341209Y1163500D01*
X1341027Y1163442D01*
X1340673Y1163142D01*
X1340287Y1162884D01*
X1340180Y1162725D01*
X1340034Y1162601D01*
X1339822Y1162188D01*
X1339564Y1161802D01*
X1339527Y1161615D01*
X1339439Y1161445D01*
X1338781Y1159150D01*
X1328198D01*
Y1213866D01*
X1327944Y1215142D01*
X1327222Y1216224D01*
X1313794Y1229651D01*
X1314191Y1230339D01*
X1314915Y1233041D01*
Y1235839D01*
X1314191Y1238541D01*
X1312792Y1240964D01*
X1310814Y1242942D01*
X1308391Y1244341D01*
X1305689Y1245065D01*
X1302891D01*
X1300189Y1244341D01*
X1297766Y1242942D01*
X1296956Y1242132D01*
X1295686Y1242658D01*
Y1257951D01*
X1326499Y1288764D01*
X1398778D01*
X1400054Y1289018D01*
X1401136Y1289740D01*
X1409518Y1298122D01*
X1410240Y1299204D01*
X1410494Y1300480D01*
Y1335278D01*
X1410240Y1336554D01*
X1409518Y1337635D01*
X1295979Y1451174D01*
X1294898Y1451896D01*
X1293622Y1452150D01*
D02*
G37*
G36*
X1154984Y1413243D02*
X1151816D01*
X1148755Y1412423D01*
X1146011Y1410839D01*
X1143771Y1408598D01*
X1142187Y1405854D01*
X1141367Y1402794D01*
Y1399626D01*
X1142187Y1396565D01*
X1143771Y1393821D01*
X1146011Y1391581D01*
X1148755Y1389997D01*
X1151816Y1389177D01*
X1154984D01*
X1158044Y1389997D01*
X1160788Y1391581D01*
X1163029Y1393821D01*
X1164613Y1396565D01*
X1165433Y1399626D01*
Y1402794D01*
X1164613Y1405854D01*
X1163029Y1408598D01*
X1160788Y1410839D01*
X1158044Y1412423D01*
X1154984Y1413243D01*
D02*
G37*
G36*
X1079984Y1358243D02*
X1076816D01*
X1073756Y1357423D01*
X1071012Y1355839D01*
X1068771Y1353599D01*
X1067187Y1350855D01*
X1066367Y1347794D01*
Y1344626D01*
X1067187Y1341566D01*
X1068771Y1338822D01*
X1071012Y1336581D01*
X1073756Y1334997D01*
X1076816Y1334177D01*
X1079984D01*
X1083045Y1334997D01*
X1085789Y1336581D01*
X1088029Y1338822D01*
X1089613Y1341566D01*
X1090433Y1344626D01*
Y1347794D01*
X1089613Y1350855D01*
X1088029Y1353599D01*
X1085789Y1355839D01*
X1083045Y1357423D01*
X1079984Y1358243D01*
D02*
G37*
G36*
X1102360Y850993D02*
X1098123Y850660D01*
X1093991Y849668D01*
X1090064Y848042D01*
X1086441Y845821D01*
X1083209Y843061D01*
X1080449Y839829D01*
X1078228Y836206D01*
X1076602Y832279D01*
X1075610Y828147D01*
X1075276Y823910D01*
Y783910D01*
X1075610Y779673D01*
X1076602Y775541D01*
X1078228Y771614D01*
X1080449Y767991D01*
X1083209Y764759D01*
X1086441Y761999D01*
X1090064Y759778D01*
X1093991Y758152D01*
X1098123Y757160D01*
X1102360Y756826D01*
X1106597Y757160D01*
X1110729Y758152D01*
X1114656Y759778D01*
X1118279Y761999D01*
X1121511Y764759D01*
X1124271Y767991D01*
X1126492Y771614D01*
X1128118Y775541D01*
X1129110Y779673D01*
X1129444Y783910D01*
Y823910D01*
X1129110Y828147D01*
X1128118Y832279D01*
X1126492Y836206D01*
X1124271Y839829D01*
X1121511Y843061D01*
X1118279Y845821D01*
X1114656Y848042D01*
X1110729Y849668D01*
X1106597Y850660D01*
X1102360Y850993D01*
D02*
G37*
%LPD*%
G36*
X1235123Y1379950D02*
X1233771Y1378598D01*
X1232187Y1375854D01*
X1231367Y1372794D01*
Y1369626D01*
X1232187Y1366565D01*
X1233771Y1363821D01*
X1236012Y1361581D01*
X1238755Y1359997D01*
X1240066Y1359646D01*
Y1341654D01*
X1137850Y1239438D01*
X1137127Y1238356D01*
X1136873Y1237081D01*
Y1218944D01*
X1137078Y1217917D01*
X1136329Y1217305D01*
X1136030Y1217169D01*
X1124529Y1228670D01*
X1123448Y1229392D01*
X1122172Y1229646D01*
X1109411D01*
X1108885Y1230916D01*
X1184220Y1306250D01*
X1184942Y1307332D01*
X1185196Y1308608D01*
Y1344089D01*
X1186466Y1344256D01*
X1187187Y1341566D01*
X1188771Y1338822D01*
X1191012Y1336581D01*
X1193755Y1334997D01*
X1196816Y1334177D01*
X1199984D01*
X1203045Y1334997D01*
X1205788Y1336581D01*
X1208029Y1338822D01*
X1209613Y1341566D01*
X1210433Y1344626D01*
Y1347794D01*
X1209613Y1350855D01*
X1208029Y1353599D01*
X1205788Y1355839D01*
X1203045Y1357423D01*
X1199984Y1358243D01*
X1196816D01*
X1193755Y1357423D01*
X1191012Y1355839D01*
X1188771Y1353599D01*
X1187187Y1350855D01*
X1186466Y1348164D01*
X1185196Y1348331D01*
Y1351562D01*
X1184942Y1352838D01*
X1184220Y1353920D01*
X1179714Y1358425D01*
X1180371Y1359564D01*
X1181816Y1359177D01*
X1184984D01*
X1188045Y1359997D01*
X1190789Y1361581D01*
X1193029Y1363821D01*
X1194613Y1366565D01*
X1195433Y1369626D01*
Y1372794D01*
X1194613Y1375854D01*
X1193935Y1377029D01*
X1198125Y1381220D01*
X1204597D01*
X1205123Y1379950D01*
X1203771Y1378598D01*
X1202187Y1375854D01*
X1201367Y1372794D01*
Y1369626D01*
X1202187Y1366565D01*
X1203771Y1363821D01*
X1206012Y1361581D01*
X1208756Y1359997D01*
X1211816Y1359177D01*
X1214984D01*
X1218045Y1359997D01*
X1220789Y1361581D01*
X1223029Y1363821D01*
X1224613Y1366565D01*
X1225433Y1369626D01*
Y1372794D01*
X1224613Y1375854D01*
X1223029Y1378598D01*
X1221677Y1379950D01*
X1222203Y1381220D01*
X1234597D01*
X1235123Y1379950D01*
D02*
G37*
G36*
X1320260Y1359635D02*
Y1351337D01*
X1319087Y1350850D01*
X1257030Y1412907D01*
X1257556Y1414177D01*
X1259984D01*
X1263044Y1414997D01*
X1264219Y1415675D01*
X1320260Y1359635D01*
D02*
G37*
G36*
X1308680Y1334809D02*
Y1334129D01*
X1308927Y1333532D01*
X1308079Y1332262D01*
X1243502D01*
X1242226Y1332008D01*
X1241144Y1331286D01*
X1150448Y1240589D01*
X1150260Y1240622D01*
X1149829Y1241987D01*
X1245758Y1337916D01*
X1246480Y1338997D01*
X1246666Y1339928D01*
X1247703Y1340217D01*
X1247974Y1340201D01*
X1248771Y1338822D01*
X1251011Y1336581D01*
X1253755Y1334997D01*
X1256816Y1334177D01*
X1259984D01*
X1263044Y1334997D01*
X1265788Y1336581D01*
X1268029Y1338822D01*
X1269613Y1341566D01*
X1270433Y1344626D01*
Y1347794D01*
X1269613Y1350855D01*
X1268029Y1353599D01*
X1265788Y1355839D01*
X1263044Y1357423D01*
X1259984Y1358243D01*
X1256816D01*
X1253755Y1357423D01*
X1251011Y1355839D01*
X1248771Y1353599D01*
X1248004Y1352270D01*
X1246734Y1352611D01*
Y1359646D01*
X1248045Y1359997D01*
X1250788Y1361581D01*
X1253029Y1363821D01*
X1254613Y1366565D01*
X1255433Y1369626D01*
Y1372794D01*
X1254613Y1375854D01*
X1253029Y1378598D01*
X1251677Y1379950D01*
X1252203Y1381220D01*
X1262269D01*
X1308680Y1334809D01*
D02*
G37*
G36*
X1403826Y1333897D02*
Y1318663D01*
X1402770Y1317957D01*
X1402213Y1318188D01*
X1401533D01*
X1275412Y1444309D01*
X1275899Y1445482D01*
X1292241D01*
X1403826Y1333897D01*
D02*
G37*
G36*
X1244208Y1323123D02*
X1244216Y1323096D01*
X1244144Y1322519D01*
X1156245Y1234620D01*
X1154822Y1234993D01*
X1154814Y1235020D01*
X1154886Y1235598D01*
X1242785Y1323497D01*
X1244208Y1323123D01*
D02*
G37*
G36*
X1157187Y1341566D02*
X1158771Y1338822D01*
X1161012Y1336581D01*
X1163755Y1334997D01*
X1165066Y1334646D01*
Y1312908D01*
X1164585Y1312427D01*
X1163900Y1310773D01*
Y1308983D01*
X1164585Y1307329D01*
X1165851Y1306063D01*
X1167505Y1305378D01*
X1169295D01*
X1170949Y1306063D01*
X1172215Y1307329D01*
X1172900Y1308983D01*
Y1310773D01*
X1172215Y1312427D01*
X1171734Y1312908D01*
Y1334646D01*
X1173045Y1334997D01*
X1175788Y1336581D01*
X1177258Y1338051D01*
X1178528Y1337525D01*
Y1309989D01*
X1104209Y1235670D01*
X1075653D01*
X1074378Y1235417D01*
X1073296Y1234694D01*
X1071956Y1233354D01*
X1069350D01*
Y1236620D01*
X1056304D01*
X1055818Y1237793D01*
X1154248Y1336222D01*
X1154970Y1337304D01*
X1155224Y1338580D01*
Y1343985D01*
X1156494Y1344152D01*
X1157187Y1341566D01*
D02*
G37*
G36*
X1341850Y1358027D02*
Y1318117D01*
X1335675Y1311942D01*
X1280088D01*
X1278812Y1311688D01*
X1277731Y1310966D01*
X1179313Y1212547D01*
X1167322D01*
X1157406Y1222463D01*
Y1223143D01*
X1156808Y1224588D01*
X1156734Y1224844D01*
X1157112Y1226202D01*
X1157550Y1226495D01*
X1249387Y1318332D01*
X1250067D01*
X1251721Y1319017D01*
X1252987Y1320283D01*
X1253672Y1321937D01*
Y1323727D01*
X1253425Y1324324D01*
X1254273Y1325594D01*
X1316990D01*
X1318017Y1325798D01*
X1318630Y1325050D01*
X1318766Y1324751D01*
X1314085Y1320070D01*
X1268476D01*
X1267200Y1319816D01*
X1266118Y1319093D01*
X1170725Y1223700D01*
X1170045D01*
X1168391Y1223015D01*
X1167125Y1221749D01*
X1166440Y1220095D01*
Y1218305D01*
X1167125Y1216651D01*
X1168391Y1215385D01*
X1170045Y1214700D01*
X1171835D01*
X1173489Y1215385D01*
X1174755Y1216651D01*
X1175440Y1218305D01*
Y1218985D01*
X1269857Y1313402D01*
X1315466D01*
X1316742Y1313656D01*
X1317823Y1314379D01*
X1325952Y1322507D01*
X1326674Y1323588D01*
X1326928Y1324864D01*
Y1361016D01*
X1326674Y1362292D01*
X1325952Y1363373D01*
X1268934Y1420390D01*
X1269613Y1421565D01*
X1270433Y1424626D01*
Y1427648D01*
X1271108Y1428184D01*
X1271479Y1428398D01*
X1341850Y1358027D01*
D02*
G37*
G36*
X1396818Y1313473D02*
Y1312793D01*
X1397503Y1311139D01*
X1398769Y1309873D01*
X1400423Y1309188D01*
X1402213D01*
X1402770Y1309419D01*
X1403826Y1308713D01*
Y1301861D01*
X1397397Y1295432D01*
X1325118D01*
X1323842Y1295178D01*
X1322760Y1294456D01*
X1289995Y1261690D01*
X1289272Y1260608D01*
X1289018Y1259332D01*
Y1195578D01*
X1289272Y1194302D01*
X1289995Y1193221D01*
X1294786Y1188429D01*
X1294389Y1187741D01*
X1293665Y1185039D01*
Y1182241D01*
X1294389Y1179539D01*
X1295788Y1177116D01*
X1297766Y1175138D01*
X1300189Y1173739D01*
X1302891Y1173015D01*
X1305689D01*
X1308391Y1173739D01*
X1310814Y1175138D01*
X1312792Y1177116D01*
X1314191Y1179539D01*
X1314915Y1182241D01*
Y1185039D01*
X1314191Y1187741D01*
X1312792Y1190164D01*
X1310814Y1192142D01*
X1308391Y1193541D01*
X1305689Y1194265D01*
X1302891D01*
X1300189Y1193541D01*
X1299501Y1193144D01*
X1295686Y1196959D01*
Y1226222D01*
X1296956Y1226748D01*
X1297766Y1225938D01*
X1300189Y1224539D01*
X1302891Y1223815D01*
X1305689D01*
X1308391Y1224539D01*
X1309079Y1224936D01*
X1321530Y1212485D01*
Y1152550D01*
X1321784Y1151274D01*
X1322507Y1150192D01*
X1323330Y1149642D01*
Y1145950D01*
X1328916D01*
X1329150Y1144772D01*
X1329872Y1143690D01*
X1332339Y1141223D01*
X1331853Y1140050D01*
X1323330D01*
Y1136358D01*
X1322507Y1135808D01*
X1316411Y1129712D01*
X1315688Y1128630D01*
X1315434Y1127354D01*
Y1112021D01*
X1308170Y1104757D01*
X1307401Y1105271D01*
X1306333Y1105483D01*
X1295408D01*
X1294339Y1105271D01*
X1293434Y1104666D01*
X1292829Y1103761D01*
X1292616Y1102692D01*
Y1098267D01*
X1292829Y1097199D01*
X1293434Y1096294D01*
X1294339Y1095689D01*
X1295408Y1095476D01*
X1297536D01*
Y1093057D01*
X1297512Y1093034D01*
X1296790Y1091952D01*
X1296588Y1090940D01*
X1293270D01*
X1293270Y1090940D01*
X1292125Y1091243D01*
X1291215Y1091620D01*
X1289425D01*
X1288582Y1091271D01*
X1287370Y1090940D01*
X1287370Y1090940D01*
X1287370Y1090940D01*
X1283440D01*
X1283128Y1091407D01*
X1270010Y1104525D01*
Y1116690D01*
Y1129890D01*
X1266387D01*
X1265539Y1131160D01*
X1265864Y1131945D01*
Y1133735D01*
X1265539Y1134520D01*
X1266387Y1135790D01*
X1270010D01*
Y1139056D01*
X1290971D01*
X1297654Y1132373D01*
Y1124484D01*
X1295408D01*
X1294339Y1124271D01*
X1293434Y1123666D01*
X1292829Y1122761D01*
X1292616Y1121693D01*
Y1117268D01*
X1292829Y1116199D01*
X1293434Y1115294D01*
X1294339Y1114689D01*
X1295408Y1114476D01*
X1306333D01*
X1307401Y1114689D01*
X1308306Y1115294D01*
X1308911Y1116199D01*
X1309124Y1117268D01*
Y1121693D01*
X1308911Y1122761D01*
X1308306Y1123666D01*
X1307401Y1124271D01*
X1306333Y1124484D01*
X1304322D01*
Y1133754D01*
X1304068Y1135030D01*
X1303346Y1136111D01*
X1294709Y1144747D01*
X1293628Y1145470D01*
X1292352Y1145724D01*
X1270010D01*
Y1148990D01*
X1252210D01*
Y1135790D01*
X1256340D01*
X1257189Y1134520D01*
X1256864Y1133735D01*
Y1131945D01*
X1257189Y1131160D01*
X1256340Y1129890D01*
X1252210D01*
Y1116690D01*
Y1104040D01*
X1262367D01*
X1262602Y1102862D01*
X1263325Y1101780D01*
X1265791Y1099313D01*
X1265305Y1098140D01*
X1252210D01*
Y1094874D01*
X1220581D01*
X1215178Y1100277D01*
X1215664Y1101450D01*
X1229370D01*
Y1114650D01*
X1215422D01*
Y1117956D01*
X1215168Y1119232D01*
X1215136Y1119280D01*
X1215815Y1120550D01*
X1229370D01*
Y1133750D01*
X1211570D01*
Y1133750D01*
X1210424Y1133275D01*
X1207231Y1136468D01*
X1206150Y1137190D01*
X1204874Y1137444D01*
X1202547D01*
X1201060Y1138931D01*
Y1154440D01*
X1197794D01*
Y1172058D01*
X1197540Y1173334D01*
X1196817Y1174416D01*
X1166624Y1204609D01*
X1167150Y1205879D01*
X1180694D01*
X1181970Y1206133D01*
X1183051Y1206856D01*
X1190840Y1214644D01*
X1192110Y1214118D01*
Y1212771D01*
X1192808Y1210164D01*
X1194158Y1207826D01*
X1196066Y1205918D01*
X1198403Y1204568D01*
X1201010Y1203870D01*
X1203709D01*
X1206316Y1204568D01*
X1208653Y1205918D01*
X1210562Y1207826D01*
X1211911Y1210164D01*
X1212610Y1212771D01*
Y1215469D01*
X1211911Y1218076D01*
X1210562Y1220414D01*
X1208653Y1222322D01*
X1206316Y1223671D01*
X1203709Y1224370D01*
X1202362D01*
X1201835Y1225640D01*
X1281469Y1305274D01*
X1337056D01*
X1338332Y1305528D01*
X1339413Y1306250D01*
X1347542Y1314379D01*
X1348264Y1315460D01*
X1348518Y1316736D01*
Y1359408D01*
X1348377Y1360118D01*
X1349547Y1360744D01*
X1396818Y1313473D01*
D02*
G37*
G36*
X1105310Y1202680D02*
X1108576D01*
Y1198502D01*
X1108456Y1198404D01*
X1055316D01*
X1055060Y1198923D01*
X1054927Y1199674D01*
X1055963Y1200710D01*
X1056610Y1202272D01*
Y1203963D01*
X1056848Y1204320D01*
X1069350D01*
Y1207586D01*
X1076198D01*
X1077474Y1207840D01*
X1078082Y1208246D01*
X1086210D01*
Y1202680D01*
X1099410D01*
Y1218417D01*
X1105310D01*
Y1202680D01*
D02*
G37*
G36*
X994610Y1214159D02*
Y1213100D01*
X995138Y1211129D01*
X996159Y1209361D01*
X997602Y1207918D01*
X999369Y1206898D01*
X999732Y1205486D01*
X999485Y1205239D01*
X998800Y1203585D01*
Y1202905D01*
X960517Y1164622D01*
X937006D01*
X936750Y1164571D01*
X935768Y1165377D01*
Y1201563D01*
X941943Y1207738D01*
X975303D01*
X975790Y1206565D01*
X963825Y1194600D01*
X963145D01*
X961491Y1193915D01*
X960225Y1192649D01*
X959540Y1190995D01*
Y1189205D01*
X960225Y1187551D01*
X961491Y1186285D01*
X963145Y1185600D01*
X964935D01*
X966589Y1186285D01*
X967855Y1187551D01*
X968540Y1189205D01*
Y1189885D01*
X993340Y1214685D01*
X994610Y1214159D01*
D02*
G37*
G36*
X1133755Y1334997D02*
X1136816Y1334177D01*
X1139984D01*
X1141339Y1334540D01*
X1141996Y1333401D01*
X1047679Y1239083D01*
X1046956Y1238002D01*
X1046702Y1236726D01*
Y1223612D01*
X1046956Y1222336D01*
X1047263Y1221875D01*
X1046434Y1220830D01*
X1031220D01*
Y1202330D01*
X1034543D01*
X1035069Y1201060D01*
X1034545Y1200536D01*
X1033860Y1198883D01*
Y1197092D01*
X1034545Y1195438D01*
X1035811Y1194173D01*
X1037465Y1193487D01*
X1039255D01*
X1040909Y1194173D01*
X1041976Y1195239D01*
X1047846D01*
X1050372Y1192712D01*
X1051454Y1191990D01*
X1052730Y1191736D01*
X1107075D01*
X1115028Y1183783D01*
Y1177909D01*
X1113972Y1176853D01*
X1113250Y1175772D01*
X1112996Y1174496D01*
Y1159520D01*
X1109730D01*
Y1153954D01*
X1091280D01*
Y1159870D01*
X1075780D01*
Y1141370D01*
X1091280D01*
Y1147286D01*
X1109730D01*
Y1144925D01*
X1102975Y1138170D01*
X1092190D01*
Y1124970D01*
X1109990D01*
Y1135755D01*
X1115955Y1141720D01*
X1120870D01*
Y1123045D01*
X1113629Y1115804D01*
X1109990D01*
Y1119070D01*
X1092190D01*
Y1112044D01*
X995690D01*
Y1115310D01*
X977890D01*
Y1102110D01*
X995690D01*
Y1105376D01*
X1000395D01*
X1009625Y1096146D01*
X1009734Y1074060D01*
X1008838Y1073160D01*
X998580D01*
Y1058171D01*
X987960Y1045460D01*
X977890D01*
Y1042194D01*
X975073D01*
X967374Y1049893D01*
Y1055010D01*
X971790D01*
Y1073510D01*
X967374D01*
Y1075708D01*
X967855Y1076189D01*
X968540Y1077843D01*
Y1079633D01*
X967855Y1081287D01*
X966589Y1082553D01*
X964935Y1083238D01*
X963145D01*
X961491Y1082553D01*
X960225Y1081287D01*
X959540Y1079633D01*
Y1077843D01*
X960225Y1076189D01*
X960706Y1075708D01*
Y1073510D01*
X956290D01*
Y1055010D01*
X960706D01*
Y1048512D01*
X960960Y1047236D01*
X961683Y1046154D01*
X971335Y1036503D01*
X972416Y1035780D01*
X973692Y1035526D01*
X977890D01*
Y1032260D01*
X992915D01*
X993401Y1031087D01*
X988675Y1026360D01*
X977890D01*
Y1013160D01*
X995690D01*
Y1023945D01*
X1015564Y1043819D01*
X1015568Y1043826D01*
X1015575Y1043830D01*
X1015930Y1044367D01*
X1016286Y1044900D01*
X1016288Y1044909D01*
X1016292Y1044916D01*
X1016415Y1045546D01*
X1016540Y1046176D01*
X1016538Y1046184D01*
X1016540Y1046193D01*
X1016496Y1055153D01*
X1017765Y1055360D01*
X1030880D01*
Y1073160D01*
X1029163D01*
X1028376Y1074430D01*
X1028780Y1075405D01*
Y1077195D01*
X1028095Y1078849D01*
X1026829Y1080115D01*
X1025175Y1080800D01*
X1023385D01*
X1021731Y1080115D01*
X1020465Y1078849D01*
X1019780Y1077195D01*
Y1075405D01*
X1020184Y1074430D01*
X1019397Y1073160D01*
X1017680D01*
Y1072501D01*
X1016410Y1072498D01*
X1016286Y1097551D01*
X1016158Y1098179D01*
X1016032Y1098810D01*
X1016028Y1098817D01*
X1016026Y1098825D01*
X1015666Y1099359D01*
X1015310Y1099892D01*
X1010998Y1104203D01*
X1011485Y1105376D01*
X1085485D01*
X1097756Y1093105D01*
Y1085070D01*
X1097275Y1084589D01*
X1096590Y1082935D01*
Y1081145D01*
X1097275Y1079491D01*
X1098541Y1078225D01*
X1100195Y1077540D01*
X1101985D01*
X1103639Y1078225D01*
X1104905Y1079491D01*
X1105590Y1081145D01*
Y1082935D01*
X1104905Y1084589D01*
X1104424Y1085070D01*
Y1094486D01*
X1104170Y1095762D01*
X1103448Y1096843D01*
X1095977Y1104314D01*
X1095975Y1104323D01*
X1096010Y1104826D01*
X1096269Y1105765D01*
X1096498Y1105847D01*
X1096537Y1105870D01*
X1109990D01*
Y1109136D01*
X1115010D01*
X1116286Y1109390D01*
X1117368Y1110113D01*
X1124523Y1117268D01*
X1125696Y1116781D01*
Y1080119D01*
X1125148Y1079572D01*
X1124426Y1078490D01*
X1124172Y1077214D01*
Y1073228D01*
X1122930Y1073160D01*
X1122902Y1073160D01*
X1119664D01*
Y1096028D01*
X1120145Y1096509D01*
X1120830Y1098163D01*
Y1099953D01*
X1120145Y1101607D01*
X1118879Y1102873D01*
X1117225Y1103558D01*
X1115435D01*
X1113781Y1102873D01*
X1112515Y1101607D01*
X1111830Y1099953D01*
Y1098163D01*
X1112515Y1096509D01*
X1112996Y1096028D01*
Y1073160D01*
X1109730D01*
Y1067594D01*
X1109629D01*
X1108353Y1067340D01*
X1107271Y1066618D01*
X1104858Y1064204D01*
X1091280D01*
Y1073510D01*
X1075780D01*
Y1055010D01*
X1091280D01*
Y1057536D01*
X1106239D01*
X1107515Y1057790D01*
X1108460Y1058421D01*
X1109391Y1058183D01*
X1109730Y1058043D01*
Y1055360D01*
X1109730Y1055360D01*
X1109730D01*
X1109252Y1054277D01*
X1102975Y1048000D01*
X1092190D01*
Y1035590D01*
X1092190Y1034800D01*
X1091119Y1034320D01*
X1048512D01*
X1047236Y1034066D01*
X1046154Y1033344D01*
X1040923Y1028112D01*
X1040200Y1027030D01*
X1039946Y1025754D01*
Y1023630D01*
X1036680D01*
Y1005850D01*
X1036680Y1005830D01*
Y1004580D01*
X1036680Y1004560D01*
Y986780D01*
X1039946D01*
Y982472D01*
X1040200Y981196D01*
X1040923Y980115D01*
X1046154Y974883D01*
X1047236Y974160D01*
X1048512Y973906D01*
X1060455D01*
X1061024Y973054D01*
X1061929Y972449D01*
X1062998Y972236D01*
X1073923D01*
X1073931Y972238D01*
X1074557Y971068D01*
X1072785Y969296D01*
X1061720D01*
X1060444Y969042D01*
X1059362Y968319D01*
X1056569Y965526D01*
X1055846Y964444D01*
X1055592Y963168D01*
Y940308D01*
X1055789Y939315D01*
X1055771Y939221D01*
X1055279Y938448D01*
X1054941Y938100D01*
X1052652D01*
X1049854Y937350D01*
X1047346Y935902D01*
X1045298Y933854D01*
X1043850Y931346D01*
X1043100Y928548D01*
Y925652D01*
X1043792Y923068D01*
X1043456Y922368D01*
X1042993Y921798D01*
X1019190D01*
Y935670D01*
X1005190D01*
Y917670D01*
X1009014D01*
X1009110Y917188D01*
X1009833Y916106D01*
X1010914Y915384D01*
X1012190Y915130D01*
X1045464D01*
X1046740Y915384D01*
X1047822Y916106D01*
X1049037Y917322D01*
X1049854Y916850D01*
X1052652Y916100D01*
X1055548D01*
X1055756Y916156D01*
X1056391Y915056D01*
X1053120Y911785D01*
X1041039D01*
X1039763Y911532D01*
X1038682Y910809D01*
X1037167Y909294D01*
X1035784Y909707D01*
X1035309Y910853D01*
X1034043Y912119D01*
X1032389Y912804D01*
X1030599D01*
X1029960Y912539D01*
X1028690Y913388D01*
Y913670D01*
X1014690D01*
Y897668D01*
X980805D01*
X978440Y900033D01*
Y903330D01*
X981720D01*
Y916530D01*
X963920D01*
Y903330D01*
X971772D01*
Y898652D01*
X972026Y897376D01*
X972748Y896294D01*
X977066Y891976D01*
X978148Y891254D01*
X979424Y891000D01*
X1029970D01*
X1031246Y891254D01*
X1032327Y891976D01*
X1033050Y893058D01*
X1033304Y894334D01*
Y896001D01*
X1042420Y905117D01*
X1051578D01*
X1052064Y903944D01*
X1049202Y901082D01*
X1048480Y900001D01*
X1048226Y898725D01*
Y880475D01*
X1047131Y879380D01*
X943721D01*
X935768Y887333D01*
Y933648D01*
X936941Y934134D01*
X944403Y926672D01*
X945484Y925950D01*
X946760Y925696D01*
X963920D01*
Y922430D01*
X981720D01*
Y935450D01*
X996544D01*
X997820Y935704D01*
X998902Y936426D01*
X1003535Y941060D01*
X1011780D01*
Y958860D01*
X998580D01*
Y945535D01*
X995163Y942118D01*
X971790D01*
Y959210D01*
X956290D01*
Y942118D01*
X940419D01*
X940340Y942197D01*
Y1157954D01*
X956290D01*
Y1141370D01*
X971790D01*
Y1147286D01*
X982361D01*
X982654Y1146992D01*
X983736Y1146270D01*
X985012Y1146016D01*
X998580D01*
Y1144315D01*
X988675Y1134410D01*
X977890D01*
Y1121210D01*
X995690D01*
Y1124476D01*
X1024178D01*
X1025454Y1124730D01*
X1026535Y1125452D01*
X1047314Y1146230D01*
X1048036Y1147312D01*
X1048290Y1148588D01*
Y1185233D01*
X1048771Y1185714D01*
X1049456Y1187368D01*
Y1189158D01*
X1048771Y1190812D01*
X1047505Y1192078D01*
X1045851Y1192763D01*
X1044061D01*
X1042407Y1192078D01*
X1041141Y1190812D01*
X1040456Y1189158D01*
Y1187368D01*
X1041141Y1185714D01*
X1041622Y1185233D01*
Y1149969D01*
X1032150Y1140497D01*
X1030880Y1141023D01*
Y1158250D01*
X1027614D01*
Y1188568D01*
X1027360Y1189844D01*
X1026637Y1190926D01*
X1015270Y1202293D01*
Y1218876D01*
X1015460Y1218914D01*
X1016541Y1219637D01*
X1132580Y1335676D01*
X1133755Y1334997D01*
D02*
G37*
G36*
X1152112Y1202325D02*
Y1146561D01*
X1148015Y1142464D01*
X1146842Y1142950D01*
Y1204976D01*
X1146638Y1206003D01*
X1147386Y1206616D01*
X1147685Y1206752D01*
X1152112Y1202325D01*
D02*
G37*
G36*
X1199029Y1138671D02*
X1198928Y1138652D01*
X1198875Y1138599D01*
X1198871Y1138509D01*
X1198915Y1138383D01*
X1199007Y1138222D01*
X1199149Y1138024D01*
X1199338Y1137790D01*
X1199863Y1137216D01*
X1200198Y1136874D01*
X1196606D01*
X1196242Y1137220D01*
X1195880Y1137529D01*
X1195519Y1137802D01*
X1195158Y1138039D01*
X1194799Y1138240D01*
X1194440Y1138404D01*
X1194082Y1138533D01*
X1193725Y1138625D01*
X1193369Y1138681D01*
X1193013Y1138701D01*
X1199029Y1138671D01*
D02*
G37*
G36*
X1008669Y1200574D02*
X1008856Y1199636D01*
X1009578Y1198555D01*
X1020946Y1187187D01*
Y1158250D01*
X1017680D01*
Y1140450D01*
X1030307D01*
X1030833Y1139180D01*
X1022797Y1131144D01*
X996635D01*
X996109Y1132414D01*
X1004145Y1140450D01*
X1011780D01*
Y1158250D01*
X998580D01*
Y1152684D01*
X986393D01*
X986099Y1152978D01*
X985018Y1153700D01*
X983742Y1153954D01*
X971790D01*
Y1159870D01*
X966854D01*
X966368Y1161043D01*
X1003515Y1198190D01*
X1004195D01*
X1005849Y1198875D01*
X1007115Y1200141D01*
X1007379Y1200779D01*
X1008669Y1200574D01*
D02*
G37*
G36*
X1132096Y1204720D02*
Y1159520D01*
X1128830D01*
Y1141720D01*
X1138394D01*
X1138880Y1140547D01*
X1128711Y1130378D01*
X1127538Y1130864D01*
Y1185824D01*
X1127284Y1187100D01*
X1126562Y1188181D01*
X1115244Y1199499D01*
Y1202680D01*
X1118510D01*
Y1216647D01*
X1119683Y1217133D01*
X1132096Y1204720D01*
D02*
G37*
G36*
X1191126Y1170677D02*
Y1154440D01*
X1187860D01*
Y1148219D01*
X1187378Y1147897D01*
X1186656Y1146816D01*
X1186402Y1145540D01*
X1186656Y1144264D01*
X1187378Y1143183D01*
X1187860Y1142701D01*
Y1136640D01*
X1193221D01*
X1193310Y1136626D01*
X1193481Y1136582D01*
X1193669Y1136515D01*
X1193876Y1136420D01*
X1194100Y1136295D01*
X1194343Y1136135D01*
X1194602Y1135939D01*
X1194737Y1135824D01*
X1197284Y1133277D01*
X1196798Y1132104D01*
X1191268D01*
X1190200Y1131891D01*
X1189294Y1131286D01*
X1188689Y1130381D01*
X1188476Y1129313D01*
Y1124888D01*
X1188689Y1123820D01*
X1189294Y1122914D01*
X1190200Y1122309D01*
X1191268Y1122096D01*
X1202193D01*
X1203060Y1122269D01*
X1205502Y1119827D01*
X1204693Y1118840D01*
X1204220Y1119156D01*
X1202944Y1119410D01*
X1190752D01*
X1189476Y1119156D01*
X1188394Y1118434D01*
X1183275Y1113314D01*
X1167749D01*
X1166908Y1114155D01*
Y1123696D01*
X1166654Y1124972D01*
X1165931Y1126053D01*
X1160598Y1131387D01*
X1159516Y1132110D01*
X1158240Y1132364D01*
X1152144D01*
X1150868Y1132110D01*
X1149787Y1131387D01*
X1147755Y1129355D01*
X1147032Y1128274D01*
X1146778Y1126998D01*
Y1060561D01*
X1143203Y1056986D01*
X1142030Y1057472D01*
Y1073160D01*
X1138764D01*
Y1123783D01*
X1157803Y1142822D01*
X1158526Y1143904D01*
X1158780Y1145180D01*
Y1201364D01*
X1159953Y1201850D01*
X1191126Y1170677D01*
D02*
G37*
G36*
X1274170Y1090935D02*
Y1073140D01*
X1287370D01*
Y1082096D01*
X1288640Y1082945D01*
X1289425Y1082620D01*
X1291215D01*
X1292000Y1082945D01*
X1293270Y1082096D01*
Y1073140D01*
X1293614D01*
X1294095Y1072018D01*
X1293383Y1071150D01*
X1258552D01*
X1258071Y1071631D01*
X1256417Y1072316D01*
X1254627D01*
X1252973Y1071631D01*
X1251707Y1070365D01*
X1251022Y1068711D01*
Y1066921D01*
X1251707Y1065267D01*
X1252973Y1064001D01*
X1253217Y1063900D01*
X1252965Y1062630D01*
X1243870D01*
Y1083564D01*
X1243616Y1084840D01*
X1242894Y1085921D01*
X1241782Y1087033D01*
X1242268Y1088206D01*
X1252210D01*
Y1084940D01*
X1270010D01*
Y1093436D01*
X1271183Y1093922D01*
X1274170Y1090935D01*
D02*
G37*
G36*
X1203981Y1102550D02*
X1204148Y1102374D01*
X1204182Y1102202D01*
X1204904Y1101121D01*
X1216842Y1089183D01*
X1217924Y1088460D01*
X1218065Y1088432D01*
X1218483Y1087054D01*
X1210961Y1079532D01*
X1169365D01*
X1168954Y1080802D01*
X1169929Y1081777D01*
X1170034Y1082030D01*
X1183230D01*
Y1099280D01*
X1189130D01*
Y1082030D01*
X1202330D01*
Y1099830D01*
X1200064D01*
Y1103096D01*
X1202193D01*
X1202689Y1103195D01*
X1203981Y1102550D01*
D02*
G37*
G36*
X1237202Y1082183D02*
Y1077457D01*
X1236146Y1076752D01*
X1235861Y1076870D01*
X1234171D01*
X1232609Y1076223D01*
X1231413Y1075027D01*
X1230766Y1073465D01*
Y1071774D01*
X1231413Y1070212D01*
X1231682Y1069943D01*
Y1066778D01*
X1231540Y1066565D01*
X1231286Y1065290D01*
Y1047760D01*
X1224690D01*
Y1036189D01*
X1223517Y1035703D01*
X1220287Y1038932D01*
X1219206Y1039654D01*
X1218790Y1039737D01*
Y1047760D01*
X1205590D01*
Y1029960D01*
X1218790D01*
X1218790Y1029960D01*
X1219930Y1029646D01*
Y1005942D01*
X1220184Y1004666D01*
X1220907Y1003585D01*
X1222939Y1001553D01*
X1224020Y1000830D01*
X1224217Y1000791D01*
X1224249Y1000630D01*
X1224854Y999724D01*
X1225760Y999119D01*
X1226828Y998906D01*
X1237753D01*
X1238821Y999119D01*
X1239726Y999724D01*
X1240331Y1000630D01*
X1240544Y1001698D01*
Y1006123D01*
X1240331Y1007191D01*
X1239726Y1008096D01*
X1238821Y1008701D01*
X1237753Y1008914D01*
X1226828D01*
X1226598Y1009102D01*
Y1012180D01*
X1237890D01*
X1238854Y1011442D01*
X1246600Y1003697D01*
Y995320D01*
X1243320D01*
Y982120D01*
X1257153D01*
X1264010Y975263D01*
Y967730D01*
X1277210D01*
Y985530D01*
X1264010D01*
X1264010Y985530D01*
Y985530D01*
X1262839Y985864D01*
X1261120Y987583D01*
Y995320D01*
X1253268D01*
Y1005078D01*
X1253014Y1006354D01*
X1252291Y1007436D01*
X1243870Y1015857D01*
Y1030330D01*
X1259850D01*
Y1033304D01*
X1261120Y1033475D01*
X1262169Y1032426D01*
X1261944Y1031881D01*
Y1030091D01*
X1262629Y1028437D01*
X1263895Y1027171D01*
X1265549Y1026486D01*
X1267339D01*
X1268993Y1027171D01*
X1269474Y1027652D01*
X1271230D01*
Y1023920D01*
X1285230D01*
Y1040487D01*
X1286500Y1041013D01*
X1294352Y1033161D01*
Y1019920D01*
X1280730D01*
Y1001920D01*
X1284396D01*
Y994612D01*
X1284650Y993336D01*
X1285373Y992254D01*
X1286376Y991251D01*
Y985530D01*
X1283110D01*
Y967730D01*
X1294352D01*
Y964041D01*
X1289944Y959633D01*
X1237890D01*
Y975370D01*
X1236228D01*
X1235624Y976106D01*
Y979906D01*
X1237753D01*
X1238821Y980119D01*
X1239726Y980724D01*
X1240331Y981629D01*
X1240544Y982697D01*
Y987122D01*
X1240331Y988191D01*
X1239726Y989096D01*
X1238821Y989701D01*
X1237753Y989913D01*
X1226828D01*
X1225760Y989701D01*
X1224854Y989096D01*
X1224285Y988244D01*
X1182123D01*
X1133467Y1036900D01*
X1133993Y1038170D01*
X1134497D01*
X1136151Y1038855D01*
X1137417Y1040121D01*
X1138102Y1041775D01*
Y1042455D01*
X1152469Y1056823D01*
X1153192Y1057904D01*
X1153446Y1059180D01*
Y1077021D01*
X1154716Y1077547D01*
X1158422Y1073840D01*
X1159504Y1073118D01*
X1160780Y1072864D01*
X1212342D01*
X1213618Y1073118D01*
X1214699Y1073840D01*
X1223375Y1082516D01*
X1236869D01*
X1237202Y1082183D01*
D02*
G37*
G36*
X1343650Y1126850D02*
X1359387D01*
Y1111270D01*
X1307481Y1059364D01*
X1259850D01*
Y1062630D01*
X1258857D01*
X1258305Y1063900D01*
X1258849Y1064482D01*
X1294790D01*
X1296066Y1064736D01*
X1297147Y1065459D01*
X1302227Y1070538D01*
X1302950Y1071620D01*
X1303204Y1072896D01*
Y1073140D01*
X1306470D01*
Y1090940D01*
X1304808D01*
X1304204Y1091676D01*
Y1095476D01*
X1306333D01*
X1307401Y1095689D01*
X1308306Y1096294D01*
X1308911Y1097199D01*
X1308913Y1097206D01*
X1309884Y1097400D01*
X1310966Y1098122D01*
X1321125Y1108282D01*
X1321848Y1109364D01*
X1322102Y1110640D01*
Y1125973D01*
X1322343Y1126214D01*
X1323330Y1126850D01*
Y1126850D01*
X1323330Y1126850D01*
X1341130D01*
Y1130116D01*
X1343650D01*
Y1126850D01*
D02*
G37*
G36*
X1284323Y1043190D02*
X1283797Y1041920D01*
X1271230D01*
Y1036254D01*
X1267771D01*
X1264737Y1039288D01*
X1263656Y1040010D01*
X1262380Y1040264D01*
X1259850D01*
Y1043530D01*
X1243870D01*
Y1049430D01*
X1259850D01*
Y1052696D01*
X1274817D01*
X1284323Y1043190D01*
D02*
G37*
G36*
X1122902Y1055360D02*
X1122930Y1055360D01*
X1124172Y1055292D01*
Y1038146D01*
X1124426Y1036870D01*
X1125148Y1035789D01*
X1125387Y1035550D01*
X1125361Y1035354D01*
X1124821Y1034320D01*
X1111061D01*
X1109990Y1034800D01*
X1109990Y1035590D01*
Y1045585D01*
X1118688Y1054283D01*
X1119408Y1055360D01*
X1122902D01*
D02*
G37*
G36*
X1092190Y1015700D02*
X1097756D01*
Y994267D01*
X1077883Y974394D01*
X1076712Y975019D01*
X1076714Y975028D01*
Y979453D01*
X1076501Y980521D01*
X1075896Y981426D01*
X1074991Y982031D01*
X1073923Y982244D01*
X1062998D01*
X1061929Y982031D01*
X1061024Y981426D01*
X1060455Y980574D01*
X1049893D01*
X1046614Y983853D01*
Y986780D01*
X1049880D01*
Y991740D01*
X1051150Y992266D01*
X1051551Y991865D01*
X1053205Y991180D01*
X1054995D01*
X1055780Y990656D01*
Y986780D01*
X1068980D01*
Y995320D01*
X1069411Y995609D01*
X1070134Y996690D01*
X1070388Y997966D01*
Y1015492D01*
X1070134Y1016768D01*
X1069411Y1017850D01*
X1068980Y1018138D01*
Y1023630D01*
X1055780D01*
Y1005830D01*
X1055780D01*
Y1004580D01*
X1055780D01*
Y1000704D01*
X1054995Y1000180D01*
X1053205D01*
X1051551Y999495D01*
X1051150Y999094D01*
X1049880Y999620D01*
Y1004560D01*
X1049880Y1004580D01*
Y1005830D01*
X1049880Y1005850D01*
Y1023630D01*
X1047667D01*
X1047141Y1024900D01*
X1049893Y1027652D01*
X1092190D01*
Y1015700D01*
D02*
G37*
G36*
X1145000Y987021D02*
Y980080D01*
X1129020D01*
Y980080D01*
X1127770D01*
Y980080D01*
X1109970D01*
Y980080D01*
X1108720D01*
Y980080D01*
X1094658D01*
X1094172Y981253D01*
X1103447Y990528D01*
X1104170Y991610D01*
X1104424Y992886D01*
Y1015700D01*
X1109990D01*
Y1018966D01*
X1113055D01*
X1145000Y987021D01*
D02*
G37*
G36*
X1176964Y974527D02*
X1178046Y973804D01*
X1179322Y973550D01*
X1205590D01*
Y969804D01*
X1171647D01*
X1150692Y990759D01*
X1116793Y1024658D01*
X1115712Y1025380D01*
X1114436Y1025634D01*
X1109990D01*
Y1027652D01*
X1123839D01*
X1176964Y974527D01*
D02*
G37*
G36*
X1363927Y1104720D02*
Y977185D01*
X1354875Y968133D01*
X1354195D01*
X1352541Y967448D01*
X1351275Y966182D01*
X1350590Y964528D01*
Y962738D01*
X1351275Y961084D01*
X1352541Y959818D01*
X1352729Y958871D01*
X1351205Y957346D01*
X1350525D01*
X1348871Y956661D01*
X1347605Y955396D01*
X1347480Y955093D01*
X1296494D01*
X1296008Y956267D01*
X1300043Y960302D01*
X1300766Y961384D01*
X1301020Y962660D01*
Y1034542D01*
X1300766Y1035818D01*
X1300043Y1036900D01*
X1285421Y1051523D01*
X1285907Y1052696D01*
X1308862D01*
X1310138Y1052950D01*
X1311219Y1053672D01*
X1362753Y1105206D01*
X1363927Y1104720D01*
D02*
G37*
G36*
Y947553D02*
Y853276D01*
X1360868Y850217D01*
X1359598Y850743D01*
Y851295D01*
X1358913Y852949D01*
X1357647Y854214D01*
X1355993Y854900D01*
X1354203D01*
X1352549Y854214D01*
X1351283Y852949D01*
X1351098Y852503D01*
X1328423D01*
X1327717Y853559D01*
X1327844Y853865D01*
Y855555D01*
X1327197Y857117D01*
X1326001Y858313D01*
X1324439Y858960D01*
X1324059D01*
X1321229Y861790D01*
X1321279Y862226D01*
X1321666Y863060D01*
X1338326D01*
X1339602Y863314D01*
X1340683Y864036D01*
X1348897Y872250D01*
X1349577D01*
X1351231Y872935D01*
X1352497Y874201D01*
X1353182Y875855D01*
Y877645D01*
X1352497Y879299D01*
X1351231Y880565D01*
X1349577Y881250D01*
X1347787D01*
X1346133Y880565D01*
X1344867Y879299D01*
X1344182Y877645D01*
Y876965D01*
X1336945Y869728D01*
X1237216D01*
X1236735Y870209D01*
X1235081Y870894D01*
X1233291D01*
X1231637Y870209D01*
X1230371Y868943D01*
X1229686Y867289D01*
Y866483D01*
X1228416Y865957D01*
X1226598Y867775D01*
Y871363D01*
X1247355Y892120D01*
X1248035D01*
X1249689Y892805D01*
X1250955Y894071D01*
X1251640Y895725D01*
Y896405D01*
X1295615Y940380D01*
X1296295D01*
X1297949Y941065D01*
X1299215Y942331D01*
X1299900Y943985D01*
Y945775D01*
X1299328Y947155D01*
X1299878Y948425D01*
X1350335D01*
X1350525Y948346D01*
X1352315D01*
X1352506Y948425D01*
X1362223D01*
X1362657Y948512D01*
X1363927Y947553D01*
D02*
G37*
G36*
X1162651Y969370D02*
X1162299Y969019D01*
X1161614Y967365D01*
Y965575D01*
X1162299Y963921D01*
X1163565Y962655D01*
X1165219Y961970D01*
X1167009D01*
X1168663Y962655D01*
X1169144Y963136D01*
X1205590D01*
Y957570D01*
X1209282D01*
X1209833Y956747D01*
X1217095Y949484D01*
X1217063Y949135D01*
X1216669Y948214D01*
X1146820D01*
Y958565D01*
X1150692Y962437D01*
X1151414Y963518D01*
X1151668Y964794D01*
Y978693D01*
X1152841Y979179D01*
X1162651Y969370D01*
D02*
G37*
G36*
X1088612Y918860D02*
Y915273D01*
X1083493Y910154D01*
X1082770Y909072D01*
X1082516Y907796D01*
Y905150D01*
X1076950D01*
Y901884D01*
X1073200D01*
X1071924Y901630D01*
X1070842Y900907D01*
X1065295Y895360D01*
X1054894D01*
Y897344D01*
X1073657Y916106D01*
X1074380Y917188D01*
X1075254Y916850D01*
X1078052Y916100D01*
X1080948D01*
X1083746Y916850D01*
X1086254Y918298D01*
X1087342Y919386D01*
X1088612Y918860D01*
D02*
G37*
G36*
X1122862Y947094D02*
X1127434Y942523D01*
X1128516Y941800D01*
X1129792Y941546D01*
X1285692D01*
X1286178Y940373D01*
X1246925Y901120D01*
X1246245D01*
X1244591Y900435D01*
X1243325Y899169D01*
X1242640Y897515D01*
Y896835D01*
X1220907Y875101D01*
X1220184Y874020D01*
X1219930Y872744D01*
Y866394D01*
X1220184Y865118D01*
X1220907Y864036D01*
X1227765Y857178D01*
X1227990Y857028D01*
X1227604Y855758D01*
X1200386D01*
X1199905Y856239D01*
X1198251Y856924D01*
X1196461D01*
X1195356Y856466D01*
X1194086Y857177D01*
Y865988D01*
X1193832Y867264D01*
X1193110Y868346D01*
X1114848Y946607D01*
X1115334Y947780D01*
X1122404D01*
X1122862Y947094D01*
D02*
G37*
G36*
X1371568Y850058D02*
Y841613D01*
X1364123Y834168D01*
X1204325D01*
X1194086Y844407D01*
Y847671D01*
X1195356Y848382D01*
X1196461Y847924D01*
X1198251D01*
X1199905Y848609D01*
X1200386Y849090D01*
X1300591D01*
X1301117Y847820D01*
X1300475Y847178D01*
X1299790Y845524D01*
Y843734D01*
X1300475Y842080D01*
X1301741Y840814D01*
X1303395Y840129D01*
X1305185D01*
X1306839Y840814D01*
X1307320Y841295D01*
X1359995D01*
X1361271Y841549D01*
X1362353Y842272D01*
X1369618Y849537D01*
X1370298Y850554D01*
X1370392Y850571D01*
X1371568Y850058D01*
D02*
G37*
%LPC*%
G36*
X1025175Y975136D02*
X1023385D01*
X1021731Y974451D01*
X1020465Y973185D01*
X1019780Y971531D01*
Y969741D01*
X1020465Y968087D01*
X1020946Y967606D01*
Y958860D01*
X1017680D01*
Y941060D01*
X1030880D01*
Y958860D01*
X1027614D01*
Y967606D01*
X1028095Y968087D01*
X1028780Y969741D01*
Y971531D01*
X1028095Y973185D01*
X1026829Y974451D01*
X1025175Y975136D01*
D02*
G37*
%LPD*%
D14*
X1052962Y1203719D02*
Y1205732D01*
X1058150Y1210920D01*
X1049347Y1205600D02*
X1051830Y1203118D01*
X1043450Y1205600D02*
X1049347D01*
X1051830Y1203118D02*
X1052360D01*
X1052175Y1202933D02*
X1052962Y1203719D01*
X1108456Y1195070D02*
X1118362Y1185164D01*
X1052730Y1195070D02*
X1108456D01*
X1038360Y1197987D02*
X1038831Y1198458D01*
X1040686Y1198573D02*
X1049227D01*
X1040570Y1198458D02*
X1040686Y1198573D01*
X1038831Y1198458D02*
X1040570D01*
X1049227Y1198573D02*
X1052730Y1195070D01*
X1038523Y1189990D02*
X1042566Y1194033D01*
X1047346D02*
X1051135Y1190244D01*
X1101344D01*
X1020970Y1204070D02*
X1035050Y1189990D01*
X1038523D01*
X1101344Y1190244D02*
X1112520Y1179068D01*
X1042566Y1194033D02*
X1047346D01*
X1058150Y1210920D02*
X1076198D01*
X1038970Y1210080D02*
Y1211580D01*
Y1210080D02*
X1043450Y1205600D01*
X1050036Y1223612D02*
X1053177Y1220470D01*
X1083553D01*
X1050036Y1223612D02*
Y1236726D01*
X1084834Y1221751D02*
X1119780D01*
X1083553Y1220470D02*
X1084834Y1221751D01*
X1050036Y1236726D02*
X1151890Y1338580D01*
X1119780Y1221751D02*
X1135430Y1206101D01*
X1234620Y1042190D02*
Y1065290D01*
X1235016Y1065686D02*
Y1072620D01*
X1234620Y1065290D02*
X1235016Y1065686D01*
X1231290Y1038860D02*
X1234620Y1042190D01*
X1221994Y1085850D02*
X1238250D01*
X1240536Y1014476D02*
Y1083564D01*
X1238250Y1085850D02*
X1240536Y1083564D01*
X1212342Y1076198D02*
X1221994Y1085850D01*
X1367261Y968687D02*
Y975804D01*
X1170432Y1088644D02*
X1176630D01*
X1170266Y966470D02*
X1177494D01*
X1219535Y951759D02*
X1362223D01*
X1367261Y956797D02*
Y968687D01*
Y851895D02*
Y956797D01*
Y975804D02*
Y1145815D01*
X1001776Y1108710D02*
X1086866D01*
X1094790D01*
X1148334Y988402D02*
X1170266Y966470D01*
X1166114D02*
X1170266D01*
X975106Y898652D02*
Y909930D01*
X1265682Y1104138D02*
Y1110640D01*
X1280770Y1087120D02*
X1290320D01*
X1280770D02*
Y1089050D01*
X1247140Y896620D02*
X1295400Y944880D01*
X1223264Y872744D02*
X1247140Y896620D01*
X1125220Y949452D02*
Y954380D01*
X1324864Y1152550D02*
Y1213866D01*
X1276198Y1056030D02*
X1308862D01*
X1186688Y1028446D02*
X1212190D01*
X1013206Y1024526D02*
Y1028700D01*
Y980694D02*
Y1024526D01*
Y940308D02*
Y980694D01*
X1002690Y914400D02*
Y934720D01*
Y904670D02*
Y914400D01*
X969374Y980694D02*
X1013206Y1024526D01*
X946040Y957359D02*
X969374Y980694D01*
X1013206D02*
X1027430D01*
X969374D02*
X1013206D01*
X961390Y938784D02*
X996544D01*
X937006D02*
Y940816D01*
X1189736Y1145540D02*
X1201166Y1134110D01*
X1196730Y1102614D02*
Y1108100D01*
Y1099804D02*
Y1102614D01*
X1196467Y1099541D02*
X1196730Y1102614D01*
X1195730Y1090930D02*
X1196467Y1099541D01*
X1196730Y1099804D01*
X1195730Y1098804D02*
X1196467Y1099541D01*
X1249934Y988720D02*
Y1005078D01*
X1212190Y1036574D02*
X1217930D01*
X1083530Y1060870D02*
X1106239D01*
X1300988Y1119480D02*
Y1133754D01*
X1062380Y1015492D02*
X1067054D01*
Y997966D02*
Y1015492D01*
X1062380Y997966D02*
X1067054D01*
X1012190Y918464D02*
X1045464D01*
X1021690Y908304D02*
X1031494D01*
X1266390Y1032920D02*
X1278230D01*
X1266444Y1030986D02*
X1278230D01*
X1261364Y1123290D02*
Y1132840D01*
X1166114Y1084326D02*
X1170432Y1088644D01*
X1176630D02*
Y1090930D01*
X1101090Y1082040D02*
Y1094486D01*
X1086866Y1108710D02*
X1101090Y1094486D01*
X1114436Y1022300D02*
X1148334Y988402D01*
Y964794D02*
Y988402D01*
X1137920Y954380D02*
X1148334Y964794D01*
X1177494Y966470D02*
X1212190D01*
X1101090Y1022300D02*
X1114436D01*
X1355090Y963633D02*
X1367261Y975804D01*
X972820Y909930D02*
X975106D01*
Y898652D02*
X979424Y894334D01*
X1029970D01*
Y897382D01*
X1041039Y908451D01*
X1054501D01*
X1066546Y920496D01*
Y932688D01*
X1058926Y940308D02*
X1066546Y932688D01*
X1058926Y940308D02*
Y963168D01*
X1061720Y965962D01*
X1074166D01*
X1101090Y992886D01*
Y1022300D01*
X1099820Y954380D02*
X1102360D01*
X1190752Y865988D01*
Y843026D02*
Y865988D01*
Y843026D02*
X1202944Y830834D01*
X1365504D01*
X1374902Y840232D01*
Y1151128D01*
X1365504Y1160526D02*
X1374902Y1151128D01*
X1342644Y1160526D02*
X1365504D01*
X1340358Y1152550D02*
X1342644Y1160526D01*
X1332230Y1152550D02*
X1340358D01*
X1027430Y980694D02*
X1040384Y967740D01*
X1047360D01*
X946040Y949960D02*
Y957359D01*
X1024128Y1039622D02*
X1056640D01*
X1065530Y1048512D02*
Y1064260D01*
X1212190Y1021080D02*
Y1028446D01*
X1020970Y1204070D02*
Y1211580D01*
X1065530Y1150620D02*
Y1170432D01*
X1074166Y1179068D01*
X1112520D01*
X1175360Y1145540D02*
Y1168940D01*
X1002690Y934720D02*
X1004976Y937006D01*
X1009904D01*
X1013206Y940308D01*
Y1028700D02*
X1024128Y1039622D01*
X1056640D02*
X1065530Y1048512D01*
X1005180Y947420D02*
Y949960D01*
X996544Y938784D02*
X1005180Y947420D01*
X937006Y1161288D02*
X961898D01*
X1110046Y1387856D02*
X1123400Y1401210D01*
X1090676Y1387856D02*
X1110046D01*
X1000760Y1297940D02*
X1090676Y1387856D01*
X1000760Y1233241D02*
Y1297940D01*
X978591Y1211072D02*
X1000760Y1233241D01*
X940562Y1211072D02*
X978591D01*
X932434Y1202944D02*
X940562Y1211072D01*
X932434Y885952D02*
Y1202944D01*
Y885952D02*
X942340Y876046D01*
X1048512D01*
X1051560Y879094D01*
Y898725D01*
X1071299Y918464D01*
Y918899D01*
X1079500Y927100D01*
X1012190Y918464D02*
Y926670D01*
X1045464Y918464D02*
X1054100Y927100D01*
X1278230Y1030986D02*
Y1032920D01*
X1261110Y1123290D02*
X1261364D01*
X964040Y1190100D02*
X1051560Y1277620D01*
X964040Y1064260D02*
Y1078738D01*
X1118362Y1176528D02*
Y1185164D01*
X1116330Y1174496D02*
X1118362Y1176528D01*
X1116330Y1150620D02*
Y1174496D01*
X1249934Y988720D02*
X1252220D01*
X1240536Y1014476D02*
X1249934Y1005078D01*
X1160780Y1076198D02*
X1212342D01*
X1155954Y1081024D02*
X1160780Y1076198D01*
X1155954Y1081024D02*
Y1123042D01*
X1073200Y898550D02*
X1085850D01*
X1061110Y886460D02*
X1073200Y898550D01*
X1152906Y1222248D02*
X1165941Y1209213D01*
X1180694D01*
X1280088Y1308608D01*
X1337056D01*
X1345184Y1316736D01*
Y1359408D01*
X1265079Y1439513D02*
X1345184Y1359408D01*
X1211703Y1439513D02*
X1265079D01*
X1198400Y1426210D02*
X1211703Y1439513D01*
X1270953Y1444053D02*
X1401318Y1313688D01*
X1060557Y1444053D02*
X1270953D01*
X1057402Y1440898D02*
X1060557Y1444053D01*
X1057402Y1429512D02*
Y1440898D01*
X964040Y941434D02*
Y949960D01*
X961390Y938784D02*
X964040Y941434D01*
X939038Y938784D02*
X961390D01*
X937006Y940816D02*
X939038Y938784D01*
X937006Y940816D02*
Y1161288D01*
X961898D02*
X1003300Y1202690D01*
X946040Y1064260D02*
Y1129792D01*
X1292352Y1195578D02*
X1304290Y1183640D01*
X1292352Y1195578D02*
Y1259332D01*
X1325118Y1292098D01*
X1398778D01*
X1407160Y1300480D01*
Y1335278D01*
X1293622Y1448816D02*
X1407160Y1335278D01*
X1055878Y1448816D02*
X1293622D01*
X1045718Y1438656D02*
X1055878Y1448816D01*
X1045718Y1432130D02*
Y1438656D01*
Y1432130D02*
X1055448Y1422400D01*
X1061805D01*
X1065097Y1425692D01*
Y1434592D01*
X1070018Y1439513D01*
X1095097D01*
X1108400Y1426210D01*
X1118870Y954380D02*
X1125220D01*
Y949452D02*
X1129792Y944880D01*
X1295400D01*
X1243400Y1340273D02*
Y1371210D01*
X1140208Y1237081D02*
X1243400Y1340273D01*
X1140208Y1218944D02*
Y1237081D01*
Y1218944D02*
X1155446Y1203706D01*
Y1145180D02*
Y1203706D01*
X1135430Y1125164D02*
X1155446Y1145180D01*
X1135430Y1064260D02*
Y1125164D01*
X1196730Y1127100D02*
X1202944D01*
X1212088Y1117956D01*
Y1108050D02*
Y1117956D01*
Y1108050D02*
X1220470D01*
X1219200Y1091540D02*
X1261110D01*
X1207262Y1103478D02*
X1219200Y1091540D01*
X1207262Y1103478D02*
Y1111758D01*
X1202944Y1116076D02*
X1207262Y1111758D01*
X1190752Y1116076D02*
X1202944D01*
X1184656Y1109980D02*
X1190752Y1116076D01*
X1166368Y1109980D02*
X1184656D01*
X1163574Y1112774D02*
X1166368Y1109980D01*
X1163574Y1112774D02*
Y1123696D01*
X1158240Y1129030D02*
X1163574Y1123696D01*
X1152144Y1129030D02*
X1158240D01*
X1150112Y1126998D02*
X1152144Y1129030D01*
X1150112Y1059180D02*
Y1126998D01*
X1133602Y1042670D02*
X1150112Y1059180D01*
X1241806Y969620D02*
X1252220D01*
X1241806D02*
Y992124D01*
X1239520Y994410D02*
X1241806Y992124D01*
X1211190Y994410D02*
X1239520D01*
X1261110Y1110640D02*
X1265682D01*
Y1104138D02*
X1280770Y1089050D01*
X1261110Y1142390D02*
X1292352D01*
X1300988Y1133754D01*
X1300870Y1119480D02*
X1300988D01*
X1279770Y1109980D02*
X1306576D01*
X1312672Y1116076D01*
Y1152398D01*
X1316228Y1155954D01*
Y1197102D01*
X1304290Y1209040D02*
X1316228Y1197102D01*
X1280770Y1082040D02*
Y1087120D01*
X1077620Y879450D02*
X1085850D01*
X1073150Y883920D02*
X1077620Y879450D01*
X1021690Y904670D02*
Y908304D01*
X1068460Y938140D02*
Y958240D01*
Y938140D02*
X1079500Y927100D01*
X1054100Y995680D02*
X1062380D01*
X997610Y919480D02*
X1002690Y914400D01*
X965200Y919480D02*
X997610D01*
X962406Y916686D02*
X965200Y919480D01*
X962406Y902208D02*
Y916686D01*
Y902208D02*
X978154Y886460D01*
X1042010D01*
X986790Y1019760D02*
X1013206Y1046176D01*
X1012952Y1097534D02*
X1013206Y1046176D01*
X1001776Y1108710D02*
X1012952Y1097534D01*
X986790Y1108710D02*
X1001776D01*
X1250950Y1056030D02*
X1276198D01*
X1297686Y1034542D01*
Y962660D02*
Y1034542D01*
X1291325Y956299D02*
X1297686Y962660D01*
X1225296Y956299D02*
X1291325D01*
X1223264Y958331D02*
X1225296Y956299D01*
X1223264Y958331D02*
Y972820D01*
X1219200Y976884D02*
X1223264Y972820D01*
X1179322Y976884D02*
X1219200D01*
X1125220Y1030986D02*
X1179322Y976884D01*
X1048512Y1030986D02*
X1125220D01*
X1043280Y1025754D02*
X1048512Y1030986D01*
X1043280Y1014730D02*
Y1025754D01*
X989076Y1296886D02*
X1093400Y1401210D01*
X989076Y1240536D02*
Y1296886D01*
X1116330Y1064260D02*
Y1099058D01*
X1024280Y1064260D02*
Y1076300D01*
X1085850Y898550D02*
Y907796D01*
X1091946Y913892D01*
Y938276D01*
X1082802Y947420D02*
X1091946Y938276D01*
X1352550Y1152550D02*
X1360526D01*
X1367261Y1145815D01*
X1351420Y952847D02*
X1367261Y968687D01*
X1304290Y844629D02*
X1359995D01*
X1367261Y851895D01*
X1212190Y959104D02*
Y966470D01*
Y959104D02*
X1219535Y951759D01*
X1362223D02*
X1367261Y956797D01*
X1332230Y1146048D02*
Y1152550D01*
Y1146048D02*
X1336957Y1141321D01*
X1362721D01*
Y1109889D02*
Y1141321D01*
X1308862Y1056030D02*
X1362721Y1109889D01*
X1062380Y995680D02*
Y997966D01*
Y1014730D02*
Y1015492D01*
X1180742Y984910D02*
X1232290D01*
X1127506Y1038146D02*
X1180742Y984910D01*
X1127506Y1038146D02*
Y1077214D01*
X1129030Y1078738D01*
Y1125982D01*
X1143508Y1140460D01*
Y1204976D01*
X1122172Y1226312D02*
X1143508Y1204976D01*
X1081024Y1226312D02*
X1122172D01*
X1252220Y961898D02*
Y969620D01*
Y961898D02*
X1273302D01*
X1278636Y967232D01*
Y993902D01*
X1268730Y1003808D02*
X1278636Y993902D01*
X1268730Y1003808D02*
Y1010920D01*
X1094790Y1108710D02*
X1101090Y1112470D01*
X1163710Y1102614D02*
X1191244D01*
X1196730Y1108100D01*
X946040Y957359D02*
Y1064260D01*
X1024280Y949960D02*
Y970636D01*
X1267358Y976630D02*
X1270610D01*
X1255268Y988720D02*
X1267358Y976630D01*
X1252220Y988720D02*
X1255268D01*
X1212190Y1036574D02*
Y1038860D01*
X1217930Y1036574D02*
X1223264Y1031240D01*
Y1005942D02*
Y1031240D01*
Y1005942D02*
X1225296Y1003910D01*
X1232290D01*
X1168400Y1309878D02*
Y1346210D01*
X1299870Y1072896D02*
Y1082040D01*
X1294790Y1067816D02*
X1299870Y1072896D01*
X1255522Y1067816D02*
X1294790D01*
X1195730Y1090930D02*
Y1098804D01*
X1262380Y1036930D02*
X1266390Y1032920D01*
X1250950Y1036930D02*
X1262380D01*
X1287730Y994612D02*
Y1010920D01*
Y994612D02*
X1289710Y992632D01*
Y976630D02*
Y992632D01*
X1101090Y1112470D02*
X1115010D01*
X1124204Y1121664D01*
Y1185824D01*
X1111910Y1198118D02*
X1124204Y1185824D01*
X1111910Y1198118D02*
Y1211580D01*
X1318768Y859536D02*
X1323594Y854710D01*
X1230122Y859536D02*
X1318768D01*
X1223264Y866394D02*
X1230122Y859536D01*
X1223264Y866394D02*
Y872744D01*
X1108400Y1426210D02*
X1138400D01*
X1040848Y1309116D02*
X1085088D01*
X1009860Y1278128D02*
X1040848Y1309116D01*
X1324864Y1152550D02*
X1332230D01*
X1304290Y1234440D02*
X1324864Y1213866D01*
X1065530Y1128776D02*
Y1150620D01*
X1056640Y1119886D02*
X1065530Y1128776D01*
X955946Y1119886D02*
X1056640D01*
X946040Y1129792D02*
X955946Y1119886D01*
X946040Y1129792D02*
Y1150620D01*
X1212190Y1008110D02*
Y1021080D01*
X1211190Y1007110D02*
X1212190Y1008110D01*
X1211190Y994410D02*
Y1007110D01*
X1175360Y1131586D02*
Y1145540D01*
Y1131586D02*
X1175630Y1131316D01*
Y1117600D02*
Y1131316D01*
X1078400Y1426210D02*
X1089586D01*
X1102889Y1412907D01*
X1113911D01*
X1121626Y1420622D01*
X1125174D01*
X1132889Y1412907D01*
X1143911D01*
X1157214Y1426210D01*
X1168400D01*
X1180084Y1414526D01*
X1188898D01*
X1202214Y1401210D01*
X1213400D01*
X946760Y929030D02*
X972820D01*
X937006Y938784D02*
X946760Y929030D01*
X1189736Y1145540D02*
X1194460D01*
X1201166Y1134110D02*
X1204874D01*
X1211834Y1127150D01*
X1220470D01*
X1194460Y1145540D02*
Y1172058D01*
X1147064Y1219454D02*
X1194460Y1172058D01*
X1147064Y1219454D02*
Y1225804D01*
X1150112Y1228852D01*
X1155192D01*
X1249172Y1322832D01*
X1231290Y1021080D02*
Y1038860D01*
X1024280Y1149350D02*
Y1188568D01*
X1011936Y1200912D02*
X1024280Y1188568D01*
X1011936Y1200912D02*
Y1221994D01*
X1014184D01*
X1138400Y1346210D01*
X1135430Y1150620D02*
Y1206101D01*
X1151890Y1338580D02*
Y1351534D01*
X1143911Y1359513D02*
X1151890Y1351534D01*
X1130517Y1359513D02*
X1143911D01*
X1121156Y1350152D02*
X1130517Y1359513D01*
X1121156Y1346210D02*
Y1350152D01*
X1108400Y1346210D02*
X1121156D01*
X1060450Y1230020D02*
X1073337D01*
X1075653Y1232336D01*
X1105590D01*
X1181862Y1308608D01*
Y1351562D01*
X1169924Y1363500D02*
X1181862Y1351562D01*
X1169924Y1363500D02*
Y1387734D01*
X1183400Y1401210D01*
X1299870Y1082040D02*
Y1090676D01*
X1300870Y1091676D01*
Y1100480D01*
X1308608D01*
X1318768Y1110640D01*
Y1127354D01*
X1324864Y1133450D01*
X1332230D01*
X1352550D01*
X1068460Y958240D02*
X1076452D01*
X1091692Y973480D01*
X1099820D01*
X1118870D01*
X1137920D01*
X1170940Y1219200D02*
X1268476Y1316736D01*
X1315466D01*
X1323594Y1324864D01*
Y1361016D01*
X1258400Y1426210D02*
X1323594Y1361016D01*
X1149858Y1235284D02*
X1243502Y1328928D01*
X1316990D01*
X1319022Y1330960D01*
Y1346200D01*
X1239012Y1426210D02*
X1319022Y1346200D01*
X1228400Y1426210D02*
X1239012D01*
X1232290Y976106D02*
Y984910D01*
X1231290Y975106D02*
X1232290Y976106D01*
X1231290Y966470D02*
Y975106D01*
X986790Y1127810D02*
X1005180Y1146200D01*
Y1149350D01*
X985012D02*
X1005180D01*
X983742Y1150620D02*
X985012Y1149350D01*
X964040Y1150620D02*
X983742D01*
X986790Y1127810D02*
X1024178D01*
X1044956Y1148588D01*
Y1188263D01*
X1083530Y1060870D02*
Y1064260D01*
X1106239Y1060870D02*
X1109629Y1064260D01*
X1116330D01*
Y1056640D02*
Y1064260D01*
X1101090Y1041400D02*
X1116330Y1056640D01*
X1083530Y1150620D02*
X1116330D01*
Y1146810D02*
Y1150620D01*
X1101090Y1131570D02*
X1116330Y1146810D01*
X964040Y1048512D02*
Y1064260D01*
Y1048512D02*
X973692Y1038860D01*
X986790D01*
X1005180Y1060870D01*
Y1064260D01*
X1076198Y1210920D02*
X1076858Y1211580D01*
X1092810D01*
X1263650Y1384554D02*
X1313180Y1335024D01*
X1196744Y1384554D02*
X1263650D01*
X1183400Y1371210D02*
X1196744Y1384554D01*
X1234186Y866394D02*
X1338326D01*
X1348682Y876750D01*
X1197356Y852424D02*
X1314320D01*
X1317575Y849169D01*
X1353867D01*
X1355098Y850400D01*
X1043280Y982472D02*
Y995680D01*
Y982472D02*
X1048512Y977240D01*
X1068460D01*
D20*
X1020970Y1211580D02*
D03*
X1038970D02*
D03*
X946040Y949960D02*
D03*
X964040D02*
D03*
X1065530Y1064260D02*
D03*
X1083530D02*
D03*
X946040D02*
D03*
X964040D02*
D03*
X1065530Y1150620D02*
D03*
X1083530D02*
D03*
X946040D02*
D03*
X964040D02*
D03*
D43*
X1054100Y927100D02*
D03*
X1079500D02*
D03*
D44*
X1304290Y1234440D02*
D03*
Y1209040D02*
D03*
Y1183640D02*
D03*
D45*
X1202360Y1214120D02*
D03*
D46*
X1002360D02*
D03*
D47*
X1102360Y803910D02*
D03*
D48*
X1005900Y1491210D02*
D03*
X1330900D02*
D03*
D49*
X1078400Y1426210D02*
D03*
X1108400D02*
D03*
X1138400D02*
D03*
X1168400D02*
D03*
X1198400D02*
D03*
X1228400D02*
D03*
X1258400D02*
D03*
X1093400Y1401210D02*
D03*
X1123400D02*
D03*
X1153400D02*
D03*
X1183400D02*
D03*
X1213400D02*
D03*
X1243400D02*
D03*
X1078400Y1346210D02*
D03*
X1093400Y1371210D02*
D03*
X1108400Y1346210D02*
D03*
X1123400Y1371210D02*
D03*
X1138400Y1346210D02*
D03*
X1153400Y1371210D02*
D03*
X1168400Y1346210D02*
D03*
X1183400Y1371210D02*
D03*
X1198400Y1346210D02*
D03*
X1213400Y1371210D02*
D03*
X1228400Y1346210D02*
D03*
X1243400Y1371210D02*
D03*
X1258400Y1346210D02*
D03*
D50*
X1430001Y1500001D02*
D03*
X1420001Y1480001D02*
D03*
X1430001Y1460001D02*
D03*
X1420001Y1440001D02*
D03*
X1430001Y1420001D02*
D03*
X1420001Y1400001D02*
D03*
X1430001Y1380001D02*
D03*
X1420001Y1360001D02*
D03*
X1430001Y1340001D02*
D03*
X1420001Y1320001D02*
D03*
X1430001Y1300001D02*
D03*
X1420001Y1280001D02*
D03*
X1430001Y1260001D02*
D03*
X1420001Y1240001D02*
D03*
X1430001Y1220001D02*
D03*
X1420001Y1200001D02*
D03*
X1430001Y1180001D02*
D03*
X1420001Y1160001D02*
D03*
X1430001Y1140001D02*
D03*
X1420001Y1120001D02*
D03*
X1430001Y1100001D02*
D03*
X1420001Y1080001D02*
D03*
X1430001Y1060001D02*
D03*
X1420001Y1040001D02*
D03*
X1430001Y1020001D02*
D03*
X1420001Y1000001D02*
D03*
X1430001Y980001D02*
D03*
X1420001Y960001D02*
D03*
X1430001Y940001D02*
D03*
X1420001Y920001D02*
D03*
X1430001Y900001D02*
D03*
X1420001Y880001D02*
D03*
X1430001Y860001D02*
D03*
X1420001Y840001D02*
D03*
X1430001Y820000D02*
D03*
X1420001Y800000D02*
D03*
X1430001Y780000D02*
D03*
X1420001Y760000D02*
D03*
X1430001Y740000D02*
D03*
X1410001Y1500001D02*
D03*
X1400001Y1480001D02*
D03*
X1410001Y1460001D02*
D03*
X1400001Y1440001D02*
D03*
X1410001Y1420001D02*
D03*
X1400001Y1400001D02*
D03*
X1410001Y1380001D02*
D03*
X1400001Y1360001D02*
D03*
X1410001Y820000D02*
D03*
X1400001Y800000D02*
D03*
X1410001Y780000D02*
D03*
X1400001Y760000D02*
D03*
X1410001Y740000D02*
D03*
X1400001Y720000D02*
D03*
X1390001Y1500001D02*
D03*
X1380001Y1480001D02*
D03*
X1390001Y1460001D02*
D03*
X1380001Y1440001D02*
D03*
X1390001Y1420001D02*
D03*
X1380001Y1400001D02*
D03*
X1390001Y1380001D02*
D03*
X1380001Y1320001D02*
D03*
X1390001Y1300001D02*
D03*
X1380001Y1280001D02*
D03*
X1390001Y1260001D02*
D03*
X1380001Y1240001D02*
D03*
X1390001Y1220001D02*
D03*
X1380001Y1200001D02*
D03*
X1390001Y1180001D02*
D03*
X1380001Y1160001D02*
D03*
X1390001Y1140001D02*
D03*
Y1100001D02*
D03*
Y1060001D02*
D03*
Y1020001D02*
D03*
Y980001D02*
D03*
Y940001D02*
D03*
Y900001D02*
D03*
Y780000D02*
D03*
X1380001Y760000D02*
D03*
X1390001Y740000D02*
D03*
X1380001Y720000D02*
D03*
X1370001Y1500001D02*
D03*
X1360001Y1480001D02*
D03*
X1370001Y1460001D02*
D03*
X1360001Y1440001D02*
D03*
X1370001Y1420001D02*
D03*
X1360001Y1400001D02*
D03*
Y1320001D02*
D03*
X1370001Y780000D02*
D03*
X1360001Y760000D02*
D03*
X1370001Y740000D02*
D03*
X1360001Y720000D02*
D03*
X1350001Y1460001D02*
D03*
X1340001Y1440001D02*
D03*
X1350001Y1420001D02*
D03*
X1340001Y1280001D02*
D03*
X1350001Y1260001D02*
D03*
X1340001Y1240001D02*
D03*
X1350001Y1220001D02*
D03*
X1340001Y1200001D02*
D03*
X1350001Y1180001D02*
D03*
X1340001Y1120001D02*
D03*
X1350001Y1060001D02*
D03*
X1340001Y1040001D02*
D03*
X1350001Y1020001D02*
D03*
X1340001Y1000001D02*
D03*
Y960001D02*
D03*
X1350001Y940001D02*
D03*
X1340001Y920001D02*
D03*
X1350001Y820000D02*
D03*
Y780000D02*
D03*
X1340001Y760000D02*
D03*
X1350001Y740000D02*
D03*
X1340001Y720000D02*
D03*
X1330001Y1460001D02*
D03*
X1320001Y1440001D02*
D03*
X1330001Y1340001D02*
D03*
Y1300001D02*
D03*
Y1260001D02*
D03*
X1320001Y1240001D02*
D03*
X1330001Y1220001D02*
D03*
Y1100001D02*
D03*
X1320001Y1080001D02*
D03*
Y1040001D02*
D03*
X1330001Y1020001D02*
D03*
X1320001Y960001D02*
D03*
X1330001Y940001D02*
D03*
X1320001Y920001D02*
D03*
X1330001Y900001D02*
D03*
Y820000D02*
D03*
Y780000D02*
D03*
X1320001Y760000D02*
D03*
X1330001Y740000D02*
D03*
X1320001Y720000D02*
D03*
X1300001Y1480001D02*
D03*
X1310001Y1460001D02*
D03*
Y1420001D02*
D03*
Y1300001D02*
D03*
X1300001Y1280001D02*
D03*
X1310001Y1260001D02*
D03*
Y940001D02*
D03*
X1300001Y920001D02*
D03*
X1310001Y900001D02*
D03*
Y780000D02*
D03*
X1300001Y760000D02*
D03*
X1310001Y740000D02*
D03*
X1300001Y720000D02*
D03*
X1290001Y1500001D02*
D03*
X1280001Y1480001D02*
D03*
X1290001Y1460001D02*
D03*
Y1340001D02*
D03*
Y1300001D02*
D03*
X1280001Y1280001D02*
D03*
Y1200001D02*
D03*
Y1160001D02*
D03*
Y1120001D02*
D03*
X1290001Y1100001D02*
D03*
X1280001Y920001D02*
D03*
X1290001Y900001D02*
D03*
Y780000D02*
D03*
X1280001Y760000D02*
D03*
X1290001Y740000D02*
D03*
X1280001Y720000D02*
D03*
X1270001Y1500001D02*
D03*
X1260001Y1480001D02*
D03*
X1270001Y1460001D02*
D03*
Y1260001D02*
D03*
Y1220001D02*
D03*
X1260001Y1160001D02*
D03*
Y1080001D02*
D03*
Y1000001D02*
D03*
Y920001D02*
D03*
X1270001Y900001D02*
D03*
X1260001Y880001D02*
D03*
X1270001Y820000D02*
D03*
Y780000D02*
D03*
X1260001Y760000D02*
D03*
X1270001Y740000D02*
D03*
X1260001Y720000D02*
D03*
X1250001Y1500001D02*
D03*
X1240001Y1480001D02*
D03*
X1250001Y1460001D02*
D03*
Y1260001D02*
D03*
Y1100001D02*
D03*
Y1020001D02*
D03*
X1240001Y880001D02*
D03*
X1250001Y820000D02*
D03*
Y780000D02*
D03*
X1240001Y760000D02*
D03*
X1250001Y740000D02*
D03*
X1240001Y720000D02*
D03*
X1230001Y1500001D02*
D03*
X1220001Y1480001D02*
D03*
X1230001Y1460001D02*
D03*
Y900001D02*
D03*
Y820000D02*
D03*
Y780000D02*
D03*
X1220001Y760000D02*
D03*
X1230001Y740000D02*
D03*
X1220001Y720000D02*
D03*
X1210001Y1500001D02*
D03*
X1200001Y1480001D02*
D03*
X1210001Y1460001D02*
D03*
X1200001Y1320001D02*
D03*
X1210001Y1180001D02*
D03*
Y1140001D02*
D03*
Y1060001D02*
D03*
Y900001D02*
D03*
Y860001D02*
D03*
Y820000D02*
D03*
Y780000D02*
D03*
X1200001Y760000D02*
D03*
X1210001Y740000D02*
D03*
X1200001Y720000D02*
D03*
X1190001Y1500001D02*
D03*
X1180001Y1480001D02*
D03*
X1190001Y1460001D02*
D03*
X1180001Y1240001D02*
D03*
Y1160001D02*
D03*
X1190001Y1060001D02*
D03*
X1180001Y1040001D02*
D03*
X1190001Y1020001D02*
D03*
X1180001Y1000001D02*
D03*
Y960001D02*
D03*
Y920001D02*
D03*
X1190001Y900001D02*
D03*
X1180001Y840001D02*
D03*
Y800000D02*
D03*
X1190001Y780000D02*
D03*
X1180001Y760000D02*
D03*
X1190001Y740000D02*
D03*
X1180001Y720000D02*
D03*
X1170001Y1500001D02*
D03*
X1160001Y1480001D02*
D03*
Y1320001D02*
D03*
Y1040001D02*
D03*
Y960001D02*
D03*
Y920001D02*
D03*
Y880001D02*
D03*
Y840001D02*
D03*
X1170001Y820000D02*
D03*
X1160001Y800000D02*
D03*
X1170001Y780000D02*
D03*
X1160001Y760000D02*
D03*
X1170001Y740000D02*
D03*
X1160001Y720000D02*
D03*
X1150001Y1500001D02*
D03*
X1140001Y1480001D02*
D03*
X1150001Y1300001D02*
D03*
X1140001Y880001D02*
D03*
X1150001Y860001D02*
D03*
X1140001Y840001D02*
D03*
X1150001Y820000D02*
D03*
X1140001Y800000D02*
D03*
X1150001Y780000D02*
D03*
X1140001Y760000D02*
D03*
X1150001Y740000D02*
D03*
X1140001Y720000D02*
D03*
X1130001Y1500001D02*
D03*
X1120001Y1480001D02*
D03*
X1130001Y1300001D02*
D03*
X1120001Y1040001D02*
D03*
Y1000001D02*
D03*
Y920001D02*
D03*
X1130001Y900001D02*
D03*
X1120001Y880001D02*
D03*
X1130001Y860001D02*
D03*
X1120001Y760000D02*
D03*
X1130001Y740000D02*
D03*
X1120001Y720000D02*
D03*
X1110001Y1500001D02*
D03*
X1100001Y1480001D02*
D03*
X1110001Y1380001D02*
D03*
X1100001Y1320001D02*
D03*
Y1240001D02*
D03*
Y1160001D02*
D03*
Y920001D02*
D03*
X1110001Y900001D02*
D03*
X1100001Y880001D02*
D03*
X1110001Y860001D02*
D03*
Y740000D02*
D03*
X1100001Y720000D02*
D03*
X1090001Y1500001D02*
D03*
X1080001Y1480001D02*
D03*
Y1320001D02*
D03*
Y1240001D02*
D03*
Y1120001D02*
D03*
X1090001Y860001D02*
D03*
X1080001Y760000D02*
D03*
X1090001Y740000D02*
D03*
X1080001Y720000D02*
D03*
X1070001Y1500001D02*
D03*
X1060001Y1480001D02*
D03*
Y1320001D02*
D03*
X1070001Y1300001D02*
D03*
X1060001Y1280001D02*
D03*
Y1080001D02*
D03*
Y1040001D02*
D03*
X1070001Y860001D02*
D03*
X1060001Y840001D02*
D03*
X1070001Y820000D02*
D03*
X1060001Y800000D02*
D03*
X1070001Y780000D02*
D03*
X1060001Y760000D02*
D03*
X1070001Y740000D02*
D03*
X1060001Y720000D02*
D03*
X1050001Y1500001D02*
D03*
X1040001Y1480001D02*
D03*
Y1440001D02*
D03*
Y1400001D02*
D03*
X1050001Y1380001D02*
D03*
X1040001Y1360001D02*
D03*
Y1320001D02*
D03*
X1050001Y1300001D02*
D03*
Y1100001D02*
D03*
X1040001Y1080001D02*
D03*
X1050001Y1060001D02*
D03*
X1040001Y1040001D02*
D03*
Y960001D02*
D03*
X1050001Y860001D02*
D03*
X1040001Y840001D02*
D03*
X1050001Y820000D02*
D03*
X1040001Y800000D02*
D03*
X1050001Y780000D02*
D03*
X1040001Y760000D02*
D03*
X1050001Y740000D02*
D03*
X1040001Y720000D02*
D03*
X1030001Y1460001D02*
D03*
Y1420001D02*
D03*
X1020001Y1400001D02*
D03*
X1030001Y1380001D02*
D03*
X1020001Y1360001D02*
D03*
Y1120001D02*
D03*
X1030001Y1100001D02*
D03*
X1020001Y1040001D02*
D03*
X1030001Y1020001D02*
D03*
X1020001Y1000001D02*
D03*
X1030001Y980001D02*
D03*
Y860001D02*
D03*
X1020001Y840001D02*
D03*
X1030001Y820000D02*
D03*
X1020001Y800000D02*
D03*
X1030001Y780000D02*
D03*
X1020001Y760000D02*
D03*
X1030001Y740000D02*
D03*
X1020001Y720000D02*
D03*
X1010001Y1460001D02*
D03*
X1000001Y1440001D02*
D03*
X1010001Y1420001D02*
D03*
X1000001Y1400001D02*
D03*
X1010001Y1380001D02*
D03*
X1000001Y1360001D02*
D03*
X1010001Y1340001D02*
D03*
X1000001Y1320001D02*
D03*
Y1120001D02*
D03*
Y1080001D02*
D03*
X1010001Y1020001D02*
D03*
X1000001Y920001D02*
D03*
X1010001Y860001D02*
D03*
X1000001Y840001D02*
D03*
X1010001Y820000D02*
D03*
X1000001Y800000D02*
D03*
X1010001Y780000D02*
D03*
X1000001Y760000D02*
D03*
X1010001Y740000D02*
D03*
X1000001Y720000D02*
D03*
X980001Y1480001D02*
D03*
X990001Y1460001D02*
D03*
X980001Y1440001D02*
D03*
X990001Y1420001D02*
D03*
Y1380001D02*
D03*
Y1340001D02*
D03*
Y1140001D02*
D03*
Y1060001D02*
D03*
X980001Y1000001D02*
D03*
X990001Y980001D02*
D03*
X980001Y960001D02*
D03*
X990001Y860001D02*
D03*
X980001Y840001D02*
D03*
X990001Y820000D02*
D03*
X980001Y800000D02*
D03*
X990001Y780000D02*
D03*
X980001Y760000D02*
D03*
X990001Y740000D02*
D03*
X980001Y720000D02*
D03*
X970001Y1500001D02*
D03*
X960001Y1480001D02*
D03*
X970001Y1460001D02*
D03*
X960001Y1440001D02*
D03*
X970001Y1420001D02*
D03*
X960001Y1400001D02*
D03*
Y1360001D02*
D03*
Y1320001D02*
D03*
Y1280001D02*
D03*
Y1240001D02*
D03*
Y1200001D02*
D03*
Y1040001D02*
D03*
Y1000001D02*
D03*
X970001Y980001D02*
D03*
X960001Y920001D02*
D03*
X970001Y860001D02*
D03*
X960001Y840001D02*
D03*
X970001Y820000D02*
D03*
X960001Y800000D02*
D03*
X970001Y780000D02*
D03*
X960001Y760000D02*
D03*
X970001Y740000D02*
D03*
X960001Y720000D02*
D03*
X950001Y1500001D02*
D03*
X940001Y1480001D02*
D03*
X950001Y1460001D02*
D03*
X940001Y1440001D02*
D03*
X950001Y1420001D02*
D03*
X940001Y1400001D02*
D03*
X950001Y1380001D02*
D03*
X940001Y1360001D02*
D03*
X950001Y1340001D02*
D03*
X940001Y1320001D02*
D03*
X950001Y1300001D02*
D03*
X940001Y1280001D02*
D03*
X950001Y1260001D02*
D03*
X940001Y1240001D02*
D03*
X950001Y1220001D02*
D03*
X940001Y1200001D02*
D03*
X950001Y1180001D02*
D03*
Y1100001D02*
D03*
Y1020001D02*
D03*
Y980001D02*
D03*
X940001Y920001D02*
D03*
X950001Y900001D02*
D03*
Y860001D02*
D03*
X940001Y840001D02*
D03*
X950001Y820000D02*
D03*
X940001Y800000D02*
D03*
X950001Y780000D02*
D03*
X940001Y760000D02*
D03*
X950001Y740000D02*
D03*
X940001Y720000D02*
D03*
X930001Y1500001D02*
D03*
X920001Y1480001D02*
D03*
X930001Y1460001D02*
D03*
X920001Y1440001D02*
D03*
X930001Y1420001D02*
D03*
X920001Y1400001D02*
D03*
X930001Y1380001D02*
D03*
X920001Y1360001D02*
D03*
X930001Y1340001D02*
D03*
X920001Y1320001D02*
D03*
X930001Y1300001D02*
D03*
X920001Y1280001D02*
D03*
X930001Y1260001D02*
D03*
X920001Y1240001D02*
D03*
X930001Y1220001D02*
D03*
X920001Y1200001D02*
D03*
Y1160001D02*
D03*
Y1120001D02*
D03*
Y1080001D02*
D03*
Y1040001D02*
D03*
Y1000001D02*
D03*
Y960001D02*
D03*
Y920001D02*
D03*
Y880001D02*
D03*
X930001Y860001D02*
D03*
X920001Y840001D02*
D03*
X930001Y820000D02*
D03*
X920001Y800000D02*
D03*
X930001Y780000D02*
D03*
X920001Y760000D02*
D03*
X930001Y740000D02*
D03*
X920001Y720000D02*
D03*
X910001Y1500001D02*
D03*
X900001Y1480001D02*
D03*
X910001Y1460001D02*
D03*
X900001Y1440001D02*
D03*
X910001Y1420001D02*
D03*
X900001Y1400001D02*
D03*
X910001Y1380001D02*
D03*
X900001Y1360001D02*
D03*
X910001Y1340001D02*
D03*
X900001Y1320001D02*
D03*
X910001Y1300001D02*
D03*
X900001Y1280001D02*
D03*
X910001Y1260001D02*
D03*
X900001Y1240001D02*
D03*
X910001Y1220001D02*
D03*
X900001Y1200001D02*
D03*
X910001Y1180001D02*
D03*
X900001Y1160001D02*
D03*
X910001Y1140001D02*
D03*
X900001Y1120001D02*
D03*
X910001Y1100001D02*
D03*
X900001Y1080001D02*
D03*
X910001Y1060001D02*
D03*
X900001Y1040001D02*
D03*
X910001Y1020001D02*
D03*
X900001Y1000001D02*
D03*
X910001Y980001D02*
D03*
X900001Y960001D02*
D03*
X910001Y940001D02*
D03*
X900001Y920001D02*
D03*
X910001Y900001D02*
D03*
X900001Y880001D02*
D03*
X910001Y860001D02*
D03*
X900001Y840001D02*
D03*
X910001Y820000D02*
D03*
X900001Y800000D02*
D03*
X910001Y780000D02*
D03*
X900001Y760000D02*
D03*
X910001Y740000D02*
D03*
X1038360Y1197987D02*
D03*
X1166114Y1084326D02*
D03*
X1101090Y1082040D02*
D03*
X1166114Y966470D02*
D03*
X1355090Y963633D02*
D03*
X1295400Y944880D02*
D03*
X1247140Y896620D02*
D03*
X1186688Y1028446D02*
D03*
X1112520Y1179068D02*
D03*
X1175360Y1168940D02*
D03*
X1003300Y1202690D02*
D03*
X1266444Y1030986D02*
D03*
X1261364Y1132840D02*
D03*
X1051560Y1277620D02*
D03*
X964040Y1190100D02*
D03*
Y1078738D02*
D03*
X1155954Y1123042D02*
D03*
X1152906Y1222248D02*
D03*
X1401318Y1313688D02*
D03*
X1057402Y1429512D02*
D03*
X1133602Y1042670D02*
D03*
X1290320Y1087120D02*
D03*
X1073150Y883920D02*
D03*
X1031494Y908304D02*
D03*
X1054100Y995680D02*
D03*
X989076Y1240536D02*
D03*
X1116330Y1099058D02*
D03*
X1024280Y1076300D02*
D03*
X1082802Y947420D02*
D03*
X1351420Y952847D02*
D03*
X1304290Y844629D02*
D03*
X1081024Y1226312D02*
D03*
X1163710Y1102614D02*
D03*
X1024280Y970636D02*
D03*
X1168400Y1309878D02*
D03*
X1255522Y1067816D02*
D03*
X1085088Y1309116D02*
D03*
X1009860Y1278128D02*
D03*
X1249172Y1322832D02*
D03*
X1170940Y1219200D02*
D03*
X1149858Y1235284D02*
D03*
X1044956Y1188263D02*
D03*
X1313180Y1335024D02*
D03*
X1234186Y866394D02*
D03*
X1348682Y876750D02*
D03*
X1197356Y852424D02*
D03*
X1355098Y850400D02*
D03*
D51*
X1052360Y1203118D02*
D03*
X1323594Y854710D02*
D03*
X1235016Y1072620D02*
D03*
D52*
X1021690Y904670D02*
D03*
X1002690D02*
D03*
X1012190Y926670D02*
D03*
X1287730Y1010920D02*
D03*
X1268730D02*
D03*
X1278230Y1032920D02*
D03*
D53*
X1085850Y898550D02*
D03*
Y879450D02*
D03*
X1250950Y1056030D02*
D03*
Y1036930D02*
D03*
X1252220Y988720D02*
D03*
Y969620D02*
D03*
X1060450Y1210920D02*
D03*
Y1230020D02*
D03*
X1261110Y1091540D02*
D03*
Y1110640D02*
D03*
X1352550Y1133450D02*
D03*
Y1152550D02*
D03*
X1261110Y1123290D02*
D03*
Y1142390D02*
D03*
X1332230Y1133450D02*
D03*
Y1152550D02*
D03*
X1220470Y1127150D02*
D03*
Y1108050D02*
D03*
X1099820Y973480D02*
D03*
Y954380D02*
D03*
X1137920Y973480D02*
D03*
Y954380D02*
D03*
X1118870Y973480D02*
D03*
Y954380D02*
D03*
X972820Y909930D02*
D03*
Y929030D02*
D03*
X1101090Y1022300D02*
D03*
Y1041400D02*
D03*
X986790Y1019760D02*
D03*
Y1038860D02*
D03*
X1101090Y1112470D02*
D03*
Y1131570D02*
D03*
X986790Y1108710D02*
D03*
Y1127810D02*
D03*
D54*
X1061110Y886460D02*
D03*
X1042010D02*
D03*
X1270610Y976630D02*
D03*
X1289710D02*
D03*
X1111910Y1211580D02*
D03*
X1092810D02*
D03*
X1299870Y1082040D02*
D03*
X1280770D02*
D03*
X1231290Y1038860D02*
D03*
X1212190D02*
D03*
Y1021080D02*
D03*
X1231290D02*
D03*
Y966470D02*
D03*
X1212190D02*
D03*
X1005180Y949960D02*
D03*
X1024280D02*
D03*
X1195730Y1090930D02*
D03*
X1176630D02*
D03*
X1175360Y1145540D02*
D03*
X1194460D02*
D03*
X1062380Y995680D02*
D03*
X1043280D02*
D03*
Y1014730D02*
D03*
X1062380D02*
D03*
X1116330Y1064260D02*
D03*
X1135430D02*
D03*
X1005180D02*
D03*
X1024280D02*
D03*
X1116330Y1150620D02*
D03*
X1135430D02*
D03*
X1005180Y1149350D02*
D03*
X1024280D02*
D03*
D55*
X1300870Y1119480D02*
D03*
Y1100480D02*
D03*
X1279770Y1109980D02*
D03*
X1232290Y1003910D02*
D03*
Y984910D02*
D03*
X1211190Y994410D02*
D03*
X1196730Y1127100D02*
D03*
Y1108100D02*
D03*
X1175630Y1117600D02*
D03*
X1068460Y977240D02*
D03*
Y958240D02*
D03*
X1047360Y967740D02*
D03*
M02*
