G04*
G04 #@! TF.GenerationSoftware,Altium Limited,Altium Designer,23.8.1 (32)*
G04*
G04 Layer_Color=8421504*
%FSLAX44Y44*%
%MOMM*%
G71*
G04*
G04 #@! TF.SameCoordinates,C7883470-4D28-45A4-81C0-78593BF10AE1*
G04*
G04*
G04 #@! TF.FilePolarity,Positive*
G04*
G01*
G75*
%ADD16R,3.2500X1.7500*%
%ADD17R,0.9500X1.7500*%
%ADD18R,1.2000X2.7500*%
%ADD19R,0.3000X1.5500*%
%ADD20R,1.1500X1.4500*%
%ADD21R,1.4500X1.1500*%
%ADD22R,1.4000X1.7000*%
%ADD23R,1.7000X1.4000*%
%ADD24R,1.6000X2.4000*%
%ADD25R,0.9000X0.3500*%
D16*
X1328420Y1065280D02*
D03*
D17*
X1351420Y1002280D02*
D03*
X1328420D02*
D03*
X1305420D02*
D03*
D18*
X1205860Y1259120D02*
D03*
X998860D02*
D03*
D19*
X1194860Y1266870D02*
D03*
X1192360Y1191370D02*
D03*
X1189860Y1266870D02*
D03*
X1187360Y1191370D02*
D03*
X1184860Y1266870D02*
D03*
X1182360Y1191370D02*
D03*
X1179860Y1266870D02*
D03*
X1177360Y1191370D02*
D03*
X1174860Y1266870D02*
D03*
X1172360Y1191370D02*
D03*
X1169860Y1266870D02*
D03*
X1167360Y1191370D02*
D03*
X1164860Y1266870D02*
D03*
X1162360Y1191370D02*
D03*
X1159860Y1266870D02*
D03*
X1157360Y1191370D02*
D03*
X1154860Y1266870D02*
D03*
X1152360Y1191370D02*
D03*
X1149860Y1266870D02*
D03*
X1147360Y1191370D02*
D03*
X1144860Y1266870D02*
D03*
X1142360Y1191370D02*
D03*
X1139860Y1266870D02*
D03*
X1137360Y1191370D02*
D03*
X1134860Y1266870D02*
D03*
X1132360Y1191370D02*
D03*
X1129860Y1266870D02*
D03*
X1127360Y1191370D02*
D03*
X1124860Y1266870D02*
D03*
X1122360Y1191370D02*
D03*
X1119860Y1266870D02*
D03*
X1117360Y1191370D02*
D03*
X1114860Y1266870D02*
D03*
X1112360Y1191370D02*
D03*
X1109860Y1266870D02*
D03*
X1107360Y1191370D02*
D03*
X1104860Y1266870D02*
D03*
X1102360Y1191370D02*
D03*
X1099860Y1266870D02*
D03*
X1097360Y1191370D02*
D03*
X1094860Y1266870D02*
D03*
X1092360Y1191370D02*
D03*
X1089860Y1266870D02*
D03*
X1087360Y1191370D02*
D03*
X1084860Y1266870D02*
D03*
X1082360Y1191370D02*
D03*
X1079860Y1266870D02*
D03*
X1077360Y1191370D02*
D03*
X1074860Y1266870D02*
D03*
X1072360Y1191370D02*
D03*
X1069860Y1266870D02*
D03*
X1067360Y1191370D02*
D03*
X1064860Y1266870D02*
D03*
X1062360Y1191370D02*
D03*
X1059860Y1266870D02*
D03*
X1057360Y1191370D02*
D03*
X1034860Y1266870D02*
D03*
X1032360Y1191370D02*
D03*
X1029860Y1266870D02*
D03*
X1027360Y1191370D02*
D03*
X1024860Y1266870D02*
D03*
X1022360Y1191370D02*
D03*
X1019860Y1266870D02*
D03*
X1017360Y1191370D02*
D03*
X1014860Y1266870D02*
D03*
X1012360Y1191370D02*
D03*
X1009860Y1266870D02*
D03*
D20*
X1355090Y976630D02*
D03*
X1337090D02*
D03*
X1322180D02*
D03*
X1304180D02*
D03*
D21*
X1249680Y1195290D02*
D03*
Y1177290D02*
D03*
Y1211470D02*
D03*
Y1229470D02*
D03*
D22*
X1374140Y828040D02*
D03*
X1397000D02*
D03*
X1281430D02*
D03*
X1304290D02*
D03*
D23*
X1341120Y831850D02*
D03*
Y854710D02*
D03*
X1247140Y831850D02*
D03*
Y854710D02*
D03*
D24*
X1379220Y867000D02*
D03*
X1290850D02*
D03*
D25*
X1276350Y876750D02*
D03*
Y870250D02*
D03*
Y863750D02*
D03*
Y857250D02*
D03*
X1305350D02*
D03*
Y863750D02*
D03*
Y870250D02*
D03*
Y876750D02*
D03*
X1364720D02*
D03*
Y870250D02*
D03*
Y863750D02*
D03*
Y857250D02*
D03*
X1393720D02*
D03*
Y863750D02*
D03*
Y870250D02*
D03*
Y876750D02*
D03*
M02*
