G04*
G04 #@! TF.GenerationSoftware,Altium Limited,Altium Designer,23.8.1 (32)*
G04*
G04 Layer_Color=255*
%FSLAX44Y44*%
%MOMM*%
G71*
G04*
G04 #@! TF.SameCoordinates,C7883470-4D28-45A4-81C0-78593BF10AE1*
G04*
G04*
G04 #@! TF.FilePolarity,Positive*
G04*
G01*
G75*
%ADD20R,1.1500X1.4500*%
%ADD43C,1.8000*%
%ADD44C,1.7250*%
%ADD45C,0.8250*%
%ADD46C,0.5750*%
%ADD47O,5.0000X9.0000*%
%ADD48C,3.4036*%
%ADD49C,2.0066*%
%ADD52R,1.0000X1.4000*%
%ADD53R,1.3800X0.9200*%
%ADD54R,0.9200X1.3800*%
G04:AMPARAMS|DCode=55|XSize=1.24mm|YSize=0.59mm|CornerRadius=0.0738mm|HoleSize=0mm|Usage=FLASHONLY|Rotation=180.000|XOffset=0mm|YOffset=0mm|HoleType=Round|Shape=RoundedRectangle|*
%AMROUNDEDRECTD55*
21,1,1.2400,0.4425,0,0,180.0*
21,1,1.0925,0.5900,0,0,180.0*
1,1,0.1475,-0.5463,0.2213*
1,1,0.1475,0.5463,0.2213*
1,1,0.1475,0.5463,-0.2213*
1,1,0.1475,-0.5463,-0.2213*
%
%ADD55ROUNDEDRECTD55*%
D20*
X1020970Y1211580D02*
D03*
X1038970D02*
D03*
X946040Y949960D02*
D03*
X964040D02*
D03*
X1065530Y1064260D02*
D03*
X1083530D02*
D03*
X946040D02*
D03*
X964040D02*
D03*
X1065530Y1150620D02*
D03*
X1083530D02*
D03*
X946040D02*
D03*
X964040D02*
D03*
D43*
X1054100Y927100D02*
D03*
X1079500D02*
D03*
D44*
X1304290Y1234440D02*
D03*
Y1209040D02*
D03*
Y1183640D02*
D03*
D45*
X1202360Y1214120D02*
D03*
D46*
X1002360D02*
D03*
D47*
X1102360Y803910D02*
D03*
D48*
X1005900Y1491210D02*
D03*
X1330900D02*
D03*
D49*
X1078400Y1426210D02*
D03*
X1108400D02*
D03*
X1138400D02*
D03*
X1168400D02*
D03*
X1198400D02*
D03*
X1228400D02*
D03*
X1258400D02*
D03*
X1093400Y1401210D02*
D03*
X1123400D02*
D03*
X1153400D02*
D03*
X1183400D02*
D03*
X1213400D02*
D03*
X1243400D02*
D03*
X1078400Y1346210D02*
D03*
X1093400Y1371210D02*
D03*
X1108400Y1346210D02*
D03*
X1123400Y1371210D02*
D03*
X1138400Y1346210D02*
D03*
X1153400Y1371210D02*
D03*
X1168400Y1346210D02*
D03*
X1183400Y1371210D02*
D03*
X1198400Y1346210D02*
D03*
X1213400Y1371210D02*
D03*
X1228400Y1346210D02*
D03*
X1243400Y1371210D02*
D03*
X1258400Y1346210D02*
D03*
D52*
X1021690Y904670D02*
D03*
X1002690D02*
D03*
X1012190Y926670D02*
D03*
X1287730Y1010920D02*
D03*
X1268730D02*
D03*
X1278230Y1032920D02*
D03*
D53*
X1085850Y898550D02*
D03*
Y879450D02*
D03*
X1250950Y1056030D02*
D03*
Y1036930D02*
D03*
X1252220Y988720D02*
D03*
Y969620D02*
D03*
X1060450Y1210920D02*
D03*
Y1230020D02*
D03*
X1261110Y1091540D02*
D03*
Y1110640D02*
D03*
X1352550Y1133450D02*
D03*
Y1152550D02*
D03*
X1261110Y1123290D02*
D03*
Y1142390D02*
D03*
X1332230Y1133450D02*
D03*
Y1152550D02*
D03*
X1220470Y1127150D02*
D03*
Y1108050D02*
D03*
X1099820Y973480D02*
D03*
Y954380D02*
D03*
X1137920Y973480D02*
D03*
Y954380D02*
D03*
X1118870Y973480D02*
D03*
Y954380D02*
D03*
X972820Y909930D02*
D03*
Y929030D02*
D03*
X1101090Y1022300D02*
D03*
Y1041400D02*
D03*
X986790Y1019760D02*
D03*
Y1038860D02*
D03*
X1101090Y1112470D02*
D03*
Y1131570D02*
D03*
X986790Y1108710D02*
D03*
Y1127810D02*
D03*
D54*
X1061110Y886460D02*
D03*
X1042010D02*
D03*
X1270610Y976630D02*
D03*
X1289710D02*
D03*
X1111910Y1211580D02*
D03*
X1092810D02*
D03*
X1299870Y1082040D02*
D03*
X1280770D02*
D03*
X1231290Y1038860D02*
D03*
X1212190D02*
D03*
Y1021080D02*
D03*
X1231290D02*
D03*
Y966470D02*
D03*
X1212190D02*
D03*
X1005180Y949960D02*
D03*
X1024280D02*
D03*
X1195730Y1090930D02*
D03*
X1176630D02*
D03*
X1175360Y1145540D02*
D03*
X1194460D02*
D03*
X1062380Y995680D02*
D03*
X1043280D02*
D03*
Y1014730D02*
D03*
X1062380D02*
D03*
X1116330Y1064260D02*
D03*
X1135430D02*
D03*
X1005180D02*
D03*
X1024280D02*
D03*
X1116330Y1150620D02*
D03*
X1135430D02*
D03*
X1005180Y1149350D02*
D03*
X1024280D02*
D03*
D55*
X1300870Y1119480D02*
D03*
Y1100480D02*
D03*
X1279770Y1109980D02*
D03*
X1232290Y1003910D02*
D03*
Y984910D02*
D03*
X1211190Y994410D02*
D03*
X1196730Y1127100D02*
D03*
Y1108100D02*
D03*
X1175630Y1117600D02*
D03*
X1068460Y977240D02*
D03*
Y958240D02*
D03*
X1047360Y967740D02*
D03*
M02*
