G04*
G04 #@! TF.GenerationSoftware,Altium Limited,Altium Designer,23.8.1 (32)*
G04*
G04 Layer_Color=65535*
%FSLAX44Y44*%
%MOMM*%
G71*
G04*
G04 #@! TF.SameCoordinates,C7883470-4D28-45A4-81C0-78593BF10AE1*
G04*
G04*
G04 #@! TF.FilePolarity,Positive*
G04*
G01*
G75*
%ADD10C,0.2000*%
%ADD11C,0.1000*%
%ADD12C,0.5080*%
%ADD13C,0.2500*%
%ADD14C,0.2540*%
%ADD15C,0.1524*%
G36*
X1135773Y1165900D02*
X1135037D01*
Y1166636D01*
Y1167372D01*
X1135773D01*
Y1165900D01*
D02*
G37*
G36*
X1137245D02*
Y1165164D01*
X1136509D01*
Y1166636D01*
X1137245D01*
Y1165900D01*
D02*
G37*
G36*
X1146810Y1159278D02*
X1146074D01*
Y1160750D01*
Y1161486D01*
Y1162221D01*
X1146810D01*
Y1159278D01*
D02*
G37*
G36*
X1132830Y1158542D02*
X1132094D01*
Y1159278D01*
X1132830D01*
Y1158542D01*
D02*
G37*
G36*
X1127679Y1157807D02*
X1126944D01*
Y1158542D01*
X1127679D01*
Y1157807D01*
D02*
G37*
G36*
X1098983D02*
X1096776D01*
Y1157071D01*
X1096040D01*
Y1157807D01*
X1095304D01*
Y1157071D01*
X1093097D01*
Y1157807D01*
X1092361D01*
Y1158542D01*
X1093833D01*
Y1157807D01*
X1094569D01*
Y1158542D01*
X1098983D01*
Y1157807D01*
D02*
G37*
G36*
X1133566Y1157071D02*
X1132830D01*
Y1157807D01*
X1133566D01*
Y1157071D01*
D02*
G37*
G36*
X1083532D02*
X1084268D01*
Y1156335D01*
X1083532D01*
Y1157071D01*
X1082060D01*
Y1157807D01*
X1083532D01*
Y1157071D01*
D02*
G37*
G36*
X1081324Y1156335D02*
X1079853D01*
Y1157071D01*
X1080589D01*
Y1157807D01*
X1081324D01*
Y1156335D01*
D02*
G37*
G36*
X1128415Y1154128D02*
X1127679D01*
Y1154863D01*
X1128415D01*
Y1154128D01*
D02*
G37*
G36*
X1089418Y1154863D02*
Y1154128D01*
X1088682D01*
Y1155599D01*
X1089418D01*
Y1154863D01*
D02*
G37*
G36*
X1145338Y1153392D02*
X1144603D01*
Y1154128D01*
X1145338D01*
Y1153392D01*
D02*
G37*
G36*
X1124736D02*
X1124000D01*
Y1154128D01*
X1124736D01*
Y1153392D01*
D02*
G37*
G36*
X1112963D02*
X1113699D01*
Y1151184D01*
X1112228D01*
Y1151920D01*
X1110020D01*
Y1152656D01*
X1109285D01*
Y1153392D01*
X1107077D01*
Y1154128D01*
X1110020D01*
Y1153392D01*
X1112228D01*
Y1154128D01*
X1112963D01*
Y1153392D01*
D02*
G37*
G36*
X1140924Y1152656D02*
X1140188D01*
Y1153392D01*
X1140924D01*
Y1152656D01*
D02*
G37*
G36*
X1092361Y1151920D02*
X1090890D01*
Y1152656D01*
X1092361D01*
Y1151920D01*
D02*
G37*
G36*
X1135037Y1151184D02*
X1134302D01*
Y1151920D01*
X1135037D01*
Y1151184D01*
D02*
G37*
G36*
X1101927Y1149713D02*
Y1148977D01*
Y1146034D01*
X1101191D01*
Y1145298D01*
X1100455D01*
Y1146034D01*
X1098248D01*
Y1146770D01*
X1097512D01*
Y1148977D01*
X1096040D01*
Y1149713D01*
X1097512D01*
Y1150449D01*
X1096776D01*
Y1151184D01*
X1098248D01*
Y1150449D01*
X1098983D01*
Y1149713D01*
X1099719D01*
Y1150449D01*
X1100455D01*
Y1151920D01*
X1101191D01*
Y1153392D01*
X1100455D01*
Y1154128D01*
X1101927D01*
Y1149713D01*
D02*
G37*
G36*
X1142395Y1148977D02*
X1140924D01*
Y1149713D01*
X1141659D01*
Y1150449D01*
X1142395D01*
Y1148977D01*
D02*
G37*
G36*
X1137245Y1150449D02*
Y1148241D01*
X1136509D01*
Y1148977D01*
X1135037D01*
Y1149713D01*
X1136509D01*
Y1151184D01*
X1137245D01*
Y1150449D01*
D02*
G37*
G36*
X1133566Y1148241D02*
X1132830D01*
Y1148977D01*
X1133566D01*
Y1148241D01*
D02*
G37*
G36*
X1135773Y1147505D02*
X1135037D01*
Y1148241D01*
X1135773D01*
Y1147505D01*
D02*
G37*
G36*
X1134302Y1143827D02*
X1133566D01*
Y1144562D01*
X1134302D01*
Y1143827D01*
D02*
G37*
G36*
X1137980Y1143091D02*
X1136509D01*
Y1145298D01*
X1137980D01*
Y1143091D01*
D02*
G37*
G36*
X1139452Y1141619D02*
X1136509D01*
Y1142355D01*
X1139452D01*
Y1141619D01*
D02*
G37*
G36*
X1142395Y1140148D02*
X1141659D01*
Y1140883D01*
X1142395D01*
Y1140148D01*
D02*
G37*
G36*
X1140188D02*
Y1139412D01*
X1139452D01*
Y1140883D01*
X1140188D01*
Y1140148D01*
D02*
G37*
G36*
X1123265Y1139412D02*
X1122529D01*
Y1140148D01*
X1123265D01*
Y1139412D01*
D02*
G37*
G36*
X1193165Y875998D02*
X1161526D01*
Y876733D01*
X1164469D01*
Y877469D01*
X1165205D01*
Y878205D01*
X1165941D01*
Y877469D01*
X1166676D01*
Y878205D01*
X1168884D01*
Y878941D01*
X1169620D01*
Y879677D01*
X1171091D01*
Y880412D01*
X1171827D01*
Y881148D01*
X1172563D01*
Y881884D01*
X1173299D01*
Y882620D01*
X1174034D01*
Y883356D01*
X1175506D01*
Y885563D01*
X1176977D01*
Y887035D01*
X1177713D01*
Y887770D01*
X1178449D01*
Y889242D01*
X1179185D01*
Y890714D01*
X1179921D01*
Y892185D01*
X1180657D01*
Y892921D01*
X1181392D01*
Y893657D01*
X1182864D01*
Y892921D01*
X1183600D01*
Y893657D01*
X1188750D01*
Y894392D01*
X1189486D01*
Y895128D01*
X1190222D01*
Y895864D01*
X1190958D01*
Y896600D01*
X1191693D01*
Y898807D01*
X1192429D01*
Y905429D01*
X1191693D01*
Y906901D01*
X1190958D01*
Y908373D01*
X1190222D01*
Y909108D01*
X1188750D01*
Y909844D01*
X1188014D01*
Y910580D01*
X1188750D01*
Y911316D01*
X1190222D01*
Y912787D01*
X1190958D01*
Y913523D01*
X1191693D01*
Y915731D01*
X1192429D01*
Y921617D01*
X1191693D01*
Y923824D01*
X1190958D01*
Y925296D01*
X1189486D01*
Y926767D01*
X1191693D01*
Y940012D01*
X1188014D01*
Y940748D01*
X1188750D01*
Y941483D01*
X1189486D01*
Y942219D01*
X1190222D01*
Y942955D01*
X1190958D01*
Y943691D01*
X1191693D01*
Y945898D01*
X1192429D01*
Y951784D01*
X1191693D01*
Y953992D01*
X1190958D01*
Y955463D01*
X1190222D01*
Y956199D01*
X1189486D01*
Y956935D01*
X1188014D01*
Y957671D01*
X1186543D01*
Y958407D01*
X1169620D01*
Y959142D01*
X1168148D01*
Y959878D01*
X1167412D01*
Y960614D01*
X1166676D01*
Y961350D01*
X1165941D01*
Y962821D01*
X1165205D01*
Y970915D01*
X1165941D01*
Y971651D01*
X1166676D01*
Y973122D01*
X1168148D01*
Y973858D01*
X1168884D01*
Y974594D01*
X1186543D01*
Y973858D01*
X1188014D01*
Y973122D01*
X1188750D01*
Y972387D01*
X1189486D01*
Y971651D01*
X1190222D01*
Y970179D01*
X1190958D01*
Y963557D01*
X1190222D01*
Y962085D01*
X1189486D01*
Y960614D01*
X1188750D01*
Y959878D01*
X1188014D01*
Y959142D01*
X1189486D01*
Y959878D01*
X1190222D01*
Y960614D01*
X1190958D01*
Y962085D01*
X1191693D01*
Y964293D01*
X1192429D01*
Y970179D01*
X1191693D01*
Y971651D01*
X1190958D01*
Y973122D01*
X1190222D01*
Y973858D01*
X1189486D01*
Y974594D01*
X1188014D01*
Y975330D01*
X1186543D01*
Y976066D01*
X1182128D01*
Y976801D01*
X1179921D01*
Y977537D01*
X1179185D01*
Y978273D01*
X1178449D01*
Y979009D01*
X1177713D01*
Y977537D01*
X1176977D01*
Y976801D01*
X1179185D01*
Y976066D01*
X1176977D01*
Y976801D01*
X1176242D01*
Y976066D01*
X1168148D01*
Y975330D01*
X1167412D01*
Y974594D01*
X1165941D01*
Y973858D01*
X1165205D01*
Y973122D01*
X1164469D01*
Y973858D01*
X1163733D01*
Y974594D01*
X1162998D01*
Y975330D01*
X1162262D01*
Y976066D01*
X1160054D01*
Y976801D01*
X1159318D01*
Y977537D01*
X1157111D01*
Y978273D01*
X1156375D01*
Y977537D01*
X1154904D01*
Y978273D01*
X1151961D01*
Y979009D01*
X1151225D01*
Y977537D01*
X1150489D01*
Y978273D01*
X1149753D01*
Y979009D01*
X1149017D01*
Y978273D01*
X1148282D01*
Y977537D01*
X1147546D01*
Y976801D01*
X1146810D01*
Y978273D01*
X1146074D01*
Y976801D01*
X1145338D01*
Y977537D01*
X1144603D01*
Y976066D01*
X1143131D01*
Y974594D01*
X1142395D01*
Y973858D01*
X1141659D01*
Y973122D01*
X1140924D01*
Y972387D01*
X1140188D01*
Y971651D01*
X1138716D01*
Y970179D01*
X1137980D01*
Y969443D01*
X1137245D01*
Y967972D01*
X1136509D01*
Y968708D01*
X1135037D01*
Y971651D01*
X1134302D01*
Y972387D01*
X1133566D01*
Y973122D01*
X1134302D01*
Y972387D01*
X1135773D01*
Y973122D01*
X1134302D01*
Y973858D01*
X1135773D01*
Y974594D01*
X1136509D01*
Y975330D01*
X1135037D01*
Y974594D01*
X1133566D01*
Y976066D01*
X1132830D01*
Y976801D01*
X1131358D01*
Y979009D01*
X1132094D01*
Y979744D01*
X1129887D01*
Y981216D01*
X1130622D01*
Y981952D01*
X1129887D01*
Y983423D01*
X1130622D01*
Y984159D01*
X1129887D01*
Y984895D01*
X1131358D01*
Y985631D01*
X1129151D01*
Y986367D01*
X1130622D01*
Y988574D01*
X1131358D01*
Y989310D01*
X1130622D01*
Y990046D01*
X1131358D01*
Y989310D01*
X1132094D01*
Y990046D01*
X1131358D01*
Y990781D01*
X1132830D01*
Y991517D01*
X1131358D01*
Y992253D01*
X1132094D01*
Y992989D01*
X1132830D01*
Y992253D01*
X1134302D01*
Y992989D01*
X1133566D01*
Y995196D01*
X1134302D01*
Y994460D01*
X1135037D01*
Y993725D01*
X1135773D01*
Y994460D01*
X1136509D01*
Y995196D01*
X1137245D01*
Y995932D01*
X1134302D01*
Y996668D01*
X1136509D01*
Y997404D01*
X1128415D01*
Y996668D01*
X1127679D01*
Y997404D01*
X1126944D01*
Y996668D01*
X1126208D01*
Y997404D01*
X1123265D01*
Y996668D01*
X1110020D01*
Y995932D01*
X1109285D01*
Y996668D01*
X1107813D01*
Y995932D01*
X1104134D01*
Y995196D01*
X1096776D01*
Y994460D01*
X1093833D01*
Y993725D01*
X1090890D01*
Y992989D01*
X1090154D01*
Y991517D01*
X1088682D01*
Y990781D01*
X1087946D01*
Y989310D01*
X1087211D01*
Y988574D01*
X1086475D01*
Y987838D01*
X1085739D01*
Y986367D01*
X1085003D01*
Y985631D01*
X1084268D01*
Y984895D01*
X1083532D01*
Y983423D01*
X1082796D01*
Y982688D01*
X1082060D01*
Y981216D01*
X1081324D01*
Y980480D01*
X1080589D01*
Y977537D01*
X1079853D01*
Y976801D01*
X1079117D01*
Y976066D01*
X1079853D01*
Y975330D01*
X1079117D01*
Y974594D01*
X1079853D01*
Y972387D01*
X1079117D01*
Y973858D01*
X1077645D01*
Y973122D01*
X1078381D01*
Y971651D01*
X1079853D01*
Y969443D01*
X1080589D01*
Y968708D01*
X1081324D01*
Y967236D01*
X1082060D01*
Y966500D01*
X1083532D01*
Y965764D01*
X1084268D01*
Y965029D01*
X1085003D01*
Y964293D01*
X1087211D01*
Y963557D01*
X1088682D01*
Y962821D01*
X1090890D01*
Y962085D01*
X1091626D01*
Y961350D01*
X1093097D01*
Y960614D01*
X1093833D01*
Y959878D01*
X1094569D01*
Y959142D01*
X1095304D01*
Y957671D01*
X1096040D01*
Y956199D01*
X1096776D01*
Y952520D01*
X1096040D01*
Y951049D01*
X1095304D01*
Y946634D01*
X1094569D01*
Y944426D01*
X1093097D01*
Y943691D01*
X1092361D01*
Y942955D01*
X1089418D01*
Y943691D01*
X1087946D01*
Y944426D01*
X1087211D01*
Y945162D01*
X1086475D01*
Y944426D01*
X1085739D01*
Y942219D01*
X1085003D01*
Y940748D01*
X1084268D01*
Y940012D01*
X1081324D01*
Y940748D01*
X1080589D01*
Y941483D01*
X1079117D01*
Y931918D01*
X1078381D01*
Y924560D01*
X1079117D01*
Y923824D01*
X1080589D01*
Y924560D01*
X1082060D01*
Y925296D01*
X1083532D01*
Y926032D01*
X1084268D01*
Y926767D01*
X1085739D01*
Y927503D01*
X1087211D01*
Y928239D01*
X1087946D01*
Y928975D01*
X1089418D01*
Y929711D01*
X1091626D01*
Y930446D01*
X1094569D01*
Y931182D01*
X1100455D01*
Y930446D01*
X1101191D01*
Y931182D01*
X1101927D01*
Y930446D01*
X1102662D01*
Y931182D01*
X1104134D01*
Y930446D01*
X1103398D01*
Y929711D01*
X1104134D01*
Y928975D01*
X1104870D01*
Y930446D01*
X1106341D01*
Y924560D01*
X1105606D01*
Y926767D01*
X1104870D01*
Y925296D01*
X1104134D01*
Y926767D01*
X1102662D01*
Y927503D01*
X1099719D01*
Y928239D01*
X1094569D01*
Y927503D01*
X1092361D01*
Y926767D01*
X1090154D01*
Y926032D01*
X1088682D01*
Y925296D01*
X1086475D01*
Y924560D01*
X1085739D01*
Y923824D01*
X1084268D01*
Y923088D01*
X1082060D01*
Y922353D01*
X1079853D01*
Y921617D01*
X1078381D01*
Y917938D01*
X1077645D01*
Y906165D01*
X1076910D01*
Y904694D01*
X1077645D01*
Y903958D01*
X1076910D01*
Y903222D01*
X1082796D01*
Y903958D01*
X1083532D01*
Y904694D01*
X1085003D01*
Y903958D01*
X1084268D01*
Y903222D01*
X1085739D01*
Y902486D01*
X1086475D01*
Y901750D01*
X1084268D01*
Y901015D01*
X1080589D01*
Y900279D01*
X1076910D01*
Y895864D01*
X1076174D01*
Y895128D01*
X1076910D01*
Y894392D01*
X1076174D01*
Y893657D01*
X1076910D01*
Y892185D01*
X1077645D01*
Y891449D01*
X1078381D01*
Y890714D01*
X1077645D01*
Y887770D01*
X1079117D01*
Y887035D01*
X1078381D01*
Y886299D01*
X1080589D01*
Y885563D01*
X1081324D01*
Y886299D01*
X1082060D01*
Y883356D01*
X1081324D01*
Y884091D01*
X1080589D01*
Y884827D01*
X1079853D01*
Y885563D01*
X1078381D01*
Y886299D01*
X1075438D01*
Y884827D01*
X1076174D01*
Y884091D01*
X1075438D01*
Y882620D01*
X1076174D01*
Y881884D01*
X1076910D01*
Y879677D01*
X1076174D01*
Y881884D01*
X1075438D01*
Y879677D01*
X1076174D01*
Y878941D01*
X1075438D01*
Y876733D01*
X1074702D01*
Y875998D01*
X1007745D01*
Y881148D01*
X1008481D01*
Y881884D01*
X1009217D01*
Y882620D01*
X1010688D01*
Y884091D01*
X1011424D01*
Y884827D01*
X1012160D01*
Y885563D01*
X1012896D01*
Y886299D01*
X1013631D01*
Y887035D01*
X1014367D01*
Y887770D01*
X1015103D01*
Y888506D01*
X1015839D01*
Y889242D01*
X1016574D01*
Y889978D01*
X1017310D01*
Y890714D01*
X1018046D01*
Y892185D01*
X1018782D01*
Y892921D01*
X1019518D01*
Y893657D01*
X1020254D01*
Y895128D01*
X1020989D01*
Y895864D01*
X1021725D01*
Y897336D01*
X1022461D01*
Y898071D01*
X1023197D01*
Y899543D01*
X1023932D01*
Y900279D01*
X1024668D01*
Y901015D01*
X1025404D01*
Y901750D01*
X1026140D01*
Y902486D01*
X1026876D01*
Y903222D01*
X1027611D01*
Y904694D01*
X1028347D01*
Y906165D01*
X1029083D01*
Y907637D01*
X1029819D01*
Y908373D01*
X1031290D01*
Y907637D01*
X1032026D01*
Y906901D01*
X1032762D01*
Y906165D01*
X1033498D01*
Y905429D01*
X1034234D01*
Y904694D01*
X1034969D01*
Y903958D01*
X1036441D01*
Y903222D01*
X1037177D01*
Y902486D01*
X1037913D01*
Y901750D01*
X1039384D01*
Y901015D01*
X1040856D01*
Y900279D01*
X1042327D01*
Y899543D01*
X1041591D01*
Y898807D01*
X1043063D01*
Y898071D01*
X1043799D01*
Y897336D01*
X1044535D01*
Y896600D01*
X1046006D01*
Y895128D01*
X1048214D01*
Y893657D01*
X1049685D01*
Y895864D01*
X1048214D01*
Y896600D01*
X1047478D01*
Y897336D01*
X1046742D01*
Y898071D01*
X1046006D01*
Y898807D01*
X1045270D01*
Y899543D01*
X1043799D01*
Y900279D01*
X1043063D01*
Y901015D01*
X1042327D01*
Y901750D01*
X1041591D01*
Y902486D01*
X1040120D01*
Y903222D01*
X1039384D01*
Y903958D01*
X1038648D01*
Y904694D01*
X1037913D01*
Y905429D01*
X1037177D01*
Y906165D01*
X1035705D01*
Y906901D01*
X1034234D01*
Y907637D01*
X1033498D01*
Y908373D01*
X1032762D01*
Y909108D01*
X1031290D01*
Y912787D01*
X1032026D01*
Y914259D01*
X1032762D01*
Y914995D01*
X1033498D01*
Y916466D01*
X1034234D01*
Y917202D01*
X1034969D01*
Y917938D01*
X1035705D01*
Y917202D01*
X1037177D01*
Y916466D01*
X1038648D01*
Y915731D01*
X1039384D01*
Y914995D01*
X1040856D01*
Y914259D01*
X1041591D01*
Y913523D01*
X1042327D01*
Y912787D01*
X1043799D01*
Y912051D01*
X1044535D01*
Y911316D01*
X1045270D01*
Y910580D01*
X1046742D01*
Y909844D01*
X1047478D01*
Y909108D01*
X1048949D01*
Y908373D01*
X1051157D01*
Y907637D01*
X1052628D01*
Y906901D01*
X1054100D01*
Y908373D01*
X1052628D01*
Y909108D01*
X1051893D01*
Y909844D01*
X1051157D01*
Y910580D01*
X1049685D01*
Y911316D01*
X1048214D01*
Y912051D01*
X1047478D01*
Y912787D01*
X1046006D01*
Y913523D01*
X1045270D01*
Y914259D01*
X1043799D01*
Y914995D01*
X1041591D01*
Y915731D01*
X1040120D01*
Y916466D01*
X1038648D01*
Y917202D01*
X1037913D01*
Y917938D01*
X1036441D01*
Y918674D01*
X1035705D01*
Y920881D01*
X1036441D01*
Y922353D01*
X1037177D01*
Y923824D01*
X1037913D01*
Y925296D01*
X1038648D01*
Y926767D01*
X1039384D01*
Y928975D01*
X1040120D01*
Y933390D01*
X1040856D01*
Y934861D01*
X1043063D01*
Y934125D01*
X1045270D01*
Y933390D01*
X1046742D01*
Y932654D01*
X1048214D01*
Y931918D01*
X1049685D01*
Y931182D01*
X1051157D01*
Y930446D01*
X1053364D01*
Y929711D01*
X1054100D01*
Y928975D01*
X1055572D01*
Y928239D01*
X1057043D01*
Y927503D01*
X1058515D01*
Y926767D01*
X1059986D01*
Y926032D01*
X1062194D01*
Y925296D01*
X1062930D01*
Y924560D01*
X1065137D01*
Y923824D01*
X1067344D01*
Y923088D01*
X1068080D01*
Y922353D01*
X1069552D01*
Y924560D01*
X1068080D01*
Y925296D01*
X1066609D01*
Y926032D01*
X1064401D01*
Y926767D01*
X1063665D01*
Y927503D01*
X1062194D01*
Y928239D01*
X1060722D01*
Y928975D01*
X1059251D01*
Y929711D01*
X1057779D01*
Y930446D01*
X1056307D01*
Y931182D01*
X1054836D01*
Y931918D01*
X1052628D01*
Y932654D01*
X1051157D01*
Y933390D01*
X1048214D01*
Y934125D01*
X1046006D01*
Y934861D01*
X1044535D01*
Y935597D01*
X1043063D01*
Y936333D01*
X1042327D01*
Y939276D01*
X1043063D01*
Y940748D01*
X1043799D01*
Y943691D01*
X1044535D01*
Y947370D01*
X1045270D01*
Y951784D01*
X1046006D01*
Y954728D01*
X1046742D01*
Y957671D01*
X1047478D01*
Y960614D01*
X1048214D01*
Y964293D01*
X1048949D01*
Y967972D01*
X1049685D01*
Y974594D01*
X1050421D01*
Y978273D01*
X1051157D01*
Y979009D01*
X1057779D01*
Y979744D01*
X1059986D01*
Y980480D01*
X1060722D01*
Y982688D01*
X1059986D01*
Y983423D01*
X1059251D01*
Y985631D01*
X1058515D01*
Y987103D01*
X1057779D01*
Y989310D01*
X1057043D01*
Y992253D01*
X1056307D01*
Y993725D01*
X1055572D01*
Y996668D01*
X1054836D01*
Y1001083D01*
X1054100D01*
Y1001818D01*
X1054836D01*
Y1002554D01*
X1054100D01*
Y1012119D01*
X1053364D01*
Y1012855D01*
X1054100D01*
Y1013591D01*
X1053364D01*
Y1015798D01*
X1054100D01*
Y1016534D01*
X1053364D01*
Y1017270D01*
X1054100D01*
Y1024628D01*
X1054836D01*
Y1030514D01*
X1055572D01*
Y1033457D01*
X1056307D01*
Y1036401D01*
X1057043D01*
Y1039344D01*
X1057779D01*
Y1040815D01*
X1058515D01*
Y1043023D01*
X1059251D01*
Y1045230D01*
X1059986D01*
Y1045966D01*
X1060722D01*
Y1047438D01*
X1061458D01*
Y1048909D01*
X1059986D01*
Y1049645D01*
X1058515D01*
Y1050381D01*
X1055572D01*
Y1051116D01*
X1054836D01*
Y1053324D01*
X1054100D01*
Y1054796D01*
X1053364D01*
Y1056267D01*
X1052628D01*
Y1057003D01*
X1051893D01*
Y1058474D01*
X1051157D01*
Y1059210D01*
X1050421D01*
Y1059946D01*
X1049685D01*
Y1062153D01*
X1048949D01*
Y1065097D01*
X1048214D01*
Y1069511D01*
X1047478D01*
Y1071719D01*
X1046742D01*
Y1075398D01*
X1046006D01*
Y1077605D01*
X1045270D01*
Y1080548D01*
X1044535D01*
Y1084227D01*
X1043799D01*
Y1086435D01*
X1043063D01*
Y1089378D01*
X1042327D01*
Y1092321D01*
X1041591D01*
Y1094528D01*
X1040856D01*
Y1096736D01*
X1040120D01*
Y1098207D01*
X1039384D01*
Y1100415D01*
X1038648D01*
Y1101886D01*
X1037913D01*
Y1102622D01*
X1037177D01*
Y1105565D01*
X1038648D01*
Y1106301D01*
X1040856D01*
Y1107037D01*
X1043063D01*
Y1107773D01*
X1045270D01*
Y1108508D01*
X1046742D01*
Y1109244D01*
X1049685D01*
Y1109980D01*
X1051157D01*
Y1110716D01*
X1051893D01*
Y1109980D01*
X1052628D01*
Y1111452D01*
X1054100D01*
Y1110716D01*
X1055572D01*
Y1111452D01*
X1057779D01*
Y1112187D01*
X1055572D01*
Y1112923D01*
X1058515D01*
Y1113659D01*
X1061458D01*
Y1115131D01*
X1059986D01*
Y1114395D01*
X1057779D01*
Y1113659D01*
X1054836D01*
Y1112923D01*
X1051893D01*
Y1112187D01*
X1050421D01*
Y1111452D01*
X1048214D01*
Y1110716D01*
X1046006D01*
Y1109980D01*
X1044535D01*
Y1109244D01*
X1043799D01*
Y1108508D01*
X1042327D01*
Y1107773D01*
X1040120D01*
Y1107037D01*
X1037913D01*
Y1106301D01*
X1036441D01*
Y1107037D01*
X1035705D01*
Y1107773D01*
X1034969D01*
Y1109244D01*
X1034234D01*
Y1110716D01*
X1033498D01*
Y1112187D01*
X1032762D01*
Y1113659D01*
X1032026D01*
Y1115131D01*
X1031290D01*
Y1116602D01*
X1030555D01*
Y1118074D01*
X1029819D01*
Y1118810D01*
X1029083D01*
Y1120281D01*
X1028347D01*
Y1121017D01*
X1027611D01*
Y1121753D01*
X1026876D01*
Y1120281D01*
X1027611D01*
Y1118810D01*
X1028347D01*
Y1117338D01*
X1029083D01*
Y1115131D01*
X1029819D01*
Y1114395D01*
X1030555D01*
Y1112187D01*
X1031290D01*
Y1110716D01*
X1032026D01*
Y1109244D01*
X1032762D01*
Y1107773D01*
X1033498D01*
Y1107037D01*
X1034234D01*
Y1106301D01*
X1031290D01*
Y1107773D01*
X1030555D01*
Y1109244D01*
X1029819D01*
Y1109980D01*
X1029083D01*
Y1110716D01*
X1028347D01*
Y1113659D01*
X1027611D01*
Y1115131D01*
X1026876D01*
Y1116602D01*
X1026140D01*
Y1117338D01*
X1025404D01*
Y1118810D01*
X1024668D01*
Y1119545D01*
X1023932D01*
Y1120281D01*
X1023197D01*
Y1121017D01*
X1022461D01*
Y1122488D01*
X1021725D01*
Y1123224D01*
X1020989D01*
Y1123960D01*
X1020254D01*
Y1124696D01*
X1019518D01*
Y1125432D01*
X1018782D01*
Y1126903D01*
X1017310D01*
Y1128375D01*
X1015839D01*
Y1129111D01*
X1014367D01*
Y1130582D01*
X1013631D01*
Y1131318D01*
X1012896D01*
Y1132054D01*
X1012160D01*
Y1132790D01*
X1011424D01*
Y1133525D01*
X1010688D01*
Y1134261D01*
X1009217D01*
Y1136469D01*
X1007745D01*
Y1143827D01*
X1008481D01*
Y1143091D01*
X1009217D01*
Y1142355D01*
X1010688D01*
Y1141619D01*
X1011424D01*
Y1140883D01*
X1012160D01*
Y1140148D01*
X1012896D01*
Y1139412D01*
X1013631D01*
Y1138676D01*
X1014367D01*
Y1137940D01*
X1015103D01*
Y1137204D01*
X1015839D01*
Y1136469D01*
X1016574D01*
Y1134997D01*
X1017310D01*
Y1134261D01*
X1018046D01*
Y1133525D01*
X1018782D01*
Y1132054D01*
X1019518D01*
Y1131318D01*
X1020254D01*
Y1130582D01*
X1020989D01*
Y1129111D01*
X1021725D01*
Y1128375D01*
X1022461D01*
Y1126903D01*
X1023197D01*
Y1125432D01*
X1023932D01*
Y1124696D01*
X1024668D01*
Y1123960D01*
X1025404D01*
Y1125432D01*
X1024668D01*
Y1128375D01*
X1023197D01*
Y1129111D01*
X1022461D01*
Y1130582D01*
X1021725D01*
Y1132054D01*
X1020989D01*
Y1132790D01*
X1020254D01*
Y1134261D01*
X1019518D01*
Y1134997D01*
X1018782D01*
Y1135733D01*
X1018046D01*
Y1136469D01*
X1017310D01*
Y1137940D01*
X1016574D01*
Y1138676D01*
X1015839D01*
Y1139412D01*
X1015103D01*
Y1140148D01*
X1014367D01*
Y1140883D01*
X1012896D01*
Y1141619D01*
X1012160D01*
Y1143091D01*
X1010688D01*
Y1144562D01*
X1009952D01*
Y1145298D01*
X1009217D01*
Y1146034D01*
X1007745D01*
Y1167372D01*
X1077645D01*
Y1160750D01*
X1078381D01*
Y1157807D01*
X1077645D01*
Y1155599D01*
X1076910D01*
Y1153392D01*
X1076174D01*
Y1151920D01*
X1078381D01*
Y1153392D01*
X1082060D01*
Y1152656D01*
X1085003D01*
Y1151920D01*
X1087946D01*
Y1151184D01*
X1090154D01*
Y1151920D01*
X1090890D01*
Y1151184D01*
X1093833D01*
Y1150449D01*
X1095304D01*
Y1148977D01*
X1096040D01*
Y1147505D01*
X1095304D01*
Y1148241D01*
X1094569D01*
Y1147505D01*
X1093833D01*
Y1148241D01*
X1090154D01*
Y1148977D01*
X1089418D01*
Y1148241D01*
X1088682D01*
Y1148977D01*
X1078381D01*
Y1146770D01*
X1079117D01*
Y1146034D01*
X1083532D01*
Y1145298D01*
X1086475D01*
Y1144562D01*
X1087946D01*
Y1143827D01*
X1089418D01*
Y1143091D01*
X1091626D01*
Y1143827D01*
X1094569D01*
Y1143091D01*
X1095304D01*
Y1142355D01*
X1096040D01*
Y1141619D01*
X1097512D01*
Y1142355D01*
X1098983D01*
Y1143091D01*
X1099719D01*
Y1141619D01*
X1100455D01*
Y1142355D01*
X1101191D01*
Y1141619D01*
X1107813D01*
Y1142355D01*
X1109285D01*
Y1143091D01*
X1117378D01*
Y1143827D01*
X1118114D01*
Y1144562D01*
X1118850D01*
Y1146034D01*
X1119586D01*
Y1146770D01*
X1118850D01*
Y1147505D01*
X1118114D01*
Y1148241D01*
X1118850D01*
Y1148977D01*
X1118114D01*
Y1149713D01*
X1118850D01*
Y1151184D01*
X1118114D01*
Y1151920D01*
X1117378D01*
Y1154128D01*
X1116643D01*
Y1154863D01*
X1115907D01*
Y1156335D01*
X1115171D01*
Y1157807D01*
X1114435D01*
Y1157071D01*
X1113699D01*
Y1157807D01*
X1112963D01*
Y1158542D01*
X1110756D01*
Y1159278D01*
X1105606D01*
Y1158542D01*
X1104870D01*
Y1159278D01*
X1104134D01*
Y1157807D01*
X1103398D01*
Y1158542D01*
X1102662D01*
Y1160750D01*
X1103398D01*
Y1161486D01*
X1104870D01*
Y1162221D01*
X1105606D01*
Y1162957D01*
X1106341D01*
Y1163693D01*
X1112228D01*
Y1162957D01*
X1112963D01*
Y1162221D01*
X1114435D01*
Y1161486D01*
X1115171D01*
Y1162221D01*
X1116643D01*
Y1161486D01*
X1117378D01*
Y1160750D01*
X1118114D01*
Y1160014D01*
X1118850D01*
Y1158542D01*
X1120321D01*
Y1157807D01*
X1121057D01*
Y1157071D01*
X1120321D01*
Y1156335D01*
X1121057D01*
Y1155599D01*
X1121793D01*
Y1154863D01*
X1122529D01*
Y1154128D01*
X1121793D01*
Y1153392D01*
X1122529D01*
Y1151920D01*
X1123265D01*
Y1151184D01*
X1122529D01*
Y1148977D01*
X1123265D01*
Y1148241D01*
X1122529D01*
Y1146770D01*
X1123265D01*
Y1144562D01*
X1122529D01*
Y1143827D01*
X1121793D01*
Y1142355D01*
X1121057D01*
Y1141619D01*
X1121793D01*
Y1139412D01*
X1121057D01*
Y1138676D01*
X1120321D01*
Y1137940D01*
X1119586D01*
Y1138676D01*
X1118850D01*
Y1140883D01*
X1118114D01*
Y1139412D01*
X1117378D01*
Y1140148D01*
X1116643D01*
Y1140883D01*
X1110020D01*
Y1140148D01*
X1107813D01*
Y1139412D01*
X1105606D01*
Y1138676D01*
X1103398D01*
Y1137940D01*
X1101191D01*
Y1137204D01*
X1098983D01*
Y1137940D01*
X1096776D01*
Y1138676D01*
X1094569D01*
Y1139412D01*
X1089418D01*
Y1140148D01*
X1085003D01*
Y1140883D01*
X1084268D01*
Y1141619D01*
X1081324D01*
Y1142355D01*
X1079853D01*
Y1141619D01*
X1079117D01*
Y1140148D01*
X1079853D01*
Y1138676D01*
X1079117D01*
Y1133525D01*
X1078381D01*
Y1121753D01*
X1077645D01*
Y1121017D01*
X1078381D01*
Y1119545D01*
X1080589D01*
Y1120281D01*
X1082060D01*
Y1121017D01*
X1084268D01*
Y1121753D01*
X1091626D01*
Y1121017D01*
X1093833D01*
Y1120281D01*
X1098983D01*
Y1119545D01*
X1099719D01*
Y1118810D01*
X1100455D01*
Y1118074D01*
X1101191D01*
Y1117338D01*
X1103398D01*
Y1116602D01*
X1104134D01*
Y1115866D01*
X1106341D01*
Y1115131D01*
X1110020D01*
Y1115866D01*
X1112963D01*
Y1116602D01*
X1113699D01*
Y1118074D01*
X1112963D01*
Y1120281D01*
X1112228D01*
Y1121753D01*
X1112963D01*
Y1123224D01*
X1113699D01*
Y1122488D01*
X1115171D01*
Y1123224D01*
X1118850D01*
Y1123960D01*
X1119586D01*
Y1124696D01*
X1120321D01*
Y1125432D01*
X1121057D01*
Y1126168D01*
X1121793D01*
Y1126903D01*
X1122529D01*
Y1127639D01*
X1123265D01*
Y1128375D01*
X1124000D01*
Y1129111D01*
X1126208D01*
Y1129846D01*
X1127679D01*
Y1130582D01*
X1129151D01*
Y1131318D01*
X1129887D01*
Y1132054D01*
X1132094D01*
Y1131318D01*
X1135037D01*
Y1130582D01*
X1135773D01*
Y1129846D01*
X1136509D01*
Y1129111D01*
X1137980D01*
Y1130582D01*
X1138716D01*
Y1131318D01*
X1137980D01*
Y1132054D01*
X1137245D01*
Y1134997D01*
X1136509D01*
Y1135733D01*
X1137245D01*
Y1134997D01*
X1137980D01*
Y1135733D01*
X1137245D01*
Y1137940D01*
X1136509D01*
Y1138676D01*
X1137245D01*
Y1139412D01*
X1136509D01*
Y1140148D01*
X1135773D01*
Y1140883D01*
X1136509D01*
Y1140148D01*
X1137245D01*
Y1139412D01*
X1137980D01*
Y1140148D01*
X1138716D01*
Y1139412D01*
X1139452D01*
Y1138676D01*
X1138716D01*
Y1137940D01*
X1140188D01*
Y1134997D01*
X1140924D01*
Y1133525D01*
X1140188D01*
Y1132790D01*
X1140924D01*
Y1130582D01*
X1141659D01*
Y1127639D01*
X1143131D01*
Y1126168D01*
X1143867D01*
Y1126903D01*
X1145338D01*
Y1128375D01*
X1144603D01*
Y1129846D01*
X1145338D01*
Y1129111D01*
X1146074D01*
Y1130582D01*
X1145338D01*
Y1131318D01*
X1146074D01*
Y1130582D01*
X1146810D01*
Y1132054D01*
X1146074D01*
Y1132790D01*
X1146810D01*
Y1134261D01*
X1146074D01*
Y1134997D01*
X1146810D01*
Y1135733D01*
X1146074D01*
Y1136469D01*
X1146810D01*
Y1135733D01*
X1147546D01*
Y1136469D01*
X1146810D01*
Y1138676D01*
X1146074D01*
Y1140148D01*
X1146810D01*
Y1139412D01*
Y1138676D01*
X1147546D01*
Y1140883D01*
X1146810D01*
Y1143091D01*
X1147546D01*
Y1143827D01*
X1148282D01*
Y1144562D01*
X1147546D01*
Y1148977D01*
X1148282D01*
Y1149713D01*
X1147546D01*
Y1151184D01*
X1146810D01*
Y1151920D01*
X1148282D01*
Y1152656D01*
X1147546D01*
Y1153392D01*
X1146810D01*
Y1154128D01*
X1147546D01*
Y1157807D01*
X1146810D01*
Y1157071D01*
X1145338D01*
Y1157807D01*
X1146074D01*
Y1158542D01*
X1147546D01*
Y1162221D01*
X1146810D01*
Y1162957D01*
X1146074D01*
Y1164429D01*
X1144603D01*
Y1165900D01*
X1143867D01*
Y1165164D01*
X1143131D01*
Y1162957D01*
X1143867D01*
Y1162221D01*
X1144603D01*
Y1161486D01*
X1143867D01*
Y1160014D01*
X1144603D01*
Y1159278D01*
X1143867D01*
Y1158542D01*
X1144603D01*
Y1154863D01*
X1143867D01*
Y1153392D01*
X1144603D01*
Y1152656D01*
X1143867D01*
Y1153392D01*
X1143131D01*
Y1154863D01*
X1142395D01*
Y1153392D01*
X1143131D01*
Y1151184D01*
X1142395D01*
Y1153392D01*
X1141659D01*
Y1154863D01*
X1140924D01*
Y1154128D01*
X1140188D01*
Y1154863D01*
X1139452D01*
Y1154128D01*
X1137245D01*
Y1151920D01*
X1135773D01*
Y1152656D01*
X1135037D01*
Y1153392D01*
X1136509D01*
Y1154863D01*
X1137245D01*
Y1155599D01*
X1135773D01*
Y1157071D01*
X1137245D01*
Y1156335D01*
X1138716D01*
Y1157071D01*
X1137980D01*
Y1157807D01*
X1135773D01*
Y1158542D01*
X1136509D01*
Y1159278D01*
X1135773D01*
Y1160750D01*
X1136509D01*
Y1161486D01*
X1137245D01*
Y1160014D01*
X1136509D01*
Y1159278D01*
X1138716D01*
Y1160014D01*
X1137980D01*
Y1160750D01*
X1138716D01*
Y1162221D01*
X1136509D01*
Y1162957D01*
X1135773D01*
Y1163693D01*
X1136509D01*
Y1164429D01*
X1137245D01*
Y1163693D01*
X1137980D01*
Y1164429D01*
X1139452D01*
Y1165900D01*
X1140188D01*
Y1166636D01*
X1139452D01*
Y1167372D01*
X1193165D01*
Y875998D01*
D02*
G37*
G36*
X1142395Y1134997D02*
X1141659D01*
Y1135733D01*
Y1136469D01*
X1142395D01*
Y1134997D01*
D02*
G37*
G36*
X1118850Y1137940D02*
X1119586D01*
Y1135733D01*
X1118850D01*
Y1134997D01*
X1118114D01*
Y1134261D01*
X1118850D01*
Y1133525D01*
X1118114D01*
Y1132790D01*
X1117378D01*
Y1133525D01*
X1116643D01*
Y1134261D01*
X1115907D01*
Y1133525D01*
X1115171D01*
Y1132054D01*
X1113699D01*
Y1133525D01*
X1112963D01*
Y1134261D01*
X1113699D01*
Y1133525D01*
X1114435D01*
Y1134261D01*
X1115171D01*
Y1136469D01*
X1116643D01*
Y1134997D01*
X1117378D01*
Y1136469D01*
X1118114D01*
Y1137940D01*
X1117378D01*
Y1137204D01*
X1115171D01*
Y1137940D01*
X1115907D01*
Y1138676D01*
X1118850D01*
Y1137940D01*
D02*
G37*
G36*
X1133566Y1135733D02*
X1134302D01*
Y1134997D01*
X1135037D01*
Y1134261D01*
X1135773D01*
Y1132790D01*
X1135037D01*
Y1133525D01*
Y1134261D01*
X1134302D01*
Y1134997D01*
X1132830D01*
Y1136469D01*
X1133566D01*
Y1135733D01*
D02*
G37*
G36*
X1117378Y1132054D02*
X1116643D01*
Y1131318D01*
X1115907D01*
Y1132054D01*
Y1132790D01*
X1117378D01*
Y1132054D01*
D02*
G37*
G36*
X1113699Y1131318D02*
X1112963D01*
Y1132054D01*
X1113699D01*
Y1131318D01*
D02*
G37*
G36*
X1112963Y1130582D02*
X1111492D01*
Y1131318D01*
X1112963D01*
Y1130582D01*
D02*
G37*
G36*
X1110020Y1126903D02*
X1109285D01*
Y1127639D01*
X1110020D01*
Y1126903D01*
D02*
G37*
G36*
X1112963Y1129111D02*
X1112228D01*
Y1127639D01*
X1112963D01*
Y1126903D01*
X1112228D01*
Y1126168D01*
X1112963D01*
Y1125432D01*
X1112228D01*
Y1126168D01*
X1110756D01*
Y1128375D01*
X1111492D01*
Y1129846D01*
X1112963D01*
Y1129111D01*
D02*
G37*
G36*
X1110756Y1125432D02*
X1112228D01*
Y1124696D01*
X1111492D01*
Y1123960D01*
X1112228D01*
Y1122488D01*
X1110020D01*
Y1124696D01*
X1110756D01*
Y1125432D01*
X1110020D01*
Y1126168D01*
X1110756D01*
Y1125432D01*
D02*
G37*
G36*
Y1119545D02*
X1110020D01*
Y1120281D01*
X1110756D01*
Y1119545D01*
D02*
G37*
G36*
X1035705Y1102622D02*
X1036441D01*
Y1101151D01*
X1037177D01*
Y1099679D01*
X1037913D01*
Y1096736D01*
X1038648D01*
Y1093793D01*
X1039384D01*
Y1091585D01*
X1040120D01*
Y1087906D01*
X1040856D01*
Y1084963D01*
X1041591D01*
Y1081284D01*
X1042327D01*
Y1078341D01*
X1043063D01*
Y1076869D01*
X1043799D01*
Y1073926D01*
X1043063D01*
Y1076133D01*
X1042327D01*
Y1076869D01*
X1040856D01*
Y1077605D01*
X1042327D01*
Y1078341D01*
X1040856D01*
Y1081284D01*
X1040120D01*
Y1082020D01*
X1039384D01*
Y1082756D01*
X1040120D01*
Y1083491D01*
X1039384D01*
Y1084227D01*
X1038648D01*
Y1084963D01*
X1039384D01*
Y1085699D01*
X1038648D01*
Y1087170D01*
X1037913D01*
Y1087906D01*
X1038648D01*
Y1089378D01*
X1037913D01*
Y1090114D01*
X1037177D01*
Y1091585D01*
X1036441D01*
Y1093057D01*
X1035705D01*
Y1096000D01*
X1034969D01*
Y1098943D01*
X1034234D01*
Y1099679D01*
X1033498D01*
Y1101886D01*
X1032762D01*
Y1102622D01*
X1033498D01*
Y1104094D01*
X1035705D01*
Y1102622D01*
D02*
G37*
G36*
X1043063Y1072455D02*
X1043799D01*
Y1073190D01*
X1044535D01*
Y1070983D01*
X1043799D01*
Y1071719D01*
X1043063D01*
Y1072455D01*
X1042327D01*
Y1073926D01*
X1043063D01*
Y1072455D01*
D02*
G37*
G36*
X1044535Y1069511D02*
X1045270D01*
Y1067304D01*
X1046006D01*
Y1065097D01*
X1046742D01*
Y1062153D01*
X1047478D01*
Y1061418D01*
X1046006D01*
Y1062153D01*
X1045270D01*
Y1062889D01*
X1046006D01*
Y1063625D01*
X1045270D01*
Y1064361D01*
X1044535D01*
Y1065097D01*
X1045270D01*
Y1067304D01*
X1043799D01*
Y1068040D01*
X1044535D01*
Y1069511D01*
X1043799D01*
Y1070247D01*
X1044535D01*
Y1069511D01*
D02*
G37*
G36*
X1054100Y1048173D02*
X1053364D01*
Y1048909D01*
Y1049645D01*
X1054100D01*
Y1048173D01*
D02*
G37*
G36*
X1057043Y1046702D02*
X1056307D01*
Y1047438D01*
X1057043D01*
Y1046702D01*
D02*
G37*
G36*
X1054836D02*
X1056307D01*
Y1045966D01*
X1053364D01*
Y1045230D01*
X1054100D01*
Y1044494D01*
X1053364D01*
Y1045230D01*
X1052628D01*
Y1046702D01*
X1054100D01*
Y1047438D01*
X1054836D01*
Y1046702D01*
D02*
G37*
G36*
X1052628Y1044494D02*
X1053364D01*
Y1043759D01*
X1052628D01*
Y1044494D01*
X1051893D01*
Y1045230D01*
X1052628D01*
Y1044494D01*
D02*
G37*
G36*
X1051893Y1043023D02*
X1050421D01*
Y1043759D01*
X1051157D01*
Y1044494D01*
X1051893D01*
Y1043023D01*
D02*
G37*
G36*
X1043063Y1059946D02*
X1043799D01*
Y1059210D01*
X1045270D01*
Y1058474D01*
X1046742D01*
Y1057739D01*
X1047478D01*
Y1057003D01*
X1048214D01*
Y1056267D01*
X1048949D01*
Y1055531D01*
X1049685D01*
Y1054060D01*
X1050421D01*
Y1046702D01*
X1049685D01*
Y1045966D01*
X1048949D01*
Y1043023D01*
X1050421D01*
Y1042287D01*
X1051893D01*
Y1041551D01*
X1051157D01*
Y1040815D01*
X1049685D01*
Y1040080D01*
X1050421D01*
Y1039344D01*
X1051157D01*
Y1040080D01*
X1052628D01*
Y1041551D01*
X1053364D01*
Y1042287D01*
X1055572D01*
Y1040080D01*
X1054836D01*
Y1037872D01*
X1054100D01*
Y1034193D01*
X1053364D01*
Y1031250D01*
X1052628D01*
Y1027571D01*
X1051893D01*
Y1022421D01*
X1051157D01*
Y1018742D01*
X1051893D01*
Y1018006D01*
X1051157D01*
Y1012119D01*
X1050421D01*
Y1012855D01*
X1048949D01*
Y1013591D01*
X1047478D01*
Y1012855D01*
X1048214D01*
Y1012119D01*
X1048949D01*
Y1011384D01*
X1048214D01*
Y1012119D01*
X1046742D01*
Y1009912D01*
X1048214D01*
Y1004026D01*
X1047478D01*
Y1001083D01*
X1046742D01*
Y998875D01*
X1046006D01*
Y998139D01*
X1045270D01*
Y996668D01*
X1044535D01*
Y995932D01*
X1043799D01*
Y995196D01*
X1043063D01*
Y994460D01*
X1042327D01*
Y993725D01*
X1040856D01*
Y992989D01*
X1035705D01*
Y993725D01*
X1034234D01*
Y994460D01*
X1033498D01*
Y995932D01*
X1032762D01*
Y997404D01*
X1032026D01*
Y998875D01*
X1031290D01*
Y1001818D01*
X1030555D01*
Y1008440D01*
X1031290D01*
Y1011384D01*
X1032026D01*
Y1015798D01*
X1032762D01*
Y1018006D01*
X1033498D01*
Y1020213D01*
X1034234D01*
Y1021685D01*
X1034969D01*
Y1023892D01*
X1035705D01*
Y1025364D01*
X1036441D01*
Y1027571D01*
X1037177D01*
Y1029043D01*
X1037913D01*
Y1030514D01*
X1037177D01*
Y1031250D01*
X1036441D01*
Y1031986D01*
X1035705D01*
Y1034929D01*
X1034969D01*
Y1037872D01*
X1034234D01*
Y1043759D01*
X1033498D01*
Y1044494D01*
X1034234D01*
Y1045230D01*
X1033498D01*
Y1046702D01*
X1034234D01*
Y1053324D01*
X1034969D01*
Y1055531D01*
X1035705D01*
Y1057003D01*
X1036441D01*
Y1058474D01*
X1037177D01*
Y1059210D01*
X1037913D01*
Y1059946D01*
X1038648D01*
Y1060682D01*
X1043063D01*
Y1059946D01*
D02*
G37*
G36*
X1049685Y1009176D02*
X1048949D01*
Y1009912D01*
X1049685D01*
Y1009176D01*
D02*
G37*
G36*
X1132094Y995932D02*
X1131358D01*
Y996668D01*
X1132094D01*
Y995932D01*
D02*
G37*
G36*
X1132830Y993725D02*
X1132094D01*
Y994460D01*
X1128415D01*
Y995196D01*
X1132830D01*
Y993725D01*
D02*
G37*
G36*
X1048949D02*
X1048214D01*
Y994460D01*
X1048949D01*
Y993725D01*
D02*
G37*
G36*
X1050421Y999611D02*
X1051893D01*
Y998875D01*
X1052628D01*
Y995196D01*
X1053364D01*
Y992253D01*
X1054100D01*
Y989310D01*
X1054836D01*
Y987103D01*
X1055572D01*
Y985631D01*
X1056307D01*
Y984159D01*
X1057043D01*
Y983423D01*
X1056307D01*
Y982688D01*
X1057043D01*
Y980480D01*
X1050421D01*
Y981216D01*
X1049685D01*
Y981952D01*
X1048949D01*
Y982688D01*
X1049685D01*
Y983423D01*
X1048949D01*
Y984159D01*
X1048214D01*
Y984895D01*
X1047478D01*
Y984159D01*
X1046742D01*
Y984895D01*
X1044535D01*
Y985631D01*
X1043799D01*
Y986367D01*
X1042327D01*
Y985631D01*
X1040856D01*
Y986367D01*
X1039384D01*
Y987103D01*
X1040120D01*
Y987838D01*
X1038648D01*
Y988574D01*
X1040856D01*
Y989310D01*
X1040120D01*
Y990046D01*
X1040856D01*
Y989310D01*
X1041591D01*
Y990046D01*
X1042327D01*
Y989310D01*
X1043063D01*
Y990046D01*
X1042327D01*
Y990781D01*
X1043063D01*
Y990046D01*
X1044535D01*
Y990781D01*
X1045270D01*
Y990046D01*
X1046742D01*
Y989310D01*
X1048214D01*
Y990046D01*
X1047478D01*
Y991517D01*
X1048214D01*
Y990781D01*
X1048949D01*
Y992253D01*
X1048214D01*
Y992989D01*
X1047478D01*
Y992253D01*
X1046006D01*
Y993725D01*
X1046742D01*
Y994460D01*
X1046006D01*
Y995196D01*
X1046742D01*
Y995932D01*
X1047478D01*
Y997404D01*
X1048214D01*
Y995196D01*
X1047478D01*
Y993725D01*
X1048214D01*
Y992989D01*
X1049685D01*
Y994460D01*
X1048949D01*
Y995932D01*
X1049685D01*
Y996668D01*
X1048949D01*
Y998875D01*
X1048214D01*
Y999611D01*
X1048949D01*
Y1004026D01*
X1049685D01*
Y1007705D01*
X1050421D01*
Y999611D01*
D02*
G37*
G36*
X1045270Y991517D02*
X1044535D01*
Y992253D01*
Y992989D01*
X1045270D01*
Y991517D01*
D02*
G37*
G36*
X1055572Y990781D02*
X1056307D01*
Y990046D01*
X1055572D01*
Y990781D01*
X1054836D01*
Y991517D01*
X1055572D01*
Y990781D01*
D02*
G37*
G36*
X1038648Y990046D02*
X1039384D01*
Y989310D01*
X1038648D01*
Y990046D01*
X1037913D01*
Y990781D01*
X1038648D01*
Y990046D01*
D02*
G37*
G36*
X1037913Y988574D02*
X1037177D01*
Y989310D01*
X1037913D01*
Y988574D01*
D02*
G37*
G36*
X1044535Y983423D02*
X1043799D01*
Y984159D01*
X1044535D01*
Y983423D01*
D02*
G37*
G36*
X1046006Y982688D02*
X1045270D01*
Y983423D01*
X1046006D01*
Y982688D01*
D02*
G37*
G36*
X1046742Y983423D02*
X1047478D01*
Y981952D01*
X1046742D01*
Y982688D01*
Y983423D01*
X1046006D01*
Y984159D01*
X1046742D01*
Y983423D01*
D02*
G37*
G36*
X1146810Y975330D02*
X1146074D01*
Y976066D01*
X1146810D01*
Y975330D01*
D02*
G37*
G36*
X1146074Y974594D02*
X1145338D01*
Y975330D01*
X1146074D01*
Y974594D01*
D02*
G37*
G36*
X1132830D02*
X1132094D01*
Y975330D01*
X1131358D01*
Y976066D01*
X1132830D01*
Y974594D01*
D02*
G37*
G36*
X1128415D02*
X1127679D01*
Y975330D01*
X1128415D01*
Y974594D01*
D02*
G37*
G36*
X1132830Y973122D02*
X1132094D01*
Y973858D01*
X1132830D01*
Y973122D01*
D02*
G37*
G36*
X1133566Y967972D02*
X1132830D01*
Y968708D01*
X1133566D01*
Y967972D01*
D02*
G37*
G36*
X1136509Y967236D02*
X1135773D01*
Y967972D01*
X1136509D01*
Y967236D01*
D02*
G37*
G36*
X1132830Y965764D02*
X1133566D01*
Y965029D01*
X1132830D01*
Y965764D01*
X1132094D01*
Y966500D01*
X1132830D01*
Y965764D01*
D02*
G37*
G36*
X1129151Y960614D02*
X1128415D01*
Y961350D01*
X1129151D01*
Y960614D01*
D02*
G37*
G36*
X1130622Y955463D02*
X1129887D01*
Y956199D01*
X1129151D01*
Y956935D01*
X1130622D01*
Y955463D01*
D02*
G37*
G36*
X1186543Y956199D02*
X1188014D01*
Y955463D01*
X1188750D01*
Y954728D01*
X1189486D01*
Y953992D01*
X1190222D01*
Y951784D01*
X1190958D01*
Y945898D01*
X1190222D01*
Y943691D01*
X1189486D01*
Y942955D01*
X1188750D01*
Y942219D01*
X1188014D01*
Y941483D01*
X1187279D01*
Y940748D01*
X1180657D01*
Y940012D01*
X1179921D01*
Y940748D01*
X1179185D01*
Y948105D01*
X1186543D01*
Y949577D01*
X1169620D01*
Y948105D01*
X1175506D01*
Y940748D01*
X1174770D01*
Y940012D01*
X1174034D01*
Y940748D01*
X1168884D01*
Y941483D01*
X1168148D01*
Y942219D01*
X1167412D01*
Y942955D01*
X1166676D01*
Y943691D01*
X1165941D01*
Y945162D01*
X1165205D01*
Y953256D01*
X1165941D01*
Y953992D01*
X1166676D01*
Y955463D01*
X1168148D01*
Y956199D01*
X1169620D01*
Y956935D01*
X1186543D01*
Y956199D01*
D02*
G37*
G36*
X1178449Y940012D02*
X1176242D01*
Y942955D01*
Y943691D01*
Y948841D01*
X1178449D01*
Y940012D01*
D02*
G37*
G36*
X1165941Y941483D02*
X1166676D01*
Y940748D01*
X1167412D01*
Y940012D01*
X1166676D01*
Y940748D01*
X1165941D01*
Y940012D01*
X1165205D01*
Y940748D01*
X1164469D01*
Y941483D01*
X1165205D01*
Y942219D01*
X1165941D01*
Y941483D01*
D02*
G37*
G36*
X1157111Y967972D02*
X1159318D01*
Y967236D01*
X1160790D01*
Y965764D01*
X1162262D01*
Y964293D01*
X1161526D01*
Y963557D01*
X1162262D01*
Y962085D01*
X1162998D01*
Y961350D01*
X1162262D01*
Y960614D01*
X1162998D01*
Y954728D01*
X1162262D01*
Y951784D01*
X1161526D01*
Y948841D01*
X1160790D01*
Y947370D01*
X1160054D01*
Y945898D01*
X1159318D01*
Y945162D01*
X1158583D01*
Y944426D01*
X1157847D01*
Y943691D01*
X1157111D01*
Y942219D01*
X1156375D01*
Y941483D01*
X1154904D01*
Y940748D01*
X1154168D01*
Y940012D01*
X1154904D01*
Y939276D01*
X1153432D01*
Y937804D01*
X1151961D01*
Y937068D01*
X1151225D01*
Y936333D01*
X1150489D01*
Y935597D01*
X1149753D01*
Y934861D01*
X1148282D01*
Y934125D01*
X1147546D01*
Y933390D01*
X1146810D01*
Y932654D01*
X1146074D01*
Y931182D01*
X1147546D01*
Y930446D01*
X1158583D01*
Y931182D01*
X1159318D01*
Y932654D01*
X1160054D01*
Y933390D01*
X1160790D01*
Y934861D01*
X1161526D01*
Y936333D01*
X1162262D01*
Y937804D01*
X1162998D01*
Y936333D01*
X1163733D01*
Y926767D01*
X1164469D01*
Y926032D01*
X1165205D01*
Y939276D01*
X1190222D01*
Y938540D01*
X1190958D01*
Y927503D01*
X1185807D01*
Y931918D01*
X1181392D01*
Y928239D01*
X1180657D01*
Y927503D01*
X1176242D01*
Y931918D01*
X1172563D01*
Y931182D01*
X1174034D01*
Y930446D01*
X1174770D01*
Y926767D01*
X1179185D01*
Y926032D01*
X1178449D01*
Y925296D01*
X1177713D01*
Y924560D01*
X1176977D01*
Y923824D01*
Y923088D01*
X1176242D01*
Y922353D01*
X1175506D01*
Y926032D01*
X1174770D01*
Y926767D01*
X1171827D01*
Y927503D01*
X1171091D01*
Y930446D01*
X1171827D01*
Y931918D01*
X1170355D01*
Y931182D01*
X1169620D01*
Y926767D01*
X1165941D01*
Y925296D01*
X1165205D01*
Y923824D01*
X1164469D01*
Y923088D01*
X1163733D01*
Y922353D01*
X1162998D01*
Y920881D01*
X1162262D01*
Y920145D01*
X1160790D01*
Y919409D01*
X1160054D01*
Y918674D01*
X1158583D01*
Y917938D01*
X1157847D01*
Y917202D01*
X1156375D01*
Y916466D01*
X1154904D01*
Y915731D01*
X1153432D01*
Y914995D01*
X1151961D01*
Y914259D01*
X1149753D01*
Y913523D01*
X1149017D01*
Y912787D01*
X1148282D01*
Y913523D01*
X1147546D01*
Y912787D01*
X1148282D01*
Y912051D01*
X1147546D01*
Y912787D01*
X1146810D01*
Y912051D01*
X1146074D01*
Y912787D01*
X1145338D01*
Y914259D01*
X1144603D01*
Y914995D01*
X1145338D01*
Y914259D01*
X1146074D01*
Y914995D01*
X1145338D01*
Y915731D01*
X1146810D01*
Y917202D01*
X1147546D01*
Y918674D01*
X1148282D01*
Y919409D01*
X1149017D01*
Y920145D01*
X1149753D01*
Y922353D01*
X1151961D01*
Y923088D01*
X1152696D01*
Y923824D01*
X1153432D01*
Y924560D01*
X1154168D01*
Y926032D01*
X1154904D01*
Y926767D01*
X1154168D01*
Y927503D01*
X1146810D01*
Y926767D01*
X1144603D01*
Y926032D01*
X1143131D01*
Y925296D01*
X1141659D01*
Y924560D01*
X1139452D01*
Y923824D01*
X1137980D01*
Y923088D01*
X1137245D01*
Y922353D01*
X1135037D01*
Y920881D01*
X1132094D01*
Y920145D01*
X1129887D01*
Y919409D01*
X1126944D01*
Y918674D01*
X1118114D01*
Y917938D01*
X1117378D01*
Y918674D01*
X1114435D01*
Y919409D01*
X1113699D01*
Y920145D01*
X1112228D01*
Y922353D01*
X1112963D01*
Y921617D01*
X1113699D01*
Y922353D01*
X1114435D01*
Y923088D01*
X1115171D01*
Y923824D01*
X1113699D01*
Y924560D01*
X1112963D01*
Y925296D01*
X1111492D01*
Y926032D01*
X1110020D01*
Y926767D01*
X1107813D01*
Y928239D01*
X1107077D01*
Y929711D01*
X1108549D01*
Y928975D01*
X1110020D01*
Y928239D01*
X1113699D01*
Y926767D01*
X1114435D01*
Y926032D01*
X1115907D01*
Y925296D01*
X1116643D01*
Y924560D01*
X1118114D01*
Y923088D01*
X1120321D01*
Y922353D01*
X1121057D01*
Y921617D01*
X1126944D01*
Y922353D01*
X1129887D01*
Y923088D01*
X1132094D01*
Y923824D01*
X1133566D01*
Y924560D01*
X1134302D01*
Y925296D01*
X1135773D01*
Y926032D01*
X1136509D01*
Y926767D01*
X1137245D01*
Y927503D01*
X1137980D01*
Y928239D01*
X1138716D01*
Y929711D01*
X1139452D01*
Y931182D01*
X1140924D01*
Y933390D01*
X1140188D01*
Y931918D01*
X1139452D01*
Y934861D01*
X1140188D01*
Y937068D01*
X1139452D01*
Y937804D01*
X1140188D01*
Y938540D01*
X1140924D01*
Y940012D01*
X1140188D01*
Y940748D01*
X1141659D01*
Y941483D01*
X1140924D01*
Y943691D01*
X1140188D01*
Y944426D01*
X1141659D01*
Y945162D01*
X1140924D01*
Y945898D01*
X1141659D01*
Y946634D01*
X1140924D01*
Y947370D01*
X1141659D01*
Y948105D01*
X1142395D01*
Y951784D01*
X1143131D01*
Y953256D01*
X1143867D01*
Y956199D01*
X1143131D01*
Y956935D01*
X1144603D01*
Y958407D01*
X1146074D01*
Y960614D01*
X1146810D01*
Y961350D01*
X1147546D01*
Y962821D01*
X1148282D01*
Y964293D01*
X1149017D01*
Y965029D01*
X1149753D01*
Y965764D01*
X1150489D01*
Y966500D01*
X1151961D01*
Y967972D01*
X1156375D01*
Y968708D01*
X1157111D01*
Y967972D01*
D02*
G37*
G36*
X1184335Y927503D02*
X1182128D01*
Y930446D01*
Y931182D01*
X1184335D01*
Y927503D01*
D02*
G37*
G36*
X1109285Y923088D02*
X1107813D01*
Y923824D01*
X1107077D01*
Y924560D01*
X1109285D01*
Y923088D01*
D02*
G37*
G36*
X1111492Y920881D02*
X1110756D01*
Y921617D01*
X1110020D01*
Y922353D01*
X1111492D01*
Y920881D01*
D02*
G37*
G36*
X1188014Y925296D02*
X1188750D01*
Y924560D01*
X1189486D01*
Y923824D01*
X1190222D01*
Y922353D01*
X1190958D01*
Y916466D01*
Y915731D01*
X1190222D01*
Y913523D01*
X1189486D01*
Y912787D01*
X1188750D01*
Y912051D01*
X1188014D01*
Y911316D01*
X1182864D01*
Y917938D01*
X1186543D01*
Y919409D01*
X1182864D01*
Y918674D01*
X1182128D01*
Y917938D01*
X1181392D01*
Y916466D01*
X1180657D01*
Y915731D01*
X1179921D01*
Y914259D01*
X1179185D01*
Y913523D01*
X1178449D01*
Y912787D01*
X1177713D01*
Y912051D01*
X1176977D01*
Y911316D01*
X1175506D01*
Y910580D01*
X1168884D01*
Y911316D01*
X1167412D01*
Y912051D01*
X1166676D01*
Y912787D01*
X1165941D01*
Y914259D01*
X1165205D01*
Y922353D01*
X1165941D01*
Y923824D01*
X1166676D01*
Y924560D01*
X1167412D01*
Y925296D01*
X1169620D01*
Y926032D01*
X1174034D01*
Y919409D01*
X1169620D01*
Y917938D01*
X1170355D01*
Y917202D01*
X1173299D01*
Y917938D01*
X1174034D01*
Y918674D01*
X1174770D01*
Y919409D01*
X1175506D01*
Y920145D01*
X1176242D01*
Y921617D01*
X1176977D01*
Y922353D01*
X1177713D01*
Y923824D01*
X1178449D01*
Y924560D01*
X1179185D01*
Y925296D01*
X1180657D01*
Y926032D01*
X1188014D01*
Y925296D01*
D02*
G37*
G36*
X1038648Y916466D02*
D01*
D01*
D01*
D01*
D02*
G37*
G36*
X1181392Y912787D02*
Y912051D01*
Y911316D01*
X1180657D01*
Y912051D01*
X1179921D01*
Y913523D01*
X1180657D01*
Y914995D01*
X1181392D01*
Y912787D01*
D02*
G37*
G36*
X1176977Y907637D02*
X1176242D01*
Y906901D01*
Y906165D01*
X1175506D01*
Y909844D01*
X1176977D01*
Y907637D01*
D02*
G37*
G36*
X1103398Y906901D02*
X1105606D01*
Y906165D01*
X1107077D01*
Y905429D01*
X1108549D01*
Y904694D01*
X1110020D01*
Y903958D01*
X1111492D01*
Y903222D01*
X1112228D01*
Y902486D01*
X1113699D01*
Y901015D01*
X1112228D01*
Y901750D01*
X1111492D01*
Y901015D01*
X1109285D01*
Y901750D01*
X1107813D01*
Y902486D01*
X1105606D01*
Y903222D01*
X1102662D01*
Y903958D01*
X1096040D01*
Y904694D01*
X1095304D01*
Y903958D01*
X1093097D01*
Y903222D01*
X1091626D01*
Y903958D01*
X1090890D01*
Y904694D01*
X1092361D01*
Y905429D01*
X1087946D01*
Y906901D01*
X1089418D01*
Y906165D01*
X1090154D01*
Y906901D01*
X1091626D01*
Y906165D01*
X1092361D01*
Y906901D01*
X1091626D01*
Y907637D01*
X1103398D01*
Y906901D01*
D02*
G37*
G36*
X1087946Y904694D02*
X1087211D01*
Y905429D01*
X1087946D01*
Y904694D01*
D02*
G37*
G36*
X1090154Y903958D02*
X1089418D01*
Y904694D01*
X1090154D01*
Y903958D01*
D02*
G37*
G36*
X1087946Y903222D02*
X1087211D01*
Y903958D01*
X1087946D01*
Y903222D01*
D02*
G37*
G36*
X1086475D02*
X1085739D01*
Y903958D01*
X1086475D01*
Y903222D01*
D02*
G37*
G36*
X1188014Y908373D02*
X1188750D01*
Y907637D01*
X1189486D01*
Y906901D01*
X1190222D01*
Y905429D01*
X1190958D01*
Y898807D01*
X1190222D01*
Y896600D01*
X1189486D01*
Y895864D01*
X1188750D01*
Y895128D01*
X1187279D01*
Y894392D01*
X1182864D01*
Y901015D01*
X1186543D01*
Y902486D01*
X1182128D01*
Y901015D01*
X1181392D01*
Y900279D01*
X1180657D01*
Y898807D01*
X1179921D01*
Y898071D01*
X1179185D01*
Y896600D01*
X1178449D01*
Y895864D01*
X1177713D01*
Y895128D01*
X1176977D01*
Y894392D01*
X1175506D01*
Y893657D01*
X1168884D01*
Y894392D01*
X1167412D01*
Y895128D01*
X1166676D01*
Y895864D01*
X1165941D01*
Y897336D01*
X1165205D01*
Y905429D01*
X1165941D01*
Y906901D01*
X1166676D01*
Y907637D01*
X1167412D01*
Y908373D01*
X1168884D01*
Y909108D01*
X1174034D01*
Y902486D01*
X1169620D01*
Y901015D01*
X1170355D01*
Y900279D01*
X1172563D01*
Y901015D01*
X1174034D01*
Y901750D01*
X1174770D01*
Y902486D01*
X1175506D01*
Y903222D01*
X1176242D01*
Y904694D01*
X1176977D01*
Y906165D01*
X1177713D01*
Y906901D01*
X1178449D01*
Y907637D01*
X1179185D01*
Y908373D01*
X1180657D01*
Y909108D01*
X1188014D01*
Y908373D01*
D02*
G37*
G36*
X1114435Y899543D02*
X1113699D01*
Y900279D01*
X1114435D01*
Y899543D01*
D02*
G37*
G36*
X1117378Y900279D02*
X1118850D01*
Y899543D01*
X1129151D01*
Y900279D01*
X1131358D01*
Y898807D01*
X1129887D01*
Y898071D01*
X1127679D01*
Y897336D01*
X1121057D01*
Y898071D01*
X1117378D01*
Y898807D01*
X1115171D01*
Y900279D01*
X1115907D01*
Y901015D01*
X1117378D01*
Y900279D01*
D02*
G37*
G36*
X1082060Y889978D02*
X1083532D01*
Y889242D01*
X1084268D01*
Y888506D01*
X1082796D01*
Y889242D01*
X1082060D01*
Y889978D01*
X1081324D01*
Y890714D01*
X1082060D01*
Y889978D01*
D02*
G37*
G36*
X1086475Y887770D02*
X1087946D01*
Y886299D01*
X1087211D01*
Y887035D01*
X1086475D01*
Y886299D01*
X1085739D01*
Y887035D01*
X1085003D01*
Y888506D01*
X1086475D01*
Y887770D01*
D02*
G37*
G36*
X1089418Y884827D02*
X1087946D01*
Y885563D01*
X1089418D01*
Y884827D01*
D02*
G37*
G36*
X1163733Y912787D02*
X1164469D01*
Y912051D01*
X1165205D01*
Y911316D01*
X1165941D01*
Y910580D01*
X1167412D01*
Y909108D01*
X1165941D01*
Y908373D01*
X1165205D01*
Y907637D01*
X1164469D01*
Y906165D01*
X1163733D01*
Y903958D01*
X1162998D01*
Y898807D01*
X1163733D01*
Y896600D01*
X1164469D01*
Y895864D01*
X1165205D01*
Y894392D01*
X1165941D01*
Y893657D01*
X1167412D01*
Y892921D01*
X1175506D01*
Y891449D01*
X1174770D01*
Y890714D01*
X1174034D01*
Y889978D01*
X1172563D01*
Y888506D01*
X1171091D01*
Y887770D01*
X1170355D01*
Y887035D01*
X1168884D01*
Y886299D01*
X1167412D01*
Y885563D01*
X1165941D01*
Y884827D01*
X1161526D01*
Y884091D01*
X1159318D01*
Y884827D01*
X1158583D01*
Y884091D01*
X1157847D01*
Y884827D01*
X1157111D01*
Y884091D01*
X1152696D01*
Y884827D01*
X1153432D01*
Y885563D01*
X1151961D01*
Y886299D01*
X1149753D01*
Y887035D01*
X1148282D01*
Y887770D01*
X1147546D01*
Y889242D01*
X1146810D01*
Y889978D01*
X1145338D01*
Y890714D01*
Y891449D01*
Y892185D01*
X1144603D01*
Y892921D01*
X1143867D01*
Y893657D01*
X1143131D01*
Y896600D01*
X1142395D01*
Y898071D01*
X1143131D01*
Y898807D01*
X1144603D01*
Y900279D01*
X1146810D01*
Y901015D01*
X1148282D01*
Y901750D01*
X1149017D01*
Y903222D01*
X1150489D01*
Y903958D01*
X1151225D01*
Y904694D01*
X1151961D01*
Y905429D01*
X1154168D01*
Y906165D01*
X1154904D01*
Y906901D01*
X1155639D01*
Y907637D01*
X1156375D01*
Y908373D01*
X1157111D01*
Y909108D01*
X1157847D01*
Y909844D01*
X1158583D01*
Y910580D01*
X1160054D01*
Y911316D01*
X1160790D01*
Y912051D01*
X1161526D01*
Y912787D01*
X1162262D01*
Y913523D01*
X1163733D01*
Y912787D01*
D02*
G37*
G36*
X1139452Y884827D02*
X1141659D01*
Y884091D01*
X1143867D01*
Y883356D01*
X1146074D01*
Y882620D01*
X1146810D01*
Y881884D01*
X1147546D01*
Y881148D01*
X1148282D01*
Y881884D01*
X1149753D01*
Y881148D01*
X1151961D01*
Y880412D01*
X1152696D01*
Y879677D01*
X1156375D01*
Y878941D01*
X1157111D01*
Y878205D01*
X1156375D01*
Y877469D01*
X1151961D01*
Y875998D01*
X1138716D01*
Y876733D01*
X1139452D01*
Y878205D01*
X1137980D01*
Y879677D01*
X1138716D01*
Y880412D01*
X1137245D01*
Y881148D01*
X1135037D01*
Y881884D01*
X1134302D01*
Y882620D01*
X1127679D01*
Y881884D01*
X1125472D01*
Y881148D01*
X1123265D01*
Y881884D01*
X1122529D01*
Y881148D01*
X1120321D01*
Y880412D01*
X1119586D01*
Y879677D01*
X1118114D01*
Y880412D01*
X1117378D01*
Y878941D01*
X1115907D01*
Y878205D01*
X1113699D01*
Y877469D01*
X1112228D01*
Y876733D01*
X1109285D01*
Y875998D01*
X1098248D01*
Y876733D01*
X1097512D01*
Y875998D01*
X1094569D01*
Y876733D01*
X1092361D01*
Y877469D01*
X1090154D01*
Y878205D01*
X1088682D01*
Y878941D01*
X1087211D01*
Y879677D01*
X1086475D01*
Y880412D01*
X1085739D01*
Y881148D01*
X1085003D01*
Y881884D01*
X1083532D01*
Y882620D01*
X1082796D01*
Y884091D01*
X1084268D01*
Y883356D01*
X1085003D01*
Y881884D01*
X1085739D01*
Y881148D01*
X1087946D01*
Y880412D01*
X1090154D01*
Y879677D01*
X1091626D01*
Y878941D01*
X1093833D01*
Y880412D01*
X1095304D01*
Y881148D01*
X1093097D01*
Y881884D01*
X1092361D01*
Y883356D01*
X1093833D01*
Y882620D01*
X1095304D01*
Y881884D01*
X1096040D01*
Y881148D01*
X1097512D01*
Y880412D01*
X1098983D01*
Y879677D01*
X1101191D01*
Y878941D01*
X1108549D01*
Y879677D01*
X1110756D01*
Y880412D01*
X1112963D01*
Y881148D01*
X1115171D01*
Y881884D01*
X1117378D01*
Y882620D01*
X1119586D01*
Y883356D01*
X1121057D01*
Y882620D01*
X1122529D01*
Y884091D01*
X1123265D01*
Y883356D01*
X1124000D01*
Y884091D01*
X1125472D01*
Y884827D01*
X1126944D01*
Y885563D01*
X1139452D01*
Y884827D01*
D02*
G37*
G36*
X1091626Y883356D02*
X1090890D01*
Y884091D01*
X1091626D01*
Y883356D01*
D02*
G37*
G36*
X1086475Y881884D02*
X1085739D01*
Y882620D01*
X1086475D01*
Y881884D01*
D02*
G37*
G36*
X1137245Y879677D02*
X1136509D01*
Y880412D01*
X1137245D01*
Y879677D01*
D02*
G37*
G36*
X1159318Y878205D02*
X1157847D01*
Y878941D01*
X1159318D01*
Y878205D01*
D02*
G37*
G36*
X1154904Y875998D02*
X1154168D01*
Y876733D01*
X1154904D01*
Y875998D01*
D02*
G37*
G36*
X1076910D02*
X1076174D01*
Y876733D01*
X1076910D01*
Y875998D01*
D02*
G37*
%LPC*%
G36*
X1146074Y1166636D02*
X1145338D01*
Y1165164D01*
X1146074D01*
Y1166636D01*
D02*
G37*
G36*
X1142395D02*
X1141659D01*
X1140924Y1165900D01*
Y1164429D01*
X1141659D01*
Y1165900D01*
X1142395D01*
Y1166636D01*
D02*
G37*
G36*
X1138716Y1163693D02*
X1137980D01*
Y1162957D01*
X1138716D01*
Y1163693D01*
D02*
G37*
G36*
X1110020Y1162221D02*
X1109285D01*
Y1161486D01*
X1110020D01*
Y1162221D01*
D02*
G37*
G36*
X1107813D02*
X1107077D01*
Y1161486D01*
X1107813D01*
Y1162221D01*
D02*
G37*
G36*
X1141659Y1163693D02*
X1140188D01*
Y1162957D01*
X1141659D01*
Y1162221D01*
X1140188D01*
Y1161486D01*
X1141659D01*
Y1160750D01*
X1142395D01*
Y1160014D01*
X1143131D01*
Y1162221D01*
X1142395D01*
Y1162957D01*
X1141659D01*
Y1163693D01*
D02*
G37*
G36*
X1104134Y1160750D02*
X1103398D01*
Y1160014D01*
X1104134D01*
Y1160750D01*
D02*
G37*
G36*
X1113699Y1159278D02*
X1112963D01*
Y1158542D01*
X1113699D01*
Y1159278D01*
D02*
G37*
G36*
X1143131D02*
X1142395D01*
Y1157807D01*
X1143867D01*
Y1158542D01*
X1143131D01*
Y1159278D01*
D02*
G37*
G36*
X1141659Y1160014D02*
X1140924D01*
Y1157807D01*
X1141659D01*
Y1160014D01*
D02*
G37*
G36*
X1140188Y1159278D02*
X1139452D01*
Y1157807D01*
X1140188D01*
Y1159278D01*
D02*
G37*
G36*
X1141659Y1157071D02*
X1140924D01*
Y1156335D01*
X1141659D01*
Y1157071D01*
D02*
G37*
G36*
X1118850Y1155599D02*
X1118114D01*
Y1154863D01*
X1118850D01*
Y1155599D01*
D02*
G37*
G36*
X1118114Y1154863D02*
X1117378D01*
Y1154128D01*
X1118114D01*
Y1154863D01*
D02*
G37*
G36*
X1119586Y1153392D02*
X1118850D01*
Y1152656D01*
X1119586D01*
Y1153392D01*
D02*
G37*
G36*
Y1151920D02*
X1118850D01*
Y1151184D01*
X1119586D01*
Y1151920D01*
D02*
G37*
G36*
X1190222Y1149713D02*
X1189486D01*
Y1148977D01*
X1188750D01*
Y1149713D01*
X1185807D01*
Y1148977D01*
X1184335D01*
Y1145298D01*
X1163733D01*
Y1136469D01*
X1165941D01*
Y1137204D01*
X1165205D01*
Y1144562D01*
X1185807D01*
Y1147505D01*
X1186543D01*
Y1148241D01*
X1190958D01*
Y1133525D01*
X1185807D01*
Y1137204D01*
X1166676D01*
Y1136469D01*
X1184335D01*
Y1133525D01*
X1164469D01*
Y1132790D01*
X1163733D01*
Y1116602D01*
X1164469D01*
Y1115866D01*
X1168148D01*
Y1115131D01*
X1166676D01*
Y1114395D01*
X1165941D01*
Y1113659D01*
X1165205D01*
Y1112923D01*
X1164469D01*
Y1112187D01*
X1163733D01*
Y1109980D01*
X1162998D01*
Y1104094D01*
X1163733D01*
Y1101886D01*
X1164469D01*
Y1101151D01*
X1165205D01*
Y1100415D01*
X1165941D01*
Y1099679D01*
X1167412D01*
Y1098943D01*
X1168148D01*
Y1098207D01*
X1167412D01*
Y1097471D01*
X1165941D01*
Y1096736D01*
X1165205D01*
Y1096000D01*
X1164469D01*
Y1094528D01*
X1163733D01*
Y1093057D01*
X1162998D01*
Y1086435D01*
X1163733D01*
Y1084963D01*
X1164469D01*
Y1083491D01*
X1165205D01*
Y1082756D01*
X1165941D01*
Y1082020D01*
X1167412D01*
Y1081284D01*
X1175506D01*
Y1082020D01*
X1168884D01*
Y1082756D01*
X1167412D01*
Y1083491D01*
X1166676D01*
Y1084227D01*
X1165941D01*
Y1085699D01*
X1165205D01*
Y1093793D01*
X1165941D01*
Y1095264D01*
X1166676D01*
Y1096000D01*
X1167412D01*
Y1096736D01*
X1168884D01*
Y1097471D01*
X1174034D01*
Y1090849D01*
X1169620D01*
Y1089378D01*
X1170355D01*
Y1088642D01*
X1173299D01*
Y1089378D01*
X1174034D01*
Y1090114D01*
X1174770D01*
Y1090849D01*
X1175506D01*
Y1091585D01*
X1176242D01*
Y1093057D01*
X1176977D01*
Y1093793D01*
X1177713D01*
Y1095264D01*
X1178449D01*
Y1096000D01*
X1179185D01*
Y1096736D01*
X1180657D01*
Y1097471D01*
X1188014D01*
Y1096736D01*
X1188750D01*
Y1096000D01*
X1189486D01*
Y1095264D01*
X1190222D01*
Y1093793D01*
X1190958D01*
Y1087170D01*
X1190222D01*
Y1084963D01*
X1189486D01*
Y1084227D01*
X1188750D01*
Y1083491D01*
X1187279D01*
Y1082756D01*
X1182864D01*
Y1089378D01*
X1186543D01*
Y1090849D01*
X1182128D01*
Y1089378D01*
X1181392D01*
Y1088642D01*
X1180657D01*
Y1087170D01*
X1179921D01*
Y1085699D01*
X1180657D01*
Y1086435D01*
X1181392D01*
Y1082756D01*
X1182128D01*
Y1082020D01*
X1184335D01*
Y1079077D01*
X1164469D01*
Y1078341D01*
X1163733D01*
Y1070247D01*
X1165205D01*
Y1077605D01*
X1185807D01*
Y1081284D01*
X1190958D01*
Y1066568D01*
X1191693D01*
Y1082756D01*
X1189486D01*
Y1083491D01*
X1190222D01*
Y1084227D01*
X1190958D01*
Y1084963D01*
X1191693D01*
Y1087170D01*
X1192429D01*
Y1093057D01*
X1191693D01*
Y1095264D01*
X1190958D01*
Y1096736D01*
X1190222D01*
Y1097471D01*
X1188750D01*
Y1098207D01*
X1188014D01*
Y1098943D01*
X1179921D01*
Y1098207D01*
X1179185D01*
Y1097471D01*
X1178449D01*
Y1096736D01*
X1177713D01*
Y1096000D01*
X1176977D01*
Y1095264D01*
X1176242D01*
Y1094528D01*
X1175506D01*
Y1098207D01*
X1174770D01*
Y1098943D01*
X1169620D01*
Y1099679D01*
X1168148D01*
Y1100415D01*
X1167412D01*
Y1101151D01*
X1166676D01*
Y1101886D01*
X1165941D01*
Y1103358D01*
X1165205D01*
Y1110716D01*
X1165941D01*
Y1112187D01*
X1166676D01*
Y1112923D01*
X1167412D01*
Y1113659D01*
X1168148D01*
Y1114395D01*
X1170355D01*
Y1115131D01*
X1190958D01*
Y1107773D01*
X1169620D01*
Y1106301D01*
X1190958D01*
Y1098943D01*
X1191693D01*
Y1115866D01*
X1187279D01*
Y1116602D01*
X1181392D01*
Y1117338D01*
X1179921D01*
Y1118074D01*
X1179185D01*
Y1118810D01*
X1177713D01*
Y1118074D01*
X1176977D01*
Y1117338D01*
X1179185D01*
Y1116602D01*
X1179921D01*
Y1115866D01*
X1176242D01*
Y1116602D01*
X1176977D01*
Y1117338D01*
X1175506D01*
Y1116602D01*
X1165205D01*
Y1123224D01*
X1175506D01*
Y1123960D01*
X1176242D01*
Y1125432D01*
X1165205D01*
Y1132054D01*
X1190958D01*
Y1121017D01*
X1191693D01*
Y1148977D01*
X1190222D01*
Y1149713D01*
D02*
G37*
G36*
X1120321Y1140148D02*
X1119586D01*
Y1139412D01*
X1120321D01*
Y1140148D01*
D02*
G37*
G36*
X1138716Y1137940D02*
X1137980D01*
Y1137204D01*
X1138716D01*
Y1137940D01*
D02*
G37*
G36*
Y1136469D02*
X1137980D01*
Y1135733D01*
X1138716D01*
Y1136469D01*
D02*
G37*
G36*
X1139452Y1135733D02*
X1138716D01*
Y1134261D01*
X1139452D01*
Y1135733D01*
D02*
G37*
G36*
X1045270Y1137204D02*
X1043063D01*
Y1136469D01*
X1041591D01*
Y1135733D01*
X1039384D01*
Y1134997D01*
X1037913D01*
Y1134261D01*
X1036441D01*
Y1133525D01*
X1034969D01*
Y1132790D01*
X1033498D01*
Y1132054D01*
X1032762D01*
Y1131318D01*
X1034969D01*
Y1132054D01*
X1036441D01*
Y1132790D01*
X1037177D01*
Y1133525D01*
X1040120D01*
Y1134261D01*
X1040856D01*
Y1134997D01*
X1042327D01*
Y1135733D01*
X1044535D01*
Y1136469D01*
X1045270D01*
Y1137204D01*
D02*
G37*
G36*
X1130622Y1131318D02*
X1129887D01*
Y1130582D01*
X1130622D01*
Y1131318D01*
D02*
G37*
G36*
X1133566Y1130582D02*
X1132094D01*
Y1129846D01*
X1133566D01*
Y1130582D01*
D02*
G37*
G36*
X1031290D02*
X1029083D01*
Y1129846D01*
X1031290D01*
Y1130582D01*
D02*
G37*
G36*
X1140924D02*
X1140188D01*
Y1129846D01*
X1140924D01*
Y1130582D01*
D02*
G37*
G36*
X1135037D02*
X1134302D01*
Y1129846D01*
X1135037D01*
Y1130582D01*
D02*
G37*
G36*
X1147546Y1129111D02*
X1146810D01*
Y1128375D01*
X1147546D01*
Y1129111D01*
D02*
G37*
G36*
X1142395Y1126903D02*
X1140924D01*
Y1126168D01*
X1142395D01*
Y1126903D01*
D02*
G37*
G36*
X1129151D02*
X1127679D01*
Y1126168D01*
X1129151D01*
Y1126903D01*
D02*
G37*
G36*
X1147546Y1126168D02*
X1146810D01*
Y1125432D01*
X1147546D01*
Y1126168D01*
D02*
G37*
G36*
X1185807Y1125432D02*
X1181392D01*
Y1123224D01*
X1185807D01*
Y1123960D01*
X1186543D01*
Y1124696D01*
X1185807D01*
Y1125432D01*
D02*
G37*
G36*
X1026140Y1123960D02*
X1025404D01*
Y1123224D01*
X1026140D01*
Y1123960D01*
D02*
G37*
G36*
X1117378Y1121753D02*
X1116643D01*
Y1121017D01*
X1117378D01*
Y1121753D01*
D02*
G37*
G36*
X1115171D02*
X1113699D01*
Y1121017D01*
X1114435D01*
Y1120281D01*
X1115171D01*
Y1121753D01*
D02*
G37*
G36*
X1113699Y1121017D02*
X1112963D01*
Y1120281D01*
X1113699D01*
Y1121017D01*
D02*
G37*
G36*
X1133566D02*
X1132830D01*
Y1120281D01*
X1133566D01*
Y1121017D01*
D02*
G37*
G36*
X1190958Y1120281D02*
X1190222D01*
Y1118810D01*
X1190958D01*
Y1120281D01*
D02*
G37*
G36*
X1190222Y1118810D02*
X1189486D01*
Y1118074D01*
X1190222D01*
Y1118810D01*
D02*
G37*
G36*
X1189486Y1118074D02*
X1188750D01*
Y1117338D01*
X1189486D01*
Y1118074D01*
D02*
G37*
G36*
X1146810D02*
X1146074D01*
Y1117338D01*
X1146810D01*
Y1118074D01*
D02*
G37*
G36*
X1188014Y1117338D02*
X1187279D01*
Y1116602D01*
X1188014D01*
Y1117338D01*
D02*
G37*
G36*
X1148282Y1115866D02*
X1147546D01*
Y1115131D01*
X1148282D01*
Y1115866D01*
D02*
G37*
G36*
X1143131Y1121017D02*
X1140924D01*
Y1120281D01*
X1142395D01*
Y1118810D01*
X1143131D01*
Y1118074D01*
X1140924D01*
Y1116602D01*
X1141659D01*
Y1115866D01*
X1140924D01*
Y1115131D01*
X1141659D01*
Y1113659D01*
X1140924D01*
Y1111452D01*
X1141659D01*
Y1107773D01*
X1142395D01*
Y1106301D01*
X1141659D01*
Y1105565D01*
X1140188D01*
Y1104829D01*
X1141659D01*
Y1101886D01*
X1140924D01*
Y1103358D01*
X1138716D01*
Y1102622D01*
X1139452D01*
Y1101886D01*
X1140188D01*
Y1101151D01*
X1139452D01*
Y1099679D01*
X1140924D01*
Y1098943D01*
X1139452D01*
Y1099679D01*
X1138716D01*
Y1098207D01*
X1137980D01*
Y1096736D01*
X1137245D01*
Y1097471D01*
X1136509D01*
Y1098207D01*
X1137245D01*
Y1098943D01*
X1136509D01*
Y1099679D01*
X1135037D01*
Y1098943D01*
X1134302D01*
Y1098207D01*
X1133566D01*
Y1098943D01*
X1132830D01*
Y1098207D01*
X1132094D01*
Y1097471D01*
X1131358D01*
Y1098207D01*
X1127679D01*
Y1097471D01*
X1126944D01*
Y1098943D01*
X1125472D01*
Y1099679D01*
X1124736D01*
Y1098943D01*
X1124000D01*
Y1099679D01*
X1121793D01*
Y1100415D01*
X1121057D01*
Y1101886D01*
X1120321D01*
Y1102622D01*
X1119586D01*
Y1104094D01*
X1118850D01*
Y1104829D01*
X1117378D01*
Y1105565D01*
X1116643D01*
Y1106301D01*
X1115907D01*
Y1108508D01*
X1115171D01*
Y1109980D01*
X1114435D01*
Y1110716D01*
X1115907D01*
Y1109980D01*
X1118114D01*
Y1109244D01*
X1118850D01*
Y1107773D01*
X1120321D01*
Y1106301D01*
X1121793D01*
Y1105565D01*
X1123265D01*
Y1104829D01*
X1124000D01*
Y1104094D01*
X1128415D01*
Y1104829D01*
X1129887D01*
Y1107037D01*
X1132094D01*
Y1107773D01*
X1132830D01*
Y1108508D01*
X1132094D01*
Y1110716D01*
X1132830D01*
Y1109980D01*
X1133566D01*
Y1111452D01*
X1134302D01*
Y1112187D01*
X1133566D01*
Y1114395D01*
X1135037D01*
Y1116602D01*
X1133566D01*
Y1117338D01*
X1134302D01*
Y1118074D01*
X1133566D01*
Y1118810D01*
X1131358D01*
Y1119545D01*
X1130622D01*
Y1118810D01*
X1129151D01*
Y1119545D01*
X1128415D01*
Y1118810D01*
X1126944D01*
Y1118074D01*
X1125472D01*
Y1117338D01*
X1124736D01*
Y1116602D01*
X1121793D01*
Y1115866D01*
X1121057D01*
Y1115131D01*
X1119586D01*
Y1114395D01*
X1118114D01*
Y1113659D01*
X1117378D01*
Y1112923D01*
X1115907D01*
Y1112187D01*
X1113699D01*
Y1111452D01*
X1104134D01*
Y1110716D01*
X1103398D01*
Y1111452D01*
X1102662D01*
Y1112187D01*
X1101191D01*
Y1112923D01*
X1099719D01*
Y1113659D01*
X1098983D01*
Y1114395D01*
X1097512D01*
Y1115131D01*
X1095304D01*
Y1116602D01*
X1092361D01*
Y1117338D01*
X1089418D01*
Y1118074D01*
X1084268D01*
Y1117338D01*
X1082060D01*
Y1116602D01*
X1079117D01*
Y1115866D01*
X1078381D01*
Y1115131D01*
X1077645D01*
Y1113659D01*
X1076910D01*
Y1109980D01*
X1076174D01*
Y1101886D01*
X1075438D01*
Y1096736D01*
X1074702D01*
Y1093057D01*
X1076174D01*
Y1092321D01*
X1074702D01*
Y1086435D01*
X1073966D01*
Y1084227D01*
X1073231D01*
Y1083491D01*
X1073966D01*
Y1082756D01*
X1074702D01*
Y1082020D01*
X1073966D01*
Y1078341D01*
X1074702D01*
Y1079077D01*
X1075438D01*
Y1078341D01*
X1076174D01*
Y1077605D01*
Y1076869D01*
X1075438D01*
Y1078341D01*
X1074702D01*
Y1074662D01*
X1075438D01*
Y1075398D01*
X1076174D01*
Y1074662D01*
X1075438D01*
Y1073926D01*
X1076174D01*
Y1073190D01*
X1074702D01*
Y1072455D01*
X1076174D01*
Y1070983D01*
X1075438D01*
Y1070247D01*
X1074702D01*
Y1070983D01*
X1073966D01*
Y1068776D01*
X1075438D01*
Y1069511D01*
X1076910D01*
Y1070247D01*
X1079853D01*
Y1070983D01*
X1080589D01*
Y1071719D01*
X1079853D01*
Y1081284D01*
X1080589D01*
Y1082756D01*
X1081324D01*
Y1084227D01*
X1082060D01*
Y1085699D01*
X1083532D01*
Y1086435D01*
X1084268D01*
Y1087170D01*
X1086475D01*
Y1087906D01*
X1087946D01*
Y1087170D01*
X1088682D01*
Y1086435D01*
X1089418D01*
Y1084963D01*
X1088682D01*
Y1084227D01*
X1089418D01*
Y1080548D01*
X1091626D01*
Y1081284D01*
X1093833D01*
Y1080548D01*
X1095304D01*
Y1079812D01*
X1096776D01*
Y1078341D01*
X1097512D01*
Y1076133D01*
X1098248D01*
Y1073190D01*
X1097512D01*
Y1072455D01*
X1098248D01*
Y1070983D01*
X1098983D01*
Y1065097D01*
X1098248D01*
Y1064361D01*
X1097512D01*
Y1063625D01*
X1096776D01*
Y1062153D01*
X1094569D01*
Y1061418D01*
X1091626D01*
Y1060682D01*
X1090154D01*
Y1059946D01*
X1088682D01*
Y1059210D01*
X1087211D01*
Y1058474D01*
X1086475D01*
Y1057739D01*
X1085739D01*
Y1057003D01*
X1084268D01*
Y1055531D01*
X1082796D01*
Y1054796D01*
X1082060D01*
Y1054060D01*
X1081324D01*
Y1053324D01*
X1080589D01*
Y1050381D01*
X1081324D01*
Y1047438D01*
X1082060D01*
Y1045230D01*
X1082796D01*
Y1043023D01*
X1083532D01*
Y1040815D01*
X1084268D01*
Y1040080D01*
X1085003D01*
Y1038608D01*
X1085739D01*
Y1036401D01*
X1086475D01*
Y1035665D01*
X1087211D01*
Y1034929D01*
X1088682D01*
Y1034193D01*
X1090154D01*
Y1033457D01*
X1099719D01*
Y1034193D01*
X1101191D01*
Y1033457D01*
X1101927D01*
Y1026099D01*
X1102662D01*
Y1025364D01*
X1103398D01*
Y1034929D01*
X1104134D01*
Y1035665D01*
X1104870D01*
Y1034929D01*
X1105606D01*
Y1020949D01*
X1104870D01*
Y1018742D01*
X1104134D01*
Y1016534D01*
X1103398D01*
Y1014327D01*
X1102662D01*
Y1012855D01*
X1101927D01*
Y1011384D01*
X1101191D01*
Y1010648D01*
X1100455D01*
Y1009912D01*
X1099719D01*
Y1009176D01*
X1098983D01*
Y1008440D01*
X1101191D01*
Y1009912D01*
X1101927D01*
Y1010648D01*
X1102662D01*
Y1011384D01*
X1103398D01*
Y1012855D01*
X1104134D01*
Y1013591D01*
X1104870D01*
Y1015798D01*
X1105606D01*
Y1017270D01*
X1106341D01*
Y1020213D01*
X1107077D01*
Y1026099D01*
X1107813D01*
Y1028307D01*
X1109285D01*
Y1027571D01*
X1110756D01*
Y1026835D01*
X1111492D01*
Y1024628D01*
X1110756D01*
Y1021685D01*
X1111492D01*
Y1020949D01*
X1110756D01*
Y1019477D01*
X1111492D01*
Y1016534D01*
X1110756D01*
Y1015798D01*
X1110020D01*
Y1013591D01*
X1110756D01*
Y1014327D01*
X1111492D01*
Y1015798D01*
X1112963D01*
Y1016534D01*
X1113699D01*
Y1015798D01*
X1114435D01*
Y1008440D01*
X1115171D01*
Y1007705D01*
X1114435D01*
Y1006969D01*
X1113699D01*
Y1007705D01*
X1112963D01*
Y1008440D01*
X1111492D01*
Y1009912D01*
X1110756D01*
Y1011384D01*
X1110020D01*
Y1012119D01*
X1109285D01*
Y1011384D01*
X1110020D01*
Y1009176D01*
X1110756D01*
Y1007705D01*
X1111492D01*
Y1006233D01*
X1112963D01*
Y1005497D01*
X1114435D01*
Y1004762D01*
X1115171D01*
Y1004026D01*
X1116643D01*
Y1003290D01*
X1118850D01*
Y1004026D01*
X1119586D01*
Y1004762D01*
X1122529D01*
Y1005497D01*
X1124000D01*
Y1006233D01*
X1125472D01*
Y1005497D01*
X1126944D01*
Y1006233D01*
X1127679D01*
Y1007705D01*
X1128415D01*
Y1009176D01*
X1129151D01*
Y1009912D01*
X1129887D01*
Y1012119D01*
X1128415D01*
Y1012855D01*
X1126208D01*
Y1014327D01*
X1125472D01*
Y1015798D01*
X1126208D01*
Y1016534D01*
X1126944D01*
Y1017270D01*
X1130622D01*
Y1018742D01*
X1129887D01*
Y1020949D01*
X1132830D01*
Y1020213D01*
X1134302D01*
Y1019477D01*
X1135037D01*
Y1018742D01*
X1135773D01*
Y1019477D01*
X1136509D01*
Y1018006D01*
X1137245D01*
Y1017270D01*
X1139452D01*
Y1015798D01*
X1141659D01*
Y1016534D01*
X1140924D01*
Y1017270D01*
X1139452D01*
Y1018006D01*
X1142395D01*
Y1018742D01*
X1141659D01*
Y1020213D01*
X1143131D01*
Y1020949D01*
X1141659D01*
Y1021685D01*
X1142395D01*
Y1023156D01*
X1143131D01*
Y1022421D01*
X1144603D01*
Y1023156D01*
X1143867D01*
Y1024628D01*
X1143131D01*
Y1023892D01*
X1142395D01*
Y1027571D01*
X1143131D01*
Y1026099D01*
X1143867D01*
Y1029779D01*
X1143131D01*
Y1030514D01*
X1143867D01*
Y1031250D01*
X1143131D01*
Y1031986D01*
X1141659D01*
Y1032722D01*
X1143131D01*
Y1033457D01*
X1142395D01*
Y1034193D01*
X1143131D01*
Y1034929D01*
X1142395D01*
Y1035665D01*
X1143131D01*
Y1036401D01*
X1142395D01*
Y1037136D01*
X1143131D01*
Y1037872D01*
X1144603D01*
Y1038608D01*
X1143131D01*
Y1039344D01*
X1144603D01*
Y1040080D01*
X1143131D01*
Y1040815D01*
X1142395D01*
Y1042287D01*
X1143867D01*
Y1045230D01*
X1143131D01*
Y1045966D01*
X1144603D01*
Y1046702D01*
X1143867D01*
Y1048909D01*
X1144603D01*
Y1049645D01*
X1145338D01*
Y1051852D01*
X1144603D01*
Y1052588D01*
X1145338D01*
Y1054060D01*
X1144603D01*
Y1054796D01*
X1146810D01*
Y1055531D01*
X1144603D01*
Y1056267D01*
X1146810D01*
Y1058474D01*
X1146074D01*
Y1059946D01*
X1145338D01*
Y1060682D01*
X1146074D01*
Y1061418D01*
X1146810D01*
Y1062153D01*
X1145338D01*
Y1063625D01*
X1146810D01*
Y1064361D01*
X1145338D01*
Y1067304D01*
X1146074D01*
Y1070247D01*
X1144603D01*
Y1070983D01*
X1145338D01*
Y1071719D01*
X1146074D01*
Y1073190D01*
X1146810D01*
Y1073926D01*
X1146074D01*
Y1074662D01*
X1146810D01*
Y1075398D01*
X1144603D01*
Y1076869D01*
X1145338D01*
Y1080548D01*
X1144603D01*
Y1082020D01*
X1146074D01*
Y1080548D01*
X1146810D01*
Y1082756D01*
X1146074D01*
Y1083491D01*
X1145338D01*
Y1082756D01*
X1144603D01*
Y1084963D01*
X1145338D01*
Y1084227D01*
X1146810D01*
Y1083491D01*
X1147546D01*
Y1082756D01*
X1148282D01*
Y1084227D01*
X1146810D01*
Y1084963D01*
X1145338D01*
Y1085699D01*
X1144603D01*
Y1086435D01*
X1147546D01*
Y1085699D01*
X1148282D01*
Y1086435D01*
X1147546D01*
Y1087170D01*
X1146074D01*
Y1087906D01*
X1145338D01*
Y1090114D01*
X1144603D01*
Y1090849D01*
X1146810D01*
Y1090114D01*
X1146074D01*
Y1088642D01*
X1146810D01*
Y1089378D01*
X1149017D01*
Y1090114D01*
X1148282D01*
Y1090849D01*
X1146810D01*
Y1091585D01*
X1146074D01*
Y1093793D01*
X1145338D01*
Y1093057D01*
X1144603D01*
Y1093793D01*
X1143867D01*
Y1096000D01*
X1144603D01*
Y1096736D01*
X1146074D01*
Y1096000D01*
X1146810D01*
Y1096736D01*
X1146074D01*
Y1097471D01*
X1145338D01*
Y1098943D01*
X1144603D01*
Y1099679D01*
X1145338D01*
Y1100415D01*
X1144603D01*
Y1101151D01*
X1143867D01*
Y1101886D01*
X1144603D01*
Y1102622D01*
X1146074D01*
Y1103358D01*
X1146810D01*
Y1102622D01*
X1148282D01*
Y1099679D01*
X1147546D01*
Y1098207D01*
X1148282D01*
Y1098943D01*
X1149753D01*
Y1099679D01*
X1149017D01*
Y1104094D01*
X1148282D01*
Y1103358D01*
X1147546D01*
Y1104094D01*
X1146810D01*
Y1105565D01*
X1147546D01*
Y1104829D01*
X1148282D01*
Y1105565D01*
X1149017D01*
Y1107773D01*
X1146074D01*
Y1108508D01*
X1147546D01*
Y1111452D01*
X1146074D01*
Y1112187D01*
X1146810D01*
Y1113659D01*
X1146074D01*
Y1112923D01*
X1145338D01*
Y1113659D01*
X1144603D01*
Y1115866D01*
X1145338D01*
Y1114395D01*
X1146074D01*
Y1116602D01*
X1144603D01*
Y1118074D01*
X1143867D01*
Y1120281D01*
X1143131D01*
Y1121017D01*
D02*
G37*
G36*
X1137245Y1110716D02*
X1136509D01*
Y1109980D01*
X1137245D01*
Y1109244D01*
X1137980D01*
Y1109980D01*
X1137245D01*
Y1110716D01*
D02*
G37*
G36*
X1137980Y1107773D02*
X1136509D01*
Y1106301D01*
X1137245D01*
Y1107037D01*
X1137980D01*
Y1107773D01*
D02*
G37*
G36*
X1136509Y1106301D02*
X1135773D01*
Y1105565D01*
X1136509D01*
Y1106301D01*
D02*
G37*
G36*
X1134302Y1104094D02*
X1133566D01*
Y1103358D01*
X1134302D01*
Y1104094D01*
D02*
G37*
G36*
X1132830Y1103358D02*
X1132094D01*
Y1101886D01*
X1133566D01*
Y1102622D01*
X1132830D01*
Y1103358D01*
D02*
G37*
G36*
X1147546Y1101886D02*
X1146810D01*
Y1101151D01*
X1147546D01*
Y1101886D01*
D02*
G37*
G36*
X1132094D02*
X1129887D01*
Y1101151D01*
X1132094D01*
Y1101886D01*
D02*
G37*
G36*
X1137980Y1100415D02*
X1136509D01*
Y1099679D01*
X1137245D01*
Y1098943D01*
X1137980D01*
Y1100415D01*
D02*
G37*
G36*
X1148282Y1097471D02*
X1147546D01*
Y1096736D01*
X1148282D01*
Y1097471D01*
D02*
G37*
G36*
X1149017Y1096000D02*
X1148282D01*
Y1095264D01*
X1149017D01*
Y1096000D01*
D02*
G37*
G36*
X1149753Y1094528D02*
X1148282D01*
Y1093793D01*
X1147546D01*
Y1093057D01*
X1149753D01*
Y1094528D01*
D02*
G37*
G36*
X1147546Y1093057D02*
X1146810D01*
Y1092321D01*
X1147546D01*
Y1093057D01*
D02*
G37*
G36*
X1150489Y1091585D02*
X1148282D01*
Y1090849D01*
X1150489D01*
Y1091585D01*
D02*
G37*
G36*
X1149017Y1088642D02*
X1148282D01*
Y1087906D01*
X1149017D01*
Y1088642D01*
D02*
G37*
G36*
X1150489Y1087906D02*
X1149753D01*
Y1087170D01*
X1150489D01*
Y1087906D01*
D02*
G37*
G36*
X1179921Y1085699D02*
X1179185D01*
Y1084963D01*
X1179921D01*
Y1085699D01*
D02*
G37*
G36*
X1179185Y1084963D02*
X1178449D01*
Y1084227D01*
X1177713D01*
Y1083491D01*
X1176977D01*
Y1082756D01*
X1178449D01*
Y1083491D01*
X1179185D01*
Y1084963D01*
D02*
G37*
G36*
X1176977Y1082756D02*
X1176242D01*
Y1082020D01*
X1176977D01*
Y1082756D01*
D02*
G37*
G36*
X1147546Y1079812D02*
X1146810D01*
Y1079077D01*
X1147546D01*
Y1079812D01*
D02*
G37*
G36*
X1146810Y1077605D02*
X1146074D01*
Y1076869D01*
X1146810D01*
Y1077605D01*
D02*
G37*
G36*
X1074702Y1074662D02*
X1073966D01*
Y1073926D01*
X1074702D01*
Y1074662D01*
D02*
G37*
G36*
X1146810Y1070983D02*
X1146074D01*
Y1070247D01*
X1146810D01*
Y1070983D01*
D02*
G37*
G36*
X1179185Y1070247D02*
X1178449D01*
Y1069511D01*
X1179185D01*
Y1070247D01*
D02*
G37*
G36*
X1167412D02*
X1165941D01*
Y1069511D01*
X1167412D01*
Y1070247D01*
D02*
G37*
G36*
X1093833Y1074662D02*
X1093097D01*
Y1073926D01*
X1091626D01*
Y1072455D01*
X1090890D01*
Y1071719D01*
X1091626D01*
Y1068776D01*
X1094569D01*
Y1070983D01*
X1095304D01*
Y1072455D01*
X1096040D01*
Y1073190D01*
X1095304D01*
Y1073926D01*
X1093833D01*
Y1074662D01*
D02*
G37*
G36*
X1185807Y1070983D02*
X1184335D01*
Y1066568D01*
X1185071D01*
Y1065832D01*
X1190958D01*
Y1066568D01*
X1186543D01*
Y1067304D01*
X1185807D01*
Y1070983D01*
D02*
G37*
G36*
X1065137Y1049645D02*
X1063665D01*
Y1048909D01*
X1065137D01*
Y1048173D01*
X1065873D01*
Y1048909D01*
X1065137Y1049645D01*
D02*
G37*
G36*
X1190958Y1062153D02*
X1185071D01*
Y1061418D01*
X1184335D01*
Y1058474D01*
X1164469D01*
Y1057739D01*
X1163733D01*
Y1049645D01*
X1164469D01*
Y1048909D01*
X1165205D01*
Y1057739D01*
X1165941D01*
Y1057003D01*
X1174770D01*
Y1057739D01*
X1175506D01*
Y1057003D01*
X1176977D01*
Y1057739D01*
X1178449D01*
Y1057003D01*
X1179185D01*
Y1057739D01*
X1183600D01*
Y1057003D01*
X1185807D01*
Y1060682D01*
X1186543D01*
Y1061418D01*
X1190222D01*
Y1060682D01*
X1190958D01*
Y1046702D01*
X1190222D01*
Y1045966D01*
X1186543D01*
Y1046702D01*
X1185807D01*
Y1049645D01*
X1184335D01*
Y1045966D01*
X1163733D01*
Y1029043D01*
X1164469D01*
Y1028307D01*
X1163733D01*
Y1015063D01*
X1164469D01*
Y1014327D01*
X1171091D01*
Y1018742D01*
X1171827D01*
Y1019477D01*
X1171091D01*
Y1020213D01*
X1170355D01*
Y1019477D01*
X1169620D01*
Y1015063D01*
X1165205D01*
Y1027571D01*
X1190222D01*
Y1026835D01*
X1190958D01*
Y1015798D01*
X1190222D01*
Y1015063D01*
X1191693D01*
Y1028307D01*
X1190222D01*
Y1029043D01*
X1189486D01*
Y1028307D01*
X1186543D01*
Y1029043D01*
X1185807D01*
Y1028307D01*
X1183600D01*
Y1029043D01*
X1182864D01*
Y1028307D01*
X1181392D01*
Y1029043D01*
X1180657D01*
Y1028307D01*
X1179921D01*
Y1029043D01*
X1179185D01*
Y1028307D01*
X1169620D01*
Y1029043D01*
X1168884D01*
Y1028307D01*
X1168148D01*
Y1029043D01*
X1165205D01*
Y1036401D01*
X1175506D01*
Y1037872D01*
X1165205D01*
Y1045230D01*
X1190958D01*
Y1037872D01*
X1181392D01*
Y1037136D01*
X1182128D01*
Y1036401D01*
X1190958D01*
Y1029043D01*
X1191693D01*
Y1061418D01*
X1190958D01*
Y1062153D01*
D02*
G37*
G36*
X1146074Y1046702D02*
X1145338D01*
Y1045966D01*
X1146074D01*
Y1046702D01*
D02*
G37*
G36*
X1144603Y1041551D02*
X1143131D01*
Y1040815D01*
X1144603D01*
Y1041551D01*
D02*
G37*
G36*
X1145338Y1037136D02*
X1144603D01*
Y1036401D01*
X1145338D01*
Y1035665D01*
X1146074D01*
Y1036401D01*
X1145338D01*
Y1037136D01*
D02*
G37*
G36*
X1143867Y1035665D02*
X1143131D01*
Y1034929D01*
X1143867D01*
Y1035665D01*
D02*
G37*
G36*
X1061458Y1037872D02*
X1059251D01*
Y1037136D01*
X1058515D01*
Y1033457D01*
X1059986D01*
Y1034929D01*
X1062194D01*
Y1036401D01*
X1061458D01*
Y1035665D01*
X1060722D01*
Y1036401D01*
X1061458D01*
Y1037872D01*
D02*
G37*
G36*
X1144603Y1033457D02*
X1143867D01*
Y1032722D01*
X1144603D01*
Y1033457D01*
D02*
G37*
G36*
Y1025364D02*
X1143867D01*
Y1024628D01*
X1144603D01*
Y1025364D01*
D02*
G37*
G36*
X1182128Y1020213D02*
X1181392D01*
Y1016534D01*
X1180657D01*
Y1015798D01*
X1176242D01*
Y1020213D01*
X1174770D01*
Y1019477D01*
X1174034D01*
Y1018742D01*
X1174770D01*
Y1015063D01*
X1181392D01*
Y1015798D01*
X1182128D01*
Y1020213D01*
D02*
G37*
G36*
X1149017Y1016534D02*
X1148282D01*
Y1015798D01*
X1149017D01*
Y1016534D01*
D02*
G37*
G36*
X1147546D02*
X1145338D01*
Y1015798D01*
X1147546D01*
Y1016534D01*
D02*
G37*
G36*
X1185807Y1020213D02*
X1184335D01*
Y1015063D01*
X1186543D01*
Y1015798D01*
X1185807D01*
Y1020213D01*
D02*
G37*
G36*
X1150489Y1015798D02*
X1149753D01*
Y1015063D01*
X1150489D01*
Y1015798D01*
D02*
G37*
G36*
X1110020Y1013591D02*
X1109285D01*
Y1012855D01*
X1110020D01*
Y1013591D01*
D02*
G37*
G36*
X1151961Y1002554D02*
X1151225D01*
Y1001818D01*
X1151961D01*
Y1002554D01*
D02*
G37*
G36*
X1092361Y1008440D02*
X1091626D01*
Y1007705D01*
X1090890D01*
Y1004762D01*
X1091626D01*
Y1003290D01*
X1092361D01*
Y1002554D01*
X1093097D01*
Y1001818D01*
X1096040D01*
Y1002554D01*
X1098248D01*
Y1003290D01*
X1096040D01*
Y1004026D01*
X1093097D01*
Y1005497D01*
X1092361D01*
Y1006969D01*
X1093097D01*
Y1007705D01*
X1092361D01*
Y1008440D01*
D02*
G37*
G36*
X1149017Y1001083D02*
X1147546D01*
Y1000347D01*
X1149017D01*
Y1001083D01*
D02*
G37*
G36*
X1185807D02*
X1179921D01*
Y999611D01*
X1180657D01*
Y998875D01*
X1185071D01*
Y999611D01*
X1185807D01*
Y1001083D01*
D02*
G37*
G36*
X1147546Y1000347D02*
X1145338D01*
Y999611D01*
X1144603D01*
Y998875D01*
X1145338D01*
X1146074Y999611D01*
X1147546D01*
Y1000347D01*
D02*
G37*
G36*
X1144603Y998875D02*
X1143867D01*
Y998139D01*
X1144603D01*
Y998875D01*
D02*
G37*
G36*
X1191693Y1009176D02*
X1163733D01*
Y1000347D01*
X1165205D01*
Y1008440D01*
X1190222D01*
Y1007705D01*
X1190958D01*
Y997404D01*
X1191693D01*
Y1009176D01*
D02*
G37*
G36*
X1143131Y999611D02*
X1142395D01*
Y998875D01*
X1140924D01*
Y998139D01*
X1141659D01*
Y997404D01*
X1143131D01*
Y999611D01*
D02*
G37*
G36*
X1140924Y998139D02*
X1136509D01*
Y997404D01*
X1137245D01*
Y995932D01*
X1139452D01*
Y995196D01*
X1140188D01*
Y997404D01*
X1140924D01*
Y998139D01*
D02*
G37*
G36*
X1190958Y995932D02*
X1190222D01*
Y995196D01*
X1190958D01*
Y995932D01*
D02*
G37*
G36*
X1189486Y994460D02*
X1188750D01*
Y993725D01*
X1189486D01*
Y994460D01*
D02*
G37*
G36*
X1138716Y995196D02*
X1137245D01*
Y992989D01*
X1137980D01*
Y992253D01*
X1138716D01*
Y992989D01*
X1137980D01*
Y993725D01*
X1140924D01*
Y992253D01*
X1142395D01*
Y992989D01*
X1141659D01*
Y994460D01*
X1138716D01*
Y995196D01*
D02*
G37*
G36*
X1136509Y992989D02*
X1135773D01*
Y992253D01*
X1136509D01*
Y992989D01*
D02*
G37*
G36*
X1141659Y991517D02*
X1140924D01*
Y990781D01*
X1141659D01*
Y991517D01*
D02*
G37*
G36*
X1137980Y992253D02*
X1137245D01*
Y990046D01*
X1135773D01*
Y991517D01*
X1135037D01*
Y990046D01*
X1135773D01*
Y989310D01*
X1137245D01*
Y988574D01*
X1138716D01*
Y986367D01*
X1137245D01*
Y985631D01*
X1137980D01*
Y984895D01*
X1138716D01*
Y985631D01*
X1139452D01*
Y984895D01*
X1138716D01*
Y984159D01*
X1139452D01*
Y983423D01*
X1140188D01*
Y981952D01*
X1139452D01*
Y981216D01*
X1138716D01*
Y980480D01*
X1137980D01*
Y979009D01*
X1138716D01*
Y977537D01*
X1140188D01*
Y979009D01*
X1140924D01*
Y979744D01*
X1139452D01*
Y980480D01*
X1140188D01*
Y981216D01*
X1140924D01*
Y979744D01*
X1141659D01*
Y976801D01*
X1142395D01*
Y978273D01*
X1143131D01*
Y979009D01*
X1142395D01*
Y979744D01*
X1141659D01*
Y981216D01*
X1142395D01*
Y981952D01*
X1143131D01*
Y982688D01*
X1143867D01*
Y985631D01*
X1143131D01*
Y984159D01*
X1142395D01*
Y984895D01*
X1141659D01*
Y985631D01*
X1140924D01*
Y984895D01*
X1140188D01*
Y985631D01*
X1139452D01*
Y986367D01*
X1140924D01*
Y987103D01*
X1139452D01*
Y988574D01*
X1138716D01*
Y989310D01*
X1137980D01*
Y992253D01*
D02*
G37*
G36*
X1134302Y990781D02*
X1133566D01*
Y990046D01*
X1134302D01*
Y990781D01*
D02*
G37*
G36*
X1143131D02*
X1142395D01*
Y990046D01*
X1143131D01*
Y989310D01*
X1143867D01*
Y990046D01*
X1143131D01*
Y990781D01*
D02*
G37*
G36*
X1140188Y992253D02*
X1139452D01*
Y991517D01*
X1138716D01*
Y990781D01*
X1140188D01*
Y990046D01*
X1139452D01*
Y988574D01*
X1140188D01*
Y987838D01*
X1140924D01*
Y989310D01*
X1141659D01*
Y990046D01*
X1140924D01*
Y989310D01*
X1140188D01*
Y990046D01*
X1140924D01*
Y990781D01*
X1140188D01*
Y992253D01*
D02*
G37*
G36*
X1133566Y989310D02*
X1132094D01*
Y988574D01*
X1133566D01*
Y987838D01*
X1134302D01*
Y988574D01*
X1133566D01*
Y989310D01*
D02*
G37*
G36*
X1143867Y988574D02*
X1142395D01*
Y987103D01*
X1143131D01*
Y987838D01*
X1143867D01*
Y988574D01*
D02*
G37*
G36*
X1137245D02*
X1136509D01*
Y987838D01*
X1137245D01*
Y987103D01*
X1137980D01*
Y987838D01*
X1137245D01*
Y988574D01*
D02*
G37*
G36*
X1135773Y987838D02*
X1135037D01*
Y987103D01*
X1134302D01*
Y986367D01*
X1135037D01*
Y985631D01*
X1134302D01*
Y984895D01*
X1136509D01*
Y985631D01*
X1135773D01*
Y987838D01*
D02*
G37*
G36*
X1133566Y985631D02*
X1132094D01*
Y984895D01*
X1132830D01*
Y984159D01*
X1134302D01*
Y984895D01*
X1133566D01*
Y985631D01*
D02*
G37*
G36*
X1137980Y984159D02*
X1136509D01*
Y983423D01*
X1137980D01*
Y984159D01*
D02*
G37*
G36*
X1132830D02*
X1132094D01*
Y983423D01*
X1132830D01*
Y984159D01*
D02*
G37*
G36*
X1185807Y984895D02*
X1181392D01*
Y983423D01*
X1182128D01*
Y982688D01*
X1185071D01*
Y983423D01*
X1186543D01*
Y984159D01*
X1185807D01*
Y984895D01*
D02*
G37*
G36*
X1135773Y984159D02*
X1135037D01*
Y983423D01*
X1134302D01*
Y982688D01*
X1135773D01*
Y984159D01*
D02*
G37*
G36*
X1175506Y1001083D02*
X1174034D01*
Y996668D01*
X1174770D01*
Y995196D01*
X1175506D01*
Y994460D01*
X1176242D01*
Y992989D01*
X1164469D01*
Y992253D01*
X1163733D01*
Y976066D01*
X1164469D01*
Y975330D01*
X1166676D01*
Y976066D01*
X1165205D01*
Y982688D01*
X1175506D01*
Y983423D01*
X1176242D01*
Y984895D01*
X1165205D01*
Y992253D01*
X1165941D01*
Y991517D01*
X1170355D01*
Y992253D01*
X1171091D01*
Y991517D01*
X1171827D01*
Y992253D01*
X1174034D01*
Y991517D01*
X1174770D01*
Y992253D01*
X1175506D01*
Y991517D01*
X1176242D01*
Y992253D01*
X1176977D01*
Y991517D01*
X1188014D01*
Y992253D01*
X1188750D01*
Y991517D01*
X1190958D01*
Y981952D01*
X1191693D01*
Y992253D01*
X1190958D01*
Y992989D01*
X1188750D01*
Y993725D01*
X1188014D01*
Y992989D01*
X1178449D01*
Y993725D01*
X1176977D01*
Y994460D01*
X1176242D01*
Y995932D01*
X1175506D01*
Y1001083D01*
D02*
G37*
G36*
X1134302Y982688D02*
X1133566D01*
Y981952D01*
X1134302D01*
Y982688D01*
D02*
G37*
G36*
X1131358D02*
X1130622D01*
Y981952D01*
X1131358D01*
Y982688D01*
D02*
G37*
G36*
X1062194Y981216D02*
X1061458D01*
Y979744D01*
X1062194D01*
Y981216D01*
D02*
G37*
G36*
X1133566Y981952D02*
X1132094D01*
Y979744D01*
X1132830D01*
Y980480D01*
X1133566D01*
Y981952D01*
D02*
G37*
G36*
X1190958Y979744D02*
X1190222D01*
Y979009D01*
X1190958D01*
Y979744D01*
D02*
G37*
G36*
X1136509D02*
X1135773D01*
Y979009D01*
X1136509D01*
Y979744D01*
D02*
G37*
G36*
X1189486Y977537D02*
X1188750D01*
Y976801D01*
X1189486D01*
Y977537D01*
D02*
G37*
G36*
X1135773D02*
X1135037D01*
Y976801D01*
X1135773D01*
Y977537D01*
D02*
G37*
G36*
X1133566Y978273D02*
X1132830D01*
Y976801D01*
X1133566D01*
Y978273D01*
D02*
G37*
G36*
X1135037Y976801D02*
X1134302D01*
Y976066D01*
X1135037D01*
Y976801D01*
D02*
G37*
G36*
X1137980Y976066D02*
X1136509D01*
Y975330D01*
X1137980D01*
Y976066D01*
D02*
G37*
G36*
X1141659Y976801D02*
X1140188D01*
Y976066D01*
X1140924D01*
Y975330D01*
X1141659D01*
Y976801D01*
D02*
G37*
G36*
Y974594D02*
X1140924D01*
Y973858D01*
X1141659D01*
Y974594D01*
D02*
G37*
G36*
X1137980D02*
X1137245D01*
Y971651D01*
X1137980D01*
Y974594D01*
D02*
G37*
G36*
Y970915D02*
X1136509D01*
Y970179D01*
X1137980D01*
Y970915D01*
D02*
G37*
G36*
X1186543Y967236D02*
X1169620D01*
Y965764D01*
X1185807D01*
Y966500D01*
X1186543D01*
Y967236D01*
D02*
G37*
G36*
X1066609Y961350D02*
X1065873D01*
Y960614D01*
X1066609D01*
Y961350D01*
D02*
G37*
G36*
X1188014Y959142D02*
X1187279D01*
Y958407D01*
X1188014D01*
Y959142D01*
D02*
G37*
G36*
X1076174Y956935D02*
X1075438D01*
Y956199D01*
X1076174D01*
Y956935D01*
D02*
G37*
G36*
X1079117Y956199D02*
X1078381D01*
Y955463D01*
X1079117D01*
Y956199D01*
D02*
G37*
G36*
X1074702Y956935D02*
X1073231D01*
Y956199D01*
X1074702D01*
Y955463D01*
X1075438D01*
Y956199D01*
X1074702D01*
Y956935D01*
D02*
G37*
G36*
X1077645Y956199D02*
X1076910D01*
Y955463D01*
X1076174D01*
Y954728D01*
X1078381D01*
Y955463D01*
X1077645D01*
Y956199D01*
D02*
G37*
G36*
Y953992D02*
X1076910D01*
Y951049D01*
X1077645D01*
Y952520D01*
X1078381D01*
Y953256D01*
X1077645D01*
Y953992D01*
D02*
G37*
G36*
X1092361Y954728D02*
X1090154D01*
Y953992D01*
X1088682D01*
Y948841D01*
X1090154D01*
Y948105D01*
X1090890D01*
Y948841D01*
X1091626D01*
Y949577D01*
X1093097D01*
Y952520D01*
X1092361D01*
Y954728D01*
D02*
G37*
G36*
X1077645Y950313D02*
X1076910D01*
Y948841D01*
X1076174D01*
Y948105D01*
X1076910D01*
Y947370D01*
X1077645D01*
Y950313D01*
D02*
G37*
G36*
X1076910Y947370D02*
X1076174D01*
Y946634D01*
X1076910D01*
Y947370D01*
D02*
G37*
G36*
X1078381Y946634D02*
X1077645D01*
Y945898D01*
X1078381D01*
Y946634D01*
D02*
G37*
G36*
X1105606Y928975D02*
X1104870D01*
Y928239D01*
X1105606D01*
Y928975D01*
D02*
G37*
%LPD*%
G36*
X1143867Y1115866D02*
X1143131D01*
Y1117338D01*
X1143867D01*
Y1115866D01*
D02*
G37*
G36*
X1134302Y1115131D02*
X1133566D01*
Y1115866D01*
X1134302D01*
Y1115131D01*
D02*
G37*
G36*
X1143867Y1114395D02*
X1143131D01*
Y1115131D01*
X1143867D01*
Y1114395D01*
D02*
G37*
G36*
Y1112187D02*
X1143131D01*
Y1113659D01*
X1143867D01*
Y1112187D01*
D02*
G37*
G36*
X1132830Y1111452D02*
X1132094D01*
Y1112187D01*
X1132830D01*
Y1111452D01*
D02*
G37*
G36*
X1145338Y1109244D02*
X1146074D01*
Y1108508D01*
X1145338D01*
Y1109244D01*
X1144603D01*
Y1109980D01*
X1145338D01*
Y1109244D01*
D02*
G37*
G36*
X1114435Y1108508D02*
X1113699D01*
Y1109244D01*
X1112963D01*
Y1109980D01*
X1114435D01*
Y1108508D01*
D02*
G37*
G36*
X1112963D02*
X1112228D01*
Y1109244D01*
X1112963D01*
Y1108508D01*
D02*
G37*
G36*
X1112228Y1107773D02*
Y1107037D01*
X1111492D01*
Y1106301D01*
X1110756D01*
Y1104094D01*
X1110020D01*
Y1105565D01*
X1109285D01*
Y1106301D01*
X1110020D01*
Y1108508D01*
X1110756D01*
Y1107773D01*
X1111492D01*
Y1108508D01*
X1112228D01*
Y1107773D01*
D02*
G37*
G36*
X1145338D02*
X1146074D01*
Y1107037D01*
X1145338D01*
Y1106301D01*
X1144603D01*
Y1107037D01*
X1143867D01*
Y1107773D01*
X1144603D01*
Y1108508D01*
X1145338D01*
Y1107773D01*
D02*
G37*
G36*
X1146810Y1105565D02*
X1146074D01*
Y1106301D01*
X1146810D01*
Y1105565D01*
D02*
G37*
G36*
X1143131Y1103358D02*
X1142395D01*
Y1104094D01*
X1143131D01*
Y1103358D01*
D02*
G37*
G36*
X1145338Y1104094D02*
X1146074D01*
Y1103358D01*
X1144603D01*
Y1102622D01*
X1143867D01*
Y1104829D01*
X1143131D01*
Y1105565D01*
X1145338D01*
Y1104094D01*
D02*
G37*
G36*
X1143131Y1101151D02*
X1143867D01*
Y1100415D01*
X1142395D01*
Y1101151D01*
Y1101886D01*
X1143131D01*
Y1101151D01*
D02*
G37*
G36*
X1142395Y1097471D02*
X1141659D01*
Y1098207D01*
X1142395D01*
Y1097471D01*
D02*
G37*
G36*
X1133566D02*
X1132830D01*
Y1098207D01*
X1133566D01*
Y1097471D01*
D02*
G37*
G36*
X1132830Y1096736D02*
X1133566D01*
Y1096000D01*
X1132830D01*
Y1096736D01*
X1132094D01*
Y1097471D01*
X1132830D01*
Y1096736D01*
D02*
G37*
G36*
X1130622Y1096000D02*
X1129887D01*
Y1096736D01*
X1130622D01*
Y1096000D01*
D02*
G37*
G36*
X1137245Y1093793D02*
X1136509D01*
Y1094528D01*
X1137245D01*
Y1093793D01*
D02*
G37*
G36*
X1133566Y1092321D02*
X1132830D01*
Y1093057D01*
X1133566D01*
Y1092321D01*
D02*
G37*
G36*
X1132094D02*
X1131358D01*
Y1093057D01*
X1132094D01*
Y1092321D01*
D02*
G37*
G36*
X1137245Y1091585D02*
X1136509D01*
Y1092321D01*
X1137245D01*
Y1091585D01*
D02*
G37*
G36*
X1112228Y1101151D02*
X1112963D01*
Y1100415D01*
Y1099679D01*
X1113699D01*
Y1098943D01*
X1114435D01*
Y1098207D01*
X1115171D01*
Y1096000D01*
X1115907D01*
Y1094528D01*
X1116643D01*
Y1093057D01*
X1117378D01*
Y1092321D01*
Y1091585D01*
Y1090849D01*
X1115907D01*
Y1092321D01*
X1115171D01*
Y1093057D01*
Y1093793D01*
X1113699D01*
Y1096000D01*
X1112963D01*
Y1098207D01*
X1112228D01*
Y1099679D01*
X1111492D01*
Y1101886D01*
X1112228D01*
Y1101151D01*
D02*
G37*
G36*
X1136509Y1087906D02*
X1135773D01*
Y1088642D01*
X1136509D01*
Y1087906D01*
D02*
G37*
G36*
X1115171Y1090849D02*
X1115907D01*
Y1090114D01*
X1116643D01*
Y1089378D01*
X1118114D01*
Y1090114D01*
X1118850D01*
Y1088642D01*
X1119586D01*
Y1087906D01*
X1118850D01*
Y1088642D01*
X1118114D01*
Y1087906D01*
X1118850D01*
Y1086435D01*
X1118114D01*
Y1085699D01*
X1118850D01*
Y1083491D01*
X1119586D01*
Y1082756D01*
X1118850D01*
Y1082020D01*
X1117378D01*
Y1081284D01*
X1118114D01*
Y1080548D01*
X1117378D01*
Y1079077D01*
X1116643D01*
Y1078341D01*
X1115907D01*
Y1079077D01*
X1115171D01*
Y1081284D01*
X1115907D01*
Y1082020D01*
X1115171D01*
Y1083491D01*
X1115907D01*
Y1084963D01*
X1115171D01*
Y1085699D01*
X1117378D01*
Y1087170D01*
X1115171D01*
Y1087906D01*
X1117378D01*
Y1088642D01*
X1116643D01*
Y1089378D01*
X1115907D01*
Y1088642D01*
X1115171D01*
Y1090114D01*
X1114435D01*
Y1091585D01*
X1115171D01*
Y1090849D01*
D02*
G37*
G36*
X1075438Y1084227D02*
X1074702D01*
Y1084963D01*
X1075438D01*
Y1084227D01*
D02*
G37*
G36*
X1142395Y1083491D02*
X1143131D01*
Y1082756D01*
X1142395D01*
Y1083491D01*
X1141659D01*
Y1084227D01*
X1142395D01*
Y1083491D01*
D02*
G37*
G36*
X1141659Y1082756D02*
X1140924D01*
Y1083491D01*
X1141659D01*
Y1082756D01*
D02*
G37*
G36*
X1140188D02*
X1139452D01*
Y1083491D01*
X1140188D01*
Y1082756D01*
D02*
G37*
G36*
X1132830D02*
X1132094D01*
Y1083491D01*
X1132830D01*
Y1082756D01*
D02*
G37*
G36*
X1139452Y1082020D02*
Y1081284D01*
X1138716D01*
Y1080548D01*
X1137980D01*
Y1081284D01*
X1137245D01*
Y1082020D01*
X1136509D01*
Y1082756D01*
X1137245D01*
Y1082020D01*
X1138716D01*
Y1082756D01*
X1139452D01*
Y1082020D01*
D02*
G37*
G36*
X1140924Y1081284D02*
X1140188D01*
Y1082020D01*
X1140924D01*
Y1081284D01*
D02*
G37*
G36*
X1137245Y1080548D02*
X1137980D01*
Y1079812D01*
X1137245D01*
Y1080548D01*
X1136509D01*
Y1081284D01*
X1137245D01*
Y1080548D01*
D02*
G37*
G36*
X1138716Y1078341D02*
X1137980D01*
Y1079077D01*
X1138716D01*
Y1078341D01*
D02*
G37*
G36*
X1133566D02*
X1132830D01*
Y1079077D01*
X1133566D01*
Y1078341D01*
D02*
G37*
G36*
X1115171D02*
X1114435D01*
Y1079077D01*
X1115171D01*
Y1078341D01*
D02*
G37*
G36*
X1115907Y1075398D02*
X1115171D01*
Y1073926D01*
X1114435D01*
Y1073190D01*
X1113699D01*
Y1073926D01*
X1110756D01*
Y1074662D01*
X1111492D01*
Y1075398D01*
X1112228D01*
Y1076869D01*
X1112963D01*
Y1077605D01*
X1113699D01*
Y1076869D01*
X1115171D01*
Y1077605D01*
X1115907D01*
Y1075398D01*
D02*
G37*
G36*
X1107077Y1073926D02*
X1105606D01*
Y1074662D01*
X1107077D01*
Y1073926D01*
D02*
G37*
G36*
X1141659D02*
X1142395D01*
Y1073190D01*
X1141659D01*
Y1073926D01*
X1140924D01*
Y1074662D01*
X1141659D01*
Y1073926D01*
D02*
G37*
G36*
X1110020D02*
X1110756D01*
Y1073190D01*
X1110020D01*
Y1073926D01*
X1109285D01*
Y1074662D01*
X1110020D01*
Y1073926D01*
D02*
G37*
G36*
X1144603Y1068776D02*
X1143867D01*
Y1069511D01*
X1144603D01*
Y1068776D01*
D02*
G37*
G36*
X1137980Y1064361D02*
X1137245D01*
Y1065097D01*
X1137980D01*
Y1064361D01*
D02*
G37*
G36*
X1142395Y1063625D02*
X1141659D01*
Y1064361D01*
X1142395D01*
Y1063625D01*
D02*
G37*
G36*
X1135773D02*
X1134302D01*
Y1064361D01*
X1135773D01*
Y1063625D01*
D02*
G37*
G36*
X1141659Y1059946D02*
X1140924D01*
Y1060682D01*
X1141659D01*
Y1059946D01*
D02*
G37*
G36*
X1134302D02*
X1133566D01*
Y1061418D01*
X1134302D01*
Y1059946D01*
D02*
G37*
G36*
X1140188Y1059210D02*
X1139452D01*
Y1059946D01*
X1140188D01*
Y1059210D01*
D02*
G37*
G36*
X1137245D02*
X1136509D01*
Y1059946D01*
X1137245D01*
Y1059210D01*
D02*
G37*
G36*
X1146074Y1057739D02*
X1145338D01*
Y1058474D01*
X1146074D01*
Y1057739D01*
D02*
G37*
G36*
X1139452Y1057003D02*
X1137980D01*
Y1057739D01*
X1138716D01*
Y1058474D01*
X1139452D01*
Y1057003D01*
D02*
G37*
G36*
X1136509Y1055531D02*
X1135773D01*
Y1056267D01*
X1136509D01*
Y1055531D01*
D02*
G37*
G36*
X1139452Y1054796D02*
X1137980D01*
Y1055531D01*
X1139452D01*
Y1054796D01*
D02*
G37*
G36*
X1135037D02*
X1134302D01*
Y1055531D01*
X1135037D01*
Y1054796D01*
D02*
G37*
G36*
X1133566D02*
X1132830D01*
Y1055531D01*
X1133566D01*
Y1054796D01*
D02*
G37*
G36*
X1142395Y1054060D02*
X1141659D01*
Y1054796D01*
X1142395D01*
Y1054060D01*
D02*
G37*
G36*
X1139452Y1053324D02*
X1137980D01*
Y1054060D01*
X1139452D01*
Y1053324D01*
D02*
G37*
G36*
X1142395Y1052588D02*
X1141659D01*
Y1053324D01*
X1142395D01*
Y1052588D01*
D02*
G37*
G36*
X1139452Y1051852D02*
X1138716D01*
Y1052588D01*
X1139452D01*
Y1051852D01*
D02*
G37*
G36*
X1136509Y1050381D02*
X1135773D01*
Y1051116D01*
X1136509D01*
Y1050381D01*
D02*
G37*
G36*
X1140924Y1049645D02*
X1140188D01*
Y1050381D01*
X1140924D01*
Y1049645D01*
D02*
G37*
G36*
X1132094Y1050381D02*
X1132830D01*
Y1049645D01*
X1132094D01*
Y1050381D01*
X1131358D01*
Y1051116D01*
X1132094D01*
Y1050381D01*
D02*
G37*
G36*
X1137245Y1045230D02*
X1136509D01*
Y1045966D01*
X1137245D01*
Y1045230D01*
D02*
G37*
G36*
X1143131Y1043759D02*
X1142395D01*
Y1044494D01*
X1143131D01*
Y1043759D01*
D02*
G37*
G36*
X1137980Y1042287D02*
X1137245D01*
Y1043023D01*
X1137980D01*
Y1042287D01*
D02*
G37*
G36*
X1132830Y1041551D02*
X1132094D01*
Y1042287D01*
X1132830D01*
Y1041551D01*
D02*
G37*
G36*
X1131358D02*
X1130622D01*
Y1042287D01*
X1131358D01*
Y1041551D01*
D02*
G37*
G36*
X1141659Y1040080D02*
X1140924D01*
Y1040815D01*
X1141659D01*
Y1040080D01*
D02*
G37*
G36*
X1132830D02*
X1132094D01*
Y1040815D01*
X1132830D01*
Y1040080D01*
D02*
G37*
G36*
X1142395Y1037136D02*
X1141659D01*
Y1038608D01*
Y1039344D01*
X1142395D01*
Y1037136D01*
D02*
G37*
G36*
X1137245Y1036401D02*
X1136509D01*
Y1037136D01*
X1137245D01*
Y1036401D01*
D02*
G37*
G36*
X1135773Y1035665D02*
X1134302D01*
Y1036401D01*
X1135773D01*
Y1035665D01*
D02*
G37*
G36*
X1131358D02*
X1130622D01*
Y1036401D01*
X1131358D01*
Y1035665D01*
D02*
G37*
G36*
X1138716Y1034929D02*
X1137980D01*
Y1035665D01*
X1138716D01*
Y1034929D01*
D02*
G37*
G36*
Y1031250D02*
X1137980D01*
Y1031986D01*
Y1032722D01*
X1138716D01*
Y1031250D01*
D02*
G37*
G36*
X1142395Y1030514D02*
X1141659D01*
Y1031250D01*
X1142395D01*
Y1030514D01*
D02*
G37*
G36*
X1138716Y1028307D02*
X1137980D01*
Y1029043D01*
X1138716D01*
Y1028307D01*
D02*
G37*
G36*
X1137980Y1027571D02*
X1138716D01*
Y1026835D01*
X1137980D01*
Y1027571D01*
X1137245D01*
Y1028307D01*
X1137980D01*
Y1027571D01*
D02*
G37*
G36*
X1135773Y1026099D02*
X1135037D01*
Y1026835D01*
X1135773D01*
Y1026099D01*
D02*
G37*
G36*
X1141659Y1025364D02*
X1140924D01*
Y1026099D01*
X1141659D01*
Y1025364D01*
D02*
G37*
G36*
X1137980D02*
X1137245D01*
Y1026099D01*
X1137980D01*
Y1025364D01*
D02*
G37*
G36*
Y1023156D02*
X1137245D01*
Y1023892D01*
X1137980D01*
Y1023156D01*
D02*
G37*
G36*
X1131358Y1022421D02*
X1129887D01*
Y1023156D01*
X1131358D01*
Y1022421D01*
D02*
G37*
G36*
X1135037Y1020213D02*
X1134302D01*
Y1020949D01*
X1135037D01*
Y1020213D01*
D02*
G37*
G36*
X1140924Y1018742D02*
X1140188D01*
Y1019477D01*
X1140924D01*
Y1018742D01*
D02*
G37*
G36*
X1115171Y1023156D02*
Y1022421D01*
Y1020949D01*
X1114435D01*
Y1019477D01*
X1113699D01*
Y1018742D01*
X1112963D01*
Y1019477D01*
X1112228D01*
Y1021685D01*
X1111492D01*
Y1022421D01*
X1112228D01*
Y1024628D01*
X1113699D01*
Y1025364D01*
X1115171D01*
Y1023156D01*
D02*
G37*
G36*
X1121793Y1024628D02*
X1124000D01*
Y1023892D01*
X1124736D01*
Y1023156D01*
X1125472D01*
Y1022421D01*
X1126208D01*
Y1018006D01*
X1125472D01*
Y1017270D01*
X1124736D01*
Y1016534D01*
X1122529D01*
Y1017270D01*
X1121057D01*
Y1018006D01*
X1119586D01*
Y1018742D01*
X1117378D01*
Y1019477D01*
X1116643D01*
Y1021685D01*
X1115907D01*
Y1022421D01*
X1116643D01*
Y1023892D01*
X1117378D01*
Y1024628D01*
X1118114D01*
Y1025364D01*
X1121793D01*
Y1024628D01*
D02*
G37*
G36*
X1119586Y1016534D02*
X1121793D01*
Y1015798D01*
X1122529D01*
Y1015063D01*
X1123265D01*
Y1014327D01*
X1124736D01*
Y1013591D01*
X1125472D01*
Y1012119D01*
X1126208D01*
Y1011384D01*
Y1010648D01*
X1125472D01*
Y1009176D01*
X1124736D01*
Y1007705D01*
X1124000D01*
Y1006969D01*
X1122529D01*
Y1006233D01*
X1118114D01*
Y1006969D01*
X1116643D01*
Y1008440D01*
X1115907D01*
Y1012119D01*
X1115171D01*
Y1012855D01*
X1115907D01*
Y1015063D01*
X1116643D01*
Y1015798D01*
X1117378D01*
Y1016534D01*
X1118850D01*
Y1017270D01*
X1119586D01*
Y1016534D01*
D02*
G37*
%LPC*%
G36*
X1113699Y1098943D02*
X1112963D01*
Y1098207D01*
X1113699D01*
Y1097471D01*
X1114435D01*
Y1098207D01*
X1113699D01*
Y1098943D01*
D02*
G37*
G36*
X1116643Y1093057D02*
X1115907D01*
Y1092321D01*
X1116643D01*
Y1093057D01*
D02*
G37*
%LPD*%
G36*
X1138716Y996668D02*
X1137980D01*
Y997404D01*
X1138716D01*
Y996668D01*
D02*
G37*
G36*
X1140924Y983423D02*
X1141659D01*
Y982688D01*
X1140924D01*
Y983423D01*
X1140188D01*
Y984159D01*
X1140924D01*
Y983423D01*
D02*
G37*
%LPC*%
G36*
X1048949Y1046702D02*
X1048214D01*
Y1045966D01*
X1048949D01*
Y1046702D01*
D02*
G37*
G36*
X1049685Y1041551D02*
X1048949D01*
Y1040815D01*
X1049685D01*
Y1041551D01*
D02*
G37*
G36*
Y1031986D02*
X1048949D01*
Y1031250D01*
X1049685D01*
Y1031986D01*
D02*
G37*
G36*
X1038648Y1031250D02*
X1037913D01*
Y1030514D01*
X1038648D01*
Y1031250D01*
D02*
G37*
G36*
X1049685Y1030514D02*
X1048949D01*
Y1029779D01*
X1049685D01*
Y1030514D01*
D02*
G37*
G36*
Y1023156D02*
X1048949D01*
Y1022421D01*
X1049685D01*
Y1023156D01*
D02*
G37*
G36*
Y1021685D02*
X1048949D01*
Y1020949D01*
X1049685D01*
Y1021685D01*
D02*
G37*
G36*
X1050421Y995932D02*
X1049685D01*
Y995196D01*
X1050421D01*
Y995932D01*
D02*
G37*
G36*
X1051157Y994460D02*
X1050421D01*
Y993725D01*
X1051157D01*
Y994460D01*
D02*
G37*
G36*
X1050421Y991517D02*
X1049685D01*
Y990046D01*
X1050421D01*
Y991517D01*
D02*
G37*
G36*
X1042327Y988574D02*
X1041591D01*
Y987103D01*
X1042327D01*
Y988574D01*
D02*
G37*
G36*
X1048214Y986367D02*
X1046742D01*
Y985631D01*
X1048214D01*
Y986367D01*
D02*
G37*
G36*
X1046006D02*
X1044535D01*
Y985631D01*
X1046006D01*
Y986367D01*
D02*
G37*
G36*
X1048949Y985631D02*
X1048214D01*
Y984895D01*
X1048949D01*
Y985631D01*
D02*
G37*
G36*
X1151961Y965764D02*
X1151225D01*
Y965029D01*
X1151961D01*
Y965764D01*
D02*
G37*
G36*
X1140924Y934861D02*
X1140188D01*
Y934125D01*
X1140924D01*
Y934861D01*
D02*
G37*
G36*
X1145338Y931182D02*
X1144603D01*
Y930446D01*
X1145338D01*
Y931182D01*
D02*
G37*
G36*
X1142395D02*
X1141659D01*
Y930446D01*
X1142395D01*
Y931182D01*
D02*
G37*
G36*
X1115907Y879677D02*
X1115171D01*
Y878941D01*
X1115907D01*
Y879677D01*
D02*
G37*
G36*
X1142395Y878941D02*
X1141659D01*
Y877469D01*
X1142395D01*
Y878941D01*
D02*
G37*
G36*
X1140924Y878205D02*
X1140188D01*
Y877469D01*
X1140924D01*
Y878205D01*
D02*
G37*
G36*
X1151225Y877469D02*
X1149753D01*
Y876733D01*
X1151225D01*
Y877469D01*
D02*
G37*
G36*
X1149017D02*
X1146810D01*
Y876733D01*
X1149017D01*
Y877469D01*
D02*
G37*
G36*
X1146074D02*
X1145338D01*
Y876733D01*
X1146074D01*
Y877469D01*
D02*
G37*
%LPD*%
D10*
X1276290Y1234440D02*
Y1232440D01*
Y1234440D01*
X1297170Y993530D02*
Y1011030D01*
X1295920Y1016280D02*
X1360920D01*
Y1051280D01*
X1295920D02*
X1360920D01*
X1295920Y1016280D02*
Y1051280D01*
X1346090Y971130D02*
Y982130D01*
X1244180Y1186290D02*
X1255180D01*
X1244180Y1220470D02*
X1255180D01*
X1313180Y971130D02*
Y982130D01*
D11*
X1009360Y1277120D02*
X1010360D01*
X1009360D01*
X1035050Y946150D02*
X1047750D01*
X1035050Y933450D02*
Y946150D01*
X1369290Y1151040D02*
Y1267040D01*
X1284290Y1151040D02*
X1369290D01*
X1284290D02*
Y1267040D01*
X1369290D01*
X1211860Y1219120D02*
Y1239120D01*
Y1190370D02*
Y1209120D01*
X1197360Y1190370D02*
X1211860D01*
X1037360D02*
X1052360D01*
X992860D02*
X1007360D01*
X992860D02*
Y1239120D01*
D12*
X1388745Y1346210D02*
X1387854Y1348659D01*
X1385597Y1349962D01*
X1383030Y1349510D01*
X1381355Y1347513D01*
Y1344907D01*
X1383030Y1342910D01*
X1385597Y1342458D01*
X1387854Y1343761D01*
X1388745Y1346210D01*
D13*
X1273100Y883500D02*
X1271225Y884583D01*
Y882417D01*
X1273100Y883500D01*
X1361470Y883500D02*
X1359595Y884583D01*
Y882418D01*
X1361470Y883500D01*
D14*
X1040130Y913130D02*
X1094740D01*
X1040130Y941070D02*
X1094740D01*
X1040130Y913130D02*
Y941070D01*
X1094740Y913130D02*
Y941070D01*
X1037082Y969513D02*
X1047239D01*
X1042160D01*
Y954278D01*
X1052317D02*
X1057395D01*
X1054856D01*
Y969513D01*
X1052317Y966974D01*
X1267206Y1285240D02*
Y1295237D01*
X1272204D01*
X1273870Y1293571D01*
Y1290238D01*
X1272204Y1288572D01*
X1267206D01*
X1283867Y1293571D02*
X1282201Y1295237D01*
X1278869D01*
X1277203Y1293571D01*
Y1291904D01*
X1278869Y1290238D01*
X1282201D01*
X1283867Y1288572D01*
Y1286906D01*
X1282201Y1285240D01*
X1278869D01*
X1277203Y1286906D01*
X1287200Y1285240D02*
X1290532D01*
X1288866D01*
Y1295237D01*
X1287200Y1293571D01*
X986394Y1297858D02*
X983062D01*
X984728D01*
Y1289528D01*
X983062Y1287862D01*
X981395D01*
X979729Y1289528D01*
X996391Y1287862D02*
X989726D01*
X996391Y1294526D01*
Y1296192D01*
X994725Y1297858D01*
X991392D01*
X989726Y1296192D01*
X976945Y1707225D02*
X973612D01*
X975278D01*
Y1698894D01*
X973612Y1697228D01*
X971946D01*
X970280Y1698894D01*
X980277Y1697228D02*
X983609D01*
X981943D01*
Y1707225D01*
X980277Y1705559D01*
X1359916Y903569D02*
X1363248D01*
X1361582D01*
Y893572D01*
X1359916D01*
X1363248D01*
X1374911Y901903D02*
X1373245Y903569D01*
X1369913D01*
X1368247Y901903D01*
Y895238D01*
X1369913Y893572D01*
X1373245D01*
X1374911Y895238D01*
X1378243Y901903D02*
X1379910Y903569D01*
X1383242D01*
X1384908Y901903D01*
Y900237D01*
X1383242Y898570D01*
X1381576D01*
X1383242D01*
X1384908Y896904D01*
Y895238D01*
X1383242Y893572D01*
X1379910D01*
X1378243Y895238D01*
X1271524Y903569D02*
X1274856D01*
X1273190D01*
Y893572D01*
X1271524D01*
X1274856D01*
X1286519Y901903D02*
X1284853Y903569D01*
X1281521D01*
X1279855Y901903D01*
Y895238D01*
X1281521Y893572D01*
X1284853D01*
X1286519Y895238D01*
X1296516Y893572D02*
X1289851D01*
X1296516Y900237D01*
Y901903D01*
X1294850Y903569D01*
X1291518D01*
X1289851Y901903D01*
X1356960Y1074338D02*
X1360292D01*
X1358626D01*
Y1064342D01*
X1356960D01*
X1360292D01*
X1371955Y1072672D02*
X1370289Y1074338D01*
X1366957D01*
X1365291Y1072672D01*
Y1066008D01*
X1366957Y1064342D01*
X1370289D01*
X1371955Y1066008D01*
X1375288Y1064342D02*
X1378620D01*
X1376954D01*
Y1074338D01*
X1375288Y1072672D01*
X1284844Y808512D02*
X1283178Y810178D01*
X1279846D01*
X1278179Y808512D01*
Y801848D01*
X1279846Y800182D01*
X1283178D01*
X1284844Y801848D01*
X1294841Y810178D02*
X1288176D01*
Y805180D01*
X1291508Y806846D01*
X1293174D01*
X1294841Y805180D01*
Y801848D01*
X1293174Y800182D01*
X1289842D01*
X1288176Y801848D01*
X1229838Y1184734D02*
X1228172Y1183068D01*
Y1179735D01*
X1229838Y1178069D01*
X1236502D01*
X1238168Y1179735D01*
Y1183068D01*
X1236502Y1184734D01*
X1238168Y1194731D02*
Y1188066D01*
X1231504Y1194731D01*
X1229838D01*
X1228172Y1193064D01*
Y1189732D01*
X1229838Y1188066D01*
X1228568Y1220470D02*
X1226902Y1218804D01*
Y1215472D01*
X1228568Y1213805D01*
X1235232D01*
X1236898Y1215472D01*
Y1218804D01*
X1235232Y1220470D01*
X1236898Y1223802D02*
Y1227134D01*
Y1225468D01*
X1226902D01*
X1228568Y1223802D01*
X1311514Y963452D02*
X1309848Y965118D01*
X1306516D01*
X1304849Y963452D01*
Y956788D01*
X1306516Y955122D01*
X1309848D01*
X1311514Y956788D01*
X1314846Y963452D02*
X1316512Y965118D01*
X1319845D01*
X1321511Y963452D01*
Y961786D01*
X1319845Y960120D01*
X1318178D01*
X1319845D01*
X1321511Y958454D01*
Y956788D01*
X1319845Y955122D01*
X1316512D01*
X1314846Y956788D01*
X1345804Y963452D02*
X1344138Y965118D01*
X1340806D01*
X1339139Y963452D01*
Y956788D01*
X1340806Y955122D01*
X1344138D01*
X1345804Y956788D01*
X1354135Y955122D02*
Y965118D01*
X1349136Y960120D01*
X1355801D01*
X1377554Y808512D02*
X1375888Y810178D01*
X1372556D01*
X1370889Y808512D01*
Y801848D01*
X1372556Y800182D01*
X1375888D01*
X1377554Y801848D01*
X1380886Y810178D02*
X1387551D01*
Y808512D01*
X1380886Y801848D01*
Y800182D01*
X1338184Y880902D02*
X1336518Y882568D01*
X1333185D01*
X1331519Y880902D01*
Y874238D01*
X1333185Y872572D01*
X1336518D01*
X1338184Y874238D01*
X1341516Y880902D02*
X1343182Y882568D01*
X1346514D01*
X1348181Y880902D01*
Y879236D01*
X1346514Y877570D01*
X1348181Y875904D01*
Y874238D01*
X1346514Y872572D01*
X1343182D01*
X1341516Y874238D01*
Y875904D01*
X1343182Y877570D01*
X1341516Y879236D01*
Y880902D01*
X1343182Y877570D02*
X1346514D01*
X1245474Y880902D02*
X1243808Y882568D01*
X1240475D01*
X1238809Y880902D01*
Y874238D01*
X1240475Y872572D01*
X1243808D01*
X1245474Y874238D01*
X1255471Y882568D02*
X1252138Y880902D01*
X1248806Y877570D01*
Y874238D01*
X1250472Y872572D01*
X1253804D01*
X1255471Y874238D01*
Y875904D01*
X1253804Y877570D01*
X1248806D01*
D15*
X1367155Y1319940D02*
Y1687478D01*
X969645Y1319940D02*
X1367155D01*
X969645D02*
Y1687478D01*
X1367155D01*
M02*
