G04*
G04 #@! TF.GenerationSoftware,Altium Limited,Altium Designer,23.8.1 (32)*
G04*
G04 Layer_Color=32896*
%FSLAX44Y44*%
%MOMM*%
G71*
G04*
G04 #@! TF.SameCoordinates,C7883470-4D28-45A4-81C0-78593BF10AE1*
G04*
G04*
G04 #@! TF.FilePolarity,Positive*
G04*
G01*
G75*
%ADD10C,0.2000*%
%ADD12C,0.5080*%
%ADD14C,0.2540*%
%ADD60C,0.1270*%
D10*
X1313820Y1119480D02*
X1311820D01*
X1313820D01*
X1245240Y1003910D02*
X1243240D01*
X1245240D01*
X1209680Y1127100D02*
X1207680D01*
X1209680D01*
X1081410Y977240D02*
X1079410D01*
X1081410D01*
X1029970Y1206080D02*
Y1217080D01*
X955040Y944460D02*
Y955460D01*
X1074530Y1058760D02*
Y1069760D01*
X955040Y1058760D02*
Y1069760D01*
X1074530Y1145120D02*
Y1156120D01*
X955040Y1145120D02*
Y1156120D01*
D12*
X1388745Y1346210D02*
X1387854Y1348659D01*
X1385597Y1349962D01*
X1383030Y1349510D01*
X1381355Y1347513D01*
Y1344907D01*
X1383030Y1342910D01*
X1385597Y1342458D01*
X1387854Y1343761D01*
X1388745Y1346210D01*
D14*
X1407160Y877566D02*
X1404621Y880105D01*
X1399543D01*
X1397003Y877566D01*
Y867409D01*
X1399543Y864870D01*
X1404621D01*
X1407160Y867409D01*
Y877566D01*
X1384307Y864870D02*
Y880105D01*
X1391925Y872487D01*
X1381768D01*
X1376690Y864870D02*
X1366533Y875027D01*
X1361455Y864870D02*
X1356376D01*
X1358916D01*
Y880105D01*
X1361455Y877566D01*
X1348759D02*
X1346220Y880105D01*
X1341141D01*
X1338602Y877566D01*
Y867409D01*
X1341141Y864870D01*
X1346220D01*
X1348759Y867409D01*
Y877566D01*
X1333524Y864870D02*
X1323367Y875027D01*
X1308132Y864870D02*
X1318289D01*
X1308132Y875027D01*
Y877566D01*
X1310671Y880105D01*
X1315750D01*
X1318289Y877566D01*
X1303054D02*
X1300515Y880105D01*
X1295436D01*
X1292897Y877566D01*
Y867409D01*
X1295436Y864870D01*
X1300515D01*
X1303054Y867409D01*
Y877566D01*
X1277662Y864870D02*
X1287819D01*
X1277662Y875027D01*
Y877566D01*
X1280201Y880105D01*
X1285279D01*
X1287819Y877566D01*
X1272583D02*
X1270044Y880105D01*
X1264966D01*
X1262427Y877566D01*
Y875027D01*
X1264966Y872487D01*
X1267505D01*
X1264966D01*
X1262427Y869948D01*
Y867409D01*
X1264966Y864870D01*
X1270044D01*
X1272583Y867409D01*
X1407160Y886460D02*
Y901695D01*
X1402082Y896617D01*
X1397003Y901695D01*
Y886460D01*
X1391925Y896617D02*
Y886460D01*
Y891538D01*
X1389386Y894078D01*
X1386847Y896617D01*
X1384307D01*
X1351298Y899156D02*
X1353837Y901695D01*
X1358916D01*
X1361455Y899156D01*
Y888999D01*
X1358916Y886460D01*
X1353837D01*
X1351298Y888999D01*
X1343681Y896617D02*
X1338602D01*
X1336063Y894078D01*
Y886460D01*
X1343681D01*
X1346220Y888999D01*
X1343681Y891538D01*
X1336063D01*
X1330985Y886460D02*
Y896617D01*
X1323367D01*
X1320828Y894078D01*
Y886460D01*
X1305593Y901695D02*
Y886460D01*
X1313210D01*
X1315750Y888999D01*
Y894078D01*
X1313210Y896617D01*
X1305593D01*
X1300515Y886460D02*
X1295436D01*
X1297975D01*
Y896617D01*
X1300515D01*
X1277662Y901695D02*
Y886460D01*
X1285279D01*
X1287819Y888999D01*
Y894078D01*
X1285279Y896617D01*
X1277662D01*
X1270044Y886460D02*
X1264966D01*
X1262427Y888999D01*
Y894078D01*
X1264966Y896617D01*
X1270044D01*
X1272583Y894078D01*
Y888999D01*
X1270044Y886460D01*
X1397003Y924553D02*
X1407160D01*
Y909318D01*
X1397003D01*
X1407160Y916936D02*
X1402082D01*
X1391925Y909318D02*
Y919475D01*
X1384307D01*
X1381768Y916936D01*
Y909318D01*
X1371611Y904240D02*
X1369072D01*
X1366533Y906779D01*
Y919475D01*
X1374151D01*
X1376690Y916936D01*
Y911858D01*
X1374151Y909318D01*
X1366533D01*
X1361455D02*
X1356376D01*
X1358916D01*
Y919475D01*
X1361455D01*
X1348759Y909318D02*
Y919475D01*
X1341141D01*
X1338602Y916936D01*
Y909318D01*
X1325906D02*
X1330985D01*
X1333524Y911858D01*
Y916936D01*
X1330985Y919475D01*
X1325906D01*
X1323367Y916936D01*
Y914397D01*
X1333524D01*
X1310671Y909318D02*
X1315750D01*
X1318289Y911858D01*
Y916936D01*
X1315750Y919475D01*
X1310671D01*
X1308132Y916936D01*
Y914397D01*
X1318289D01*
X1303054Y919475D02*
Y909318D01*
Y914397D01*
X1300515Y916936D01*
X1297975Y919475D01*
X1295436D01*
X1280201Y909318D02*
X1285279D01*
X1287819Y911858D01*
Y916936D01*
X1285279Y919475D01*
X1280201D01*
X1277662Y916936D01*
Y914397D01*
X1287819D01*
X1262427Y924553D02*
Y909318D01*
X1270044D01*
X1272583Y911858D01*
Y916936D01*
X1270044Y919475D01*
X1262427D01*
X1242113Y924553D02*
Y909318D01*
X1234496D01*
X1231957Y911858D01*
Y914397D01*
X1234496Y916936D01*
X1242113D01*
X1234496D01*
X1231957Y919475D01*
Y922014D01*
X1234496Y924553D01*
X1242113D01*
X1226878Y919475D02*
Y911858D01*
X1224339Y909318D01*
X1216722D01*
Y906779D01*
X1219261Y904240D01*
X1221800D01*
X1216722Y909318D02*
Y919475D01*
X1211643D02*
X1209104D01*
Y916936D01*
X1211643D01*
Y919475D01*
Y911858D02*
X1209104D01*
Y909318D01*
X1211643D01*
Y911858D01*
X1289761Y1054018D02*
X1283096D01*
X1286428D01*
Y1044022D01*
X1279764Y1052352D02*
X1278098Y1054018D01*
X1274765D01*
X1273099Y1052352D01*
Y1050686D01*
X1274765Y1049020D01*
X1276432D01*
X1274765D01*
X1273099Y1047354D01*
Y1045688D01*
X1274765Y1044022D01*
X1278098D01*
X1279764Y1045688D01*
X990499Y883162D02*
X997164D01*
X993832D01*
Y893158D01*
X1007161D02*
X1000496D01*
X1007161Y886494D01*
Y884828D01*
X1005495Y883162D01*
X1002162D01*
X1000496Y884828D01*
X1269359Y951312D02*
Y961308D01*
X1264361D01*
X1262694Y959642D01*
Y956310D01*
X1264361Y954644D01*
X1269359D01*
X1266027D02*
X1262694Y951312D01*
X1259362Y959642D02*
X1257696Y961308D01*
X1254364D01*
X1252698Y959642D01*
Y957976D01*
X1254364Y956310D01*
X1256030D01*
X1254364D01*
X1252698Y954644D01*
Y952978D01*
X1254364Y951312D01*
X1257696D01*
X1259362Y952978D01*
X1249365Y959642D02*
X1247699Y961308D01*
X1244367D01*
X1242701Y959642D01*
Y957976D01*
X1244367Y956310D01*
X1246033D01*
X1244367D01*
X1242701Y954644D01*
Y952978D01*
X1244367Y951312D01*
X1247699D01*
X1249365Y952978D01*
X1292219Y988142D02*
Y998138D01*
X1287221D01*
X1285555Y996472D01*
Y993140D01*
X1287221Y991474D01*
X1292219D01*
X1288887D02*
X1285555Y988142D01*
X1282222Y996472D02*
X1280556Y998138D01*
X1277224D01*
X1275558Y996472D01*
Y994806D01*
X1277224Y993140D01*
X1278890D01*
X1277224D01*
X1275558Y991474D01*
Y989808D01*
X1277224Y988142D01*
X1280556D01*
X1282222Y989808D01*
X1265561Y988142D02*
X1272225D01*
X1265561Y994806D01*
Y996472D01*
X1267227Y998138D01*
X1270559D01*
X1272225Y996472D01*
X1240149Y1049102D02*
Y1059098D01*
X1235151D01*
X1233484Y1057432D01*
Y1054100D01*
X1235151Y1052434D01*
X1240149D01*
X1236817D02*
X1233484Y1049102D01*
X1230152Y1057432D02*
X1228486Y1059098D01*
X1225154D01*
X1223488Y1057432D01*
Y1055766D01*
X1225154Y1054100D01*
X1226820D01*
X1225154D01*
X1223488Y1052434D01*
Y1050768D01*
X1225154Y1049102D01*
X1228486D01*
X1230152Y1050768D01*
X1220155Y1057432D02*
X1218489Y1059098D01*
X1215157D01*
X1213491Y1057432D01*
Y1050768D01*
X1215157Y1049102D01*
X1218489D01*
X1220155Y1050768D01*
Y1057432D01*
X1064889Y864952D02*
Y874948D01*
X1059891D01*
X1058224Y873282D01*
Y869950D01*
X1059891Y868284D01*
X1064889D01*
X1061557D02*
X1058224Y864952D01*
X1048228D02*
X1054892D01*
X1048228Y871616D01*
Y873282D01*
X1049894Y874948D01*
X1053226D01*
X1054892Y873282D01*
X1039897Y864952D02*
Y874948D01*
X1044895Y869950D01*
X1038231D01*
X1097362Y868661D02*
X1107358D01*
Y873659D01*
X1105692Y875325D01*
X1102360D01*
X1100694Y873659D01*
Y868661D01*
Y871993D02*
X1097362Y875325D01*
Y885322D02*
Y878658D01*
X1104026Y885322D01*
X1105692D01*
X1107358Y883656D01*
Y880324D01*
X1105692Y878658D01*
Y888654D02*
X1107358Y890321D01*
Y893653D01*
X1105692Y895319D01*
X1104026D01*
X1102360Y893653D01*
Y891987D01*
Y893653D01*
X1100694Y895319D01*
X1099028D01*
X1097362Y893653D01*
Y890321D01*
X1099028Y888654D01*
X1128268Y1081532D02*
Y1091529D01*
X1123270D01*
X1121603Y1089863D01*
Y1086530D01*
X1123270Y1084864D01*
X1128268D01*
X1124936D02*
X1121603Y1081532D01*
X1111607Y1091529D02*
X1118271D01*
Y1086530D01*
X1114939Y1088196D01*
X1113273D01*
X1111607Y1086530D01*
Y1083198D01*
X1113273Y1081532D01*
X1116605D01*
X1118271Y1083198D01*
X1258488Y1025956D02*
X1248492D01*
Y1020958D01*
X1250158Y1019292D01*
X1253490D01*
X1255156Y1020958D01*
Y1025956D01*
Y1022624D02*
X1258488Y1019292D01*
Y1015959D02*
Y1012627D01*
Y1014293D01*
X1248492D01*
X1250158Y1015959D01*
X1256822Y1007628D02*
X1258488Y1005962D01*
Y1002630D01*
X1256822Y1000964D01*
X1250158D01*
X1248492Y1002630D01*
Y1005962D01*
X1250158Y1007628D01*
X1251824D01*
X1253490Y1005962D01*
Y1000964D01*
X1134192Y914604D02*
X1144188D01*
Y919602D01*
X1142522Y921268D01*
X1139190D01*
X1137524Y919602D01*
Y914604D01*
Y917936D02*
X1134192Y921268D01*
Y924601D02*
Y927933D01*
Y926267D01*
X1144188D01*
X1142522Y924601D01*
X1144188Y939596D02*
X1142522Y936264D01*
X1139190Y932931D01*
X1135858D01*
X1134192Y934597D01*
Y937930D01*
X1135858Y939596D01*
X1137524D01*
X1139190Y937930D01*
Y932931D01*
X1137716Y1163402D02*
Y1173398D01*
X1132718D01*
X1131051Y1171732D01*
Y1168400D01*
X1132718Y1166734D01*
X1137716D01*
X1134384D02*
X1131051Y1163402D01*
X1127719D02*
X1124387D01*
X1126053D01*
Y1173398D01*
X1127719Y1171732D01*
X1119389D02*
X1117722Y1173398D01*
X1114390D01*
X1112724Y1171732D01*
Y1165068D01*
X1114390Y1163402D01*
X1117722D01*
X1119389Y1165068D01*
Y1171732D01*
X1064493Y1027512D02*
Y1037508D01*
X1059494D01*
X1057828Y1035842D01*
Y1032510D01*
X1059494Y1030844D01*
X1064493D01*
X1061161D02*
X1057828Y1027512D01*
X1047832D02*
X1054496D01*
X1047832Y1034176D01*
Y1035842D01*
X1049498Y1037508D01*
X1052830D01*
X1054496Y1035842D01*
X1044499Y1027512D02*
X1041167D01*
X1042833D01*
Y1037508D01*
X1044499Y1035842D01*
X1177849Y1075608D02*
Y1065612D01*
X1182848D01*
X1184514Y1067278D01*
Y1070610D01*
X1182848Y1072276D01*
X1177849D01*
X1181182D02*
X1184514Y1075608D01*
X1187846Y1067278D02*
X1189512Y1065612D01*
X1192844D01*
X1194511Y1067278D01*
Y1068944D01*
X1192844Y1070610D01*
X1191178D01*
X1192844D01*
X1194511Y1072276D01*
Y1073942D01*
X1192844Y1075608D01*
X1189512D01*
X1187846Y1073942D01*
X1123868Y1039571D02*
X1113872D01*
Y1034572D01*
X1115538Y1032906D01*
X1118870D01*
X1120536Y1034572D01*
Y1039571D01*
Y1036238D02*
X1123868Y1032906D01*
Y1022909D02*
Y1029574D01*
X1117204Y1022909D01*
X1115538D01*
X1113872Y1024575D01*
Y1027908D01*
X1115538Y1029574D01*
X1113872Y1114959D02*
X1123868D01*
Y1119958D01*
X1122202Y1121624D01*
X1118870D01*
X1117204Y1119958D01*
Y1114959D01*
Y1118292D02*
X1113872Y1121624D01*
X1122202Y1124956D02*
X1123868Y1126622D01*
Y1129955D01*
X1122202Y1131621D01*
X1120536D01*
X1118870Y1129955D01*
X1117204Y1131621D01*
X1115538D01*
X1113872Y1129955D01*
Y1126622D01*
X1115538Y1124956D01*
X1117204D01*
X1118870Y1126622D01*
X1120536Y1124956D01*
X1122202D01*
X1118870Y1126622D02*
Y1129955D01*
X1000842Y1016814D02*
X1010838D01*
Y1021812D01*
X1009172Y1023478D01*
X1005840D01*
X1004174Y1021812D01*
Y1016814D01*
Y1020146D02*
X1000842Y1023478D01*
Y1026811D02*
Y1030143D01*
Y1028477D01*
X1010838D01*
X1009172Y1026811D01*
Y1035141D02*
X1010838Y1036808D01*
Y1040140D01*
X1009172Y1041806D01*
X1007506D01*
X1005840Y1040140D01*
Y1038474D01*
Y1040140D01*
X1004174Y1041806D01*
X1002508D01*
X1000842Y1040140D01*
Y1036808D01*
X1002508Y1035141D01*
X1234522Y1109269D02*
X1244518D01*
Y1114268D01*
X1242852Y1115934D01*
X1239520D01*
X1237854Y1114268D01*
Y1109269D01*
Y1112602D02*
X1234522Y1115934D01*
X1244518Y1125931D02*
X1242852Y1122598D01*
X1239520Y1119266D01*
X1236188D01*
X1234522Y1120932D01*
Y1124265D01*
X1236188Y1125931D01*
X1237854D01*
X1239520Y1124265D01*
Y1119266D01*
X1022451Y1163402D02*
Y1173398D01*
X1017452D01*
X1015786Y1171732D01*
Y1168400D01*
X1017452Y1166734D01*
X1022451D01*
X1019118D02*
X1015786Y1163402D01*
X1007456D02*
Y1173398D01*
X1012454Y1168400D01*
X1005789D01*
X1077601Y1001948D02*
Y991952D01*
X1082599D01*
X1084265Y993618D01*
Y996950D01*
X1082599Y998616D01*
X1077601D01*
X1080933D02*
X1084265Y1001948D01*
X1094262D02*
X1087598D01*
X1094262Y995284D01*
Y993618D01*
X1092596Y991952D01*
X1089264D01*
X1087598Y993618D01*
X1097595D02*
X1099261Y991952D01*
X1102593D01*
X1104259Y993618D01*
Y1000282D01*
X1102593Y1001948D01*
X1099261D01*
X1097595Y1000282D01*
Y993618D01*
X1113872Y914604D02*
X1123868D01*
Y919602D01*
X1122202Y921268D01*
X1118870D01*
X1117204Y919602D01*
Y914604D01*
Y917936D02*
X1113872Y921268D01*
Y924601D02*
Y927933D01*
Y926267D01*
X1123868D01*
X1122202Y924601D01*
X1123868Y939596D02*
Y932931D01*
X1118870D01*
X1120536Y936264D01*
Y937930D01*
X1118870Y939596D01*
X1115538D01*
X1113872Y937930D01*
Y934597D01*
X1115538Y932931D01*
X960038Y926541D02*
X950042D01*
Y921542D01*
X951708Y919876D01*
X955040D01*
X956706Y921542D01*
Y926541D01*
Y923208D02*
X960038Y919876D01*
X958372Y916544D02*
X960038Y914878D01*
Y911545D01*
X958372Y909879D01*
X951708D01*
X950042Y911545D01*
Y914878D01*
X951708Y916544D01*
X953374D01*
X955040Y914878D01*
Y909879D01*
X1302379Y1059262D02*
Y1069258D01*
X1297381D01*
X1295715Y1067592D01*
Y1064260D01*
X1297381Y1062594D01*
X1302379D01*
X1299047D02*
X1295715Y1059262D01*
X1285718D02*
X1292382D01*
X1285718Y1065926D01*
Y1067592D01*
X1287384Y1069258D01*
X1290716D01*
X1292382Y1067592D01*
X1275721Y1069258D02*
X1282386D01*
Y1064260D01*
X1279053Y1065926D01*
X1277387D01*
X1275721Y1064260D01*
Y1060928D01*
X1277387Y1059262D01*
X1280719D01*
X1282386Y1060928D01*
X1357548Y1193159D02*
X1347552D01*
Y1188161D01*
X1349218Y1186495D01*
X1352550D01*
X1354216Y1188161D01*
Y1193159D01*
Y1189827D02*
X1357548Y1186495D01*
Y1176498D02*
Y1183162D01*
X1350884Y1176498D01*
X1349218D01*
X1347552Y1178164D01*
Y1181496D01*
X1349218Y1183162D01*
X1347552Y1166501D02*
X1349218Y1169833D01*
X1352550Y1173166D01*
X1355882D01*
X1357548Y1171499D01*
Y1168167D01*
X1355882Y1166501D01*
X1354216D01*
X1352550Y1168167D01*
Y1173166D01*
X1250868Y1108069D02*
X1240872D01*
Y1103071D01*
X1242538Y1101404D01*
X1245870D01*
X1247536Y1103071D01*
Y1108069D01*
Y1104737D02*
X1250868Y1101404D01*
Y1091408D02*
Y1098072D01*
X1244204Y1091408D01*
X1242538D01*
X1240872Y1093074D01*
Y1096406D01*
X1242538Y1098072D01*
Y1088075D02*
X1240872Y1086409D01*
Y1083077D01*
X1242538Y1081411D01*
X1244204D01*
X1245870Y1083077D01*
X1247536Y1081411D01*
X1249202D01*
X1250868Y1083077D01*
Y1086409D01*
X1249202Y1088075D01*
X1247536D01*
X1245870Y1086409D01*
X1244204Y1088075D01*
X1242538D01*
X1245870Y1086409D02*
Y1083077D01*
X1337228Y1194429D02*
X1327232D01*
Y1189431D01*
X1328898Y1187765D01*
X1332230D01*
X1333896Y1189431D01*
Y1194429D01*
Y1191097D02*
X1337228Y1187765D01*
Y1177768D02*
Y1184432D01*
X1330564Y1177768D01*
X1328898D01*
X1327232Y1179434D01*
Y1182766D01*
X1328898Y1184432D01*
X1337228Y1169437D02*
X1327232D01*
X1332230Y1174436D01*
Y1167771D01*
X1155059Y1206582D02*
Y1216578D01*
X1150061D01*
X1148394Y1214912D01*
Y1211580D01*
X1150061Y1209914D01*
X1155059D01*
X1151727D02*
X1148394Y1206582D01*
X1138398D02*
X1145062D01*
X1138398Y1213246D01*
Y1214912D01*
X1140064Y1216578D01*
X1143396D01*
X1145062Y1214912D01*
X1128401Y1206582D02*
X1135066D01*
X1128401Y1213246D01*
Y1214912D01*
X1130067Y1216578D01*
X1133399D01*
X1135066Y1214912D01*
X1263009Y1153242D02*
Y1163238D01*
X1258011D01*
X1256345Y1161572D01*
Y1158240D01*
X1258011Y1156574D01*
X1263009D01*
X1259677D02*
X1256345Y1153242D01*
X1246348D02*
X1253012D01*
X1246348Y1159906D01*
Y1161572D01*
X1248014Y1163238D01*
X1251346D01*
X1253012Y1161572D01*
X1243016Y1163238D02*
X1236351D01*
Y1161572D01*
X1243016Y1154908D01*
Y1153242D01*
X1083228Y1240149D02*
X1073232D01*
Y1235151D01*
X1074898Y1233484D01*
X1078230D01*
X1079896Y1235151D01*
Y1240149D01*
Y1236817D02*
X1083228Y1233484D01*
Y1223488D02*
Y1230152D01*
X1076564Y1223488D01*
X1074898D01*
X1073232Y1225154D01*
Y1228486D01*
X1074898Y1230152D01*
Y1220155D02*
X1073232Y1218489D01*
Y1215157D01*
X1074898Y1213491D01*
X1076564D01*
X1078230Y1215157D01*
Y1216823D01*
Y1215157D01*
X1079896Y1213491D01*
X1081562D01*
X1083228Y1215157D01*
Y1218489D01*
X1081562Y1220155D01*
X1019210Y965282D02*
Y975278D01*
X1014211D01*
X1012545Y973612D01*
Y970280D01*
X1014211Y968614D01*
X1019210D01*
X1015878D02*
X1012545Y965282D01*
X1009213D02*
X1005881D01*
X1007547D01*
Y975278D01*
X1009213Y973612D01*
X1000882Y965282D02*
X997550D01*
X999216D01*
Y975278D01*
X1000882Y973612D01*
X1202608Y1050086D02*
X1192612D01*
Y1045088D01*
X1194278Y1043421D01*
X1197610D01*
X1199276Y1045088D01*
Y1050086D01*
Y1046754D02*
X1202608Y1043421D01*
Y1040089D02*
Y1036757D01*
Y1038423D01*
X1192612D01*
X1194278Y1040089D01*
X1192612Y1031758D02*
Y1025094D01*
X1194278D01*
X1200942Y1031758D01*
X1202608D01*
X974008Y1123045D02*
X964012D01*
Y1118046D01*
X965678Y1116380D01*
X969010D01*
X970676Y1118046D01*
Y1123045D01*
Y1119712D02*
X974008Y1116380D01*
Y1113048D02*
Y1109715D01*
Y1111382D01*
X964012D01*
X965678Y1113048D01*
X1025398Y1081532D02*
Y1091529D01*
X1020400D01*
X1018734Y1089863D01*
Y1086530D01*
X1020400Y1084864D01*
X1025398D01*
X1022066D02*
X1018734Y1081532D01*
X1015401D02*
X1012069D01*
X1013735D01*
Y1091529D01*
X1015401Y1089863D01*
X1007071D02*
X1005404Y1091529D01*
X1002072D01*
X1000406Y1089863D01*
Y1088196D01*
X1002072Y1086530D01*
X1000406Y1084864D01*
Y1083198D01*
X1002072Y1081532D01*
X1005404D01*
X1007071Y1083198D01*
Y1084864D01*
X1005404Y1086530D01*
X1007071Y1088196D01*
Y1089863D01*
X1005404Y1086530D02*
X1002072D01*
X1094822Y913334D02*
X1104818D01*
Y918332D01*
X1103152Y919998D01*
X1099820D01*
X1098154Y918332D01*
Y913334D01*
Y916666D02*
X1094822Y919998D01*
Y923331D02*
Y926663D01*
Y924997D01*
X1104818D01*
X1103152Y923331D01*
X1094822Y936660D02*
X1104818D01*
X1099820Y931661D01*
Y938326D01*
X1187196Y1162812D02*
Y1172809D01*
X1182198D01*
X1180531Y1171143D01*
Y1167810D01*
X1182198Y1166144D01*
X1187196D01*
X1183864D02*
X1180531Y1162812D01*
X1177199Y1172809D02*
X1170535D01*
Y1171143D01*
X1177199Y1164478D01*
Y1162812D01*
X1234236Y941152D02*
Y951148D01*
X1229238D01*
X1227571Y949482D01*
Y946150D01*
X1229238Y944484D01*
X1234236D01*
X1230904D02*
X1227571Y941152D01*
X1224239D02*
X1220907D01*
X1222573D01*
Y951148D01*
X1224239Y949482D01*
X1209244Y941152D02*
X1215909D01*
X1209244Y947816D01*
Y949482D01*
X1210910Y951148D01*
X1214242D01*
X1215909Y949482D01*
X1195862Y996076D02*
X1189198D01*
X1187532Y997742D01*
Y1001075D01*
X1189198Y1002741D01*
X1195862D01*
X1197528Y1001075D01*
Y997742D01*
X1194196Y999408D02*
X1197528Y996076D01*
Y997742D02*
X1195862Y996076D01*
X1197528Y986079D02*
Y992744D01*
X1190864Y986079D01*
X1189198D01*
X1187532Y987745D01*
Y991078D01*
X1189198Y992744D01*
X1076086Y941548D02*
Y948212D01*
X1077752Y949878D01*
X1081085D01*
X1082751Y948212D01*
Y941548D01*
X1081085Y939882D01*
X1077752D01*
X1079418Y943214D02*
X1076086Y939882D01*
X1077752D02*
X1076086Y941548D01*
X1072754Y948212D02*
X1071088Y949878D01*
X1067756D01*
X1066089Y948212D01*
Y946546D01*
X1067756Y944880D01*
X1069422D01*
X1067756D01*
X1066089Y943214D01*
Y941548D01*
X1067756Y939882D01*
X1071088D01*
X1072754Y941548D01*
X1283401Y1136538D02*
Y1143203D01*
X1285068Y1144869D01*
X1288400D01*
X1290066Y1143203D01*
Y1136538D01*
X1288400Y1134872D01*
X1285068D01*
X1286734Y1138204D02*
X1283401Y1134872D01*
X1285068D02*
X1283401Y1136538D01*
X1275071Y1134872D02*
Y1144869D01*
X1280069Y1139870D01*
X1273405D01*
X1161572Y1116330D02*
X1154908D01*
X1153242Y1117996D01*
Y1121328D01*
X1154908Y1122995D01*
X1161572D01*
X1163238Y1121328D01*
Y1117996D01*
X1159906Y1119662D02*
X1163238Y1116330D01*
Y1117996D02*
X1161572Y1116330D01*
X1163238Y1112998D02*
Y1109666D01*
Y1111332D01*
X1153242D01*
X1154908Y1112998D01*
X1077662Y1090371D02*
X1079328Y1092037D01*
X1082660D01*
X1084326Y1090371D01*
Y1083706D01*
X1082660Y1082040D01*
X1079328D01*
X1077662Y1083706D01*
X1074329Y1082040D02*
X1070997D01*
X1072663D01*
Y1092037D01*
X1074329Y1090371D01*
X1065999D02*
X1064332Y1092037D01*
X1061000D01*
X1059334Y1090371D01*
Y1083706D01*
X1061000Y1082040D01*
X1064332D01*
X1065999Y1083706D01*
Y1090371D01*
X1030722Y1233962D02*
X1032388Y1235628D01*
X1035720D01*
X1037386Y1233962D01*
Y1227298D01*
X1035720Y1225632D01*
X1032388D01*
X1030722Y1227298D01*
X1027389Y1225632D02*
X1024057D01*
X1025723D01*
Y1235628D01*
X1027389Y1233962D01*
X1014060Y1225632D02*
Y1235628D01*
X1019059Y1230630D01*
X1012394D01*
X958281Y976071D02*
X959948Y977737D01*
X963280D01*
X964946Y976071D01*
Y969406D01*
X963280Y967740D01*
X959948D01*
X958281Y969406D01*
X954949Y967740D02*
X951617D01*
X953283D01*
Y977737D01*
X954949Y976071D01*
X939954Y967740D02*
X946619D01*
X939954Y974405D01*
Y976071D01*
X941620Y977737D01*
X944952D01*
X946619Y976071D01*
X963301Y1085372D02*
X964968Y1087038D01*
X968300D01*
X969966Y1085372D01*
Y1078708D01*
X968300Y1077042D01*
X964968D01*
X963301Y1078708D01*
X959969Y1077042D02*
X956637D01*
X958303D01*
Y1087038D01*
X959969Y1085372D01*
X951638D02*
X949972Y1087038D01*
X946640D01*
X944974Y1085372D01*
Y1083706D01*
X946640Y1082040D01*
X948306D01*
X946640D01*
X944974Y1080374D01*
Y1078708D01*
X946640Y1077042D01*
X949972D01*
X951638Y1078708D01*
X1078585Y1173002D02*
X1080251Y1174668D01*
X1083584D01*
X1085250Y1173002D01*
Y1166338D01*
X1083584Y1164672D01*
X1080251D01*
X1078585Y1166338D01*
X1075253Y1164672D02*
X1071921D01*
X1073587D01*
Y1174668D01*
X1075253Y1173002D01*
X1066922Y1164672D02*
X1063590D01*
X1065256D01*
Y1174668D01*
X1066922Y1173002D01*
X957866Y1171732D02*
X959532Y1173398D01*
X962865D01*
X964531Y1171732D01*
Y1165068D01*
X962865Y1163402D01*
X959532D01*
X957866Y1165068D01*
X954534D02*
X952868Y1163402D01*
X949536D01*
X947869Y1165068D01*
Y1171732D01*
X949536Y1173398D01*
X952868D01*
X954534Y1171732D01*
Y1170066D01*
X952868Y1168400D01*
X947869D01*
D60*
X1079050Y887300D02*
Y890700D01*
X1092650Y887300D02*
Y890700D01*
X1049860Y893260D02*
X1053260D01*
X1049860Y879660D02*
X1053260D01*
X1244150Y1044780D02*
Y1048180D01*
X1257750Y1044780D02*
Y1048180D01*
X1245420Y977470D02*
Y980870D01*
X1259020Y977470D02*
Y980870D01*
X1278460Y969830D02*
X1281860D01*
X1278460Y983430D02*
X1281860D01*
X1100660Y1218380D02*
X1104060D01*
X1100660Y1204780D02*
X1104060D01*
X1067250Y1218770D02*
Y1222170D01*
X1053650Y1218770D02*
Y1222170D01*
X1267910Y1099390D02*
Y1102790D01*
X1254310Y1099390D02*
Y1102790D01*
X1359350Y1141300D02*
Y1144700D01*
X1345750Y1141300D02*
Y1144700D01*
X1267910Y1131140D02*
Y1134540D01*
X1254310Y1131140D02*
Y1134540D01*
X1288620Y1088840D02*
X1292020D01*
X1288620Y1075240D02*
X1292020D01*
X1339030Y1141300D02*
Y1144700D01*
X1325430Y1141300D02*
Y1144700D01*
X1283820Y1124480D02*
X1291520D01*
X1283820Y1095480D02*
X1291520D01*
X1283820Y1116080D02*
Y1124480D01*
Y1095480D02*
Y1103880D01*
X1220040Y1045660D02*
X1223440D01*
X1220040Y1032060D02*
X1223440D01*
X1220040Y1014280D02*
X1223440D01*
X1220040Y1027880D02*
X1223440D01*
X1215240Y1008910D02*
X1222940D01*
X1215240Y979910D02*
X1222940D01*
X1215240Y1000510D02*
Y1008910D01*
Y979910D02*
Y988310D01*
X1220040Y973270D02*
X1223440D01*
X1220040Y959670D02*
X1223440D01*
X1013030Y943160D02*
X1016430D01*
X1013030Y956760D02*
X1016430D01*
X1213670Y1115900D02*
Y1119300D01*
X1227270Y1115900D02*
Y1119300D01*
X1184480Y1097730D02*
X1187880D01*
X1184480Y1084130D02*
X1187880D01*
X1179680Y1132100D02*
X1187380D01*
X1179680Y1103100D02*
X1187380D01*
X1179680Y1123700D02*
Y1132100D01*
Y1103100D02*
Y1111500D01*
X1183210Y1138740D02*
X1186610D01*
X1183210Y1152340D02*
X1186610D01*
X1051410Y982240D02*
X1059110D01*
X1051410Y953240D02*
X1059110D01*
X1051410Y973840D02*
Y982240D01*
Y953240D02*
Y961640D01*
X1051130Y1002480D02*
X1054530D01*
X1051130Y988880D02*
X1054530D01*
X1051130Y1007930D02*
X1054530D01*
X1051130Y1021530D02*
X1054530D01*
X1093020Y962230D02*
Y965630D01*
X1106620Y962230D02*
Y965630D01*
X1131120Y962230D02*
Y965630D01*
X1144720Y962230D02*
Y965630D01*
X1112070Y962230D02*
Y965630D01*
X1125670Y962230D02*
Y965630D01*
X1124180Y1057460D02*
X1127580D01*
X1124180Y1071060D02*
X1127580D01*
X979620Y917780D02*
Y921180D01*
X966020Y917780D02*
Y921180D01*
X1107890Y1030150D02*
Y1033550D01*
X1094290Y1030150D02*
Y1033550D01*
X993590Y1027610D02*
Y1031010D01*
X979990Y1027610D02*
Y1031010D01*
X1013030Y1057460D02*
X1016430D01*
X1013030Y1071060D02*
X1016430D01*
X1124180Y1143820D02*
X1127580D01*
X1124180Y1157420D02*
X1127580D01*
X1107890Y1120320D02*
Y1123720D01*
X1094290Y1120320D02*
Y1123720D01*
X1013030Y1142550D02*
X1016430D01*
X1013030Y1156150D02*
X1016430D01*
X993590Y1116560D02*
Y1119960D01*
X979990Y1116560D02*
Y1119960D01*
M02*
