G04*
G04 #@! TF.GenerationSoftware,Altium Limited,Altium Designer,23.8.1 (32)*
G04*
G04 Layer_Color=128*
%FSLAX44Y44*%
%MOMM*%
G71*
G04*
G04 #@! TF.SameCoordinates,C7883470-4D28-45A4-81C0-78593BF10AE1*
G04*
G04*
G04 #@! TF.FilePolarity,Positive*
G04*
G01*
G75*
%ADD60C,0.1270*%
D60*
X1048600Y927100D02*
X1059600D01*
X1054100Y921600D02*
Y932600D01*
X1074000Y927100D02*
X1085000D01*
X1079500Y921600D02*
Y932600D01*
X1298540Y1234440D02*
X1310040D01*
X1304290Y1228690D02*
Y1240190D01*
X1298540Y1209040D02*
X1310040D01*
X1304290Y1203290D02*
Y1214790D01*
X1298540Y1183640D02*
X1310040D01*
X1304290Y1177890D02*
Y1189390D01*
X1194110Y1214120D02*
X1210610D01*
X1202360Y1205870D02*
Y1222370D01*
X996610Y1214120D02*
X1008110D01*
X1002360Y1208370D02*
Y1219870D01*
X1082360Y803910D02*
X1122360D01*
X1102360Y783910D02*
Y823910D01*
X988882Y1491210D02*
X1022918D01*
X1005900Y1474192D02*
Y1508228D01*
X1313882Y1491210D02*
X1347918D01*
X1330900Y1474192D02*
Y1508228D01*
X1070907Y1426210D02*
X1085893D01*
X1078400Y1418717D02*
Y1433703D01*
X1100907Y1426210D02*
X1115893D01*
X1108400Y1418717D02*
Y1433703D01*
X1130907Y1426210D02*
X1145893D01*
X1138400Y1418717D02*
Y1433703D01*
X1160907Y1426210D02*
X1175893D01*
X1168400Y1418717D02*
Y1433703D01*
X1190907Y1426210D02*
X1205893D01*
X1198400Y1418717D02*
Y1433703D01*
X1220907Y1426210D02*
X1235893D01*
X1228400Y1418717D02*
Y1433703D01*
X1250907Y1426210D02*
X1265893D01*
X1258400Y1418717D02*
Y1433703D01*
X1085907Y1401210D02*
X1100893D01*
X1093400Y1393717D02*
Y1408703D01*
X1115907Y1401210D02*
X1130893D01*
X1123400Y1393717D02*
Y1408703D01*
X1145907Y1401210D02*
X1160893D01*
X1153400Y1393717D02*
Y1408703D01*
X1175907Y1401210D02*
X1190893D01*
X1183400Y1393717D02*
Y1408703D01*
X1205907Y1401210D02*
X1220893D01*
X1213400Y1393717D02*
Y1408703D01*
X1235907Y1401210D02*
X1250893D01*
X1243400Y1393717D02*
Y1408703D01*
X1070907Y1346210D02*
X1085893D01*
X1078400Y1338717D02*
Y1353703D01*
X1085907Y1371210D02*
X1100893D01*
X1093400Y1363717D02*
Y1378703D01*
X1100907Y1346210D02*
X1115893D01*
X1108400Y1338717D02*
Y1353703D01*
X1115907Y1371210D02*
X1130893D01*
X1123400Y1363717D02*
Y1378703D01*
X1130907Y1346210D02*
X1145893D01*
X1138400Y1338717D02*
Y1353703D01*
X1145907Y1371210D02*
X1160893D01*
X1153400Y1363717D02*
Y1378703D01*
X1160907Y1346210D02*
X1175893D01*
X1168400Y1338717D02*
Y1353703D01*
X1175907Y1371210D02*
X1190893D01*
X1183400Y1363717D02*
Y1378703D01*
X1190907Y1346210D02*
X1205893D01*
X1198400Y1338717D02*
Y1353703D01*
X1205907Y1371210D02*
X1220893D01*
X1213400Y1363717D02*
Y1378703D01*
X1220907Y1346210D02*
X1235893D01*
X1228400Y1338717D02*
Y1353703D01*
X1235907Y1371210D02*
X1250893D01*
X1243400Y1363717D02*
Y1378703D01*
X1250907Y1346210D02*
X1265893D01*
X1258400Y1338717D02*
Y1353703D01*
X1428501Y1500001D02*
X1431501D01*
X1430001Y1498501D02*
Y1501501D01*
X1418501Y1480001D02*
X1421501D01*
X1420001Y1478501D02*
Y1481501D01*
X1428501Y1460001D02*
X1431501D01*
X1430001Y1458501D02*
Y1461501D01*
X1418501Y1440001D02*
X1421501D01*
X1420001Y1438501D02*
Y1441501D01*
X1428501Y1420001D02*
X1431501D01*
X1430001Y1418501D02*
Y1421501D01*
X1418501Y1400001D02*
X1421501D01*
X1420001Y1398501D02*
Y1401501D01*
X1428501Y1380001D02*
X1431501D01*
X1430001Y1378501D02*
Y1381501D01*
X1418501Y1360001D02*
X1421501D01*
X1420001Y1358501D02*
Y1361501D01*
X1428501Y1340001D02*
X1431501D01*
X1430001Y1338501D02*
Y1341501D01*
X1418501Y1320001D02*
X1421501D01*
X1420001Y1318501D02*
Y1321501D01*
X1428501Y1300001D02*
X1431501D01*
X1430001Y1298501D02*
Y1301501D01*
X1418501Y1280001D02*
X1421501D01*
X1420001Y1278501D02*
Y1281501D01*
X1428501Y1260001D02*
X1431501D01*
X1430001Y1258501D02*
Y1261501D01*
X1418501Y1240001D02*
X1421501D01*
X1420001Y1238501D02*
Y1241501D01*
X1428501Y1220001D02*
X1431501D01*
X1430001Y1218501D02*
Y1221501D01*
X1418501Y1200001D02*
X1421501D01*
X1420001Y1198501D02*
Y1201501D01*
X1428501Y1180001D02*
X1431501D01*
X1430001Y1178501D02*
Y1181501D01*
X1418501Y1160001D02*
X1421501D01*
X1420001Y1158501D02*
Y1161501D01*
X1428501Y1140001D02*
X1431501D01*
X1430001Y1138501D02*
Y1141501D01*
X1418501Y1120001D02*
X1421501D01*
X1420001Y1118501D02*
Y1121501D01*
X1428501Y1100001D02*
X1431501D01*
X1430001Y1098501D02*
Y1101501D01*
X1418501Y1080001D02*
X1421501D01*
X1420001Y1078501D02*
Y1081501D01*
X1428501Y1060001D02*
X1431501D01*
X1430001Y1058501D02*
Y1061501D01*
X1418501Y1040001D02*
X1421501D01*
X1420001Y1038501D02*
Y1041501D01*
X1428501Y1020001D02*
X1431501D01*
X1430001Y1018501D02*
Y1021500D01*
X1418501Y1000001D02*
X1421501D01*
X1420001Y998501D02*
Y1001500D01*
X1428501Y980001D02*
X1431501D01*
X1430001Y978501D02*
Y981500D01*
X1418501Y960001D02*
X1421501D01*
X1420001Y958501D02*
Y961500D01*
X1428501Y940001D02*
X1431501D01*
X1430001Y938501D02*
Y941500D01*
X1418501Y920001D02*
X1421501D01*
X1420001Y918501D02*
Y921500D01*
X1428501Y900001D02*
X1431501D01*
X1430001Y898501D02*
Y901500D01*
X1418501Y880001D02*
X1421501D01*
X1420001Y878501D02*
Y881500D01*
X1428501Y860001D02*
X1431501D01*
X1430001Y858501D02*
Y861500D01*
X1418501Y840001D02*
X1421501D01*
X1420001Y838501D02*
Y841500D01*
X1428501Y820000D02*
X1431501D01*
X1430001Y818500D02*
Y821500D01*
X1418501Y800000D02*
X1421501D01*
X1420001Y798500D02*
Y801500D01*
X1428501Y780000D02*
X1431501D01*
X1430001Y778500D02*
Y781500D01*
X1418501Y760000D02*
X1421501D01*
X1420001Y758500D02*
Y761500D01*
X1428501Y740000D02*
X1431501D01*
X1430001Y738500D02*
Y741500D01*
X1408501Y1500001D02*
X1411501D01*
X1410001Y1498501D02*
Y1501501D01*
X1398501Y1480001D02*
X1401501D01*
X1400001Y1478501D02*
Y1481501D01*
X1408501Y1460001D02*
X1411501D01*
X1410001Y1458501D02*
Y1461501D01*
X1398501Y1440001D02*
X1401501D01*
X1400001Y1438501D02*
Y1441501D01*
X1408501Y1420001D02*
X1411501D01*
X1410001Y1418501D02*
Y1421501D01*
X1398501Y1400001D02*
X1401501D01*
X1400001Y1398501D02*
Y1401501D01*
X1408501Y1380001D02*
X1411501D01*
X1410001Y1378501D02*
Y1381501D01*
X1398501Y1360001D02*
X1401501D01*
X1400001Y1358501D02*
Y1361501D01*
X1408501Y820000D02*
X1411501D01*
X1410001Y818500D02*
Y821500D01*
X1398501Y800000D02*
X1401501D01*
X1400001Y798500D02*
Y801500D01*
X1408501Y780000D02*
X1411501D01*
X1410001Y778500D02*
Y781500D01*
X1398501Y760000D02*
X1401501D01*
X1400001Y758500D02*
Y761500D01*
X1408501Y740000D02*
X1411501D01*
X1410001Y738500D02*
Y741500D01*
X1398501Y720000D02*
X1401501D01*
X1400001Y718500D02*
Y721500D01*
X1388501Y1500001D02*
X1391501D01*
X1390001Y1498501D02*
Y1501501D01*
X1378501Y1480001D02*
X1381501D01*
X1380001Y1478501D02*
Y1481501D01*
X1388501Y1460001D02*
X1391501D01*
X1390001Y1458501D02*
Y1461501D01*
X1378501Y1440001D02*
X1381501D01*
X1380001Y1438501D02*
Y1441501D01*
X1388501Y1420001D02*
X1391501D01*
X1390001Y1418501D02*
Y1421501D01*
X1378501Y1400001D02*
X1381501D01*
X1380001Y1398501D02*
Y1401501D01*
X1388501Y1380001D02*
X1391501D01*
X1390001Y1378501D02*
Y1381501D01*
X1378501Y1320001D02*
X1381501D01*
X1380001Y1318501D02*
Y1321501D01*
X1388501Y1300001D02*
X1391501D01*
X1390001Y1298501D02*
Y1301501D01*
X1378501Y1280001D02*
X1381501D01*
X1380001Y1278501D02*
Y1281501D01*
X1388501Y1260001D02*
X1391501D01*
X1390001Y1258501D02*
Y1261501D01*
X1378501Y1240001D02*
X1381501D01*
X1380001Y1238501D02*
Y1241501D01*
X1388501Y1220001D02*
X1391501D01*
X1390001Y1218501D02*
Y1221501D01*
X1378501Y1200001D02*
X1381501D01*
X1380001Y1198501D02*
Y1201501D01*
X1388501Y1180001D02*
X1391501D01*
X1390001Y1178501D02*
Y1181501D01*
X1378501Y1160001D02*
X1381501D01*
X1380001Y1158501D02*
Y1161501D01*
X1388501Y1140001D02*
X1391501D01*
X1390001Y1138501D02*
Y1141501D01*
X1388501Y1100001D02*
X1391501D01*
X1390001Y1098501D02*
Y1101501D01*
X1388501Y1060001D02*
X1391501D01*
X1390001Y1058501D02*
Y1061501D01*
X1388501Y1020001D02*
X1391501D01*
X1390001Y1018501D02*
Y1021500D01*
X1388501Y980001D02*
X1391501D01*
X1390001Y978501D02*
Y981500D01*
X1388501Y940001D02*
X1391501D01*
X1390001Y938501D02*
Y941500D01*
X1388501Y900001D02*
X1391501D01*
X1390001Y898501D02*
Y901500D01*
X1388501Y780000D02*
X1391501D01*
X1390001Y778500D02*
Y781500D01*
X1378501Y760000D02*
X1381501D01*
X1380001Y758500D02*
Y761500D01*
X1388501Y740000D02*
X1391501D01*
X1390001Y738500D02*
Y741500D01*
X1378501Y720000D02*
X1381501D01*
X1380001Y718500D02*
Y721500D01*
X1368501Y1500001D02*
X1371501D01*
X1370001Y1498501D02*
Y1501501D01*
X1358501Y1480001D02*
X1361501D01*
X1360001Y1478501D02*
Y1481501D01*
X1368501Y1460001D02*
X1371501D01*
X1370001Y1458501D02*
Y1461501D01*
X1358501Y1440001D02*
X1361501D01*
X1360001Y1438501D02*
Y1441501D01*
X1368501Y1420001D02*
X1371501D01*
X1370001Y1418501D02*
Y1421501D01*
X1358501Y1400001D02*
X1361501D01*
X1360001Y1398501D02*
Y1401501D01*
X1358501Y1320001D02*
X1361501D01*
X1360001Y1318501D02*
Y1321501D01*
X1368501Y780000D02*
X1371501D01*
X1370001Y778500D02*
Y781500D01*
X1358501Y760000D02*
X1361501D01*
X1360001Y758500D02*
Y761500D01*
X1368501Y740000D02*
X1371501D01*
X1370001Y738500D02*
Y741500D01*
X1358501Y720000D02*
X1361501D01*
X1360001Y718500D02*
Y721500D01*
X1348501Y1460001D02*
X1351501D01*
X1350001Y1458501D02*
Y1461501D01*
X1338501Y1440001D02*
X1341501D01*
X1340001Y1438501D02*
Y1441501D01*
X1348501Y1420001D02*
X1351501D01*
X1350001Y1418501D02*
Y1421501D01*
X1338501Y1280001D02*
X1341501D01*
X1340001Y1278501D02*
Y1281501D01*
X1348501Y1260001D02*
X1351501D01*
X1350001Y1258501D02*
Y1261501D01*
X1338501Y1240001D02*
X1341501D01*
X1340001Y1238501D02*
Y1241501D01*
X1348501Y1220001D02*
X1351501D01*
X1350001Y1218501D02*
Y1221501D01*
X1338501Y1200001D02*
X1341501D01*
X1340001Y1198501D02*
Y1201501D01*
X1348501Y1180001D02*
X1351501D01*
X1350001Y1178501D02*
Y1181501D01*
X1338501Y1120001D02*
X1341501D01*
X1340001Y1118501D02*
Y1121501D01*
X1348501Y1060001D02*
X1351501D01*
X1350001Y1058501D02*
Y1061501D01*
X1338501Y1040001D02*
X1341501D01*
X1340001Y1038501D02*
Y1041501D01*
X1348501Y1020001D02*
X1351501D01*
X1350001Y1018501D02*
Y1021500D01*
X1338501Y1000001D02*
X1341501D01*
X1340001Y998501D02*
Y1001500D01*
X1338501Y960001D02*
X1341501D01*
X1340001Y958501D02*
Y961500D01*
X1348501Y940001D02*
X1351501D01*
X1350001Y938501D02*
Y941500D01*
X1338501Y920001D02*
X1341501D01*
X1340001Y918501D02*
Y921500D01*
X1348501Y820000D02*
X1351501D01*
X1350001Y818500D02*
Y821500D01*
X1348501Y780000D02*
X1351501D01*
X1350001Y778500D02*
Y781500D01*
X1338501Y760000D02*
X1341501D01*
X1340001Y758500D02*
Y761500D01*
X1348501Y740000D02*
X1351501D01*
X1350001Y738500D02*
Y741500D01*
X1338501Y720000D02*
X1341501D01*
X1340001Y718500D02*
Y721500D01*
X1328501Y1460001D02*
X1331501D01*
X1330001Y1458501D02*
Y1461501D01*
X1318501Y1440001D02*
X1321501D01*
X1320001Y1438501D02*
Y1441501D01*
X1328501Y1340001D02*
X1331501D01*
X1330001Y1338501D02*
Y1341501D01*
X1328501Y1300001D02*
X1331501D01*
X1330001Y1298501D02*
Y1301501D01*
X1328501Y1260001D02*
X1331501D01*
X1330001Y1258501D02*
Y1261501D01*
X1318501Y1240001D02*
X1321501D01*
X1320001Y1238501D02*
Y1241501D01*
X1328501Y1220001D02*
X1331501D01*
X1330001Y1218501D02*
Y1221501D01*
X1328501Y1100001D02*
X1331501D01*
X1330001Y1098501D02*
Y1101501D01*
X1318501Y1080001D02*
X1321501D01*
X1320001Y1078501D02*
Y1081501D01*
X1318501Y1040001D02*
X1321501D01*
X1320001Y1038501D02*
Y1041501D01*
X1328501Y1020001D02*
X1331501D01*
X1330001Y1018501D02*
Y1021500D01*
X1318501Y960001D02*
X1321501D01*
X1320001Y958501D02*
Y961500D01*
X1328501Y940001D02*
X1331501D01*
X1330001Y938501D02*
Y941500D01*
X1318501Y920001D02*
X1321501D01*
X1320001Y918501D02*
Y921500D01*
X1328501Y900001D02*
X1331501D01*
X1330001Y898501D02*
Y901500D01*
X1328501Y820000D02*
X1331501D01*
X1330001Y818500D02*
Y821500D01*
X1328501Y780000D02*
X1331501D01*
X1330001Y778500D02*
Y781500D01*
X1318501Y760000D02*
X1321501D01*
X1320001Y758500D02*
Y761500D01*
X1328501Y740000D02*
X1331501D01*
X1330001Y738500D02*
Y741500D01*
X1318501Y720000D02*
X1321501D01*
X1320001Y718500D02*
Y721500D01*
X1298501Y1480001D02*
X1301501D01*
X1300001Y1478501D02*
Y1481501D01*
X1308501Y1460001D02*
X1311501D01*
X1310001Y1458501D02*
Y1461501D01*
X1308501Y1420001D02*
X1311501D01*
X1310001Y1418501D02*
Y1421501D01*
X1308501Y1300001D02*
X1311501D01*
X1310001Y1298501D02*
Y1301501D01*
X1298501Y1280001D02*
X1301501D01*
X1300001Y1278501D02*
Y1281501D01*
X1308501Y1260001D02*
X1311501D01*
X1310001Y1258501D02*
Y1261501D01*
X1308501Y940001D02*
X1311501D01*
X1310001Y938501D02*
Y941500D01*
X1298501Y920001D02*
X1301501D01*
X1300001Y918501D02*
Y921500D01*
X1308501Y900001D02*
X1311501D01*
X1310001Y898501D02*
Y901500D01*
X1308501Y780000D02*
X1311501D01*
X1310001Y778500D02*
Y781500D01*
X1298501Y760000D02*
X1301501D01*
X1300001Y758500D02*
Y761500D01*
X1308501Y740000D02*
X1311501D01*
X1310001Y738500D02*
Y741500D01*
X1298501Y720000D02*
X1301501D01*
X1300001Y718500D02*
Y721500D01*
X1288501Y1500001D02*
X1291501D01*
X1290001Y1498501D02*
Y1501501D01*
X1278501Y1480001D02*
X1281501D01*
X1280001Y1478501D02*
Y1481501D01*
X1288501Y1460001D02*
X1291501D01*
X1290001Y1458501D02*
Y1461501D01*
X1288501Y1340001D02*
X1291501D01*
X1290001Y1338501D02*
Y1341501D01*
X1288501Y1300001D02*
X1291501D01*
X1290001Y1298501D02*
Y1301501D01*
X1278501Y1280001D02*
X1281501D01*
X1280001Y1278501D02*
Y1281501D01*
X1278501Y1200001D02*
X1281501D01*
X1280001Y1198501D02*
Y1201501D01*
X1278501Y1160001D02*
X1281501D01*
X1280001Y1158501D02*
Y1161501D01*
X1278501Y1120001D02*
X1281501D01*
X1280001Y1118501D02*
Y1121501D01*
X1288501Y1100001D02*
X1291501D01*
X1290001Y1098501D02*
Y1101501D01*
X1278501Y920001D02*
X1281501D01*
X1280001Y918501D02*
Y921500D01*
X1288501Y900001D02*
X1291501D01*
X1290001Y898501D02*
Y901500D01*
X1288501Y780000D02*
X1291501D01*
X1290001Y778500D02*
Y781500D01*
X1278501Y760000D02*
X1281501D01*
X1280001Y758500D02*
Y761500D01*
X1288501Y740000D02*
X1291501D01*
X1290001Y738500D02*
Y741500D01*
X1278501Y720000D02*
X1281501D01*
X1280001Y718500D02*
Y721500D01*
X1268501Y1500001D02*
X1271501D01*
X1270001Y1498501D02*
Y1501501D01*
X1258501Y1480001D02*
X1261501D01*
X1260001Y1478501D02*
Y1481501D01*
X1268501Y1460001D02*
X1271501D01*
X1270001Y1458501D02*
Y1461501D01*
X1268501Y1260001D02*
X1271501D01*
X1270001Y1258501D02*
Y1261501D01*
X1268501Y1220001D02*
X1271501D01*
X1270001Y1218501D02*
Y1221501D01*
X1258501Y1160001D02*
X1261501D01*
X1260001Y1158501D02*
Y1161501D01*
X1258501Y1080001D02*
X1261501D01*
X1260001Y1078501D02*
Y1081501D01*
X1258501Y1000001D02*
X1261501D01*
X1260001Y998501D02*
Y1001500D01*
X1258501Y920001D02*
X1261501D01*
X1260001Y918501D02*
Y921500D01*
X1268501Y900001D02*
X1271501D01*
X1270001Y898501D02*
Y901500D01*
X1258501Y880001D02*
X1261501D01*
X1260001Y878501D02*
Y881500D01*
X1268501Y820000D02*
X1271501D01*
X1270001Y818500D02*
Y821500D01*
X1268501Y780000D02*
X1271501D01*
X1270001Y778500D02*
Y781500D01*
X1258501Y760000D02*
X1261501D01*
X1260001Y758500D02*
Y761500D01*
X1268501Y740000D02*
X1271501D01*
X1270001Y738500D02*
Y741500D01*
X1258501Y720000D02*
X1261501D01*
X1260001Y718500D02*
Y721500D01*
X1248501Y1500001D02*
X1251501D01*
X1250001Y1498501D02*
Y1501501D01*
X1238501Y1480001D02*
X1241501D01*
X1240001Y1478501D02*
Y1481501D01*
X1248501Y1460001D02*
X1251501D01*
X1250001Y1458501D02*
Y1461501D01*
X1248501Y1260001D02*
X1251501D01*
X1250001Y1258501D02*
Y1261501D01*
X1248501Y1100001D02*
X1251501D01*
X1250001Y1098501D02*
Y1101501D01*
X1248501Y1020001D02*
X1251501D01*
X1250001Y1018501D02*
Y1021500D01*
X1238501Y880001D02*
X1241501D01*
X1240001Y878501D02*
Y881500D01*
X1248501Y820000D02*
X1251501D01*
X1250001Y818500D02*
Y821500D01*
X1248501Y780000D02*
X1251501D01*
X1250001Y778500D02*
Y781500D01*
X1238501Y760000D02*
X1241501D01*
X1240001Y758500D02*
Y761500D01*
X1248501Y740000D02*
X1251501D01*
X1250001Y738500D02*
Y741500D01*
X1238501Y720000D02*
X1241501D01*
X1240001Y718500D02*
Y721500D01*
X1228501Y1500001D02*
X1231501D01*
X1230001Y1498501D02*
Y1501501D01*
X1218501Y1480001D02*
X1221501D01*
X1220001Y1478501D02*
Y1481501D01*
X1228501Y1460001D02*
X1231501D01*
X1230001Y1458501D02*
Y1461501D01*
X1228501Y900001D02*
X1231501D01*
X1230001Y898501D02*
Y901500D01*
X1228501Y820000D02*
X1231501D01*
X1230001Y818500D02*
Y821500D01*
X1228501Y780000D02*
X1231501D01*
X1230001Y778500D02*
Y781500D01*
X1218501Y760000D02*
X1221501D01*
X1220001Y758500D02*
Y761500D01*
X1228501Y740000D02*
X1231501D01*
X1230001Y738500D02*
Y741500D01*
X1218501Y720000D02*
X1221501D01*
X1220001Y718500D02*
Y721500D01*
X1208501Y1500001D02*
X1211501D01*
X1210001Y1498501D02*
Y1501501D01*
X1198501Y1480001D02*
X1201501D01*
X1200001Y1478501D02*
Y1481501D01*
X1208501Y1460001D02*
X1211501D01*
X1210001Y1458501D02*
Y1461501D01*
X1198501Y1320001D02*
X1201501D01*
X1200001Y1318501D02*
Y1321501D01*
X1208501Y1180001D02*
X1211501D01*
X1210001Y1178501D02*
Y1181501D01*
X1208501Y1140001D02*
X1211501D01*
X1210001Y1138501D02*
Y1141501D01*
X1208501Y1060001D02*
X1211501D01*
X1210001Y1058501D02*
Y1061501D01*
X1208501Y900001D02*
X1211501D01*
X1210001Y898501D02*
Y901500D01*
X1208501Y860001D02*
X1211501D01*
X1210001Y858501D02*
Y861500D01*
X1208501Y820000D02*
X1211501D01*
X1210001Y818500D02*
Y821500D01*
X1208501Y780000D02*
X1211501D01*
X1210001Y778500D02*
Y781500D01*
X1198501Y760000D02*
X1201501D01*
X1200001Y758500D02*
Y761500D01*
X1208501Y740000D02*
X1211501D01*
X1210001Y738500D02*
Y741500D01*
X1198501Y720000D02*
X1201501D01*
X1200001Y718500D02*
Y721500D01*
X1188501Y1500001D02*
X1191501D01*
X1190001Y1498501D02*
Y1501501D01*
X1178501Y1480001D02*
X1181501D01*
X1180001Y1478501D02*
Y1481501D01*
X1188501Y1460001D02*
X1191501D01*
X1190001Y1458501D02*
Y1461501D01*
X1178501Y1240001D02*
X1181501D01*
X1180001Y1238501D02*
Y1241501D01*
X1178501Y1160001D02*
X1181501D01*
X1180001Y1158501D02*
Y1161501D01*
X1188501Y1060001D02*
X1191501D01*
X1190001Y1058501D02*
Y1061501D01*
X1178501Y1040001D02*
X1181501D01*
X1180001Y1038501D02*
Y1041501D01*
X1188501Y1020001D02*
X1191501D01*
X1190001Y1018501D02*
Y1021500D01*
X1178501Y1000001D02*
X1181501D01*
X1180001Y998501D02*
Y1001500D01*
X1178501Y960001D02*
X1181501D01*
X1180001Y958501D02*
Y961500D01*
X1178501Y920001D02*
X1181501D01*
X1180001Y918501D02*
Y921500D01*
X1188501Y900001D02*
X1191501D01*
X1190001Y898501D02*
Y901500D01*
X1178501Y840001D02*
X1181501D01*
X1180001Y838501D02*
Y841500D01*
X1178501Y800000D02*
X1181501D01*
X1180001Y798500D02*
Y801500D01*
X1188501Y780000D02*
X1191501D01*
X1190001Y778500D02*
Y781500D01*
X1178501Y760000D02*
X1181501D01*
X1180001Y758500D02*
Y761500D01*
X1188501Y740000D02*
X1191501D01*
X1190001Y738500D02*
Y741500D01*
X1178501Y720000D02*
X1181501D01*
X1180001Y718500D02*
Y721500D01*
X1168501Y1500001D02*
X1171501D01*
X1170001Y1498501D02*
Y1501501D01*
X1158501Y1480001D02*
X1161501D01*
X1160001Y1478501D02*
Y1481501D01*
X1158501Y1320001D02*
X1161501D01*
X1160001Y1318501D02*
Y1321501D01*
X1158501Y1040001D02*
X1161501D01*
X1160001Y1038501D02*
Y1041501D01*
X1158501Y960001D02*
X1161501D01*
X1160001Y958501D02*
Y961500D01*
X1158501Y920001D02*
X1161501D01*
X1160001Y918501D02*
Y921500D01*
X1158501Y880001D02*
X1161501D01*
X1160001Y878501D02*
Y881500D01*
X1158501Y840001D02*
X1161501D01*
X1160001Y838501D02*
Y841500D01*
X1168501Y820000D02*
X1171501D01*
X1170001Y818500D02*
Y821500D01*
X1158501Y800000D02*
X1161501D01*
X1160001Y798500D02*
Y801500D01*
X1168501Y780000D02*
X1171501D01*
X1170001Y778500D02*
Y781500D01*
X1158501Y760000D02*
X1161501D01*
X1160001Y758500D02*
Y761500D01*
X1168501Y740000D02*
X1171501D01*
X1170001Y738500D02*
Y741500D01*
X1158501Y720000D02*
X1161501D01*
X1160001Y718500D02*
Y721500D01*
X1148501Y1500001D02*
X1151501D01*
X1150001Y1498501D02*
Y1501501D01*
X1138501Y1480001D02*
X1141501D01*
X1140001Y1478501D02*
Y1481501D01*
X1148501Y1300001D02*
X1151501D01*
X1150001Y1298501D02*
Y1301501D01*
X1138501Y880001D02*
X1141501D01*
X1140001Y878501D02*
Y881500D01*
X1148501Y860001D02*
X1151501D01*
X1150001Y858501D02*
Y861500D01*
X1138501Y840001D02*
X1141501D01*
X1140001Y838501D02*
Y841500D01*
X1148501Y820000D02*
X1151501D01*
X1150001Y818500D02*
Y821500D01*
X1138501Y800000D02*
X1141501D01*
X1140001Y798500D02*
Y801500D01*
X1148501Y780000D02*
X1151501D01*
X1150001Y778500D02*
Y781500D01*
X1138501Y760000D02*
X1141501D01*
X1140001Y758500D02*
Y761500D01*
X1148501Y740000D02*
X1151501D01*
X1150001Y738500D02*
Y741500D01*
X1138501Y720000D02*
X1141501D01*
X1140001Y718500D02*
Y721500D01*
X1128501Y1500001D02*
X1131501D01*
X1130001Y1498501D02*
Y1501501D01*
X1118501Y1480001D02*
X1121501D01*
X1120001Y1478501D02*
Y1481501D01*
X1128501Y1300001D02*
X1131501D01*
X1130001Y1298501D02*
Y1301501D01*
X1118501Y1040001D02*
X1121501D01*
X1120001Y1038501D02*
Y1041501D01*
X1118501Y1000001D02*
X1121501D01*
X1120001Y998501D02*
Y1001500D01*
X1118501Y920001D02*
X1121501D01*
X1120001Y918501D02*
Y921500D01*
X1128501Y900001D02*
X1131501D01*
X1130001Y898501D02*
Y901500D01*
X1118501Y880001D02*
X1121501D01*
X1120001Y878501D02*
Y881500D01*
X1128501Y860001D02*
X1131501D01*
X1130001Y858501D02*
Y861500D01*
X1118501Y760000D02*
X1121501D01*
X1120001Y758500D02*
Y761500D01*
X1128501Y740000D02*
X1131501D01*
X1130001Y738500D02*
Y741500D01*
X1118501Y720000D02*
X1121501D01*
X1120001Y718500D02*
Y721500D01*
X1108501Y1500001D02*
X1111501D01*
X1110001Y1498501D02*
Y1501501D01*
X1098501Y1480001D02*
X1101501D01*
X1100001Y1478501D02*
Y1481501D01*
X1108501Y1380001D02*
X1111501D01*
X1110001Y1378501D02*
Y1381501D01*
X1098501Y1320001D02*
X1101501D01*
X1100001Y1318501D02*
Y1321501D01*
X1098501Y1240001D02*
X1101501D01*
X1100001Y1238501D02*
Y1241501D01*
X1098501Y1160001D02*
X1101501D01*
X1100001Y1158501D02*
Y1161501D01*
X1098501Y920001D02*
X1101501D01*
X1100001Y918501D02*
Y921500D01*
X1108501Y900001D02*
X1111501D01*
X1110001Y898501D02*
Y901500D01*
X1098501Y880001D02*
X1101501D01*
X1100001Y878501D02*
Y881500D01*
X1108501Y860001D02*
X1111501D01*
X1110001Y858501D02*
Y861500D01*
X1108501Y740000D02*
X1111501D01*
X1110001Y738500D02*
Y741500D01*
X1098501Y720000D02*
X1101501D01*
X1100001Y718500D02*
Y721500D01*
X1088501Y1500001D02*
X1091501D01*
X1090001Y1498501D02*
Y1501501D01*
X1078501Y1480001D02*
X1081501D01*
X1080001Y1478501D02*
Y1481501D01*
X1078501Y1320001D02*
X1081501D01*
X1080001Y1318501D02*
Y1321501D01*
X1078501Y1240001D02*
X1081501D01*
X1080001Y1238501D02*
Y1241501D01*
X1078501Y1120001D02*
X1081501D01*
X1080001Y1118501D02*
Y1121501D01*
X1088501Y860001D02*
X1091501D01*
X1090001Y858501D02*
Y861500D01*
X1078501Y760000D02*
X1081501D01*
X1080001Y758500D02*
Y761500D01*
X1088501Y740000D02*
X1091501D01*
X1090001Y738500D02*
Y741500D01*
X1078501Y720000D02*
X1081501D01*
X1080001Y718500D02*
Y721500D01*
X1068501Y1500001D02*
X1071501D01*
X1070001Y1498501D02*
Y1501501D01*
X1058501Y1480001D02*
X1061501D01*
X1060001Y1478501D02*
Y1481501D01*
X1058501Y1320001D02*
X1061501D01*
X1060001Y1318501D02*
Y1321501D01*
X1068501Y1300001D02*
X1071501D01*
X1070001Y1298501D02*
Y1301501D01*
X1058501Y1280001D02*
X1061501D01*
X1060001Y1278501D02*
Y1281501D01*
X1058501Y1080001D02*
X1061501D01*
X1060001Y1078501D02*
Y1081501D01*
X1058501Y1040001D02*
X1061501D01*
X1060001Y1038501D02*
Y1041501D01*
X1068501Y860001D02*
X1071501D01*
X1070001Y858501D02*
Y861500D01*
X1058501Y840001D02*
X1061501D01*
X1060001Y838501D02*
Y841500D01*
X1068501Y820000D02*
X1071501D01*
X1070001Y818500D02*
Y821500D01*
X1058501Y800000D02*
X1061501D01*
X1060001Y798500D02*
Y801500D01*
X1068501Y780000D02*
X1071501D01*
X1070001Y778500D02*
Y781500D01*
X1058501Y760000D02*
X1061501D01*
X1060001Y758500D02*
Y761500D01*
X1068501Y740000D02*
X1071501D01*
X1070001Y738500D02*
Y741500D01*
X1058501Y720000D02*
X1061501D01*
X1060001Y718500D02*
Y721500D01*
X1048501Y1500001D02*
X1051501D01*
X1050001Y1498501D02*
Y1501501D01*
X1038501Y1480001D02*
X1041501D01*
X1040001Y1478501D02*
Y1481501D01*
X1038501Y1440001D02*
X1041501D01*
X1040001Y1438501D02*
Y1441501D01*
X1038501Y1400001D02*
X1041501D01*
X1040001Y1398501D02*
Y1401501D01*
X1048501Y1380001D02*
X1051501D01*
X1050001Y1378501D02*
Y1381501D01*
X1038501Y1360001D02*
X1041501D01*
X1040001Y1358501D02*
Y1361501D01*
X1038501Y1320001D02*
X1041501D01*
X1040001Y1318501D02*
Y1321501D01*
X1048501Y1300001D02*
X1051501D01*
X1050001Y1298501D02*
Y1301501D01*
X1048501Y1100001D02*
X1051501D01*
X1050001Y1098501D02*
Y1101501D01*
X1038501Y1080001D02*
X1041501D01*
X1040001Y1078501D02*
Y1081501D01*
X1048501Y1060001D02*
X1051501D01*
X1050001Y1058501D02*
Y1061501D01*
X1038501Y1040001D02*
X1041501D01*
X1040001Y1038501D02*
Y1041501D01*
X1038501Y960001D02*
X1041501D01*
X1040001Y958501D02*
Y961500D01*
X1048501Y860001D02*
X1051501D01*
X1050001Y858501D02*
Y861500D01*
X1038501Y840001D02*
X1041501D01*
X1040001Y838501D02*
Y841500D01*
X1048501Y820000D02*
X1051501D01*
X1050001Y818500D02*
Y821500D01*
X1038501Y800000D02*
X1041501D01*
X1040001Y798500D02*
Y801500D01*
X1048501Y780000D02*
X1051501D01*
X1050001Y778500D02*
Y781500D01*
X1038501Y760000D02*
X1041501D01*
X1040001Y758500D02*
Y761500D01*
X1048501Y740000D02*
X1051501D01*
X1050001Y738500D02*
Y741500D01*
X1038501Y720000D02*
X1041501D01*
X1040001Y718500D02*
Y721500D01*
X1028501Y1460001D02*
X1031501D01*
X1030001Y1458501D02*
Y1461501D01*
X1028501Y1420001D02*
X1031501D01*
X1030001Y1418501D02*
Y1421501D01*
X1018501Y1400001D02*
X1021500D01*
X1020001Y1398501D02*
Y1401501D01*
X1028501Y1380001D02*
X1031501D01*
X1030001Y1378501D02*
Y1381501D01*
X1018501Y1360001D02*
X1021500D01*
X1020001Y1358501D02*
Y1361501D01*
X1018501Y1120001D02*
X1021500D01*
X1020001Y1118501D02*
Y1121501D01*
X1028501Y1100001D02*
X1031501D01*
X1030001Y1098501D02*
Y1101501D01*
X1018501Y1040001D02*
X1021500D01*
X1020001Y1038501D02*
Y1041501D01*
X1028501Y1020001D02*
X1031501D01*
X1030001Y1018501D02*
Y1021500D01*
X1018501Y1000001D02*
X1021500D01*
X1020001Y998501D02*
Y1001500D01*
X1028501Y980001D02*
X1031501D01*
X1030001Y978501D02*
Y981500D01*
X1028501Y860001D02*
X1031501D01*
X1030001Y858501D02*
Y861500D01*
X1018501Y840001D02*
X1021500D01*
X1020001Y838501D02*
Y841500D01*
X1028501Y820000D02*
X1031501D01*
X1030001Y818500D02*
Y821500D01*
X1018501Y800000D02*
X1021500D01*
X1020001Y798500D02*
Y801500D01*
X1028501Y780000D02*
X1031501D01*
X1030001Y778500D02*
Y781500D01*
X1018501Y760000D02*
X1021500D01*
X1020001Y758500D02*
Y761500D01*
X1028501Y740000D02*
X1031501D01*
X1030001Y738500D02*
Y741500D01*
X1018501Y720000D02*
X1021500D01*
X1020001Y718500D02*
Y721500D01*
X1008501Y1460001D02*
X1011500D01*
X1010001Y1458501D02*
Y1461501D01*
X998501Y1440001D02*
X1001500D01*
X1000001Y1438501D02*
Y1441501D01*
X1008501Y1420001D02*
X1011500D01*
X1010001Y1418501D02*
Y1421501D01*
X998501Y1400001D02*
X1001500D01*
X1000001Y1398501D02*
Y1401501D01*
X1008501Y1380001D02*
X1011500D01*
X1010001Y1378501D02*
Y1381501D01*
X998501Y1360001D02*
X1001500D01*
X1000001Y1358501D02*
Y1361501D01*
X1008501Y1340001D02*
X1011500D01*
X1010001Y1338501D02*
Y1341501D01*
X998501Y1320001D02*
X1001500D01*
X1000001Y1318501D02*
Y1321501D01*
X998501Y1120001D02*
X1001500D01*
X1000001Y1118501D02*
Y1121501D01*
X998501Y1080001D02*
X1001500D01*
X1000001Y1078501D02*
Y1081501D01*
X1008501Y1020001D02*
X1011500D01*
X1010001Y1018501D02*
Y1021500D01*
X998501Y920001D02*
X1001500D01*
X1000001Y918501D02*
Y921500D01*
X1008501Y860001D02*
X1011500D01*
X1010001Y858501D02*
Y861500D01*
X998501Y840001D02*
X1001500D01*
X1000001Y838501D02*
Y841500D01*
X1008501Y820000D02*
X1011500D01*
X1010001Y818500D02*
Y821500D01*
X998501Y800000D02*
X1001500D01*
X1000001Y798500D02*
Y801500D01*
X1008501Y780000D02*
X1011500D01*
X1010001Y778500D02*
Y781500D01*
X998501Y760000D02*
X1001500D01*
X1000001Y758500D02*
Y761500D01*
X1008501Y740000D02*
X1011500D01*
X1010001Y738500D02*
Y741500D01*
X998501Y720000D02*
X1001500D01*
X1000001Y718500D02*
Y721500D01*
X978501Y1480001D02*
X981500D01*
X980001Y1478501D02*
Y1481501D01*
X988501Y1460001D02*
X991500D01*
X990001Y1458501D02*
Y1461501D01*
X978501Y1440001D02*
X981500D01*
X980001Y1438501D02*
Y1441501D01*
X988501Y1420001D02*
X991500D01*
X990001Y1418501D02*
Y1421501D01*
X988501Y1380001D02*
X991500D01*
X990001Y1378501D02*
Y1381501D01*
X988501Y1340001D02*
X991500D01*
X990001Y1338501D02*
Y1341501D01*
X988501Y1140001D02*
X991500D01*
X990001Y1138501D02*
Y1141501D01*
X988501Y1060001D02*
X991500D01*
X990001Y1058501D02*
Y1061501D01*
X978501Y1000001D02*
X981500D01*
X980001Y998501D02*
Y1001500D01*
X988501Y980001D02*
X991500D01*
X990001Y978501D02*
Y981500D01*
X978501Y960001D02*
X981500D01*
X980001Y958501D02*
Y961500D01*
X988501Y860001D02*
X991500D01*
X990001Y858501D02*
Y861500D01*
X978501Y840001D02*
X981500D01*
X980001Y838501D02*
Y841500D01*
X988501Y820000D02*
X991500D01*
X990001Y818500D02*
Y821500D01*
X978501Y800000D02*
X981500D01*
X980001Y798500D02*
Y801500D01*
X988501Y780000D02*
X991500D01*
X990001Y778500D02*
Y781500D01*
X978501Y760000D02*
X981500D01*
X980001Y758500D02*
Y761500D01*
X988501Y740000D02*
X991500D01*
X990001Y738500D02*
Y741500D01*
X978501Y720000D02*
X981500D01*
X980001Y718500D02*
Y721500D01*
X968501Y1500001D02*
X971500D01*
X970001Y1498501D02*
Y1501501D01*
X958501Y1480001D02*
X961500D01*
X960001Y1478501D02*
Y1481501D01*
X968501Y1460001D02*
X971500D01*
X970001Y1458501D02*
Y1461501D01*
X958501Y1440001D02*
X961500D01*
X960001Y1438501D02*
Y1441501D01*
X968501Y1420001D02*
X971500D01*
X970001Y1418501D02*
Y1421501D01*
X958501Y1400001D02*
X961500D01*
X960001Y1398501D02*
Y1401501D01*
X958501Y1360001D02*
X961500D01*
X960001Y1358501D02*
Y1361501D01*
X958501Y1320001D02*
X961500D01*
X960001Y1318501D02*
Y1321501D01*
X958501Y1280001D02*
X961500D01*
X960001Y1278501D02*
Y1281501D01*
X958501Y1240001D02*
X961500D01*
X960001Y1238501D02*
Y1241501D01*
X958501Y1200001D02*
X961500D01*
X960001Y1198501D02*
Y1201501D01*
X958501Y1040001D02*
X961500D01*
X960001Y1038501D02*
Y1041501D01*
X958501Y1000001D02*
X961500D01*
X960001Y998501D02*
Y1001500D01*
X968501Y980001D02*
X971500D01*
X970001Y978501D02*
Y981500D01*
X958501Y920001D02*
X961500D01*
X960001Y918501D02*
Y921500D01*
X968501Y860001D02*
X971500D01*
X970001Y858501D02*
Y861500D01*
X958501Y840001D02*
X961500D01*
X960001Y838501D02*
Y841500D01*
X968501Y820000D02*
X971500D01*
X970001Y818500D02*
Y821500D01*
X958501Y800000D02*
X961500D01*
X960001Y798500D02*
Y801500D01*
X968501Y780000D02*
X971500D01*
X970001Y778500D02*
Y781500D01*
X958501Y760000D02*
X961500D01*
X960001Y758500D02*
Y761500D01*
X968501Y740000D02*
X971500D01*
X970001Y738500D02*
Y741500D01*
X958501Y720000D02*
X961500D01*
X960001Y718500D02*
Y721500D01*
X948501Y1500001D02*
X951500D01*
X950001Y1498501D02*
Y1501501D01*
X938501Y1480001D02*
X941500D01*
X940001Y1478501D02*
Y1481501D01*
X948501Y1460001D02*
X951500D01*
X950001Y1458501D02*
Y1461501D01*
X938501Y1440001D02*
X941500D01*
X940001Y1438501D02*
Y1441501D01*
X948501Y1420001D02*
X951500D01*
X950001Y1418501D02*
Y1421501D01*
X938501Y1400001D02*
X941500D01*
X940001Y1398501D02*
Y1401501D01*
X948501Y1380001D02*
X951500D01*
X950001Y1378501D02*
Y1381501D01*
X938501Y1360001D02*
X941500D01*
X940001Y1358501D02*
Y1361501D01*
X948501Y1340001D02*
X951500D01*
X950001Y1338501D02*
Y1341501D01*
X938501Y1320001D02*
X941500D01*
X940001Y1318501D02*
Y1321501D01*
X948501Y1300001D02*
X951500D01*
X950001Y1298501D02*
Y1301501D01*
X938501Y1280001D02*
X941500D01*
X940001Y1278501D02*
Y1281501D01*
X948501Y1260001D02*
X951500D01*
X950001Y1258501D02*
Y1261501D01*
X938501Y1240001D02*
X941500D01*
X940001Y1238501D02*
Y1241501D01*
X948501Y1220001D02*
X951500D01*
X950001Y1218501D02*
Y1221501D01*
X938501Y1200001D02*
X941500D01*
X940001Y1198501D02*
Y1201501D01*
X948501Y1180001D02*
X951500D01*
X950001Y1178501D02*
Y1181501D01*
X948501Y1100001D02*
X951500D01*
X950001Y1098501D02*
Y1101501D01*
X948501Y1020001D02*
X951500D01*
X950001Y1018501D02*
Y1021500D01*
X948501Y980001D02*
X951500D01*
X950001Y978501D02*
Y981500D01*
X938501Y920001D02*
X941500D01*
X940001Y918501D02*
Y921500D01*
X948501Y900001D02*
X951500D01*
X950001Y898501D02*
Y901500D01*
X948501Y860001D02*
X951500D01*
X950001Y858501D02*
Y861500D01*
X938501Y840001D02*
X941500D01*
X940001Y838501D02*
Y841500D01*
X948501Y820000D02*
X951500D01*
X950001Y818500D02*
Y821500D01*
X938501Y800000D02*
X941500D01*
X940001Y798500D02*
Y801500D01*
X948501Y780000D02*
X951500D01*
X950001Y778500D02*
Y781500D01*
X938501Y760000D02*
X941500D01*
X940001Y758500D02*
Y761500D01*
X948501Y740000D02*
X951500D01*
X950001Y738500D02*
Y741500D01*
X938501Y720000D02*
X941500D01*
X940001Y718500D02*
Y721500D01*
X928501Y1500001D02*
X931500D01*
X930001Y1498501D02*
Y1501501D01*
X918501Y1480001D02*
X921500D01*
X920001Y1478501D02*
Y1481501D01*
X928501Y1460001D02*
X931500D01*
X930001Y1458501D02*
Y1461501D01*
X918501Y1440001D02*
X921500D01*
X920001Y1438501D02*
Y1441501D01*
X928501Y1420001D02*
X931500D01*
X930001Y1418501D02*
Y1421501D01*
X918501Y1400001D02*
X921500D01*
X920001Y1398501D02*
Y1401501D01*
X928501Y1380001D02*
X931500D01*
X930001Y1378501D02*
Y1381501D01*
X918501Y1360001D02*
X921500D01*
X920001Y1358501D02*
Y1361501D01*
X928501Y1340001D02*
X931500D01*
X930001Y1338501D02*
Y1341501D01*
X918501Y1320001D02*
X921500D01*
X920001Y1318501D02*
Y1321501D01*
X928501Y1300001D02*
X931500D01*
X930001Y1298501D02*
Y1301501D01*
X918501Y1280001D02*
X921500D01*
X920001Y1278501D02*
Y1281501D01*
X928501Y1260001D02*
X931500D01*
X930001Y1258501D02*
Y1261501D01*
X918501Y1240001D02*
X921500D01*
X920001Y1238501D02*
Y1241501D01*
X928501Y1220001D02*
X931500D01*
X930001Y1218501D02*
Y1221501D01*
X918501Y1200001D02*
X921500D01*
X920001Y1198501D02*
Y1201501D01*
X918501Y1160001D02*
X921500D01*
X920001Y1158501D02*
Y1161501D01*
X918501Y1120001D02*
X921500D01*
X920001Y1118501D02*
Y1121501D01*
X918501Y1080001D02*
X921500D01*
X920001Y1078501D02*
Y1081501D01*
X918501Y1040001D02*
X921500D01*
X920001Y1038501D02*
Y1041501D01*
X918501Y1000001D02*
X921500D01*
X920001Y998501D02*
Y1001500D01*
X918501Y960001D02*
X921500D01*
X920001Y958501D02*
Y961500D01*
X918501Y920001D02*
X921500D01*
X920001Y918501D02*
Y921500D01*
X918501Y880001D02*
X921500D01*
X920001Y878501D02*
Y881500D01*
X928501Y860001D02*
X931500D01*
X930001Y858501D02*
Y861500D01*
X918501Y840001D02*
X921500D01*
X920001Y838501D02*
Y841500D01*
X928501Y820000D02*
X931500D01*
X930001Y818500D02*
Y821500D01*
X918501Y800000D02*
X921500D01*
X920001Y798500D02*
Y801500D01*
X928501Y780000D02*
X931500D01*
X930001Y778500D02*
Y781500D01*
X918501Y760000D02*
X921500D01*
X920001Y758500D02*
Y761500D01*
X928501Y740000D02*
X931500D01*
X930001Y738500D02*
Y741500D01*
X918501Y720000D02*
X921500D01*
X920001Y718500D02*
Y721500D01*
X908501Y1500001D02*
X911500D01*
X910001Y1498501D02*
Y1501501D01*
X898501Y1480001D02*
X901500D01*
X900001Y1478501D02*
Y1481501D01*
X908501Y1460001D02*
X911500D01*
X910001Y1458501D02*
Y1461501D01*
X898501Y1440001D02*
X901500D01*
X900001Y1438501D02*
Y1441501D01*
X908501Y1420001D02*
X911500D01*
X910001Y1418501D02*
Y1421501D01*
X898501Y1400001D02*
X901500D01*
X900001Y1398501D02*
Y1401501D01*
X908501Y1380001D02*
X911500D01*
X910001Y1378501D02*
Y1381501D01*
X898501Y1360001D02*
X901500D01*
X900001Y1358501D02*
Y1361501D01*
X908501Y1340001D02*
X911500D01*
X910001Y1338501D02*
Y1341501D01*
X898501Y1320001D02*
X901500D01*
X900001Y1318501D02*
Y1321501D01*
X908501Y1300001D02*
X911500D01*
X910001Y1298501D02*
Y1301501D01*
X898501Y1280001D02*
X901500D01*
X900001Y1278501D02*
Y1281501D01*
X908501Y1260001D02*
X911500D01*
X910001Y1258501D02*
Y1261501D01*
X898501Y1240001D02*
X901500D01*
X900001Y1238501D02*
Y1241501D01*
X908501Y1220001D02*
X911500D01*
X910001Y1218501D02*
Y1221501D01*
X898501Y1200001D02*
X901500D01*
X900001Y1198501D02*
Y1201501D01*
X908501Y1180001D02*
X911500D01*
X910001Y1178501D02*
Y1181501D01*
X898501Y1160001D02*
X901500D01*
X900001Y1158501D02*
Y1161501D01*
X908501Y1140001D02*
X911500D01*
X910001Y1138501D02*
Y1141501D01*
X898501Y1120001D02*
X901500D01*
X900001Y1118501D02*
Y1121501D01*
X908501Y1100001D02*
X911500D01*
X910001Y1098501D02*
Y1101501D01*
X898501Y1080001D02*
X901500D01*
X900001Y1078501D02*
Y1081501D01*
X908501Y1060001D02*
X911500D01*
X910001Y1058501D02*
Y1061501D01*
X898501Y1040001D02*
X901500D01*
X900001Y1038501D02*
Y1041501D01*
X908501Y1020001D02*
X911500D01*
X910001Y1018501D02*
Y1021500D01*
X898501Y1000001D02*
X901500D01*
X900001Y998501D02*
Y1001500D01*
X908501Y980001D02*
X911500D01*
X910001Y978501D02*
Y981500D01*
X898501Y960001D02*
X901500D01*
X900001Y958501D02*
Y961500D01*
X908501Y940001D02*
X911500D01*
X910001Y938501D02*
Y941500D01*
X898501Y920001D02*
X901500D01*
X900001Y918501D02*
Y921500D01*
X908501Y900001D02*
X911500D01*
X910001Y898501D02*
Y901500D01*
X898501Y880001D02*
X901500D01*
X900001Y878501D02*
Y881500D01*
X908501Y860001D02*
X911500D01*
X910001Y858501D02*
Y861500D01*
X898501Y840001D02*
X901500D01*
X900001Y838501D02*
Y841500D01*
X908501Y820000D02*
X911500D01*
X910001Y818500D02*
Y821500D01*
X898501Y800000D02*
X901500D01*
X900001Y798500D02*
Y801500D01*
X908501Y780000D02*
X911500D01*
X910001Y778500D02*
Y781500D01*
X898501Y760000D02*
X901500D01*
X900001Y758500D02*
Y761500D01*
X908501Y740000D02*
X911500D01*
X910001Y738500D02*
Y741500D01*
X1050985Y1203118D02*
X1053735D01*
X1052360Y1201743D02*
Y1204493D01*
X1036860Y1197987D02*
X1039860D01*
X1038360Y1196487D02*
Y1199487D01*
X1322219Y854710D02*
X1324969D01*
X1323594Y853335D02*
Y856085D01*
X1233641Y1072620D02*
X1236391D01*
X1235016Y1071245D02*
Y1073995D01*
X1164614Y1084326D02*
X1167614D01*
X1166114Y1082826D02*
Y1085826D01*
X1099590Y1082040D02*
X1102590D01*
X1101090Y1080540D02*
Y1083540D01*
X1164614Y966470D02*
X1167614D01*
X1166114Y964970D02*
Y967970D01*
X1353590Y963633D02*
X1356590D01*
X1355090Y962133D02*
Y965133D01*
X1293900Y944880D02*
X1296900D01*
X1295400Y943380D02*
Y946380D01*
X1245640Y896620D02*
X1248640D01*
X1247140Y895120D02*
Y898120D01*
X1185188Y1028446D02*
X1188188D01*
X1186688Y1026946D02*
Y1029946D01*
X1111020Y1179068D02*
X1114020D01*
X1112520Y1177568D02*
Y1180568D01*
X1173860Y1168940D02*
X1176860D01*
X1175360Y1167440D02*
Y1170440D01*
X1001800Y1202690D02*
X1004800D01*
X1003300Y1201190D02*
Y1204190D01*
X1264944Y1030986D02*
X1267944D01*
X1266444Y1029486D02*
Y1032486D01*
X1259864Y1132840D02*
X1262864D01*
X1261364Y1131340D02*
Y1134340D01*
X1050060Y1277620D02*
X1053060D01*
X1051560Y1276120D02*
Y1279120D01*
X962540Y1190100D02*
X965540D01*
X964040Y1188600D02*
Y1191600D01*
X962540Y1078738D02*
X965540D01*
X964040Y1077238D02*
Y1080238D01*
X1154454Y1123042D02*
X1157454D01*
X1155954Y1121542D02*
Y1124542D01*
X1151406Y1222248D02*
X1154406D01*
X1152906Y1220748D02*
Y1223748D01*
X1399818Y1313688D02*
X1402818D01*
X1401318Y1312188D02*
Y1315188D01*
X1055902Y1429512D02*
X1058902D01*
X1057402Y1428012D02*
Y1431012D01*
X1132102Y1042670D02*
X1135102D01*
X1133602Y1041170D02*
Y1044170D01*
X1288820Y1087120D02*
X1291820D01*
X1290320Y1085620D02*
Y1088620D01*
X1071650Y883920D02*
X1074650D01*
X1073150Y882420D02*
Y885420D01*
X1029994Y908304D02*
X1032994D01*
X1031494Y906804D02*
Y909804D01*
X1052600Y995680D02*
X1055600D01*
X1054100Y994180D02*
Y997180D01*
X987576Y1240536D02*
X990576D01*
X989076Y1239036D02*
Y1242036D01*
X1114830Y1099058D02*
X1117830D01*
X1116330Y1097558D02*
Y1100558D01*
X1022780Y1076300D02*
X1025780D01*
X1024280Y1074800D02*
Y1077800D01*
X1081302Y947420D02*
X1084302D01*
X1082802Y945920D02*
Y948920D01*
X1349920Y952847D02*
X1352920D01*
X1351420Y951347D02*
Y954346D01*
X1302790Y844629D02*
X1305790D01*
X1304290Y843129D02*
Y846129D01*
X1079524Y1226312D02*
X1082524D01*
X1081024Y1224812D02*
Y1227812D01*
X1162210Y1102614D02*
X1165210D01*
X1163710Y1101114D02*
Y1104114D01*
X1022780Y970636D02*
X1025780D01*
X1024280Y969136D02*
Y972136D01*
X1166900Y1309878D02*
X1169900D01*
X1168400Y1308378D02*
Y1311378D01*
X1254022Y1067816D02*
X1257022D01*
X1255522Y1066316D02*
Y1069316D01*
X1083588Y1309116D02*
X1086588D01*
X1085088Y1307616D02*
Y1310616D01*
X1008360Y1278128D02*
X1011360D01*
X1009860Y1276628D02*
Y1279628D01*
X1247672Y1322832D02*
X1250672D01*
X1249172Y1321332D02*
Y1324332D01*
X1169440Y1219200D02*
X1172440D01*
X1170940Y1217700D02*
Y1220700D01*
X1148358Y1235284D02*
X1151358D01*
X1149858Y1233784D02*
Y1236784D01*
X1043456Y1188263D02*
X1046456D01*
X1044956Y1186763D02*
Y1189763D01*
X1311680Y1335024D02*
X1314680D01*
X1313180Y1333524D02*
Y1336524D01*
X1232686Y866394D02*
X1235686D01*
X1234186Y864894D02*
Y867894D01*
X1347182Y876750D02*
X1350182D01*
X1348682Y875250D02*
Y878250D01*
X1195856Y852424D02*
X1198856D01*
X1197356Y850924D02*
Y853924D01*
X1353598Y850400D02*
X1356598D01*
X1355098Y848900D02*
Y851900D01*
M02*
