M48
;Layer_Color=9474304
;FILE_FORMAT=4:4
METRIC,LZ
;TYPE=PLATED
T01F00S00C0.2750
T02F00S00C0.3000
T03F00S00C1.1000
T04F00S00C1.1500
T05F00S00C1.4986
;TYPE=NON_PLATED
T07F00S00C1.1500
T08F00S00C1.6500
T09F00S00C3.4036
%
T01
X01323594Y0085471
X01235016Y0107262
X0105236Y01203118
T02
X01200001Y0072
X01220001
X01240001
X01260001
X01280001
X01300001
X01320001
X01340001
X01360001
X01380001
X01400001
X01410001Y0074
X01430001
X01420001Y0076
X01400001
X01380001
X01360001
X01340001
X01320001
X01300001
X01280001
X01260001
X01240001
X01220001
X01200001
X01210001Y0078
X01230001
X01250001
X01270001
X01290001
X01310001
X01330001
X01350001
X01370001
X01390001
X01410001
X01430001
X01390001Y0074
X01370001
X01350001
X01330001
X01310001
X01290001
X01270001
X01250001
X01230001
X01210001
X01190001
X01170001
X01150001
X01130001
X01110001
X01090001
X01070001
X01050001
X01030001
X01010001
X00990001
X00970001
X00950001
X00930001
X00910001
X00920001Y0076
X00940001
X00960001
X00980001
X01000001
X01020001
X01040001
X01060001
X01080001
X01070001Y0078
X01050001
X01030001
X01010001
X00990001
X00970001
X00950001
X00930001
X00910001
X00900001Y0076
X00920001Y0072
X00940001
X00960001
X00980001
X01000001
X01020001
X01040001
X01060001
X01080001
X01100001
X01120001
X01140001
X01160001
X01180001
Y0076
X01160001
X01140001
X01120001
X01150001Y0078
X01170001
X01190001
X01180001Y008
X01160001
X01140001
X01150001Y0082
X01170001
X01180001Y00840001
X01160001
X01140001
X01150001Y00860001
X01130001
X01110001
X01090001
X01070001
X01050001
X01030001
X01010001
X00990001
X00970001
X00950001
X00930001
X00910001
X00920001Y00880001
X00900001
X00910001Y00900001
X00920001Y00920001
X00940001
X00960001
X00950001Y00900001
X01000001Y00920001
X01031494Y00908304
X01040001Y00960001
X0102428Y00970636
X01030001Y00980001
X01020001Y01000001
X01030001Y01020001
X01010001
X01020001Y01040001
X01040001
X01060001
X01050001Y01060001
X01060001Y01080001
X01040001
X0102428Y010763
X01000001Y01080001
X00990001Y01060001
X0096404Y01078738
X00950001Y01100001
X00910001
X00920001Y01120001
X00900001
X00910001Y01140001
X00920001Y01160001
X00900001
X00910001Y01180001
X00950001
X0096404Y011901
X00990001Y01140001
X01000001Y01120001
X01020001
X01030001Y01100001
X01050001
X01080001Y01120001
X0111633Y01099058
X0110109Y0108204
X01120001Y01040001
X01133602Y0104267
X01160001Y01040001
X01180001
X01186688Y01028446
X01190001Y01020001
X01180001Y01000001
Y00960001
X01160001
X01166114Y0096647
X01160001Y00920001
X01180001
X01190001Y00900001
X01160001Y00880001
X01140001
X01120001
X01100001
X01110001Y00900001
X01130001
X01120001Y00920001
X01100001
X01082802Y0094742
X0107315Y0088392
X01060001Y00840001
X01040001
X01020001
X01000001
X00980001
X00960001
X00940001
X00920001
X00900001
X00910001Y0082
X00930001
X00950001
X00970001
X00990001
X01010001
X01030001
X01050001
X01070001
X01060001Y008
X01040001
X01020001
X01000001
X00980001
X00960001
X00940001
X00920001
X00900001
Y00920001
X00910001Y00940001
X00920001Y00960001
X00900001
X00910001Y00980001
X00920001Y01000001
X00900001
X00910001Y01020001
X00920001Y01040001
X00900001
X00910001Y01060001
X00920001Y01080001
X00900001
X00960001Y01040001
X00950001Y01020001
X00960001Y01000001
X00980001
X00990001Y00980001
X00970001
X00950001
X00980001Y00960001
X010541Y0099568
X01120001Y01000001
X01190001Y01060001
X01166114Y01084326
X0116371Y01102614
X01155954Y01123042
X01180001Y01160001
X0117536Y0116894
X0111252Y01179068
X01100001Y01160001
X01044956Y01188263
X01210001Y01180001
Y01140001
X01261364Y0113284
X01260001Y01160001
X01280001
Y01120001
X01290001Y01100001
X0129032Y0108712
X01320001Y01080001
X01330001Y01100001
X01340001Y01120001
X01390001Y01140001
X01380001Y01160001
X01390001Y01180001
X01430001
X01420001Y01160001
X01430001Y01140001
X01420001Y01120001
X01430001Y01100001
X01420001Y01080001
X01430001Y01060001
X01420001Y01040001
X01430001Y01020001
X01420001Y01000001
X01430001Y00980001
X01420001Y00960001
X01430001Y00940001
X01420001Y00920001
X01430001Y00900001
X01420001Y00880001
X01430001Y00860001
X01420001Y00840001
X01430001Y0082
X01410001
X01420001Y008
X01400001
X01350001Y0082
X01330001
X0130429Y00844629
X01355098Y008504
X01348682Y0087675
X01330001Y00900001
X01310001
X01290001
X01270001
X0124714Y0089662
X01230001Y00900001
X01210001
Y00860001
X01197356Y00852424
X01210001Y0082
X01230001
X01250001
X01270001
X01260001Y00880001
X01240001
X01234186Y00866394
X01260001Y00920001
X01280001
X01300001
X01320001
X01340001
X01350001Y00940001
X0135142Y00952847
X0135509Y00963633
X01340001Y00960001
X01320001
X01330001Y00940001
X01310001
X012954Y0094488
X01260001Y01000001
X01250001Y01020001
X01266444Y01030986
X01255522Y01067816
X01260001Y01080001
X01250001Y01100001
X01210001Y01060001
X01320001Y01040001
X01340001
X01350001Y01060001
X01390001
Y01100001
Y01020001
Y00980001
Y00940001
Y00900001
X01340001Y01000001
X01350001Y01020001
X01330001
X01350001Y01180001
X01340001Y01200001
X01350001Y01220001
X01330001
X01340001Y01240001
X01320001
X01330001Y01260001
X01350001
X01340001Y01280001
X01330001Y01300001
X01310001
X01290001
X01300001Y01280001
X01280001
X01270001Y01260001
X01250001
X01310001
X0131318Y01335024
X01330001Y01340001
X01290001
X01249172Y01322832
X01200001Y01320001
X01210001Y01460001
X01230001
X01250001
X01270001
X01290001
X01310001
X01330001
X01350001
X01370001
X01390001
X01410001
X01430001
X01420001Y01480001
X01400001
X01380001
X01360001
X01370001Y01500001
X01390001
X01410001
X01430001
X01420001Y01440001
X01400001
X01380001
X01360001
X01340001
X01320001
X01310001Y01420001
X01350001
X01370001
X01390001
X01410001
X01430001
X01420001Y01400001
X01400001
X01380001
X01360001
X01390001Y01380001
X01410001
X01430001
X01420001Y01360001
X01400001
X01401318Y01313688
X01420001Y01320001
X01430001Y01340001
Y01300001
X01420001Y01280001
X01430001Y01260001
X01420001Y01240001
X01430001Y01220001
X01420001Y01200001
X01380001
X01390001Y01220001
X01380001Y01240001
X01390001Y01260001
X01380001Y01280001
X01390001Y01300001
X01380001Y01320001
X01360001
X01270001Y01220001
X01280001Y01200001
Y01480001
X01300001
X01290001Y01500001
X01270001
X01250001
X01230001
X01210001
X01220001Y01480001
X01240001
X01260001
X01200001
X01180001
X01160001
X01140001
X01120001
X01100001
X01080001
X01060001
X01040001
X01050001Y01500001
X01070001
X01090001
X01110001
X01130001
X01150001
X01170001
X01190001
Y01460001
X01110001Y01380001
X01050001
X01030001
X01010001
X00990001
X01000001Y01400001
X01020001
X01040001
X01030001Y01420001
X01010001
X00990001
X00970001
X00950001
X00930001
X00910001
X00920001Y01440001
X00940001
X00960001
X00980001
X01000001
X01010001Y01460001
X01030001
X01040001Y01440001
X01057402Y01429512
X01040001Y01360001
X01020001
X01000001
X01010001Y01340001
X00990001
X01000001Y01320001
X01040001
X01060001
X01080001
X01085088Y01309116
X01070001Y01300001
X01050001
X0105156Y0127762
X01060001Y01280001
X0100986Y01278128
X00960001Y01280001
X00940001
X00920001
X00900001
X00910001Y01300001
X00930001
X00950001
X00960001Y01320001
X00940001
X00920001
X00900001
X00910001Y01340001
X00930001
X00950001
X00960001Y01360001
X00940001
X00920001
X00900001
X00910001Y01380001
X00930001
X00950001
X00960001Y01400001
X00940001
X00920001
X00900001
Y01440001
X00910001Y01460001
X00930001
X00950001
X00970001
X00990001
X00980001Y01480001
X00960001
X00940001
X00920001
X00900001
X00910001Y01500001
X00930001
X00950001
X00970001
X00950001Y01260001
X00930001
X00910001
X00920001Y01240001
X00940001
X00960001
X00989076Y01240536
X010033Y0120269
X0103836Y01197987
X01081024Y01226312
X01080001Y01240001
X01100001
X01149858Y01235284
X01152906Y01222248
X0117094Y012192
X01180001Y01240001
X011684Y01309878
X01160001Y01320001
X01150001Y01300001
X01130001
X01100001Y01320001
X00950001Y01220001
X00930001
X00910001
X00920001Y01200001
X00940001
X00960001
X00900001
Y01240001
T03
X010541Y009271
X010795
T04
X0130429Y0118364
Y0120904
Y0123444
T05
X011984Y0134621
X012284
X012584
X012434Y0137121
Y0140121
X012134
Y0137121
X012284Y0142621
X011984
X012584
X011684
X011384
X011084
X010784
X010934Y0140121
X011234
X011534
Y0137121
X011234
X010934
X010784Y0134621
X011084
X011384
X011684
X011834Y0137121
Y0140121
T07
X0100236Y0121412
T08
X0120236Y0121412
T09
X013309Y0149121
X010059
M30
