G04*
G04 #@! TF.GenerationSoftware,Altium Limited,Altium Designer,23.8.1 (32)*
G04*
G04 Layer_Color=2752767*
%FSLAX44Y44*%
%MOMM*%
G71*
G04*
G04 #@! TF.SameCoordinates,C7883470-4D28-45A4-81C0-78593BF10AE1*
G04*
G04*
G04 #@! TF.FilePolarity,Positive*
G04*
G01*
G75*
%ADD60C,0.1270*%
%ADD63C,0.1693*%
%ADD64C,0.1016*%
D60*
X1304290Y1229360D02*
X1299210Y1239520D01*
X1309370D01*
X1304290Y1229360D01*
Y1203960D02*
X1299210Y1214120D01*
X1309370D01*
X1304290Y1203960D01*
Y1178560D02*
X1299210Y1188720D01*
X1309370D01*
X1304290Y1178560D01*
X1202360Y1209040D02*
X1204900Y1211580D01*
X1207440D01*
X1204900Y1214120D01*
X1207440Y1216660D01*
X1204900D01*
X1202360Y1219200D01*
X1199820Y1216660D01*
X1197280D01*
X1199820Y1214120D01*
X1197280Y1211580D01*
X1199820D01*
X1202360Y1209040D01*
X997280D02*
X999820Y1214120D01*
X997280Y1219200D01*
X1002360Y1216660D01*
X1007440Y1219200D01*
X1004900Y1214120D01*
X1007440Y1209040D01*
X1002360Y1211580D01*
X997280Y1209040D01*
X1099820Y801370D02*
Y798830D01*
X1104900D01*
Y801370D01*
X1107440D01*
Y806450D01*
X1104900D01*
Y808990D01*
X1099820D01*
Y806450D01*
X1097280D01*
Y801370D01*
X1099820D01*
X1000820Y1486130D02*
Y1496290D01*
X1010980D01*
Y1486130D01*
X1000820D01*
X1325820D02*
Y1496290D01*
X1335980D01*
Y1486130D01*
X1325820D01*
X1424921Y1494921D02*
X1427461D01*
X1430001Y1497461D01*
X1432541Y1494921D01*
X1435081D01*
Y1497461D01*
X1432541Y1500001D01*
X1435081Y1502541D01*
Y1505081D01*
X1432541D01*
X1430001Y1502541D01*
X1427461Y1505081D01*
X1424921D01*
Y1502541D01*
X1427461Y1500001D01*
X1424921Y1497461D01*
Y1494921D01*
X1414921Y1474921D02*
X1417461D01*
X1420001Y1477461D01*
X1422541Y1474921D01*
X1425081D01*
Y1477461D01*
X1422541Y1480001D01*
X1425081Y1482541D01*
Y1485081D01*
X1422541D01*
X1420001Y1482541D01*
X1417461Y1485081D01*
X1414921D01*
Y1482541D01*
X1417461Y1480001D01*
X1414921Y1477461D01*
Y1474921D01*
X1424921Y1454921D02*
X1427461D01*
X1430001Y1457461D01*
X1432541Y1454921D01*
X1435081D01*
Y1457461D01*
X1432541Y1460001D01*
X1435081Y1462541D01*
Y1465081D01*
X1432541D01*
X1430001Y1462541D01*
X1427461Y1465081D01*
X1424921D01*
Y1462541D01*
X1427461Y1460001D01*
X1424921Y1457461D01*
Y1454921D01*
X1414921Y1434921D02*
X1417461D01*
X1420001Y1437461D01*
X1422541Y1434921D01*
X1425081D01*
Y1437461D01*
X1422541Y1440001D01*
X1425081Y1442541D01*
Y1445081D01*
X1422541D01*
X1420001Y1442541D01*
X1417461Y1445081D01*
X1414921D01*
Y1442541D01*
X1417461Y1440001D01*
X1414921Y1437461D01*
Y1434921D01*
X1424921Y1414921D02*
X1427461D01*
X1430001Y1417461D01*
X1432541Y1414921D01*
X1435081D01*
Y1417461D01*
X1432541Y1420001D01*
X1435081Y1422541D01*
Y1425081D01*
X1432541D01*
X1430001Y1422541D01*
X1427461Y1425081D01*
X1424921D01*
Y1422541D01*
X1427461Y1420001D01*
X1424921Y1417461D01*
Y1414921D01*
X1414921Y1394921D02*
X1417461D01*
X1420001Y1397461D01*
X1422541Y1394921D01*
X1425081D01*
Y1397461D01*
X1422541Y1400001D01*
X1425081Y1402541D01*
Y1405081D01*
X1422541D01*
X1420001Y1402541D01*
X1417461Y1405081D01*
X1414921D01*
Y1402541D01*
X1417461Y1400001D01*
X1414921Y1397461D01*
Y1394921D01*
X1424921Y1374921D02*
X1427461D01*
X1430001Y1377461D01*
X1432541Y1374921D01*
X1435081D01*
Y1377461D01*
X1432541Y1380001D01*
X1435081Y1382541D01*
Y1385081D01*
X1432541D01*
X1430001Y1382541D01*
X1427461Y1385081D01*
X1424921D01*
Y1382541D01*
X1427461Y1380001D01*
X1424921Y1377461D01*
Y1374921D01*
X1414921Y1354921D02*
X1417461D01*
X1420001Y1357461D01*
X1422541Y1354921D01*
X1425081D01*
Y1357461D01*
X1422541Y1360001D01*
X1425081Y1362541D01*
Y1365081D01*
X1422541D01*
X1420001Y1362541D01*
X1417461Y1365081D01*
X1414921D01*
Y1362541D01*
X1417461Y1360001D01*
X1414921Y1357461D01*
Y1354921D01*
X1424921Y1334921D02*
X1427461D01*
X1430001Y1337461D01*
X1432541Y1334921D01*
X1435081D01*
Y1337461D01*
X1432541Y1340001D01*
X1435081Y1342541D01*
Y1345081D01*
X1432541D01*
X1430001Y1342541D01*
X1427461Y1345081D01*
X1424921D01*
Y1342541D01*
X1427461Y1340001D01*
X1424921Y1337461D01*
Y1334921D01*
X1414921Y1314921D02*
X1417461D01*
X1420001Y1317461D01*
X1422541Y1314921D01*
X1425081D01*
Y1317461D01*
X1422541Y1320001D01*
X1425081Y1322541D01*
Y1325081D01*
X1422541D01*
X1420001Y1322541D01*
X1417461Y1325081D01*
X1414921D01*
Y1322541D01*
X1417461Y1320001D01*
X1414921Y1317461D01*
Y1314921D01*
X1424921Y1294921D02*
X1427461D01*
X1430001Y1297461D01*
X1432541Y1294921D01*
X1435081D01*
Y1297461D01*
X1432541Y1300001D01*
X1435081Y1302541D01*
Y1305081D01*
X1432541D01*
X1430001Y1302541D01*
X1427461Y1305081D01*
X1424921D01*
Y1302541D01*
X1427461Y1300001D01*
X1424921Y1297461D01*
Y1294921D01*
X1414921Y1274921D02*
X1417461D01*
X1420001Y1277461D01*
X1422541Y1274921D01*
X1425081D01*
Y1277461D01*
X1422541Y1280001D01*
X1425081Y1282541D01*
Y1285081D01*
X1422541D01*
X1420001Y1282541D01*
X1417461Y1285081D01*
X1414921D01*
Y1282541D01*
X1417461Y1280001D01*
X1414921Y1277461D01*
Y1274921D01*
X1424921Y1254921D02*
X1427461D01*
X1430001Y1257461D01*
X1432541Y1254921D01*
X1435081D01*
Y1257461D01*
X1432541Y1260001D01*
X1435081Y1262541D01*
Y1265081D01*
X1432541D01*
X1430001Y1262541D01*
X1427461Y1265081D01*
X1424921D01*
Y1262541D01*
X1427461Y1260001D01*
X1424921Y1257461D01*
Y1254921D01*
X1414921Y1234921D02*
X1417461D01*
X1420001Y1237461D01*
X1422541Y1234921D01*
X1425081D01*
Y1237461D01*
X1422541Y1240001D01*
X1425081Y1242541D01*
Y1245081D01*
X1422541D01*
X1420001Y1242541D01*
X1417461Y1245081D01*
X1414921D01*
Y1242541D01*
X1417461Y1240001D01*
X1414921Y1237461D01*
Y1234921D01*
X1424921Y1214921D02*
X1427461D01*
X1430001Y1217461D01*
X1432541Y1214921D01*
X1435081D01*
Y1217461D01*
X1432541Y1220001D01*
X1435081Y1222541D01*
Y1225081D01*
X1432541D01*
X1430001Y1222541D01*
X1427461Y1225081D01*
X1424921D01*
Y1222541D01*
X1427461Y1220001D01*
X1424921Y1217461D01*
Y1214921D01*
X1414921Y1194921D02*
X1417461D01*
X1420001Y1197461D01*
X1422541Y1194921D01*
X1425081D01*
Y1197461D01*
X1422541Y1200001D01*
X1425081Y1202541D01*
Y1205081D01*
X1422541D01*
X1420001Y1202541D01*
X1417461Y1205081D01*
X1414921D01*
Y1202541D01*
X1417461Y1200001D01*
X1414921Y1197461D01*
Y1194921D01*
X1424921Y1174921D02*
X1427461D01*
X1430001Y1177461D01*
X1432541Y1174921D01*
X1435081D01*
Y1177461D01*
X1432541Y1180001D01*
X1435081Y1182541D01*
Y1185081D01*
X1432541D01*
X1430001Y1182541D01*
X1427461Y1185081D01*
X1424921D01*
Y1182541D01*
X1427461Y1180001D01*
X1424921Y1177461D01*
Y1174921D01*
X1414921Y1154921D02*
X1417461D01*
X1420001Y1157461D01*
X1422541Y1154921D01*
X1425081D01*
Y1157461D01*
X1422541Y1160001D01*
X1425081Y1162541D01*
Y1165081D01*
X1422541D01*
X1420001Y1162541D01*
X1417461Y1165081D01*
X1414921D01*
Y1162541D01*
X1417461Y1160001D01*
X1414921Y1157461D01*
Y1154921D01*
X1424921Y1134921D02*
X1427461D01*
X1430001Y1137461D01*
X1432541Y1134921D01*
X1435081D01*
Y1137461D01*
X1432541Y1140001D01*
X1435081Y1142541D01*
Y1145081D01*
X1432541D01*
X1430001Y1142541D01*
X1427461Y1145081D01*
X1424921D01*
Y1142541D01*
X1427461Y1140001D01*
X1424921Y1137461D01*
Y1134921D01*
X1414921Y1114921D02*
X1417461D01*
X1420001Y1117461D01*
X1422541Y1114921D01*
X1425081D01*
Y1117461D01*
X1422541Y1120001D01*
X1425081Y1122541D01*
Y1125081D01*
X1422541D01*
X1420001Y1122541D01*
X1417461Y1125081D01*
X1414921D01*
Y1122541D01*
X1417461Y1120001D01*
X1414921Y1117461D01*
Y1114921D01*
X1424921Y1094921D02*
X1427461D01*
X1430001Y1097461D01*
X1432541Y1094921D01*
X1435081D01*
Y1097461D01*
X1432541Y1100001D01*
X1435081Y1102541D01*
Y1105081D01*
X1432541D01*
X1430001Y1102541D01*
X1427461Y1105081D01*
X1424921D01*
Y1102541D01*
X1427461Y1100001D01*
X1424921Y1097461D01*
Y1094921D01*
X1414921Y1074921D02*
X1417461D01*
X1420001Y1077461D01*
X1422541Y1074921D01*
X1425081D01*
Y1077461D01*
X1422541Y1080001D01*
X1425081Y1082541D01*
Y1085081D01*
X1422541D01*
X1420001Y1082541D01*
X1417461Y1085081D01*
X1414921D01*
Y1082541D01*
X1417461Y1080001D01*
X1414921Y1077461D01*
Y1074921D01*
X1424921Y1054921D02*
X1427461D01*
X1430001Y1057461D01*
X1432541Y1054921D01*
X1435081D01*
Y1057461D01*
X1432541Y1060001D01*
X1435081Y1062541D01*
Y1065081D01*
X1432541D01*
X1430001Y1062541D01*
X1427461Y1065081D01*
X1424921D01*
Y1062541D01*
X1427461Y1060001D01*
X1424921Y1057461D01*
Y1054921D01*
X1414921Y1034921D02*
X1417461D01*
X1420001Y1037461D01*
X1422541Y1034921D01*
X1425081D01*
Y1037461D01*
X1422541Y1040001D01*
X1425081Y1042541D01*
Y1045081D01*
X1422541D01*
X1420001Y1042541D01*
X1417461Y1045081D01*
X1414921D01*
Y1042541D01*
X1417461Y1040001D01*
X1414921Y1037461D01*
Y1034921D01*
X1424921Y1014921D02*
X1427461D01*
X1430001Y1017461D01*
X1432541Y1014921D01*
X1435081D01*
Y1017461D01*
X1432541Y1020001D01*
X1435081Y1022541D01*
Y1025081D01*
X1432541D01*
X1430001Y1022541D01*
X1427461Y1025081D01*
X1424921D01*
Y1022541D01*
X1427461Y1020001D01*
X1424921Y1017461D01*
Y1014921D01*
X1414921Y994921D02*
X1417461D01*
X1420001Y997460D01*
X1422541Y994921D01*
X1425081D01*
Y997460D01*
X1422541Y1000001D01*
X1425081Y1002541D01*
Y1005080D01*
X1422541D01*
X1420001Y1002541D01*
X1417461Y1005080D01*
X1414921D01*
Y1002541D01*
X1417461Y1000001D01*
X1414921Y997460D01*
Y994921D01*
X1424921Y974921D02*
X1427461D01*
X1430001Y977460D01*
X1432541Y974921D01*
X1435081D01*
Y977460D01*
X1432541Y980001D01*
X1435081Y982541D01*
Y985080D01*
X1432541D01*
X1430001Y982541D01*
X1427461Y985080D01*
X1424921D01*
Y982541D01*
X1427461Y980001D01*
X1424921Y977460D01*
Y974921D01*
X1414921Y954921D02*
X1417461D01*
X1420001Y957460D01*
X1422541Y954921D01*
X1425081D01*
Y957460D01*
X1422541Y960001D01*
X1425081Y962541D01*
Y965080D01*
X1422541D01*
X1420001Y962541D01*
X1417461Y965080D01*
X1414921D01*
Y962541D01*
X1417461Y960001D01*
X1414921Y957460D01*
Y954921D01*
X1424921Y934921D02*
X1427461D01*
X1430001Y937460D01*
X1432541Y934921D01*
X1435081D01*
Y937460D01*
X1432541Y940001D01*
X1435081Y942541D01*
Y945080D01*
X1432541D01*
X1430001Y942541D01*
X1427461Y945080D01*
X1424921D01*
Y942541D01*
X1427461Y940001D01*
X1424921Y937460D01*
Y934921D01*
X1414921Y914921D02*
X1417461D01*
X1420001Y917460D01*
X1422541Y914921D01*
X1425081D01*
Y917460D01*
X1422541Y920001D01*
X1425081Y922541D01*
Y925080D01*
X1422541D01*
X1420001Y922541D01*
X1417461Y925080D01*
X1414921D01*
Y922541D01*
X1417461Y920001D01*
X1414921Y917460D01*
Y914921D01*
X1424921Y894921D02*
X1427461D01*
X1430001Y897460D01*
X1432541Y894921D01*
X1435081D01*
Y897460D01*
X1432541Y900001D01*
X1435081Y902541D01*
Y905080D01*
X1432541D01*
X1430001Y902541D01*
X1427461Y905080D01*
X1424921D01*
Y902541D01*
X1427461Y900001D01*
X1424921Y897460D01*
Y894921D01*
X1414921Y874921D02*
X1417461D01*
X1420001Y877460D01*
X1422541Y874921D01*
X1425081D01*
Y877460D01*
X1422541Y880001D01*
X1425081Y882541D01*
Y885080D01*
X1422541D01*
X1420001Y882541D01*
X1417461Y885080D01*
X1414921D01*
Y882541D01*
X1417461Y880001D01*
X1414921Y877460D01*
Y874921D01*
X1424921Y854921D02*
X1427461D01*
X1430001Y857460D01*
X1432541Y854921D01*
X1435081D01*
Y857460D01*
X1432541Y860001D01*
X1435081Y862541D01*
Y865080D01*
X1432541D01*
X1430001Y862541D01*
X1427461Y865080D01*
X1424921D01*
Y862541D01*
X1427461Y860001D01*
X1424921Y857460D01*
Y854921D01*
X1414921Y834921D02*
X1417461D01*
X1420001Y837460D01*
X1422541Y834921D01*
X1425081D01*
Y837460D01*
X1422541Y840001D01*
X1425081Y842541D01*
Y845080D01*
X1422541D01*
X1420001Y842541D01*
X1417461Y845080D01*
X1414921D01*
Y842541D01*
X1417461Y840001D01*
X1414921Y837460D01*
Y834921D01*
X1424921Y814920D02*
X1427461D01*
X1430001Y817460D01*
X1432541Y814920D01*
X1435081D01*
Y817460D01*
X1432541Y820000D01*
X1435081Y822540D01*
Y825080D01*
X1432541D01*
X1430001Y822540D01*
X1427461Y825080D01*
X1424921D01*
Y822540D01*
X1427461Y820000D01*
X1424921Y817460D01*
Y814920D01*
X1414921Y794920D02*
X1417461D01*
X1420001Y797460D01*
X1422541Y794920D01*
X1425081D01*
Y797460D01*
X1422541Y800000D01*
X1425081Y802540D01*
Y805080D01*
X1422541D01*
X1420001Y802540D01*
X1417461Y805080D01*
X1414921D01*
Y802540D01*
X1417461Y800000D01*
X1414921Y797460D01*
Y794920D01*
X1424921Y774920D02*
X1427461D01*
X1430001Y777460D01*
X1432541Y774920D01*
X1435081D01*
Y777460D01*
X1432541Y780000D01*
X1435081Y782540D01*
Y785080D01*
X1432541D01*
X1430001Y782540D01*
X1427461Y785080D01*
X1424921D01*
Y782540D01*
X1427461Y780000D01*
X1424921Y777460D01*
Y774920D01*
X1414921Y754920D02*
X1417461D01*
X1420001Y757460D01*
X1422541Y754920D01*
X1425081D01*
Y757460D01*
X1422541Y760000D01*
X1425081Y762540D01*
Y765080D01*
X1422541D01*
X1420001Y762540D01*
X1417461Y765080D01*
X1414921D01*
Y762540D01*
X1417461Y760000D01*
X1414921Y757460D01*
Y754920D01*
X1424921Y734920D02*
X1427461D01*
X1430001Y737460D01*
X1432541Y734920D01*
X1435081D01*
Y737460D01*
X1432541Y740000D01*
X1435081Y742540D01*
Y745080D01*
X1432541D01*
X1430001Y742540D01*
X1427461Y745080D01*
X1424921D01*
Y742540D01*
X1427461Y740000D01*
X1424921Y737460D01*
Y734920D01*
X1404921Y1494921D02*
X1407461D01*
X1410001Y1497461D01*
X1412541Y1494921D01*
X1415081D01*
Y1497461D01*
X1412541Y1500001D01*
X1415081Y1502541D01*
Y1505081D01*
X1412541D01*
X1410001Y1502541D01*
X1407461Y1505081D01*
X1404921D01*
Y1502541D01*
X1407461Y1500001D01*
X1404921Y1497461D01*
Y1494921D01*
X1394921Y1474921D02*
X1397461D01*
X1400001Y1477461D01*
X1402541Y1474921D01*
X1405081D01*
Y1477461D01*
X1402541Y1480001D01*
X1405081Y1482541D01*
Y1485081D01*
X1402541D01*
X1400001Y1482541D01*
X1397461Y1485081D01*
X1394921D01*
Y1482541D01*
X1397461Y1480001D01*
X1394921Y1477461D01*
Y1474921D01*
X1404921Y1454921D02*
X1407461D01*
X1410001Y1457461D01*
X1412541Y1454921D01*
X1415081D01*
Y1457461D01*
X1412541Y1460001D01*
X1415081Y1462541D01*
Y1465081D01*
X1412541D01*
X1410001Y1462541D01*
X1407461Y1465081D01*
X1404921D01*
Y1462541D01*
X1407461Y1460001D01*
X1404921Y1457461D01*
Y1454921D01*
X1394921Y1434921D02*
X1397461D01*
X1400001Y1437461D01*
X1402541Y1434921D01*
X1405081D01*
Y1437461D01*
X1402541Y1440001D01*
X1405081Y1442541D01*
Y1445081D01*
X1402541D01*
X1400001Y1442541D01*
X1397461Y1445081D01*
X1394921D01*
Y1442541D01*
X1397461Y1440001D01*
X1394921Y1437461D01*
Y1434921D01*
X1404921Y1414921D02*
X1407461D01*
X1410001Y1417461D01*
X1412541Y1414921D01*
X1415081D01*
Y1417461D01*
X1412541Y1420001D01*
X1415081Y1422541D01*
Y1425081D01*
X1412541D01*
X1410001Y1422541D01*
X1407461Y1425081D01*
X1404921D01*
Y1422541D01*
X1407461Y1420001D01*
X1404921Y1417461D01*
Y1414921D01*
X1394921Y1394921D02*
X1397461D01*
X1400001Y1397461D01*
X1402541Y1394921D01*
X1405081D01*
Y1397461D01*
X1402541Y1400001D01*
X1405081Y1402541D01*
Y1405081D01*
X1402541D01*
X1400001Y1402541D01*
X1397461Y1405081D01*
X1394921D01*
Y1402541D01*
X1397461Y1400001D01*
X1394921Y1397461D01*
Y1394921D01*
X1404921Y1374921D02*
X1407461D01*
X1410001Y1377461D01*
X1412541Y1374921D01*
X1415081D01*
Y1377461D01*
X1412541Y1380001D01*
X1415081Y1382541D01*
Y1385081D01*
X1412541D01*
X1410001Y1382541D01*
X1407461Y1385081D01*
X1404921D01*
Y1382541D01*
X1407461Y1380001D01*
X1404921Y1377461D01*
Y1374921D01*
X1394921Y1354921D02*
X1397461D01*
X1400001Y1357461D01*
X1402541Y1354921D01*
X1405081D01*
Y1357461D01*
X1402541Y1360001D01*
X1405081Y1362541D01*
Y1365081D01*
X1402541D01*
X1400001Y1362541D01*
X1397461Y1365081D01*
X1394921D01*
Y1362541D01*
X1397461Y1360001D01*
X1394921Y1357461D01*
Y1354921D01*
X1404921Y814920D02*
X1407461D01*
X1410001Y817460D01*
X1412541Y814920D01*
X1415081D01*
Y817460D01*
X1412541Y820000D01*
X1415081Y822540D01*
Y825080D01*
X1412541D01*
X1410001Y822540D01*
X1407461Y825080D01*
X1404921D01*
Y822540D01*
X1407461Y820000D01*
X1404921Y817460D01*
Y814920D01*
X1394921Y794920D02*
X1397461D01*
X1400001Y797460D01*
X1402541Y794920D01*
X1405081D01*
Y797460D01*
X1402541Y800000D01*
X1405081Y802540D01*
Y805080D01*
X1402541D01*
X1400001Y802540D01*
X1397461Y805080D01*
X1394921D01*
Y802540D01*
X1397461Y800000D01*
X1394921Y797460D01*
Y794920D01*
X1404921Y774920D02*
X1407461D01*
X1410001Y777460D01*
X1412541Y774920D01*
X1415081D01*
Y777460D01*
X1412541Y780000D01*
X1415081Y782540D01*
Y785080D01*
X1412541D01*
X1410001Y782540D01*
X1407461Y785080D01*
X1404921D01*
Y782540D01*
X1407461Y780000D01*
X1404921Y777460D01*
Y774920D01*
X1394921Y754920D02*
X1397461D01*
X1400001Y757460D01*
X1402541Y754920D01*
X1405081D01*
Y757460D01*
X1402541Y760000D01*
X1405081Y762540D01*
Y765080D01*
X1402541D01*
X1400001Y762540D01*
X1397461Y765080D01*
X1394921D01*
Y762540D01*
X1397461Y760000D01*
X1394921Y757460D01*
Y754920D01*
X1404921Y734920D02*
X1407461D01*
X1410001Y737460D01*
X1412541Y734920D01*
X1415081D01*
Y737460D01*
X1412541Y740000D01*
X1415081Y742540D01*
Y745080D01*
X1412541D01*
X1410001Y742540D01*
X1407461Y745080D01*
X1404921D01*
Y742540D01*
X1407461Y740000D01*
X1404921Y737460D01*
Y734920D01*
X1394921Y714920D02*
X1397461D01*
X1400001Y717460D01*
X1402541Y714920D01*
X1405081D01*
Y717460D01*
X1402541Y720000D01*
X1405081Y722540D01*
Y725080D01*
X1402541D01*
X1400001Y722540D01*
X1397461Y725080D01*
X1394921D01*
Y722540D01*
X1397461Y720000D01*
X1394921Y717460D01*
Y714920D01*
X1384921Y1494921D02*
X1387461D01*
X1390001Y1497461D01*
X1392541Y1494921D01*
X1395081D01*
Y1497461D01*
X1392541Y1500001D01*
X1395081Y1502541D01*
Y1505081D01*
X1392541D01*
X1390001Y1502541D01*
X1387461Y1505081D01*
X1384921D01*
Y1502541D01*
X1387461Y1500001D01*
X1384921Y1497461D01*
Y1494921D01*
X1374921Y1474921D02*
X1377461D01*
X1380001Y1477461D01*
X1382541Y1474921D01*
X1385081D01*
Y1477461D01*
X1382541Y1480001D01*
X1385081Y1482541D01*
Y1485081D01*
X1382541D01*
X1380001Y1482541D01*
X1377461Y1485081D01*
X1374921D01*
Y1482541D01*
X1377461Y1480001D01*
X1374921Y1477461D01*
Y1474921D01*
X1384921Y1454921D02*
X1387461D01*
X1390001Y1457461D01*
X1392541Y1454921D01*
X1395081D01*
Y1457461D01*
X1392541Y1460001D01*
X1395081Y1462541D01*
Y1465081D01*
X1392541D01*
X1390001Y1462541D01*
X1387461Y1465081D01*
X1384921D01*
Y1462541D01*
X1387461Y1460001D01*
X1384921Y1457461D01*
Y1454921D01*
X1374921Y1434921D02*
X1377461D01*
X1380001Y1437461D01*
X1382541Y1434921D01*
X1385081D01*
Y1437461D01*
X1382541Y1440001D01*
X1385081Y1442541D01*
Y1445081D01*
X1382541D01*
X1380001Y1442541D01*
X1377461Y1445081D01*
X1374921D01*
Y1442541D01*
X1377461Y1440001D01*
X1374921Y1437461D01*
Y1434921D01*
X1384921Y1414921D02*
X1387461D01*
X1390001Y1417461D01*
X1392541Y1414921D01*
X1395081D01*
Y1417461D01*
X1392541Y1420001D01*
X1395081Y1422541D01*
Y1425081D01*
X1392541D01*
X1390001Y1422541D01*
X1387461Y1425081D01*
X1384921D01*
Y1422541D01*
X1387461Y1420001D01*
X1384921Y1417461D01*
Y1414921D01*
X1374921Y1394921D02*
X1377461D01*
X1380001Y1397461D01*
X1382541Y1394921D01*
X1385081D01*
Y1397461D01*
X1382541Y1400001D01*
X1385081Y1402541D01*
Y1405081D01*
X1382541D01*
X1380001Y1402541D01*
X1377461Y1405081D01*
X1374921D01*
Y1402541D01*
X1377461Y1400001D01*
X1374921Y1397461D01*
Y1394921D01*
X1384921Y1374921D02*
X1387461D01*
X1390001Y1377461D01*
X1392541Y1374921D01*
X1395081D01*
Y1377461D01*
X1392541Y1380001D01*
X1395081Y1382541D01*
Y1385081D01*
X1392541D01*
X1390001Y1382541D01*
X1387461Y1385081D01*
X1384921D01*
Y1382541D01*
X1387461Y1380001D01*
X1384921Y1377461D01*
Y1374921D01*
X1374921Y1314921D02*
X1377461D01*
X1380001Y1317461D01*
X1382541Y1314921D01*
X1385081D01*
Y1317461D01*
X1382541Y1320001D01*
X1385081Y1322541D01*
Y1325081D01*
X1382541D01*
X1380001Y1322541D01*
X1377461Y1325081D01*
X1374921D01*
Y1322541D01*
X1377461Y1320001D01*
X1374921Y1317461D01*
Y1314921D01*
X1384921Y1294921D02*
X1387461D01*
X1390001Y1297461D01*
X1392541Y1294921D01*
X1395081D01*
Y1297461D01*
X1392541Y1300001D01*
X1395081Y1302541D01*
Y1305081D01*
X1392541D01*
X1390001Y1302541D01*
X1387461Y1305081D01*
X1384921D01*
Y1302541D01*
X1387461Y1300001D01*
X1384921Y1297461D01*
Y1294921D01*
X1374921Y1274921D02*
X1377461D01*
X1380001Y1277461D01*
X1382541Y1274921D01*
X1385081D01*
Y1277461D01*
X1382541Y1280001D01*
X1385081Y1282541D01*
Y1285081D01*
X1382541D01*
X1380001Y1282541D01*
X1377461Y1285081D01*
X1374921D01*
Y1282541D01*
X1377461Y1280001D01*
X1374921Y1277461D01*
Y1274921D01*
X1384921Y1254921D02*
X1387461D01*
X1390001Y1257461D01*
X1392541Y1254921D01*
X1395081D01*
Y1257461D01*
X1392541Y1260001D01*
X1395081Y1262541D01*
Y1265081D01*
X1392541D01*
X1390001Y1262541D01*
X1387461Y1265081D01*
X1384921D01*
Y1262541D01*
X1387461Y1260001D01*
X1384921Y1257461D01*
Y1254921D01*
X1374921Y1234921D02*
X1377461D01*
X1380001Y1237461D01*
X1382541Y1234921D01*
X1385081D01*
Y1237461D01*
X1382541Y1240001D01*
X1385081Y1242541D01*
Y1245081D01*
X1382541D01*
X1380001Y1242541D01*
X1377461Y1245081D01*
X1374921D01*
Y1242541D01*
X1377461Y1240001D01*
X1374921Y1237461D01*
Y1234921D01*
X1384921Y1214921D02*
X1387461D01*
X1390001Y1217461D01*
X1392541Y1214921D01*
X1395081D01*
Y1217461D01*
X1392541Y1220001D01*
X1395081Y1222541D01*
Y1225081D01*
X1392541D01*
X1390001Y1222541D01*
X1387461Y1225081D01*
X1384921D01*
Y1222541D01*
X1387461Y1220001D01*
X1384921Y1217461D01*
Y1214921D01*
X1374921Y1194921D02*
X1377461D01*
X1380001Y1197461D01*
X1382541Y1194921D01*
X1385081D01*
Y1197461D01*
X1382541Y1200001D01*
X1385081Y1202541D01*
Y1205081D01*
X1382541D01*
X1380001Y1202541D01*
X1377461Y1205081D01*
X1374921D01*
Y1202541D01*
X1377461Y1200001D01*
X1374921Y1197461D01*
Y1194921D01*
X1384921Y1174921D02*
X1387461D01*
X1390001Y1177461D01*
X1392541Y1174921D01*
X1395081D01*
Y1177461D01*
X1392541Y1180001D01*
X1395081Y1182541D01*
Y1185081D01*
X1392541D01*
X1390001Y1182541D01*
X1387461Y1185081D01*
X1384921D01*
Y1182541D01*
X1387461Y1180001D01*
X1384921Y1177461D01*
Y1174921D01*
X1374921Y1154921D02*
X1377461D01*
X1380001Y1157461D01*
X1382541Y1154921D01*
X1385081D01*
Y1157461D01*
X1382541Y1160001D01*
X1385081Y1162541D01*
Y1165081D01*
X1382541D01*
X1380001Y1162541D01*
X1377461Y1165081D01*
X1374921D01*
Y1162541D01*
X1377461Y1160001D01*
X1374921Y1157461D01*
Y1154921D01*
X1384921Y1134921D02*
X1387461D01*
X1390001Y1137461D01*
X1392541Y1134921D01*
X1395081D01*
Y1137461D01*
X1392541Y1140001D01*
X1395081Y1142541D01*
Y1145081D01*
X1392541D01*
X1390001Y1142541D01*
X1387461Y1145081D01*
X1384921D01*
Y1142541D01*
X1387461Y1140001D01*
X1384921Y1137461D01*
Y1134921D01*
Y1094921D02*
X1387461D01*
X1390001Y1097461D01*
X1392541Y1094921D01*
X1395081D01*
Y1097461D01*
X1392541Y1100001D01*
X1395081Y1102541D01*
Y1105081D01*
X1392541D01*
X1390001Y1102541D01*
X1387461Y1105081D01*
X1384921D01*
Y1102541D01*
X1387461Y1100001D01*
X1384921Y1097461D01*
Y1094921D01*
Y1054921D02*
X1387461D01*
X1390001Y1057461D01*
X1392541Y1054921D01*
X1395081D01*
Y1057461D01*
X1392541Y1060001D01*
X1395081Y1062541D01*
Y1065081D01*
X1392541D01*
X1390001Y1062541D01*
X1387461Y1065081D01*
X1384921D01*
Y1062541D01*
X1387461Y1060001D01*
X1384921Y1057461D01*
Y1054921D01*
Y1014921D02*
X1387461D01*
X1390001Y1017461D01*
X1392541Y1014921D01*
X1395081D01*
Y1017461D01*
X1392541Y1020001D01*
X1395081Y1022541D01*
Y1025081D01*
X1392541D01*
X1390001Y1022541D01*
X1387461Y1025081D01*
X1384921D01*
Y1022541D01*
X1387461Y1020001D01*
X1384921Y1017461D01*
Y1014921D01*
Y974921D02*
X1387461D01*
X1390001Y977460D01*
X1392541Y974921D01*
X1395081D01*
Y977460D01*
X1392541Y980001D01*
X1395081Y982541D01*
Y985080D01*
X1392541D01*
X1390001Y982541D01*
X1387461Y985080D01*
X1384921D01*
Y982541D01*
X1387461Y980001D01*
X1384921Y977460D01*
Y974921D01*
Y934921D02*
X1387461D01*
X1390001Y937460D01*
X1392541Y934921D01*
X1395081D01*
Y937460D01*
X1392541Y940001D01*
X1395081Y942541D01*
Y945080D01*
X1392541D01*
X1390001Y942541D01*
X1387461Y945080D01*
X1384921D01*
Y942541D01*
X1387461Y940001D01*
X1384921Y937460D01*
Y934921D01*
Y894921D02*
X1387461D01*
X1390001Y897460D01*
X1392541Y894921D01*
X1395081D01*
Y897460D01*
X1392541Y900001D01*
X1395081Y902541D01*
Y905080D01*
X1392541D01*
X1390001Y902541D01*
X1387461Y905080D01*
X1384921D01*
Y902541D01*
X1387461Y900001D01*
X1384921Y897460D01*
Y894921D01*
Y774920D02*
X1387461D01*
X1390001Y777460D01*
X1392541Y774920D01*
X1395081D01*
Y777460D01*
X1392541Y780000D01*
X1395081Y782540D01*
Y785080D01*
X1392541D01*
X1390001Y782540D01*
X1387461Y785080D01*
X1384921D01*
Y782540D01*
X1387461Y780000D01*
X1384921Y777460D01*
Y774920D01*
X1374921Y754920D02*
X1377461D01*
X1380001Y757460D01*
X1382541Y754920D01*
X1385081D01*
Y757460D01*
X1382541Y760000D01*
X1385081Y762540D01*
Y765080D01*
X1382541D01*
X1380001Y762540D01*
X1377461Y765080D01*
X1374921D01*
Y762540D01*
X1377461Y760000D01*
X1374921Y757460D01*
Y754920D01*
X1384921Y734920D02*
X1387461D01*
X1390001Y737460D01*
X1392541Y734920D01*
X1395081D01*
Y737460D01*
X1392541Y740000D01*
X1395081Y742540D01*
Y745080D01*
X1392541D01*
X1390001Y742540D01*
X1387461Y745080D01*
X1384921D01*
Y742540D01*
X1387461Y740000D01*
X1384921Y737460D01*
Y734920D01*
X1374921Y714920D02*
X1377461D01*
X1380001Y717460D01*
X1382541Y714920D01*
X1385081D01*
Y717460D01*
X1382541Y720000D01*
X1385081Y722540D01*
Y725080D01*
X1382541D01*
X1380001Y722540D01*
X1377461Y725080D01*
X1374921D01*
Y722540D01*
X1377461Y720000D01*
X1374921Y717460D01*
Y714920D01*
X1364921Y1494921D02*
X1367461D01*
X1370001Y1497461D01*
X1372541Y1494921D01*
X1375081D01*
Y1497461D01*
X1372541Y1500001D01*
X1375081Y1502541D01*
Y1505081D01*
X1372541D01*
X1370001Y1502541D01*
X1367461Y1505081D01*
X1364921D01*
Y1502541D01*
X1367461Y1500001D01*
X1364921Y1497461D01*
Y1494921D01*
X1354921Y1474921D02*
X1357461D01*
X1360001Y1477461D01*
X1362541Y1474921D01*
X1365081D01*
Y1477461D01*
X1362541Y1480001D01*
X1365081Y1482541D01*
Y1485081D01*
X1362541D01*
X1360001Y1482541D01*
X1357461Y1485081D01*
X1354921D01*
Y1482541D01*
X1357461Y1480001D01*
X1354921Y1477461D01*
Y1474921D01*
X1364921Y1454921D02*
X1367461D01*
X1370001Y1457461D01*
X1372541Y1454921D01*
X1375081D01*
Y1457461D01*
X1372541Y1460001D01*
X1375081Y1462541D01*
Y1465081D01*
X1372541D01*
X1370001Y1462541D01*
X1367461Y1465081D01*
X1364921D01*
Y1462541D01*
X1367461Y1460001D01*
X1364921Y1457461D01*
Y1454921D01*
X1354921Y1434921D02*
X1357461D01*
X1360001Y1437461D01*
X1362541Y1434921D01*
X1365081D01*
Y1437461D01*
X1362541Y1440001D01*
X1365081Y1442541D01*
Y1445081D01*
X1362541D01*
X1360001Y1442541D01*
X1357461Y1445081D01*
X1354921D01*
Y1442541D01*
X1357461Y1440001D01*
X1354921Y1437461D01*
Y1434921D01*
X1364921Y1414921D02*
X1367461D01*
X1370001Y1417461D01*
X1372541Y1414921D01*
X1375081D01*
Y1417461D01*
X1372541Y1420001D01*
X1375081Y1422541D01*
Y1425081D01*
X1372541D01*
X1370001Y1422541D01*
X1367461Y1425081D01*
X1364921D01*
Y1422541D01*
X1367461Y1420001D01*
X1364921Y1417461D01*
Y1414921D01*
X1354921Y1394921D02*
X1357461D01*
X1360001Y1397461D01*
X1362541Y1394921D01*
X1365081D01*
Y1397461D01*
X1362541Y1400001D01*
X1365081Y1402541D01*
Y1405081D01*
X1362541D01*
X1360001Y1402541D01*
X1357461Y1405081D01*
X1354921D01*
Y1402541D01*
X1357461Y1400001D01*
X1354921Y1397461D01*
Y1394921D01*
Y1314921D02*
X1357461D01*
X1360001Y1317461D01*
X1362541Y1314921D01*
X1365081D01*
Y1317461D01*
X1362541Y1320001D01*
X1365081Y1322541D01*
Y1325081D01*
X1362541D01*
X1360001Y1322541D01*
X1357461Y1325081D01*
X1354921D01*
Y1322541D01*
X1357461Y1320001D01*
X1354921Y1317461D01*
Y1314921D01*
X1364921Y774920D02*
X1367461D01*
X1370001Y777460D01*
X1372541Y774920D01*
X1375081D01*
Y777460D01*
X1372541Y780000D01*
X1375081Y782540D01*
Y785080D01*
X1372541D01*
X1370001Y782540D01*
X1367461Y785080D01*
X1364921D01*
Y782540D01*
X1367461Y780000D01*
X1364921Y777460D01*
Y774920D01*
X1354921Y754920D02*
X1357461D01*
X1360001Y757460D01*
X1362541Y754920D01*
X1365081D01*
Y757460D01*
X1362541Y760000D01*
X1365081Y762540D01*
Y765080D01*
X1362541D01*
X1360001Y762540D01*
X1357461Y765080D01*
X1354921D01*
Y762540D01*
X1357461Y760000D01*
X1354921Y757460D01*
Y754920D01*
X1364921Y734920D02*
X1367461D01*
X1370001Y737460D01*
X1372541Y734920D01*
X1375081D01*
Y737460D01*
X1372541Y740000D01*
X1375081Y742540D01*
Y745080D01*
X1372541D01*
X1370001Y742540D01*
X1367461Y745080D01*
X1364921D01*
Y742540D01*
X1367461Y740000D01*
X1364921Y737460D01*
Y734920D01*
X1354921Y714920D02*
X1357461D01*
X1360001Y717460D01*
X1362541Y714920D01*
X1365081D01*
Y717460D01*
X1362541Y720000D01*
X1365081Y722540D01*
Y725080D01*
X1362541D01*
X1360001Y722540D01*
X1357461Y725080D01*
X1354921D01*
Y722540D01*
X1357461Y720000D01*
X1354921Y717460D01*
Y714920D01*
X1344921Y1454921D02*
X1347461D01*
X1350001Y1457461D01*
X1352541Y1454921D01*
X1355081D01*
Y1457461D01*
X1352541Y1460001D01*
X1355081Y1462541D01*
Y1465081D01*
X1352541D01*
X1350001Y1462541D01*
X1347461Y1465081D01*
X1344921D01*
Y1462541D01*
X1347461Y1460001D01*
X1344921Y1457461D01*
Y1454921D01*
X1334921Y1434921D02*
X1337461D01*
X1340001Y1437461D01*
X1342541Y1434921D01*
X1345081D01*
Y1437461D01*
X1342541Y1440001D01*
X1345081Y1442541D01*
Y1445081D01*
X1342541D01*
X1340001Y1442541D01*
X1337461Y1445081D01*
X1334921D01*
Y1442541D01*
X1337461Y1440001D01*
X1334921Y1437461D01*
Y1434921D01*
X1344921Y1414921D02*
X1347461D01*
X1350001Y1417461D01*
X1352541Y1414921D01*
X1355081D01*
Y1417461D01*
X1352541Y1420001D01*
X1355081Y1422541D01*
Y1425081D01*
X1352541D01*
X1350001Y1422541D01*
X1347461Y1425081D01*
X1344921D01*
Y1422541D01*
X1347461Y1420001D01*
X1344921Y1417461D01*
Y1414921D01*
X1334921Y1274921D02*
X1337461D01*
X1340001Y1277461D01*
X1342541Y1274921D01*
X1345081D01*
Y1277461D01*
X1342541Y1280001D01*
X1345081Y1282541D01*
Y1285081D01*
X1342541D01*
X1340001Y1282541D01*
X1337461Y1285081D01*
X1334921D01*
Y1282541D01*
X1337461Y1280001D01*
X1334921Y1277461D01*
Y1274921D01*
X1344921Y1254921D02*
X1347461D01*
X1350001Y1257461D01*
X1352541Y1254921D01*
X1355081D01*
Y1257461D01*
X1352541Y1260001D01*
X1355081Y1262541D01*
Y1265081D01*
X1352541D01*
X1350001Y1262541D01*
X1347461Y1265081D01*
X1344921D01*
Y1262541D01*
X1347461Y1260001D01*
X1344921Y1257461D01*
Y1254921D01*
X1334921Y1234921D02*
X1337461D01*
X1340001Y1237461D01*
X1342541Y1234921D01*
X1345081D01*
Y1237461D01*
X1342541Y1240001D01*
X1345081Y1242541D01*
Y1245081D01*
X1342541D01*
X1340001Y1242541D01*
X1337461Y1245081D01*
X1334921D01*
Y1242541D01*
X1337461Y1240001D01*
X1334921Y1237461D01*
Y1234921D01*
X1344921Y1214921D02*
X1347461D01*
X1350001Y1217461D01*
X1352541Y1214921D01*
X1355081D01*
Y1217461D01*
X1352541Y1220001D01*
X1355081Y1222541D01*
Y1225081D01*
X1352541D01*
X1350001Y1222541D01*
X1347461Y1225081D01*
X1344921D01*
Y1222541D01*
X1347461Y1220001D01*
X1344921Y1217461D01*
Y1214921D01*
X1334921Y1194921D02*
X1337461D01*
X1340001Y1197461D01*
X1342541Y1194921D01*
X1345081D01*
Y1197461D01*
X1342541Y1200001D01*
X1345081Y1202541D01*
Y1205081D01*
X1342541D01*
X1340001Y1202541D01*
X1337461Y1205081D01*
X1334921D01*
Y1202541D01*
X1337461Y1200001D01*
X1334921Y1197461D01*
Y1194921D01*
X1344921Y1174921D02*
X1347461D01*
X1350001Y1177461D01*
X1352541Y1174921D01*
X1355081D01*
Y1177461D01*
X1352541Y1180001D01*
X1355081Y1182541D01*
Y1185081D01*
X1352541D01*
X1350001Y1182541D01*
X1347461Y1185081D01*
X1344921D01*
Y1182541D01*
X1347461Y1180001D01*
X1344921Y1177461D01*
Y1174921D01*
X1334921Y1114921D02*
X1337461D01*
X1340001Y1117461D01*
X1342541Y1114921D01*
X1345081D01*
Y1117461D01*
X1342541Y1120001D01*
X1345081Y1122541D01*
Y1125081D01*
X1342541D01*
X1340001Y1122541D01*
X1337461Y1125081D01*
X1334921D01*
Y1122541D01*
X1337461Y1120001D01*
X1334921Y1117461D01*
Y1114921D01*
X1344921Y1054921D02*
X1347461D01*
X1350001Y1057461D01*
X1352541Y1054921D01*
X1355081D01*
Y1057461D01*
X1352541Y1060001D01*
X1355081Y1062541D01*
Y1065081D01*
X1352541D01*
X1350001Y1062541D01*
X1347461Y1065081D01*
X1344921D01*
Y1062541D01*
X1347461Y1060001D01*
X1344921Y1057461D01*
Y1054921D01*
X1334921Y1034921D02*
X1337461D01*
X1340001Y1037461D01*
X1342541Y1034921D01*
X1345081D01*
Y1037461D01*
X1342541Y1040001D01*
X1345081Y1042541D01*
Y1045081D01*
X1342541D01*
X1340001Y1042541D01*
X1337461Y1045081D01*
X1334921D01*
Y1042541D01*
X1337461Y1040001D01*
X1334921Y1037461D01*
Y1034921D01*
X1344921Y1014921D02*
X1347461D01*
X1350001Y1017461D01*
X1352541Y1014921D01*
X1355081D01*
Y1017461D01*
X1352541Y1020001D01*
X1355081Y1022541D01*
Y1025081D01*
X1352541D01*
X1350001Y1022541D01*
X1347461Y1025081D01*
X1344921D01*
Y1022541D01*
X1347461Y1020001D01*
X1344921Y1017461D01*
Y1014921D01*
X1334921Y994921D02*
X1337461D01*
X1340001Y997460D01*
X1342541Y994921D01*
X1345081D01*
Y997460D01*
X1342541Y1000001D01*
X1345081Y1002541D01*
Y1005080D01*
X1342541D01*
X1340001Y1002541D01*
X1337461Y1005080D01*
X1334921D01*
Y1002541D01*
X1337461Y1000001D01*
X1334921Y997460D01*
Y994921D01*
Y954921D02*
X1337461D01*
X1340001Y957460D01*
X1342541Y954921D01*
X1345081D01*
Y957460D01*
X1342541Y960001D01*
X1345081Y962541D01*
Y965080D01*
X1342541D01*
X1340001Y962541D01*
X1337461Y965080D01*
X1334921D01*
Y962541D01*
X1337461Y960001D01*
X1334921Y957460D01*
Y954921D01*
X1344921Y934921D02*
X1347461D01*
X1350001Y937460D01*
X1352541Y934921D01*
X1355081D01*
Y937460D01*
X1352541Y940001D01*
X1355081Y942541D01*
Y945080D01*
X1352541D01*
X1350001Y942541D01*
X1347461Y945080D01*
X1344921D01*
Y942541D01*
X1347461Y940001D01*
X1344921Y937460D01*
Y934921D01*
X1334921Y914921D02*
X1337461D01*
X1340001Y917460D01*
X1342541Y914921D01*
X1345081D01*
Y917460D01*
X1342541Y920001D01*
X1345081Y922541D01*
Y925080D01*
X1342541D01*
X1340001Y922541D01*
X1337461Y925080D01*
X1334921D01*
Y922541D01*
X1337461Y920001D01*
X1334921Y917460D01*
Y914921D01*
X1344921Y814920D02*
X1347461D01*
X1350001Y817460D01*
X1352541Y814920D01*
X1355081D01*
Y817460D01*
X1352541Y820000D01*
X1355081Y822540D01*
Y825080D01*
X1352541D01*
X1350001Y822540D01*
X1347461Y825080D01*
X1344921D01*
Y822540D01*
X1347461Y820000D01*
X1344921Y817460D01*
Y814920D01*
Y774920D02*
X1347461D01*
X1350001Y777460D01*
X1352541Y774920D01*
X1355081D01*
Y777460D01*
X1352541Y780000D01*
X1355081Y782540D01*
Y785080D01*
X1352541D01*
X1350001Y782540D01*
X1347461Y785080D01*
X1344921D01*
Y782540D01*
X1347461Y780000D01*
X1344921Y777460D01*
Y774920D01*
X1334921Y754920D02*
X1337461D01*
X1340001Y757460D01*
X1342541Y754920D01*
X1345081D01*
Y757460D01*
X1342541Y760000D01*
X1345081Y762540D01*
Y765080D01*
X1342541D01*
X1340001Y762540D01*
X1337461Y765080D01*
X1334921D01*
Y762540D01*
X1337461Y760000D01*
X1334921Y757460D01*
Y754920D01*
X1344921Y734920D02*
X1347461D01*
X1350001Y737460D01*
X1352541Y734920D01*
X1355081D01*
Y737460D01*
X1352541Y740000D01*
X1355081Y742540D01*
Y745080D01*
X1352541D01*
X1350001Y742540D01*
X1347461Y745080D01*
X1344921D01*
Y742540D01*
X1347461Y740000D01*
X1344921Y737460D01*
Y734920D01*
X1334921Y714920D02*
X1337461D01*
X1340001Y717460D01*
X1342541Y714920D01*
X1345081D01*
Y717460D01*
X1342541Y720000D01*
X1345081Y722540D01*
Y725080D01*
X1342541D01*
X1340001Y722540D01*
X1337461Y725080D01*
X1334921D01*
Y722540D01*
X1337461Y720000D01*
X1334921Y717460D01*
Y714920D01*
X1324921Y1454921D02*
X1327461D01*
X1330001Y1457461D01*
X1332541Y1454921D01*
X1335081D01*
Y1457461D01*
X1332541Y1460001D01*
X1335081Y1462541D01*
Y1465081D01*
X1332541D01*
X1330001Y1462541D01*
X1327461Y1465081D01*
X1324921D01*
Y1462541D01*
X1327461Y1460001D01*
X1324921Y1457461D01*
Y1454921D01*
X1314921Y1434921D02*
X1317461D01*
X1320001Y1437461D01*
X1322541Y1434921D01*
X1325081D01*
Y1437461D01*
X1322541Y1440001D01*
X1325081Y1442541D01*
Y1445081D01*
X1322541D01*
X1320001Y1442541D01*
X1317461Y1445081D01*
X1314921D01*
Y1442541D01*
X1317461Y1440001D01*
X1314921Y1437461D01*
Y1434921D01*
X1324921Y1334921D02*
X1327461D01*
X1330001Y1337461D01*
X1332541Y1334921D01*
X1335081D01*
Y1337461D01*
X1332541Y1340001D01*
X1335081Y1342541D01*
Y1345081D01*
X1332541D01*
X1330001Y1342541D01*
X1327461Y1345081D01*
X1324921D01*
Y1342541D01*
X1327461Y1340001D01*
X1324921Y1337461D01*
Y1334921D01*
Y1294921D02*
X1327461D01*
X1330001Y1297461D01*
X1332541Y1294921D01*
X1335081D01*
Y1297461D01*
X1332541Y1300001D01*
X1335081Y1302541D01*
Y1305081D01*
X1332541D01*
X1330001Y1302541D01*
X1327461Y1305081D01*
X1324921D01*
Y1302541D01*
X1327461Y1300001D01*
X1324921Y1297461D01*
Y1294921D01*
Y1254921D02*
X1327461D01*
X1330001Y1257461D01*
X1332541Y1254921D01*
X1335081D01*
Y1257461D01*
X1332541Y1260001D01*
X1335081Y1262541D01*
Y1265081D01*
X1332541D01*
X1330001Y1262541D01*
X1327461Y1265081D01*
X1324921D01*
Y1262541D01*
X1327461Y1260001D01*
X1324921Y1257461D01*
Y1254921D01*
X1314921Y1234921D02*
X1317461D01*
X1320001Y1237461D01*
X1322541Y1234921D01*
X1325081D01*
Y1237461D01*
X1322541Y1240001D01*
X1325081Y1242541D01*
Y1245081D01*
X1322541D01*
X1320001Y1242541D01*
X1317461Y1245081D01*
X1314921D01*
Y1242541D01*
X1317461Y1240001D01*
X1314921Y1237461D01*
Y1234921D01*
X1324921Y1214921D02*
X1327461D01*
X1330001Y1217461D01*
X1332541Y1214921D01*
X1335081D01*
Y1217461D01*
X1332541Y1220001D01*
X1335081Y1222541D01*
Y1225081D01*
X1332541D01*
X1330001Y1222541D01*
X1327461Y1225081D01*
X1324921D01*
Y1222541D01*
X1327461Y1220001D01*
X1324921Y1217461D01*
Y1214921D01*
Y1094921D02*
X1327461D01*
X1330001Y1097461D01*
X1332541Y1094921D01*
X1335081D01*
Y1097461D01*
X1332541Y1100001D01*
X1335081Y1102541D01*
Y1105081D01*
X1332541D01*
X1330001Y1102541D01*
X1327461Y1105081D01*
X1324921D01*
Y1102541D01*
X1327461Y1100001D01*
X1324921Y1097461D01*
Y1094921D01*
X1314921Y1074921D02*
X1317461D01*
X1320001Y1077461D01*
X1322541Y1074921D01*
X1325081D01*
Y1077461D01*
X1322541Y1080001D01*
X1325081Y1082541D01*
Y1085081D01*
X1322541D01*
X1320001Y1082541D01*
X1317461Y1085081D01*
X1314921D01*
Y1082541D01*
X1317461Y1080001D01*
X1314921Y1077461D01*
Y1074921D01*
Y1034921D02*
X1317461D01*
X1320001Y1037461D01*
X1322541Y1034921D01*
X1325081D01*
Y1037461D01*
X1322541Y1040001D01*
X1325081Y1042541D01*
Y1045081D01*
X1322541D01*
X1320001Y1042541D01*
X1317461Y1045081D01*
X1314921D01*
Y1042541D01*
X1317461Y1040001D01*
X1314921Y1037461D01*
Y1034921D01*
X1324921Y1014921D02*
X1327461D01*
X1330001Y1017461D01*
X1332541Y1014921D01*
X1335081D01*
Y1017461D01*
X1332541Y1020001D01*
X1335081Y1022541D01*
Y1025081D01*
X1332541D01*
X1330001Y1022541D01*
X1327461Y1025081D01*
X1324921D01*
Y1022541D01*
X1327461Y1020001D01*
X1324921Y1017461D01*
Y1014921D01*
X1314921Y954921D02*
X1317461D01*
X1320001Y957460D01*
X1322541Y954921D01*
X1325081D01*
Y957460D01*
X1322541Y960001D01*
X1325081Y962541D01*
Y965080D01*
X1322541D01*
X1320001Y962541D01*
X1317461Y965080D01*
X1314921D01*
Y962541D01*
X1317461Y960001D01*
X1314921Y957460D01*
Y954921D01*
X1324921Y934921D02*
X1327461D01*
X1330001Y937460D01*
X1332541Y934921D01*
X1335081D01*
Y937460D01*
X1332541Y940001D01*
X1335081Y942541D01*
Y945080D01*
X1332541D01*
X1330001Y942541D01*
X1327461Y945080D01*
X1324921D01*
Y942541D01*
X1327461Y940001D01*
X1324921Y937460D01*
Y934921D01*
X1314921Y914921D02*
X1317461D01*
X1320001Y917460D01*
X1322541Y914921D01*
X1325081D01*
Y917460D01*
X1322541Y920001D01*
X1325081Y922541D01*
Y925080D01*
X1322541D01*
X1320001Y922541D01*
X1317461Y925080D01*
X1314921D01*
Y922541D01*
X1317461Y920001D01*
X1314921Y917460D01*
Y914921D01*
X1324921Y894921D02*
X1327461D01*
X1330001Y897460D01*
X1332541Y894921D01*
X1335081D01*
Y897460D01*
X1332541Y900001D01*
X1335081Y902541D01*
Y905080D01*
X1332541D01*
X1330001Y902541D01*
X1327461Y905080D01*
X1324921D01*
Y902541D01*
X1327461Y900001D01*
X1324921Y897460D01*
Y894921D01*
Y814920D02*
X1327461D01*
X1330001Y817460D01*
X1332541Y814920D01*
X1335081D01*
Y817460D01*
X1332541Y820000D01*
X1335081Y822540D01*
Y825080D01*
X1332541D01*
X1330001Y822540D01*
X1327461Y825080D01*
X1324921D01*
Y822540D01*
X1327461Y820000D01*
X1324921Y817460D01*
Y814920D01*
Y774920D02*
X1327461D01*
X1330001Y777460D01*
X1332541Y774920D01*
X1335081D01*
Y777460D01*
X1332541Y780000D01*
X1335081Y782540D01*
Y785080D01*
X1332541D01*
X1330001Y782540D01*
X1327461Y785080D01*
X1324921D01*
Y782540D01*
X1327461Y780000D01*
X1324921Y777460D01*
Y774920D01*
X1314921Y754920D02*
X1317461D01*
X1320001Y757460D01*
X1322541Y754920D01*
X1325081D01*
Y757460D01*
X1322541Y760000D01*
X1325081Y762540D01*
Y765080D01*
X1322541D01*
X1320001Y762540D01*
X1317461Y765080D01*
X1314921D01*
Y762540D01*
X1317461Y760000D01*
X1314921Y757460D01*
Y754920D01*
X1324921Y734920D02*
X1327461D01*
X1330001Y737460D01*
X1332541Y734920D01*
X1335081D01*
Y737460D01*
X1332541Y740000D01*
X1335081Y742540D01*
Y745080D01*
X1332541D01*
X1330001Y742540D01*
X1327461Y745080D01*
X1324921D01*
Y742540D01*
X1327461Y740000D01*
X1324921Y737460D01*
Y734920D01*
X1314921Y714920D02*
X1317461D01*
X1320001Y717460D01*
X1322541Y714920D01*
X1325081D01*
Y717460D01*
X1322541Y720000D01*
X1325081Y722540D01*
Y725080D01*
X1322541D01*
X1320001Y722540D01*
X1317461Y725080D01*
X1314921D01*
Y722540D01*
X1317461Y720000D01*
X1314921Y717460D01*
Y714920D01*
X1294921Y1474921D02*
X1297461D01*
X1300001Y1477461D01*
X1302541Y1474921D01*
X1305081D01*
Y1477461D01*
X1302541Y1480001D01*
X1305081Y1482541D01*
Y1485081D01*
X1302541D01*
X1300001Y1482541D01*
X1297461Y1485081D01*
X1294921D01*
Y1482541D01*
X1297461Y1480001D01*
X1294921Y1477461D01*
Y1474921D01*
X1304921Y1454921D02*
X1307461D01*
X1310001Y1457461D01*
X1312541Y1454921D01*
X1315081D01*
Y1457461D01*
X1312541Y1460001D01*
X1315081Y1462541D01*
Y1465081D01*
X1312541D01*
X1310001Y1462541D01*
X1307461Y1465081D01*
X1304921D01*
Y1462541D01*
X1307461Y1460001D01*
X1304921Y1457461D01*
Y1454921D01*
Y1414921D02*
X1307461D01*
X1310001Y1417461D01*
X1312541Y1414921D01*
X1315081D01*
Y1417461D01*
X1312541Y1420001D01*
X1315081Y1422541D01*
Y1425081D01*
X1312541D01*
X1310001Y1422541D01*
X1307461Y1425081D01*
X1304921D01*
Y1422541D01*
X1307461Y1420001D01*
X1304921Y1417461D01*
Y1414921D01*
Y1294921D02*
X1307461D01*
X1310001Y1297461D01*
X1312541Y1294921D01*
X1315081D01*
Y1297461D01*
X1312541Y1300001D01*
X1315081Y1302541D01*
Y1305081D01*
X1312541D01*
X1310001Y1302541D01*
X1307461Y1305081D01*
X1304921D01*
Y1302541D01*
X1307461Y1300001D01*
X1304921Y1297461D01*
Y1294921D01*
X1294921Y1274921D02*
X1297461D01*
X1300001Y1277461D01*
X1302541Y1274921D01*
X1305081D01*
Y1277461D01*
X1302541Y1280001D01*
X1305081Y1282541D01*
Y1285081D01*
X1302541D01*
X1300001Y1282541D01*
X1297461Y1285081D01*
X1294921D01*
Y1282541D01*
X1297461Y1280001D01*
X1294921Y1277461D01*
Y1274921D01*
X1304921Y1254921D02*
X1307461D01*
X1310001Y1257461D01*
X1312541Y1254921D01*
X1315081D01*
Y1257461D01*
X1312541Y1260001D01*
X1315081Y1262541D01*
Y1265081D01*
X1312541D01*
X1310001Y1262541D01*
X1307461Y1265081D01*
X1304921D01*
Y1262541D01*
X1307461Y1260001D01*
X1304921Y1257461D01*
Y1254921D01*
Y934921D02*
X1307461D01*
X1310001Y937460D01*
X1312541Y934921D01*
X1315081D01*
Y937460D01*
X1312541Y940001D01*
X1315081Y942541D01*
Y945080D01*
X1312541D01*
X1310001Y942541D01*
X1307461Y945080D01*
X1304921D01*
Y942541D01*
X1307461Y940001D01*
X1304921Y937460D01*
Y934921D01*
X1294921Y914921D02*
X1297461D01*
X1300001Y917460D01*
X1302541Y914921D01*
X1305081D01*
Y917460D01*
X1302541Y920001D01*
X1305081Y922541D01*
Y925080D01*
X1302541D01*
X1300001Y922541D01*
X1297461Y925080D01*
X1294921D01*
Y922541D01*
X1297461Y920001D01*
X1294921Y917460D01*
Y914921D01*
X1304921Y894921D02*
X1307461D01*
X1310001Y897460D01*
X1312541Y894921D01*
X1315081D01*
Y897460D01*
X1312541Y900001D01*
X1315081Y902541D01*
Y905080D01*
X1312541D01*
X1310001Y902541D01*
X1307461Y905080D01*
X1304921D01*
Y902541D01*
X1307461Y900001D01*
X1304921Y897460D01*
Y894921D01*
Y774920D02*
X1307461D01*
X1310001Y777460D01*
X1312541Y774920D01*
X1315081D01*
Y777460D01*
X1312541Y780000D01*
X1315081Y782540D01*
Y785080D01*
X1312541D01*
X1310001Y782540D01*
X1307461Y785080D01*
X1304921D01*
Y782540D01*
X1307461Y780000D01*
X1304921Y777460D01*
Y774920D01*
X1294921Y754920D02*
X1297461D01*
X1300001Y757460D01*
X1302541Y754920D01*
X1305081D01*
Y757460D01*
X1302541Y760000D01*
X1305081Y762540D01*
Y765080D01*
X1302541D01*
X1300001Y762540D01*
X1297461Y765080D01*
X1294921D01*
Y762540D01*
X1297461Y760000D01*
X1294921Y757460D01*
Y754920D01*
X1304921Y734920D02*
X1307461D01*
X1310001Y737460D01*
X1312541Y734920D01*
X1315081D01*
Y737460D01*
X1312541Y740000D01*
X1315081Y742540D01*
Y745080D01*
X1312541D01*
X1310001Y742540D01*
X1307461Y745080D01*
X1304921D01*
Y742540D01*
X1307461Y740000D01*
X1304921Y737460D01*
Y734920D01*
X1294921Y714920D02*
X1297461D01*
X1300001Y717460D01*
X1302541Y714920D01*
X1305081D01*
Y717460D01*
X1302541Y720000D01*
X1305081Y722540D01*
Y725080D01*
X1302541D01*
X1300001Y722540D01*
X1297461Y725080D01*
X1294921D01*
Y722540D01*
X1297461Y720000D01*
X1294921Y717460D01*
Y714920D01*
X1284921Y1494921D02*
X1287461D01*
X1290001Y1497461D01*
X1292541Y1494921D01*
X1295081D01*
Y1497461D01*
X1292541Y1500001D01*
X1295081Y1502541D01*
Y1505081D01*
X1292541D01*
X1290001Y1502541D01*
X1287461Y1505081D01*
X1284921D01*
Y1502541D01*
X1287461Y1500001D01*
X1284921Y1497461D01*
Y1494921D01*
X1274921Y1474921D02*
X1277461D01*
X1280001Y1477461D01*
X1282541Y1474921D01*
X1285081D01*
Y1477461D01*
X1282541Y1480001D01*
X1285081Y1482541D01*
Y1485081D01*
X1282541D01*
X1280001Y1482541D01*
X1277461Y1485081D01*
X1274921D01*
Y1482541D01*
X1277461Y1480001D01*
X1274921Y1477461D01*
Y1474921D01*
X1284921Y1454921D02*
X1287461D01*
X1290001Y1457461D01*
X1292541Y1454921D01*
X1295081D01*
Y1457461D01*
X1292541Y1460001D01*
X1295081Y1462541D01*
Y1465081D01*
X1292541D01*
X1290001Y1462541D01*
X1287461Y1465081D01*
X1284921D01*
Y1462541D01*
X1287461Y1460001D01*
X1284921Y1457461D01*
Y1454921D01*
Y1334921D02*
X1287461D01*
X1290001Y1337461D01*
X1292541Y1334921D01*
X1295081D01*
Y1337461D01*
X1292541Y1340001D01*
X1295081Y1342541D01*
Y1345081D01*
X1292541D01*
X1290001Y1342541D01*
X1287461Y1345081D01*
X1284921D01*
Y1342541D01*
X1287461Y1340001D01*
X1284921Y1337461D01*
Y1334921D01*
Y1294921D02*
X1287461D01*
X1290001Y1297461D01*
X1292541Y1294921D01*
X1295081D01*
Y1297461D01*
X1292541Y1300001D01*
X1295081Y1302541D01*
Y1305081D01*
X1292541D01*
X1290001Y1302541D01*
X1287461Y1305081D01*
X1284921D01*
Y1302541D01*
X1287461Y1300001D01*
X1284921Y1297461D01*
Y1294921D01*
X1274921Y1274921D02*
X1277461D01*
X1280001Y1277461D01*
X1282541Y1274921D01*
X1285081D01*
Y1277461D01*
X1282541Y1280001D01*
X1285081Y1282541D01*
Y1285081D01*
X1282541D01*
X1280001Y1282541D01*
X1277461Y1285081D01*
X1274921D01*
Y1282541D01*
X1277461Y1280001D01*
X1274921Y1277461D01*
Y1274921D01*
Y1194921D02*
X1277461D01*
X1280001Y1197461D01*
X1282541Y1194921D01*
X1285081D01*
Y1197461D01*
X1282541Y1200001D01*
X1285081Y1202541D01*
Y1205081D01*
X1282541D01*
X1280001Y1202541D01*
X1277461Y1205081D01*
X1274921D01*
Y1202541D01*
X1277461Y1200001D01*
X1274921Y1197461D01*
Y1194921D01*
Y1154921D02*
X1277461D01*
X1280001Y1157461D01*
X1282541Y1154921D01*
X1285081D01*
Y1157461D01*
X1282541Y1160001D01*
X1285081Y1162541D01*
Y1165081D01*
X1282541D01*
X1280001Y1162541D01*
X1277461Y1165081D01*
X1274921D01*
Y1162541D01*
X1277461Y1160001D01*
X1274921Y1157461D01*
Y1154921D01*
Y1114921D02*
X1277461D01*
X1280001Y1117461D01*
X1282541Y1114921D01*
X1285081D01*
Y1117461D01*
X1282541Y1120001D01*
X1285081Y1122541D01*
Y1125081D01*
X1282541D01*
X1280001Y1122541D01*
X1277461Y1125081D01*
X1274921D01*
Y1122541D01*
X1277461Y1120001D01*
X1274921Y1117461D01*
Y1114921D01*
X1284921Y1094921D02*
X1287461D01*
X1290001Y1097461D01*
X1292541Y1094921D01*
X1295081D01*
Y1097461D01*
X1292541Y1100001D01*
X1295081Y1102541D01*
Y1105081D01*
X1292541D01*
X1290001Y1102541D01*
X1287461Y1105081D01*
X1284921D01*
Y1102541D01*
X1287461Y1100001D01*
X1284921Y1097461D01*
Y1094921D01*
X1274921Y914921D02*
X1277461D01*
X1280001Y917460D01*
X1282541Y914921D01*
X1285081D01*
Y917460D01*
X1282541Y920001D01*
X1285081Y922541D01*
Y925080D01*
X1282541D01*
X1280001Y922541D01*
X1277461Y925080D01*
X1274921D01*
Y922541D01*
X1277461Y920001D01*
X1274921Y917460D01*
Y914921D01*
X1284921Y894921D02*
X1287461D01*
X1290001Y897460D01*
X1292541Y894921D01*
X1295081D01*
Y897460D01*
X1292541Y900001D01*
X1295081Y902541D01*
Y905080D01*
X1292541D01*
X1290001Y902541D01*
X1287461Y905080D01*
X1284921D01*
Y902541D01*
X1287461Y900001D01*
X1284921Y897460D01*
Y894921D01*
Y774920D02*
X1287461D01*
X1290001Y777460D01*
X1292541Y774920D01*
X1295081D01*
Y777460D01*
X1292541Y780000D01*
X1295081Y782540D01*
Y785080D01*
X1292541D01*
X1290001Y782540D01*
X1287461Y785080D01*
X1284921D01*
Y782540D01*
X1287461Y780000D01*
X1284921Y777460D01*
Y774920D01*
X1274921Y754920D02*
X1277461D01*
X1280001Y757460D01*
X1282541Y754920D01*
X1285081D01*
Y757460D01*
X1282541Y760000D01*
X1285081Y762540D01*
Y765080D01*
X1282541D01*
X1280001Y762540D01*
X1277461Y765080D01*
X1274921D01*
Y762540D01*
X1277461Y760000D01*
X1274921Y757460D01*
Y754920D01*
X1284921Y734920D02*
X1287461D01*
X1290001Y737460D01*
X1292541Y734920D01*
X1295081D01*
Y737460D01*
X1292541Y740000D01*
X1295081Y742540D01*
Y745080D01*
X1292541D01*
X1290001Y742540D01*
X1287461Y745080D01*
X1284921D01*
Y742540D01*
X1287461Y740000D01*
X1284921Y737460D01*
Y734920D01*
X1274921Y714920D02*
X1277461D01*
X1280001Y717460D01*
X1282541Y714920D01*
X1285081D01*
Y717460D01*
X1282541Y720000D01*
X1285081Y722540D01*
Y725080D01*
X1282541D01*
X1280001Y722540D01*
X1277461Y725080D01*
X1274921D01*
Y722540D01*
X1277461Y720000D01*
X1274921Y717460D01*
Y714920D01*
X1264921Y1494921D02*
X1267461D01*
X1270001Y1497461D01*
X1272541Y1494921D01*
X1275081D01*
Y1497461D01*
X1272541Y1500001D01*
X1275081Y1502541D01*
Y1505081D01*
X1272541D01*
X1270001Y1502541D01*
X1267461Y1505081D01*
X1264921D01*
Y1502541D01*
X1267461Y1500001D01*
X1264921Y1497461D01*
Y1494921D01*
X1254921Y1474921D02*
X1257461D01*
X1260001Y1477461D01*
X1262541Y1474921D01*
X1265081D01*
Y1477461D01*
X1262541Y1480001D01*
X1265081Y1482541D01*
Y1485081D01*
X1262541D01*
X1260001Y1482541D01*
X1257461Y1485081D01*
X1254921D01*
Y1482541D01*
X1257461Y1480001D01*
X1254921Y1477461D01*
Y1474921D01*
X1264921Y1454921D02*
X1267461D01*
X1270001Y1457461D01*
X1272541Y1454921D01*
X1275081D01*
Y1457461D01*
X1272541Y1460001D01*
X1275081Y1462541D01*
Y1465081D01*
X1272541D01*
X1270001Y1462541D01*
X1267461Y1465081D01*
X1264921D01*
Y1462541D01*
X1267461Y1460001D01*
X1264921Y1457461D01*
Y1454921D01*
Y1254921D02*
X1267461D01*
X1270001Y1257461D01*
X1272541Y1254921D01*
X1275081D01*
Y1257461D01*
X1272541Y1260001D01*
X1275081Y1262541D01*
Y1265081D01*
X1272541D01*
X1270001Y1262541D01*
X1267461Y1265081D01*
X1264921D01*
Y1262541D01*
X1267461Y1260001D01*
X1264921Y1257461D01*
Y1254921D01*
Y1214921D02*
X1267461D01*
X1270001Y1217461D01*
X1272541Y1214921D01*
X1275081D01*
Y1217461D01*
X1272541Y1220001D01*
X1275081Y1222541D01*
Y1225081D01*
X1272541D01*
X1270001Y1222541D01*
X1267461Y1225081D01*
X1264921D01*
Y1222541D01*
X1267461Y1220001D01*
X1264921Y1217461D01*
Y1214921D01*
X1254921Y1154921D02*
X1257461D01*
X1260001Y1157461D01*
X1262541Y1154921D01*
X1265081D01*
Y1157461D01*
X1262541Y1160001D01*
X1265081Y1162541D01*
Y1165081D01*
X1262541D01*
X1260001Y1162541D01*
X1257461Y1165081D01*
X1254921D01*
Y1162541D01*
X1257461Y1160001D01*
X1254921Y1157461D01*
Y1154921D01*
Y1074921D02*
X1257461D01*
X1260001Y1077461D01*
X1262541Y1074921D01*
X1265081D01*
Y1077461D01*
X1262541Y1080001D01*
X1265081Y1082541D01*
Y1085081D01*
X1262541D01*
X1260001Y1082541D01*
X1257461Y1085081D01*
X1254921D01*
Y1082541D01*
X1257461Y1080001D01*
X1254921Y1077461D01*
Y1074921D01*
Y994921D02*
X1257461D01*
X1260001Y997460D01*
X1262541Y994921D01*
X1265081D01*
Y997460D01*
X1262541Y1000001D01*
X1265081Y1002541D01*
Y1005080D01*
X1262541D01*
X1260001Y1002541D01*
X1257461Y1005080D01*
X1254921D01*
Y1002541D01*
X1257461Y1000001D01*
X1254921Y997460D01*
Y994921D01*
Y914921D02*
X1257461D01*
X1260001Y917460D01*
X1262541Y914921D01*
X1265081D01*
Y917460D01*
X1262541Y920001D01*
X1265081Y922541D01*
Y925080D01*
X1262541D01*
X1260001Y922541D01*
X1257461Y925080D01*
X1254921D01*
Y922541D01*
X1257461Y920001D01*
X1254921Y917460D01*
Y914921D01*
X1264921Y894921D02*
X1267461D01*
X1270001Y897460D01*
X1272541Y894921D01*
X1275081D01*
Y897460D01*
X1272541Y900001D01*
X1275081Y902541D01*
Y905080D01*
X1272541D01*
X1270001Y902541D01*
X1267461Y905080D01*
X1264921D01*
Y902541D01*
X1267461Y900001D01*
X1264921Y897460D01*
Y894921D01*
X1254921Y874921D02*
X1257461D01*
X1260001Y877460D01*
X1262541Y874921D01*
X1265081D01*
Y877460D01*
X1262541Y880001D01*
X1265081Y882541D01*
Y885080D01*
X1262541D01*
X1260001Y882541D01*
X1257461Y885080D01*
X1254921D01*
Y882541D01*
X1257461Y880001D01*
X1254921Y877460D01*
Y874921D01*
X1264921Y814920D02*
X1267461D01*
X1270001Y817460D01*
X1272541Y814920D01*
X1275081D01*
Y817460D01*
X1272541Y820000D01*
X1275081Y822540D01*
Y825080D01*
X1272541D01*
X1270001Y822540D01*
X1267461Y825080D01*
X1264921D01*
Y822540D01*
X1267461Y820000D01*
X1264921Y817460D01*
Y814920D01*
Y774920D02*
X1267461D01*
X1270001Y777460D01*
X1272541Y774920D01*
X1275081D01*
Y777460D01*
X1272541Y780000D01*
X1275081Y782540D01*
Y785080D01*
X1272541D01*
X1270001Y782540D01*
X1267461Y785080D01*
X1264921D01*
Y782540D01*
X1267461Y780000D01*
X1264921Y777460D01*
Y774920D01*
X1254921Y754920D02*
X1257461D01*
X1260001Y757460D01*
X1262541Y754920D01*
X1265081D01*
Y757460D01*
X1262541Y760000D01*
X1265081Y762540D01*
Y765080D01*
X1262541D01*
X1260001Y762540D01*
X1257461Y765080D01*
X1254921D01*
Y762540D01*
X1257461Y760000D01*
X1254921Y757460D01*
Y754920D01*
X1264921Y734920D02*
X1267461D01*
X1270001Y737460D01*
X1272541Y734920D01*
X1275081D01*
Y737460D01*
X1272541Y740000D01*
X1275081Y742540D01*
Y745080D01*
X1272541D01*
X1270001Y742540D01*
X1267461Y745080D01*
X1264921D01*
Y742540D01*
X1267461Y740000D01*
X1264921Y737460D01*
Y734920D01*
X1254921Y714920D02*
X1257461D01*
X1260001Y717460D01*
X1262541Y714920D01*
X1265081D01*
Y717460D01*
X1262541Y720000D01*
X1265081Y722540D01*
Y725080D01*
X1262541D01*
X1260001Y722540D01*
X1257461Y725080D01*
X1254921D01*
Y722540D01*
X1257461Y720000D01*
X1254921Y717460D01*
Y714920D01*
X1244921Y1494921D02*
X1247461D01*
X1250001Y1497461D01*
X1252541Y1494921D01*
X1255081D01*
Y1497461D01*
X1252541Y1500001D01*
X1255081Y1502541D01*
Y1505081D01*
X1252541D01*
X1250001Y1502541D01*
X1247461Y1505081D01*
X1244921D01*
Y1502541D01*
X1247461Y1500001D01*
X1244921Y1497461D01*
Y1494921D01*
X1234921Y1474921D02*
X1237461D01*
X1240001Y1477461D01*
X1242541Y1474921D01*
X1245081D01*
Y1477461D01*
X1242541Y1480001D01*
X1245081Y1482541D01*
Y1485081D01*
X1242541D01*
X1240001Y1482541D01*
X1237461Y1485081D01*
X1234921D01*
Y1482541D01*
X1237461Y1480001D01*
X1234921Y1477461D01*
Y1474921D01*
X1244921Y1454921D02*
X1247461D01*
X1250001Y1457461D01*
X1252541Y1454921D01*
X1255081D01*
Y1457461D01*
X1252541Y1460001D01*
X1255081Y1462541D01*
Y1465081D01*
X1252541D01*
X1250001Y1462541D01*
X1247461Y1465081D01*
X1244921D01*
Y1462541D01*
X1247461Y1460001D01*
X1244921Y1457461D01*
Y1454921D01*
Y1254921D02*
X1247461D01*
X1250001Y1257461D01*
X1252541Y1254921D01*
X1255081D01*
Y1257461D01*
X1252541Y1260001D01*
X1255081Y1262541D01*
Y1265081D01*
X1252541D01*
X1250001Y1262541D01*
X1247461Y1265081D01*
X1244921D01*
Y1262541D01*
X1247461Y1260001D01*
X1244921Y1257461D01*
Y1254921D01*
Y1094921D02*
X1247461D01*
X1250001Y1097461D01*
X1252541Y1094921D01*
X1255081D01*
Y1097461D01*
X1252541Y1100001D01*
X1255081Y1102541D01*
Y1105081D01*
X1252541D01*
X1250001Y1102541D01*
X1247461Y1105081D01*
X1244921D01*
Y1102541D01*
X1247461Y1100001D01*
X1244921Y1097461D01*
Y1094921D01*
Y1014921D02*
X1247461D01*
X1250001Y1017461D01*
X1252541Y1014921D01*
X1255081D01*
Y1017461D01*
X1252541Y1020001D01*
X1255081Y1022541D01*
Y1025081D01*
X1252541D01*
X1250001Y1022541D01*
X1247461Y1025081D01*
X1244921D01*
Y1022541D01*
X1247461Y1020001D01*
X1244921Y1017461D01*
Y1014921D01*
X1234921Y874921D02*
X1237461D01*
X1240001Y877460D01*
X1242541Y874921D01*
X1245081D01*
Y877460D01*
X1242541Y880001D01*
X1245081Y882541D01*
Y885080D01*
X1242541D01*
X1240001Y882541D01*
X1237461Y885080D01*
X1234921D01*
Y882541D01*
X1237461Y880001D01*
X1234921Y877460D01*
Y874921D01*
X1244921Y814920D02*
X1247461D01*
X1250001Y817460D01*
X1252541Y814920D01*
X1255081D01*
Y817460D01*
X1252541Y820000D01*
X1255081Y822540D01*
Y825080D01*
X1252541D01*
X1250001Y822540D01*
X1247461Y825080D01*
X1244921D01*
Y822540D01*
X1247461Y820000D01*
X1244921Y817460D01*
Y814920D01*
Y774920D02*
X1247461D01*
X1250001Y777460D01*
X1252541Y774920D01*
X1255081D01*
Y777460D01*
X1252541Y780000D01*
X1255081Y782540D01*
Y785080D01*
X1252541D01*
X1250001Y782540D01*
X1247461Y785080D01*
X1244921D01*
Y782540D01*
X1247461Y780000D01*
X1244921Y777460D01*
Y774920D01*
X1234921Y754920D02*
X1237461D01*
X1240001Y757460D01*
X1242541Y754920D01*
X1245081D01*
Y757460D01*
X1242541Y760000D01*
X1245081Y762540D01*
Y765080D01*
X1242541D01*
X1240001Y762540D01*
X1237461Y765080D01*
X1234921D01*
Y762540D01*
X1237461Y760000D01*
X1234921Y757460D01*
Y754920D01*
X1244921Y734920D02*
X1247461D01*
X1250001Y737460D01*
X1252541Y734920D01*
X1255081D01*
Y737460D01*
X1252541Y740000D01*
X1255081Y742540D01*
Y745080D01*
X1252541D01*
X1250001Y742540D01*
X1247461Y745080D01*
X1244921D01*
Y742540D01*
X1247461Y740000D01*
X1244921Y737460D01*
Y734920D01*
X1234921Y714920D02*
X1237461D01*
X1240001Y717460D01*
X1242541Y714920D01*
X1245081D01*
Y717460D01*
X1242541Y720000D01*
X1245081Y722540D01*
Y725080D01*
X1242541D01*
X1240001Y722540D01*
X1237461Y725080D01*
X1234921D01*
Y722540D01*
X1237461Y720000D01*
X1234921Y717460D01*
Y714920D01*
X1224921Y1494921D02*
X1227461D01*
X1230001Y1497461D01*
X1232541Y1494921D01*
X1235081D01*
Y1497461D01*
X1232541Y1500001D01*
X1235081Y1502541D01*
Y1505081D01*
X1232541D01*
X1230001Y1502541D01*
X1227461Y1505081D01*
X1224921D01*
Y1502541D01*
X1227461Y1500001D01*
X1224921Y1497461D01*
Y1494921D01*
X1214921Y1474921D02*
X1217461D01*
X1220001Y1477461D01*
X1222541Y1474921D01*
X1225081D01*
Y1477461D01*
X1222541Y1480001D01*
X1225081Y1482541D01*
Y1485081D01*
X1222541D01*
X1220001Y1482541D01*
X1217461Y1485081D01*
X1214921D01*
Y1482541D01*
X1217461Y1480001D01*
X1214921Y1477461D01*
Y1474921D01*
X1224921Y1454921D02*
X1227461D01*
X1230001Y1457461D01*
X1232541Y1454921D01*
X1235081D01*
Y1457461D01*
X1232541Y1460001D01*
X1235081Y1462541D01*
Y1465081D01*
X1232541D01*
X1230001Y1462541D01*
X1227461Y1465081D01*
X1224921D01*
Y1462541D01*
X1227461Y1460001D01*
X1224921Y1457461D01*
Y1454921D01*
Y894921D02*
X1227461D01*
X1230001Y897460D01*
X1232541Y894921D01*
X1235081D01*
Y897460D01*
X1232541Y900001D01*
X1235081Y902541D01*
Y905080D01*
X1232541D01*
X1230001Y902541D01*
X1227461Y905080D01*
X1224921D01*
Y902541D01*
X1227461Y900001D01*
X1224921Y897460D01*
Y894921D01*
Y814920D02*
X1227461D01*
X1230001Y817460D01*
X1232541Y814920D01*
X1235081D01*
Y817460D01*
X1232541Y820000D01*
X1235081Y822540D01*
Y825080D01*
X1232541D01*
X1230001Y822540D01*
X1227461Y825080D01*
X1224921D01*
Y822540D01*
X1227461Y820000D01*
X1224921Y817460D01*
Y814920D01*
Y774920D02*
X1227461D01*
X1230001Y777460D01*
X1232541Y774920D01*
X1235081D01*
Y777460D01*
X1232541Y780000D01*
X1235081Y782540D01*
Y785080D01*
X1232541D01*
X1230001Y782540D01*
X1227461Y785080D01*
X1224921D01*
Y782540D01*
X1227461Y780000D01*
X1224921Y777460D01*
Y774920D01*
X1214921Y754920D02*
X1217461D01*
X1220001Y757460D01*
X1222541Y754920D01*
X1225081D01*
Y757460D01*
X1222541Y760000D01*
X1225081Y762540D01*
Y765080D01*
X1222541D01*
X1220001Y762540D01*
X1217461Y765080D01*
X1214921D01*
Y762540D01*
X1217461Y760000D01*
X1214921Y757460D01*
Y754920D01*
X1224921Y734920D02*
X1227461D01*
X1230001Y737460D01*
X1232541Y734920D01*
X1235081D01*
Y737460D01*
X1232541Y740000D01*
X1235081Y742540D01*
Y745080D01*
X1232541D01*
X1230001Y742540D01*
X1227461Y745080D01*
X1224921D01*
Y742540D01*
X1227461Y740000D01*
X1224921Y737460D01*
Y734920D01*
X1214921Y714920D02*
X1217461D01*
X1220001Y717460D01*
X1222541Y714920D01*
X1225081D01*
Y717460D01*
X1222541Y720000D01*
X1225081Y722540D01*
Y725080D01*
X1222541D01*
X1220001Y722540D01*
X1217461Y725080D01*
X1214921D01*
Y722540D01*
X1217461Y720000D01*
X1214921Y717460D01*
Y714920D01*
X1204921Y1494921D02*
X1207461D01*
X1210001Y1497461D01*
X1212541Y1494921D01*
X1215081D01*
Y1497461D01*
X1212541Y1500001D01*
X1215081Y1502541D01*
Y1505081D01*
X1212541D01*
X1210001Y1502541D01*
X1207461Y1505081D01*
X1204921D01*
Y1502541D01*
X1207461Y1500001D01*
X1204921Y1497461D01*
Y1494921D01*
X1194921Y1474921D02*
X1197461D01*
X1200001Y1477461D01*
X1202541Y1474921D01*
X1205081D01*
Y1477461D01*
X1202541Y1480001D01*
X1205081Y1482541D01*
Y1485081D01*
X1202541D01*
X1200001Y1482541D01*
X1197461Y1485081D01*
X1194921D01*
Y1482541D01*
X1197461Y1480001D01*
X1194921Y1477461D01*
Y1474921D01*
X1204921Y1454921D02*
X1207461D01*
X1210001Y1457461D01*
X1212541Y1454921D01*
X1215081D01*
Y1457461D01*
X1212541Y1460001D01*
X1215081Y1462541D01*
Y1465081D01*
X1212541D01*
X1210001Y1462541D01*
X1207461Y1465081D01*
X1204921D01*
Y1462541D01*
X1207461Y1460001D01*
X1204921Y1457461D01*
Y1454921D01*
X1194921Y1314921D02*
X1197461D01*
X1200001Y1317461D01*
X1202541Y1314921D01*
X1205081D01*
Y1317461D01*
X1202541Y1320001D01*
X1205081Y1322541D01*
Y1325081D01*
X1202541D01*
X1200001Y1322541D01*
X1197461Y1325081D01*
X1194921D01*
Y1322541D01*
X1197461Y1320001D01*
X1194921Y1317461D01*
Y1314921D01*
X1204921Y1174921D02*
X1207461D01*
X1210001Y1177461D01*
X1212541Y1174921D01*
X1215081D01*
Y1177461D01*
X1212541Y1180001D01*
X1215081Y1182541D01*
Y1185081D01*
X1212541D01*
X1210001Y1182541D01*
X1207461Y1185081D01*
X1204921D01*
Y1182541D01*
X1207461Y1180001D01*
X1204921Y1177461D01*
Y1174921D01*
Y1134921D02*
X1207461D01*
X1210001Y1137461D01*
X1212541Y1134921D01*
X1215081D01*
Y1137461D01*
X1212541Y1140001D01*
X1215081Y1142541D01*
Y1145081D01*
X1212541D01*
X1210001Y1142541D01*
X1207461Y1145081D01*
X1204921D01*
Y1142541D01*
X1207461Y1140001D01*
X1204921Y1137461D01*
Y1134921D01*
Y1054921D02*
X1207461D01*
X1210001Y1057461D01*
X1212541Y1054921D01*
X1215081D01*
Y1057461D01*
X1212541Y1060001D01*
X1215081Y1062541D01*
Y1065081D01*
X1212541D01*
X1210001Y1062541D01*
X1207461Y1065081D01*
X1204921D01*
Y1062541D01*
X1207461Y1060001D01*
X1204921Y1057461D01*
Y1054921D01*
Y894921D02*
X1207461D01*
X1210001Y897460D01*
X1212541Y894921D01*
X1215081D01*
Y897460D01*
X1212541Y900001D01*
X1215081Y902541D01*
Y905080D01*
X1212541D01*
X1210001Y902541D01*
X1207461Y905080D01*
X1204921D01*
Y902541D01*
X1207461Y900001D01*
X1204921Y897460D01*
Y894921D01*
Y854921D02*
X1207461D01*
X1210001Y857460D01*
X1212541Y854921D01*
X1215081D01*
Y857460D01*
X1212541Y860001D01*
X1215081Y862541D01*
Y865080D01*
X1212541D01*
X1210001Y862541D01*
X1207461Y865080D01*
X1204921D01*
Y862541D01*
X1207461Y860001D01*
X1204921Y857460D01*
Y854921D01*
Y814920D02*
X1207461D01*
X1210001Y817460D01*
X1212541Y814920D01*
X1215081D01*
Y817460D01*
X1212541Y820000D01*
X1215081Y822540D01*
Y825080D01*
X1212541D01*
X1210001Y822540D01*
X1207461Y825080D01*
X1204921D01*
Y822540D01*
X1207461Y820000D01*
X1204921Y817460D01*
Y814920D01*
Y774920D02*
X1207461D01*
X1210001Y777460D01*
X1212541Y774920D01*
X1215081D01*
Y777460D01*
X1212541Y780000D01*
X1215081Y782540D01*
Y785080D01*
X1212541D01*
X1210001Y782540D01*
X1207461Y785080D01*
X1204921D01*
Y782540D01*
X1207461Y780000D01*
X1204921Y777460D01*
Y774920D01*
X1194921Y754920D02*
X1197461D01*
X1200001Y757460D01*
X1202541Y754920D01*
X1205081D01*
Y757460D01*
X1202541Y760000D01*
X1205081Y762540D01*
Y765080D01*
X1202541D01*
X1200001Y762540D01*
X1197461Y765080D01*
X1194921D01*
Y762540D01*
X1197461Y760000D01*
X1194921Y757460D01*
Y754920D01*
X1204921Y734920D02*
X1207461D01*
X1210001Y737460D01*
X1212541Y734920D01*
X1215081D01*
Y737460D01*
X1212541Y740000D01*
X1215081Y742540D01*
Y745080D01*
X1212541D01*
X1210001Y742540D01*
X1207461Y745080D01*
X1204921D01*
Y742540D01*
X1207461Y740000D01*
X1204921Y737460D01*
Y734920D01*
X1194921Y714920D02*
X1197461D01*
X1200001Y717460D01*
X1202541Y714920D01*
X1205081D01*
Y717460D01*
X1202541Y720000D01*
X1205081Y722540D01*
Y725080D01*
X1202541D01*
X1200001Y722540D01*
X1197461Y725080D01*
X1194921D01*
Y722540D01*
X1197461Y720000D01*
X1194921Y717460D01*
Y714920D01*
X1184921Y1494921D02*
X1187461D01*
X1190001Y1497461D01*
X1192541Y1494921D01*
X1195081D01*
Y1497461D01*
X1192541Y1500001D01*
X1195081Y1502541D01*
Y1505081D01*
X1192541D01*
X1190001Y1502541D01*
X1187461Y1505081D01*
X1184921D01*
Y1502541D01*
X1187461Y1500001D01*
X1184921Y1497461D01*
Y1494921D01*
X1174921Y1474921D02*
X1177461D01*
X1180001Y1477461D01*
X1182541Y1474921D01*
X1185081D01*
Y1477461D01*
X1182541Y1480001D01*
X1185081Y1482541D01*
Y1485081D01*
X1182541D01*
X1180001Y1482541D01*
X1177461Y1485081D01*
X1174921D01*
Y1482541D01*
X1177461Y1480001D01*
X1174921Y1477461D01*
Y1474921D01*
X1184921Y1454921D02*
X1187461D01*
X1190001Y1457461D01*
X1192541Y1454921D01*
X1195081D01*
Y1457461D01*
X1192541Y1460001D01*
X1195081Y1462541D01*
Y1465081D01*
X1192541D01*
X1190001Y1462541D01*
X1187461Y1465081D01*
X1184921D01*
Y1462541D01*
X1187461Y1460001D01*
X1184921Y1457461D01*
Y1454921D01*
X1174921Y1234921D02*
X1177461D01*
X1180001Y1237461D01*
X1182541Y1234921D01*
X1185081D01*
Y1237461D01*
X1182541Y1240001D01*
X1185081Y1242541D01*
Y1245081D01*
X1182541D01*
X1180001Y1242541D01*
X1177461Y1245081D01*
X1174921D01*
Y1242541D01*
X1177461Y1240001D01*
X1174921Y1237461D01*
Y1234921D01*
Y1154921D02*
X1177461D01*
X1180001Y1157461D01*
X1182541Y1154921D01*
X1185081D01*
Y1157461D01*
X1182541Y1160001D01*
X1185081Y1162541D01*
Y1165081D01*
X1182541D01*
X1180001Y1162541D01*
X1177461Y1165081D01*
X1174921D01*
Y1162541D01*
X1177461Y1160001D01*
X1174921Y1157461D01*
Y1154921D01*
X1184921Y1054921D02*
X1187461D01*
X1190001Y1057461D01*
X1192541Y1054921D01*
X1195081D01*
Y1057461D01*
X1192541Y1060001D01*
X1195081Y1062541D01*
Y1065081D01*
X1192541D01*
X1190001Y1062541D01*
X1187461Y1065081D01*
X1184921D01*
Y1062541D01*
X1187461Y1060001D01*
X1184921Y1057461D01*
Y1054921D01*
X1174921Y1034921D02*
X1177461D01*
X1180001Y1037461D01*
X1182541Y1034921D01*
X1185081D01*
Y1037461D01*
X1182541Y1040001D01*
X1185081Y1042541D01*
Y1045081D01*
X1182541D01*
X1180001Y1042541D01*
X1177461Y1045081D01*
X1174921D01*
Y1042541D01*
X1177461Y1040001D01*
X1174921Y1037461D01*
Y1034921D01*
X1184921Y1014921D02*
X1187461D01*
X1190001Y1017461D01*
X1192541Y1014921D01*
X1195081D01*
Y1017461D01*
X1192541Y1020001D01*
X1195081Y1022541D01*
Y1025081D01*
X1192541D01*
X1190001Y1022541D01*
X1187461Y1025081D01*
X1184921D01*
Y1022541D01*
X1187461Y1020001D01*
X1184921Y1017461D01*
Y1014921D01*
X1174921Y994921D02*
X1177461D01*
X1180001Y997460D01*
X1182541Y994921D01*
X1185081D01*
Y997460D01*
X1182541Y1000001D01*
X1185081Y1002541D01*
Y1005080D01*
X1182541D01*
X1180001Y1002541D01*
X1177461Y1005080D01*
X1174921D01*
Y1002541D01*
X1177461Y1000001D01*
X1174921Y997460D01*
Y994921D01*
Y954921D02*
X1177461D01*
X1180001Y957460D01*
X1182541Y954921D01*
X1185081D01*
Y957460D01*
X1182541Y960001D01*
X1185081Y962541D01*
Y965080D01*
X1182541D01*
X1180001Y962541D01*
X1177461Y965080D01*
X1174921D01*
Y962541D01*
X1177461Y960001D01*
X1174921Y957460D01*
Y954921D01*
Y914921D02*
X1177461D01*
X1180001Y917460D01*
X1182541Y914921D01*
X1185081D01*
Y917460D01*
X1182541Y920001D01*
X1185081Y922541D01*
Y925080D01*
X1182541D01*
X1180001Y922541D01*
X1177461Y925080D01*
X1174921D01*
Y922541D01*
X1177461Y920001D01*
X1174921Y917460D01*
Y914921D01*
X1184921Y894921D02*
X1187461D01*
X1190001Y897460D01*
X1192541Y894921D01*
X1195081D01*
Y897460D01*
X1192541Y900001D01*
X1195081Y902541D01*
Y905080D01*
X1192541D01*
X1190001Y902541D01*
X1187461Y905080D01*
X1184921D01*
Y902541D01*
X1187461Y900001D01*
X1184921Y897460D01*
Y894921D01*
X1174921Y834921D02*
X1177461D01*
X1180001Y837460D01*
X1182541Y834921D01*
X1185081D01*
Y837460D01*
X1182541Y840001D01*
X1185081Y842541D01*
Y845080D01*
X1182541D01*
X1180001Y842541D01*
X1177461Y845080D01*
X1174921D01*
Y842541D01*
X1177461Y840001D01*
X1174921Y837460D01*
Y834921D01*
Y794920D02*
X1177461D01*
X1180001Y797460D01*
X1182541Y794920D01*
X1185081D01*
Y797460D01*
X1182541Y800000D01*
X1185081Y802540D01*
Y805080D01*
X1182541D01*
X1180001Y802540D01*
X1177461Y805080D01*
X1174921D01*
Y802540D01*
X1177461Y800000D01*
X1174921Y797460D01*
Y794920D01*
X1184921Y774920D02*
X1187461D01*
X1190001Y777460D01*
X1192541Y774920D01*
X1195081D01*
Y777460D01*
X1192541Y780000D01*
X1195081Y782540D01*
Y785080D01*
X1192541D01*
X1190001Y782540D01*
X1187461Y785080D01*
X1184921D01*
Y782540D01*
X1187461Y780000D01*
X1184921Y777460D01*
Y774920D01*
X1174921Y754920D02*
X1177461D01*
X1180001Y757460D01*
X1182541Y754920D01*
X1185081D01*
Y757460D01*
X1182541Y760000D01*
X1185081Y762540D01*
Y765080D01*
X1182541D01*
X1180001Y762540D01*
X1177461Y765080D01*
X1174921D01*
Y762540D01*
X1177461Y760000D01*
X1174921Y757460D01*
Y754920D01*
X1184921Y734920D02*
X1187461D01*
X1190001Y737460D01*
X1192541Y734920D01*
X1195081D01*
Y737460D01*
X1192541Y740000D01*
X1195081Y742540D01*
Y745080D01*
X1192541D01*
X1190001Y742540D01*
X1187461Y745080D01*
X1184921D01*
Y742540D01*
X1187461Y740000D01*
X1184921Y737460D01*
Y734920D01*
X1174921Y714920D02*
X1177461D01*
X1180001Y717460D01*
X1182541Y714920D01*
X1185081D01*
Y717460D01*
X1182541Y720000D01*
X1185081Y722540D01*
Y725080D01*
X1182541D01*
X1180001Y722540D01*
X1177461Y725080D01*
X1174921D01*
Y722540D01*
X1177461Y720000D01*
X1174921Y717460D01*
Y714920D01*
X1164921Y1494921D02*
X1167461D01*
X1170001Y1497461D01*
X1172541Y1494921D01*
X1175081D01*
Y1497461D01*
X1172541Y1500001D01*
X1175081Y1502541D01*
Y1505081D01*
X1172541D01*
X1170001Y1502541D01*
X1167461Y1505081D01*
X1164921D01*
Y1502541D01*
X1167461Y1500001D01*
X1164921Y1497461D01*
Y1494921D01*
X1154921Y1474921D02*
X1157461D01*
X1160001Y1477461D01*
X1162541Y1474921D01*
X1165081D01*
Y1477461D01*
X1162541Y1480001D01*
X1165081Y1482541D01*
Y1485081D01*
X1162541D01*
X1160001Y1482541D01*
X1157461Y1485081D01*
X1154921D01*
Y1482541D01*
X1157461Y1480001D01*
X1154921Y1477461D01*
Y1474921D01*
Y1314921D02*
X1157461D01*
X1160001Y1317461D01*
X1162541Y1314921D01*
X1165081D01*
Y1317461D01*
X1162541Y1320001D01*
X1165081Y1322541D01*
Y1325081D01*
X1162541D01*
X1160001Y1322541D01*
X1157461Y1325081D01*
X1154921D01*
Y1322541D01*
X1157461Y1320001D01*
X1154921Y1317461D01*
Y1314921D01*
Y1034921D02*
X1157461D01*
X1160001Y1037461D01*
X1162541Y1034921D01*
X1165081D01*
Y1037461D01*
X1162541Y1040001D01*
X1165081Y1042541D01*
Y1045081D01*
X1162541D01*
X1160001Y1042541D01*
X1157461Y1045081D01*
X1154921D01*
Y1042541D01*
X1157461Y1040001D01*
X1154921Y1037461D01*
Y1034921D01*
Y954921D02*
X1157461D01*
X1160001Y957460D01*
X1162541Y954921D01*
X1165081D01*
Y957460D01*
X1162541Y960001D01*
X1165081Y962541D01*
Y965080D01*
X1162541D01*
X1160001Y962541D01*
X1157461Y965080D01*
X1154921D01*
Y962541D01*
X1157461Y960001D01*
X1154921Y957460D01*
Y954921D01*
Y914921D02*
X1157461D01*
X1160001Y917460D01*
X1162541Y914921D01*
X1165081D01*
Y917460D01*
X1162541Y920001D01*
X1165081Y922541D01*
Y925080D01*
X1162541D01*
X1160001Y922541D01*
X1157461Y925080D01*
X1154921D01*
Y922541D01*
X1157461Y920001D01*
X1154921Y917460D01*
Y914921D01*
Y874921D02*
X1157461D01*
X1160001Y877460D01*
X1162541Y874921D01*
X1165081D01*
Y877460D01*
X1162541Y880001D01*
X1165081Y882541D01*
Y885080D01*
X1162541D01*
X1160001Y882541D01*
X1157461Y885080D01*
X1154921D01*
Y882541D01*
X1157461Y880001D01*
X1154921Y877460D01*
Y874921D01*
Y834921D02*
X1157461D01*
X1160001Y837460D01*
X1162541Y834921D01*
X1165081D01*
Y837460D01*
X1162541Y840001D01*
X1165081Y842541D01*
Y845080D01*
X1162541D01*
X1160001Y842541D01*
X1157461Y845080D01*
X1154921D01*
Y842541D01*
X1157461Y840001D01*
X1154921Y837460D01*
Y834921D01*
X1164921Y814920D02*
X1167461D01*
X1170001Y817460D01*
X1172541Y814920D01*
X1175081D01*
Y817460D01*
X1172541Y820000D01*
X1175081Y822540D01*
Y825080D01*
X1172541D01*
X1170001Y822540D01*
X1167461Y825080D01*
X1164921D01*
Y822540D01*
X1167461Y820000D01*
X1164921Y817460D01*
Y814920D01*
X1154921Y794920D02*
X1157461D01*
X1160001Y797460D01*
X1162541Y794920D01*
X1165081D01*
Y797460D01*
X1162541Y800000D01*
X1165081Y802540D01*
Y805080D01*
X1162541D01*
X1160001Y802540D01*
X1157461Y805080D01*
X1154921D01*
Y802540D01*
X1157461Y800000D01*
X1154921Y797460D01*
Y794920D01*
X1164921Y774920D02*
X1167461D01*
X1170001Y777460D01*
X1172541Y774920D01*
X1175081D01*
Y777460D01*
X1172541Y780000D01*
X1175081Y782540D01*
Y785080D01*
X1172541D01*
X1170001Y782540D01*
X1167461Y785080D01*
X1164921D01*
Y782540D01*
X1167461Y780000D01*
X1164921Y777460D01*
Y774920D01*
X1154921Y754920D02*
X1157461D01*
X1160001Y757460D01*
X1162541Y754920D01*
X1165081D01*
Y757460D01*
X1162541Y760000D01*
X1165081Y762540D01*
Y765080D01*
X1162541D01*
X1160001Y762540D01*
X1157461Y765080D01*
X1154921D01*
Y762540D01*
X1157461Y760000D01*
X1154921Y757460D01*
Y754920D01*
X1164921Y734920D02*
X1167461D01*
X1170001Y737460D01*
X1172541Y734920D01*
X1175081D01*
Y737460D01*
X1172541Y740000D01*
X1175081Y742540D01*
Y745080D01*
X1172541D01*
X1170001Y742540D01*
X1167461Y745080D01*
X1164921D01*
Y742540D01*
X1167461Y740000D01*
X1164921Y737460D01*
Y734920D01*
X1154921Y714920D02*
X1157461D01*
X1160001Y717460D01*
X1162541Y714920D01*
X1165081D01*
Y717460D01*
X1162541Y720000D01*
X1165081Y722540D01*
Y725080D01*
X1162541D01*
X1160001Y722540D01*
X1157461Y725080D01*
X1154921D01*
Y722540D01*
X1157461Y720000D01*
X1154921Y717460D01*
Y714920D01*
X1144921Y1494921D02*
X1147461D01*
X1150001Y1497461D01*
X1152541Y1494921D01*
X1155081D01*
Y1497461D01*
X1152541Y1500001D01*
X1155081Y1502541D01*
Y1505081D01*
X1152541D01*
X1150001Y1502541D01*
X1147461Y1505081D01*
X1144921D01*
Y1502541D01*
X1147461Y1500001D01*
X1144921Y1497461D01*
Y1494921D01*
X1134921Y1474921D02*
X1137461D01*
X1140001Y1477461D01*
X1142541Y1474921D01*
X1145081D01*
Y1477461D01*
X1142541Y1480001D01*
X1145081Y1482541D01*
Y1485081D01*
X1142541D01*
X1140001Y1482541D01*
X1137461Y1485081D01*
X1134921D01*
Y1482541D01*
X1137461Y1480001D01*
X1134921Y1477461D01*
Y1474921D01*
X1144921Y1294921D02*
X1147461D01*
X1150001Y1297461D01*
X1152541Y1294921D01*
X1155081D01*
Y1297461D01*
X1152541Y1300001D01*
X1155081Y1302541D01*
Y1305081D01*
X1152541D01*
X1150001Y1302541D01*
X1147461Y1305081D01*
X1144921D01*
Y1302541D01*
X1147461Y1300001D01*
X1144921Y1297461D01*
Y1294921D01*
X1134921Y874921D02*
X1137461D01*
X1140001Y877460D01*
X1142541Y874921D01*
X1145081D01*
Y877460D01*
X1142541Y880001D01*
X1145081Y882541D01*
Y885080D01*
X1142541D01*
X1140001Y882541D01*
X1137461Y885080D01*
X1134921D01*
Y882541D01*
X1137461Y880001D01*
X1134921Y877460D01*
Y874921D01*
X1144921Y854921D02*
X1147461D01*
X1150001Y857460D01*
X1152541Y854921D01*
X1155081D01*
Y857460D01*
X1152541Y860001D01*
X1155081Y862541D01*
Y865080D01*
X1152541D01*
X1150001Y862541D01*
X1147461Y865080D01*
X1144921D01*
Y862541D01*
X1147461Y860001D01*
X1144921Y857460D01*
Y854921D01*
X1134921Y834921D02*
X1137461D01*
X1140001Y837460D01*
X1142541Y834921D01*
X1145081D01*
Y837460D01*
X1142541Y840001D01*
X1145081Y842541D01*
Y845080D01*
X1142541D01*
X1140001Y842541D01*
X1137461Y845080D01*
X1134921D01*
Y842541D01*
X1137461Y840001D01*
X1134921Y837460D01*
Y834921D01*
X1144921Y814920D02*
X1147461D01*
X1150001Y817460D01*
X1152541Y814920D01*
X1155081D01*
Y817460D01*
X1152541Y820000D01*
X1155081Y822540D01*
Y825080D01*
X1152541D01*
X1150001Y822540D01*
X1147461Y825080D01*
X1144921D01*
Y822540D01*
X1147461Y820000D01*
X1144921Y817460D01*
Y814920D01*
X1134921Y794920D02*
X1137461D01*
X1140001Y797460D01*
X1142541Y794920D01*
X1145081D01*
Y797460D01*
X1142541Y800000D01*
X1145081Y802540D01*
Y805080D01*
X1142541D01*
X1140001Y802540D01*
X1137461Y805080D01*
X1134921D01*
Y802540D01*
X1137461Y800000D01*
X1134921Y797460D01*
Y794920D01*
X1144921Y774920D02*
X1147461D01*
X1150001Y777460D01*
X1152541Y774920D01*
X1155081D01*
Y777460D01*
X1152541Y780000D01*
X1155081Y782540D01*
Y785080D01*
X1152541D01*
X1150001Y782540D01*
X1147461Y785080D01*
X1144921D01*
Y782540D01*
X1147461Y780000D01*
X1144921Y777460D01*
Y774920D01*
X1134921Y754920D02*
X1137461D01*
X1140001Y757460D01*
X1142541Y754920D01*
X1145081D01*
Y757460D01*
X1142541Y760000D01*
X1145081Y762540D01*
Y765080D01*
X1142541D01*
X1140001Y762540D01*
X1137461Y765080D01*
X1134921D01*
Y762540D01*
X1137461Y760000D01*
X1134921Y757460D01*
Y754920D01*
X1144921Y734920D02*
X1147461D01*
X1150001Y737460D01*
X1152541Y734920D01*
X1155081D01*
Y737460D01*
X1152541Y740000D01*
X1155081Y742540D01*
Y745080D01*
X1152541D01*
X1150001Y742540D01*
X1147461Y745080D01*
X1144921D01*
Y742540D01*
X1147461Y740000D01*
X1144921Y737460D01*
Y734920D01*
X1134921Y714920D02*
X1137461D01*
X1140001Y717460D01*
X1142541Y714920D01*
X1145081D01*
Y717460D01*
X1142541Y720000D01*
X1145081Y722540D01*
Y725080D01*
X1142541D01*
X1140001Y722540D01*
X1137461Y725080D01*
X1134921D01*
Y722540D01*
X1137461Y720000D01*
X1134921Y717460D01*
Y714920D01*
X1124921Y1494921D02*
X1127461D01*
X1130001Y1497461D01*
X1132541Y1494921D01*
X1135081D01*
Y1497461D01*
X1132541Y1500001D01*
X1135081Y1502541D01*
Y1505081D01*
X1132541D01*
X1130001Y1502541D01*
X1127461Y1505081D01*
X1124921D01*
Y1502541D01*
X1127461Y1500001D01*
X1124921Y1497461D01*
Y1494921D01*
X1114921Y1474921D02*
X1117461D01*
X1120001Y1477461D01*
X1122541Y1474921D01*
X1125081D01*
Y1477461D01*
X1122541Y1480001D01*
X1125081Y1482541D01*
Y1485081D01*
X1122541D01*
X1120001Y1482541D01*
X1117461Y1485081D01*
X1114921D01*
Y1482541D01*
X1117461Y1480001D01*
X1114921Y1477461D01*
Y1474921D01*
X1124921Y1294921D02*
X1127461D01*
X1130001Y1297461D01*
X1132541Y1294921D01*
X1135081D01*
Y1297461D01*
X1132541Y1300001D01*
X1135081Y1302541D01*
Y1305081D01*
X1132541D01*
X1130001Y1302541D01*
X1127461Y1305081D01*
X1124921D01*
Y1302541D01*
X1127461Y1300001D01*
X1124921Y1297461D01*
Y1294921D01*
X1114921Y1034921D02*
X1117461D01*
X1120001Y1037461D01*
X1122541Y1034921D01*
X1125081D01*
Y1037461D01*
X1122541Y1040001D01*
X1125081Y1042541D01*
Y1045081D01*
X1122541D01*
X1120001Y1042541D01*
X1117461Y1045081D01*
X1114921D01*
Y1042541D01*
X1117461Y1040001D01*
X1114921Y1037461D01*
Y1034921D01*
Y994921D02*
X1117461D01*
X1120001Y997460D01*
X1122541Y994921D01*
X1125081D01*
Y997460D01*
X1122541Y1000001D01*
X1125081Y1002541D01*
Y1005080D01*
X1122541D01*
X1120001Y1002541D01*
X1117461Y1005080D01*
X1114921D01*
Y1002541D01*
X1117461Y1000001D01*
X1114921Y997460D01*
Y994921D01*
Y914921D02*
X1117461D01*
X1120001Y917460D01*
X1122541Y914921D01*
X1125081D01*
Y917460D01*
X1122541Y920001D01*
X1125081Y922541D01*
Y925080D01*
X1122541D01*
X1120001Y922541D01*
X1117461Y925080D01*
X1114921D01*
Y922541D01*
X1117461Y920001D01*
X1114921Y917460D01*
Y914921D01*
X1124921Y894921D02*
X1127461D01*
X1130001Y897460D01*
X1132541Y894921D01*
X1135081D01*
Y897460D01*
X1132541Y900001D01*
X1135081Y902541D01*
Y905080D01*
X1132541D01*
X1130001Y902541D01*
X1127461Y905080D01*
X1124921D01*
Y902541D01*
X1127461Y900001D01*
X1124921Y897460D01*
Y894921D01*
X1114921Y874921D02*
X1117461D01*
X1120001Y877460D01*
X1122541Y874921D01*
X1125081D01*
Y877460D01*
X1122541Y880001D01*
X1125081Y882541D01*
Y885080D01*
X1122541D01*
X1120001Y882541D01*
X1117461Y885080D01*
X1114921D01*
Y882541D01*
X1117461Y880001D01*
X1114921Y877460D01*
Y874921D01*
X1124921Y854921D02*
X1127461D01*
X1130001Y857460D01*
X1132541Y854921D01*
X1135081D01*
Y857460D01*
X1132541Y860001D01*
X1135081Y862541D01*
Y865080D01*
X1132541D01*
X1130001Y862541D01*
X1127461Y865080D01*
X1124921D01*
Y862541D01*
X1127461Y860001D01*
X1124921Y857460D01*
Y854921D01*
X1114921Y754920D02*
X1117461D01*
X1120001Y757460D01*
X1122541Y754920D01*
X1125081D01*
Y757460D01*
X1122541Y760000D01*
X1125081Y762540D01*
Y765080D01*
X1122541D01*
X1120001Y762540D01*
X1117461Y765080D01*
X1114921D01*
Y762540D01*
X1117461Y760000D01*
X1114921Y757460D01*
Y754920D01*
X1124921Y734920D02*
X1127461D01*
X1130001Y737460D01*
X1132541Y734920D01*
X1135081D01*
Y737460D01*
X1132541Y740000D01*
X1135081Y742540D01*
Y745080D01*
X1132541D01*
X1130001Y742540D01*
X1127461Y745080D01*
X1124921D01*
Y742540D01*
X1127461Y740000D01*
X1124921Y737460D01*
Y734920D01*
X1114921Y714920D02*
X1117461D01*
X1120001Y717460D01*
X1122541Y714920D01*
X1125081D01*
Y717460D01*
X1122541Y720000D01*
X1125081Y722540D01*
Y725080D01*
X1122541D01*
X1120001Y722540D01*
X1117461Y725080D01*
X1114921D01*
Y722540D01*
X1117461Y720000D01*
X1114921Y717460D01*
Y714920D01*
X1104921Y1494921D02*
X1107461D01*
X1110001Y1497461D01*
X1112541Y1494921D01*
X1115081D01*
Y1497461D01*
X1112541Y1500001D01*
X1115081Y1502541D01*
Y1505081D01*
X1112541D01*
X1110001Y1502541D01*
X1107461Y1505081D01*
X1104921D01*
Y1502541D01*
X1107461Y1500001D01*
X1104921Y1497461D01*
Y1494921D01*
X1094921Y1474921D02*
X1097461D01*
X1100001Y1477461D01*
X1102541Y1474921D01*
X1105081D01*
Y1477461D01*
X1102541Y1480001D01*
X1105081Y1482541D01*
Y1485081D01*
X1102541D01*
X1100001Y1482541D01*
X1097461Y1485081D01*
X1094921D01*
Y1482541D01*
X1097461Y1480001D01*
X1094921Y1477461D01*
Y1474921D01*
X1104921Y1374921D02*
X1107461D01*
X1110001Y1377461D01*
X1112541Y1374921D01*
X1115081D01*
Y1377461D01*
X1112541Y1380001D01*
X1115081Y1382541D01*
Y1385081D01*
X1112541D01*
X1110001Y1382541D01*
X1107461Y1385081D01*
X1104921D01*
Y1382541D01*
X1107461Y1380001D01*
X1104921Y1377461D01*
Y1374921D01*
X1094921Y1314921D02*
X1097461D01*
X1100001Y1317461D01*
X1102541Y1314921D01*
X1105081D01*
Y1317461D01*
X1102541Y1320001D01*
X1105081Y1322541D01*
Y1325081D01*
X1102541D01*
X1100001Y1322541D01*
X1097461Y1325081D01*
X1094921D01*
Y1322541D01*
X1097461Y1320001D01*
X1094921Y1317461D01*
Y1314921D01*
Y1234921D02*
X1097461D01*
X1100001Y1237461D01*
X1102541Y1234921D01*
X1105081D01*
Y1237461D01*
X1102541Y1240001D01*
X1105081Y1242541D01*
Y1245081D01*
X1102541D01*
X1100001Y1242541D01*
X1097461Y1245081D01*
X1094921D01*
Y1242541D01*
X1097461Y1240001D01*
X1094921Y1237461D01*
Y1234921D01*
Y1154921D02*
X1097461D01*
X1100001Y1157461D01*
X1102541Y1154921D01*
X1105081D01*
Y1157461D01*
X1102541Y1160001D01*
X1105081Y1162541D01*
Y1165081D01*
X1102541D01*
X1100001Y1162541D01*
X1097461Y1165081D01*
X1094921D01*
Y1162541D01*
X1097461Y1160001D01*
X1094921Y1157461D01*
Y1154921D01*
Y914921D02*
X1097461D01*
X1100001Y917460D01*
X1102541Y914921D01*
X1105081D01*
Y917460D01*
X1102541Y920001D01*
X1105081Y922541D01*
Y925080D01*
X1102541D01*
X1100001Y922541D01*
X1097461Y925080D01*
X1094921D01*
Y922541D01*
X1097461Y920001D01*
X1094921Y917460D01*
Y914921D01*
X1104921Y894921D02*
X1107461D01*
X1110001Y897460D01*
X1112541Y894921D01*
X1115081D01*
Y897460D01*
X1112541Y900001D01*
X1115081Y902541D01*
Y905080D01*
X1112541D01*
X1110001Y902541D01*
X1107461Y905080D01*
X1104921D01*
Y902541D01*
X1107461Y900001D01*
X1104921Y897460D01*
Y894921D01*
X1094921Y874921D02*
X1097461D01*
X1100001Y877460D01*
X1102541Y874921D01*
X1105081D01*
Y877460D01*
X1102541Y880001D01*
X1105081Y882541D01*
Y885080D01*
X1102541D01*
X1100001Y882541D01*
X1097461Y885080D01*
X1094921D01*
Y882541D01*
X1097461Y880001D01*
X1094921Y877460D01*
Y874921D01*
X1104921Y854921D02*
X1107461D01*
X1110001Y857460D01*
X1112541Y854921D01*
X1115081D01*
Y857460D01*
X1112541Y860001D01*
X1115081Y862541D01*
Y865080D01*
X1112541D01*
X1110001Y862541D01*
X1107461Y865080D01*
X1104921D01*
Y862541D01*
X1107461Y860001D01*
X1104921Y857460D01*
Y854921D01*
Y734920D02*
X1107461D01*
X1110001Y737460D01*
X1112541Y734920D01*
X1115081D01*
Y737460D01*
X1112541Y740000D01*
X1115081Y742540D01*
Y745080D01*
X1112541D01*
X1110001Y742540D01*
X1107461Y745080D01*
X1104921D01*
Y742540D01*
X1107461Y740000D01*
X1104921Y737460D01*
Y734920D01*
X1094921Y714920D02*
X1097461D01*
X1100001Y717460D01*
X1102541Y714920D01*
X1105081D01*
Y717460D01*
X1102541Y720000D01*
X1105081Y722540D01*
Y725080D01*
X1102541D01*
X1100001Y722540D01*
X1097461Y725080D01*
X1094921D01*
Y722540D01*
X1097461Y720000D01*
X1094921Y717460D01*
Y714920D01*
X1084921Y1494921D02*
X1087461D01*
X1090001Y1497461D01*
X1092541Y1494921D01*
X1095081D01*
Y1497461D01*
X1092541Y1500001D01*
X1095081Y1502541D01*
Y1505081D01*
X1092541D01*
X1090001Y1502541D01*
X1087461Y1505081D01*
X1084921D01*
Y1502541D01*
X1087461Y1500001D01*
X1084921Y1497461D01*
Y1494921D01*
X1074921Y1474921D02*
X1077461D01*
X1080001Y1477461D01*
X1082541Y1474921D01*
X1085081D01*
Y1477461D01*
X1082541Y1480001D01*
X1085081Y1482541D01*
Y1485081D01*
X1082541D01*
X1080001Y1482541D01*
X1077461Y1485081D01*
X1074921D01*
Y1482541D01*
X1077461Y1480001D01*
X1074921Y1477461D01*
Y1474921D01*
Y1314921D02*
X1077461D01*
X1080001Y1317461D01*
X1082541Y1314921D01*
X1085081D01*
Y1317461D01*
X1082541Y1320001D01*
X1085081Y1322541D01*
Y1325081D01*
X1082541D01*
X1080001Y1322541D01*
X1077461Y1325081D01*
X1074921D01*
Y1322541D01*
X1077461Y1320001D01*
X1074921Y1317461D01*
Y1314921D01*
Y1234921D02*
X1077461D01*
X1080001Y1237461D01*
X1082541Y1234921D01*
X1085081D01*
Y1237461D01*
X1082541Y1240001D01*
X1085081Y1242541D01*
Y1245081D01*
X1082541D01*
X1080001Y1242541D01*
X1077461Y1245081D01*
X1074921D01*
Y1242541D01*
X1077461Y1240001D01*
X1074921Y1237461D01*
Y1234921D01*
Y1114921D02*
X1077461D01*
X1080001Y1117461D01*
X1082541Y1114921D01*
X1085081D01*
Y1117461D01*
X1082541Y1120001D01*
X1085081Y1122541D01*
Y1125081D01*
X1082541D01*
X1080001Y1122541D01*
X1077461Y1125081D01*
X1074921D01*
Y1122541D01*
X1077461Y1120001D01*
X1074921Y1117461D01*
Y1114921D01*
X1084921Y854921D02*
X1087461D01*
X1090001Y857460D01*
X1092541Y854921D01*
X1095081D01*
Y857460D01*
X1092541Y860001D01*
X1095081Y862541D01*
Y865080D01*
X1092541D01*
X1090001Y862541D01*
X1087461Y865080D01*
X1084921D01*
Y862541D01*
X1087461Y860001D01*
X1084921Y857460D01*
Y854921D01*
X1074921Y754920D02*
X1077461D01*
X1080001Y757460D01*
X1082541Y754920D01*
X1085081D01*
Y757460D01*
X1082541Y760000D01*
X1085081Y762540D01*
Y765080D01*
X1082541D01*
X1080001Y762540D01*
X1077461Y765080D01*
X1074921D01*
Y762540D01*
X1077461Y760000D01*
X1074921Y757460D01*
Y754920D01*
X1084921Y734920D02*
X1087461D01*
X1090001Y737460D01*
X1092541Y734920D01*
X1095081D01*
Y737460D01*
X1092541Y740000D01*
X1095081Y742540D01*
Y745080D01*
X1092541D01*
X1090001Y742540D01*
X1087461Y745080D01*
X1084921D01*
Y742540D01*
X1087461Y740000D01*
X1084921Y737460D01*
Y734920D01*
X1074921Y714920D02*
X1077461D01*
X1080001Y717460D01*
X1082541Y714920D01*
X1085081D01*
Y717460D01*
X1082541Y720000D01*
X1085081Y722540D01*
Y725080D01*
X1082541D01*
X1080001Y722540D01*
X1077461Y725080D01*
X1074921D01*
Y722540D01*
X1077461Y720000D01*
X1074921Y717460D01*
Y714920D01*
X1064921Y1494921D02*
X1067461D01*
X1070001Y1497461D01*
X1072541Y1494921D01*
X1075081D01*
Y1497461D01*
X1072541Y1500001D01*
X1075081Y1502541D01*
Y1505081D01*
X1072541D01*
X1070001Y1502541D01*
X1067461Y1505081D01*
X1064921D01*
Y1502541D01*
X1067461Y1500001D01*
X1064921Y1497461D01*
Y1494921D01*
X1054921Y1474921D02*
X1057461D01*
X1060001Y1477461D01*
X1062541Y1474921D01*
X1065081D01*
Y1477461D01*
X1062541Y1480001D01*
X1065081Y1482541D01*
Y1485081D01*
X1062541D01*
X1060001Y1482541D01*
X1057461Y1485081D01*
X1054921D01*
Y1482541D01*
X1057461Y1480001D01*
X1054921Y1477461D01*
Y1474921D01*
Y1314921D02*
X1057461D01*
X1060001Y1317461D01*
X1062541Y1314921D01*
X1065081D01*
Y1317461D01*
X1062541Y1320001D01*
X1065081Y1322541D01*
Y1325081D01*
X1062541D01*
X1060001Y1322541D01*
X1057461Y1325081D01*
X1054921D01*
Y1322541D01*
X1057461Y1320001D01*
X1054921Y1317461D01*
Y1314921D01*
X1064921Y1294921D02*
X1067461D01*
X1070001Y1297461D01*
X1072541Y1294921D01*
X1075081D01*
Y1297461D01*
X1072541Y1300001D01*
X1075081Y1302541D01*
Y1305081D01*
X1072541D01*
X1070001Y1302541D01*
X1067461Y1305081D01*
X1064921D01*
Y1302541D01*
X1067461Y1300001D01*
X1064921Y1297461D01*
Y1294921D01*
X1054921Y1274921D02*
X1057461D01*
X1060001Y1277461D01*
X1062541Y1274921D01*
X1065081D01*
Y1277461D01*
X1062541Y1280001D01*
X1065081Y1282541D01*
Y1285081D01*
X1062541D01*
X1060001Y1282541D01*
X1057461Y1285081D01*
X1054921D01*
Y1282541D01*
X1057461Y1280001D01*
X1054921Y1277461D01*
Y1274921D01*
Y1074921D02*
X1057461D01*
X1060001Y1077461D01*
X1062541Y1074921D01*
X1065081D01*
Y1077461D01*
X1062541Y1080001D01*
X1065081Y1082541D01*
Y1085081D01*
X1062541D01*
X1060001Y1082541D01*
X1057461Y1085081D01*
X1054921D01*
Y1082541D01*
X1057461Y1080001D01*
X1054921Y1077461D01*
Y1074921D01*
Y1034921D02*
X1057461D01*
X1060001Y1037461D01*
X1062541Y1034921D01*
X1065081D01*
Y1037461D01*
X1062541Y1040001D01*
X1065081Y1042541D01*
Y1045081D01*
X1062541D01*
X1060001Y1042541D01*
X1057461Y1045081D01*
X1054921D01*
Y1042541D01*
X1057461Y1040001D01*
X1054921Y1037461D01*
Y1034921D01*
X1064921Y854921D02*
X1067461D01*
X1070001Y857460D01*
X1072541Y854921D01*
X1075081D01*
Y857460D01*
X1072541Y860001D01*
X1075081Y862541D01*
Y865080D01*
X1072541D01*
X1070001Y862541D01*
X1067461Y865080D01*
X1064921D01*
Y862541D01*
X1067461Y860001D01*
X1064921Y857460D01*
Y854921D01*
X1054921Y834921D02*
X1057461D01*
X1060001Y837460D01*
X1062541Y834921D01*
X1065081D01*
Y837460D01*
X1062541Y840001D01*
X1065081Y842541D01*
Y845080D01*
X1062541D01*
X1060001Y842541D01*
X1057461Y845080D01*
X1054921D01*
Y842541D01*
X1057461Y840001D01*
X1054921Y837460D01*
Y834921D01*
X1064921Y814920D02*
X1067461D01*
X1070001Y817460D01*
X1072541Y814920D01*
X1075081D01*
Y817460D01*
X1072541Y820000D01*
X1075081Y822540D01*
Y825080D01*
X1072541D01*
X1070001Y822540D01*
X1067461Y825080D01*
X1064921D01*
Y822540D01*
X1067461Y820000D01*
X1064921Y817460D01*
Y814920D01*
X1054921Y794920D02*
X1057461D01*
X1060001Y797460D01*
X1062541Y794920D01*
X1065081D01*
Y797460D01*
X1062541Y800000D01*
X1065081Y802540D01*
Y805080D01*
X1062541D01*
X1060001Y802540D01*
X1057461Y805080D01*
X1054921D01*
Y802540D01*
X1057461Y800000D01*
X1054921Y797460D01*
Y794920D01*
X1064921Y774920D02*
X1067461D01*
X1070001Y777460D01*
X1072541Y774920D01*
X1075081D01*
Y777460D01*
X1072541Y780000D01*
X1075081Y782540D01*
Y785080D01*
X1072541D01*
X1070001Y782540D01*
X1067461Y785080D01*
X1064921D01*
Y782540D01*
X1067461Y780000D01*
X1064921Y777460D01*
Y774920D01*
X1054921Y754920D02*
X1057461D01*
X1060001Y757460D01*
X1062541Y754920D01*
X1065081D01*
Y757460D01*
X1062541Y760000D01*
X1065081Y762540D01*
Y765080D01*
X1062541D01*
X1060001Y762540D01*
X1057461Y765080D01*
X1054921D01*
Y762540D01*
X1057461Y760000D01*
X1054921Y757460D01*
Y754920D01*
X1064921Y734920D02*
X1067461D01*
X1070001Y737460D01*
X1072541Y734920D01*
X1075081D01*
Y737460D01*
X1072541Y740000D01*
X1075081Y742540D01*
Y745080D01*
X1072541D01*
X1070001Y742540D01*
X1067461Y745080D01*
X1064921D01*
Y742540D01*
X1067461Y740000D01*
X1064921Y737460D01*
Y734920D01*
X1054921Y714920D02*
X1057461D01*
X1060001Y717460D01*
X1062541Y714920D01*
X1065081D01*
Y717460D01*
X1062541Y720000D01*
X1065081Y722540D01*
Y725080D01*
X1062541D01*
X1060001Y722540D01*
X1057461Y725080D01*
X1054921D01*
Y722540D01*
X1057461Y720000D01*
X1054921Y717460D01*
Y714920D01*
X1044921Y1494921D02*
X1047461D01*
X1050001Y1497461D01*
X1052541Y1494921D01*
X1055081D01*
Y1497461D01*
X1052541Y1500001D01*
X1055081Y1502541D01*
Y1505081D01*
X1052541D01*
X1050001Y1502541D01*
X1047461Y1505081D01*
X1044921D01*
Y1502541D01*
X1047461Y1500001D01*
X1044921Y1497461D01*
Y1494921D01*
X1034921Y1474921D02*
X1037461D01*
X1040001Y1477461D01*
X1042541Y1474921D01*
X1045081D01*
Y1477461D01*
X1042541Y1480001D01*
X1045081Y1482541D01*
Y1485081D01*
X1042541D01*
X1040001Y1482541D01*
X1037461Y1485081D01*
X1034921D01*
Y1482541D01*
X1037461Y1480001D01*
X1034921Y1477461D01*
Y1474921D01*
Y1434921D02*
X1037461D01*
X1040001Y1437461D01*
X1042541Y1434921D01*
X1045081D01*
Y1437461D01*
X1042541Y1440001D01*
X1045081Y1442541D01*
Y1445081D01*
X1042541D01*
X1040001Y1442541D01*
X1037461Y1445081D01*
X1034921D01*
Y1442541D01*
X1037461Y1440001D01*
X1034921Y1437461D01*
Y1434921D01*
Y1394921D02*
X1037461D01*
X1040001Y1397461D01*
X1042541Y1394921D01*
X1045081D01*
Y1397461D01*
X1042541Y1400001D01*
X1045081Y1402541D01*
Y1405081D01*
X1042541D01*
X1040001Y1402541D01*
X1037461Y1405081D01*
X1034921D01*
Y1402541D01*
X1037461Y1400001D01*
X1034921Y1397461D01*
Y1394921D01*
X1044921Y1374921D02*
X1047461D01*
X1050001Y1377461D01*
X1052541Y1374921D01*
X1055081D01*
Y1377461D01*
X1052541Y1380001D01*
X1055081Y1382541D01*
Y1385081D01*
X1052541D01*
X1050001Y1382541D01*
X1047461Y1385081D01*
X1044921D01*
Y1382541D01*
X1047461Y1380001D01*
X1044921Y1377461D01*
Y1374921D01*
X1034921Y1354921D02*
X1037461D01*
X1040001Y1357461D01*
X1042541Y1354921D01*
X1045081D01*
Y1357461D01*
X1042541Y1360001D01*
X1045081Y1362541D01*
Y1365081D01*
X1042541D01*
X1040001Y1362541D01*
X1037461Y1365081D01*
X1034921D01*
Y1362541D01*
X1037461Y1360001D01*
X1034921Y1357461D01*
Y1354921D01*
Y1314921D02*
X1037461D01*
X1040001Y1317461D01*
X1042541Y1314921D01*
X1045081D01*
Y1317461D01*
X1042541Y1320001D01*
X1045081Y1322541D01*
Y1325081D01*
X1042541D01*
X1040001Y1322541D01*
X1037461Y1325081D01*
X1034921D01*
Y1322541D01*
X1037461Y1320001D01*
X1034921Y1317461D01*
Y1314921D01*
X1044921Y1294921D02*
X1047461D01*
X1050001Y1297461D01*
X1052541Y1294921D01*
X1055081D01*
Y1297461D01*
X1052541Y1300001D01*
X1055081Y1302541D01*
Y1305081D01*
X1052541D01*
X1050001Y1302541D01*
X1047461Y1305081D01*
X1044921D01*
Y1302541D01*
X1047461Y1300001D01*
X1044921Y1297461D01*
Y1294921D01*
Y1094921D02*
X1047461D01*
X1050001Y1097461D01*
X1052541Y1094921D01*
X1055081D01*
Y1097461D01*
X1052541Y1100001D01*
X1055081Y1102541D01*
Y1105081D01*
X1052541D01*
X1050001Y1102541D01*
X1047461Y1105081D01*
X1044921D01*
Y1102541D01*
X1047461Y1100001D01*
X1044921Y1097461D01*
Y1094921D01*
X1034921Y1074921D02*
X1037461D01*
X1040001Y1077461D01*
X1042541Y1074921D01*
X1045081D01*
Y1077461D01*
X1042541Y1080001D01*
X1045081Y1082541D01*
Y1085081D01*
X1042541D01*
X1040001Y1082541D01*
X1037461Y1085081D01*
X1034921D01*
Y1082541D01*
X1037461Y1080001D01*
X1034921Y1077461D01*
Y1074921D01*
X1044921Y1054921D02*
X1047461D01*
X1050001Y1057461D01*
X1052541Y1054921D01*
X1055081D01*
Y1057461D01*
X1052541Y1060001D01*
X1055081Y1062541D01*
Y1065081D01*
X1052541D01*
X1050001Y1062541D01*
X1047461Y1065081D01*
X1044921D01*
Y1062541D01*
X1047461Y1060001D01*
X1044921Y1057461D01*
Y1054921D01*
X1034921Y1034921D02*
X1037461D01*
X1040001Y1037461D01*
X1042541Y1034921D01*
X1045081D01*
Y1037461D01*
X1042541Y1040001D01*
X1045081Y1042541D01*
Y1045081D01*
X1042541D01*
X1040001Y1042541D01*
X1037461Y1045081D01*
X1034921D01*
Y1042541D01*
X1037461Y1040001D01*
X1034921Y1037461D01*
Y1034921D01*
Y954921D02*
X1037461D01*
X1040001Y957460D01*
X1042541Y954921D01*
X1045081D01*
Y957460D01*
X1042541Y960001D01*
X1045081Y962541D01*
Y965080D01*
X1042541D01*
X1040001Y962541D01*
X1037461Y965080D01*
X1034921D01*
Y962541D01*
X1037461Y960001D01*
X1034921Y957460D01*
Y954921D01*
X1044921Y854921D02*
X1047461D01*
X1050001Y857460D01*
X1052541Y854921D01*
X1055081D01*
Y857460D01*
X1052541Y860001D01*
X1055081Y862541D01*
Y865080D01*
X1052541D01*
X1050001Y862541D01*
X1047461Y865080D01*
X1044921D01*
Y862541D01*
X1047461Y860001D01*
X1044921Y857460D01*
Y854921D01*
X1034921Y834921D02*
X1037461D01*
X1040001Y837460D01*
X1042541Y834921D01*
X1045081D01*
Y837460D01*
X1042541Y840001D01*
X1045081Y842541D01*
Y845080D01*
X1042541D01*
X1040001Y842541D01*
X1037461Y845080D01*
X1034921D01*
Y842541D01*
X1037461Y840001D01*
X1034921Y837460D01*
Y834921D01*
X1044921Y814920D02*
X1047461D01*
X1050001Y817460D01*
X1052541Y814920D01*
X1055081D01*
Y817460D01*
X1052541Y820000D01*
X1055081Y822540D01*
Y825080D01*
X1052541D01*
X1050001Y822540D01*
X1047461Y825080D01*
X1044921D01*
Y822540D01*
X1047461Y820000D01*
X1044921Y817460D01*
Y814920D01*
X1034921Y794920D02*
X1037461D01*
X1040001Y797460D01*
X1042541Y794920D01*
X1045081D01*
Y797460D01*
X1042541Y800000D01*
X1045081Y802540D01*
Y805080D01*
X1042541D01*
X1040001Y802540D01*
X1037461Y805080D01*
X1034921D01*
Y802540D01*
X1037461Y800000D01*
X1034921Y797460D01*
Y794920D01*
X1044921Y774920D02*
X1047461D01*
X1050001Y777460D01*
X1052541Y774920D01*
X1055081D01*
Y777460D01*
X1052541Y780000D01*
X1055081Y782540D01*
Y785080D01*
X1052541D01*
X1050001Y782540D01*
X1047461Y785080D01*
X1044921D01*
Y782540D01*
X1047461Y780000D01*
X1044921Y777460D01*
Y774920D01*
X1034921Y754920D02*
X1037461D01*
X1040001Y757460D01*
X1042541Y754920D01*
X1045081D01*
Y757460D01*
X1042541Y760000D01*
X1045081Y762540D01*
Y765080D01*
X1042541D01*
X1040001Y762540D01*
X1037461Y765080D01*
X1034921D01*
Y762540D01*
X1037461Y760000D01*
X1034921Y757460D01*
Y754920D01*
X1044921Y734920D02*
X1047461D01*
X1050001Y737460D01*
X1052541Y734920D01*
X1055081D01*
Y737460D01*
X1052541Y740000D01*
X1055081Y742540D01*
Y745080D01*
X1052541D01*
X1050001Y742540D01*
X1047461Y745080D01*
X1044921D01*
Y742540D01*
X1047461Y740000D01*
X1044921Y737460D01*
Y734920D01*
X1034921Y714920D02*
X1037461D01*
X1040001Y717460D01*
X1042541Y714920D01*
X1045081D01*
Y717460D01*
X1042541Y720000D01*
X1045081Y722540D01*
Y725080D01*
X1042541D01*
X1040001Y722540D01*
X1037461Y725080D01*
X1034921D01*
Y722540D01*
X1037461Y720000D01*
X1034921Y717460D01*
Y714920D01*
X1024921Y1454921D02*
X1027461D01*
X1030001Y1457461D01*
X1032541Y1454921D01*
X1035081D01*
Y1457461D01*
X1032541Y1460001D01*
X1035081Y1462541D01*
Y1465081D01*
X1032541D01*
X1030001Y1462541D01*
X1027461Y1465081D01*
X1024921D01*
Y1462541D01*
X1027461Y1460001D01*
X1024921Y1457461D01*
Y1454921D01*
Y1414921D02*
X1027461D01*
X1030001Y1417461D01*
X1032541Y1414921D01*
X1035081D01*
Y1417461D01*
X1032541Y1420001D01*
X1035081Y1422541D01*
Y1425081D01*
X1032541D01*
X1030001Y1422541D01*
X1027461Y1425081D01*
X1024921D01*
Y1422541D01*
X1027461Y1420001D01*
X1024921Y1417461D01*
Y1414921D01*
X1014921Y1394921D02*
X1017461D01*
X1020001Y1397461D01*
X1022541Y1394921D01*
X1025081D01*
Y1397461D01*
X1022541Y1400001D01*
X1025081Y1402541D01*
Y1405081D01*
X1022541D01*
X1020001Y1402541D01*
X1017461Y1405081D01*
X1014921D01*
Y1402541D01*
X1017461Y1400001D01*
X1014921Y1397461D01*
Y1394921D01*
X1024921Y1374921D02*
X1027461D01*
X1030001Y1377461D01*
X1032541Y1374921D01*
X1035081D01*
Y1377461D01*
X1032541Y1380001D01*
X1035081Y1382541D01*
Y1385081D01*
X1032541D01*
X1030001Y1382541D01*
X1027461Y1385081D01*
X1024921D01*
Y1382541D01*
X1027461Y1380001D01*
X1024921Y1377461D01*
Y1374921D01*
X1014921Y1354921D02*
X1017461D01*
X1020001Y1357461D01*
X1022541Y1354921D01*
X1025081D01*
Y1357461D01*
X1022541Y1360001D01*
X1025081Y1362541D01*
Y1365081D01*
X1022541D01*
X1020001Y1362541D01*
X1017461Y1365081D01*
X1014921D01*
Y1362541D01*
X1017461Y1360001D01*
X1014921Y1357461D01*
Y1354921D01*
Y1114921D02*
X1017461D01*
X1020001Y1117461D01*
X1022541Y1114921D01*
X1025081D01*
Y1117461D01*
X1022541Y1120001D01*
X1025081Y1122541D01*
Y1125081D01*
X1022541D01*
X1020001Y1122541D01*
X1017461Y1125081D01*
X1014921D01*
Y1122541D01*
X1017461Y1120001D01*
X1014921Y1117461D01*
Y1114921D01*
X1024921Y1094921D02*
X1027461D01*
X1030001Y1097461D01*
X1032541Y1094921D01*
X1035081D01*
Y1097461D01*
X1032541Y1100001D01*
X1035081Y1102541D01*
Y1105081D01*
X1032541D01*
X1030001Y1102541D01*
X1027461Y1105081D01*
X1024921D01*
Y1102541D01*
X1027461Y1100001D01*
X1024921Y1097461D01*
Y1094921D01*
X1014921Y1034921D02*
X1017461D01*
X1020001Y1037461D01*
X1022541Y1034921D01*
X1025081D01*
Y1037461D01*
X1022541Y1040001D01*
X1025081Y1042541D01*
Y1045081D01*
X1022541D01*
X1020001Y1042541D01*
X1017461Y1045081D01*
X1014921D01*
Y1042541D01*
X1017461Y1040001D01*
X1014921Y1037461D01*
Y1034921D01*
X1024921Y1014921D02*
X1027461D01*
X1030001Y1017461D01*
X1032541Y1014921D01*
X1035081D01*
Y1017461D01*
X1032541Y1020001D01*
X1035081Y1022541D01*
Y1025081D01*
X1032541D01*
X1030001Y1022541D01*
X1027461Y1025081D01*
X1024921D01*
Y1022541D01*
X1027461Y1020001D01*
X1024921Y1017461D01*
Y1014921D01*
X1014921Y994921D02*
X1017461D01*
X1020001Y997460D01*
X1022541Y994921D01*
X1025081D01*
Y997460D01*
X1022541Y1000001D01*
X1025081Y1002541D01*
Y1005080D01*
X1022541D01*
X1020001Y1002541D01*
X1017461Y1005080D01*
X1014921D01*
Y1002541D01*
X1017461Y1000001D01*
X1014921Y997460D01*
Y994921D01*
X1024921Y974921D02*
X1027461D01*
X1030001Y977460D01*
X1032541Y974921D01*
X1035081D01*
Y977460D01*
X1032541Y980001D01*
X1035081Y982541D01*
Y985080D01*
X1032541D01*
X1030001Y982541D01*
X1027461Y985080D01*
X1024921D01*
Y982541D01*
X1027461Y980001D01*
X1024921Y977460D01*
Y974921D01*
Y854921D02*
X1027461D01*
X1030001Y857460D01*
X1032541Y854921D01*
X1035081D01*
Y857460D01*
X1032541Y860001D01*
X1035081Y862541D01*
Y865080D01*
X1032541D01*
X1030001Y862541D01*
X1027461Y865080D01*
X1024921D01*
Y862541D01*
X1027461Y860001D01*
X1024921Y857460D01*
Y854921D01*
X1014921Y834921D02*
X1017461D01*
X1020001Y837460D01*
X1022541Y834921D01*
X1025081D01*
Y837460D01*
X1022541Y840001D01*
X1025081Y842541D01*
Y845080D01*
X1022541D01*
X1020001Y842541D01*
X1017461Y845080D01*
X1014921D01*
Y842541D01*
X1017461Y840001D01*
X1014921Y837460D01*
Y834921D01*
X1024921Y814920D02*
X1027461D01*
X1030001Y817460D01*
X1032541Y814920D01*
X1035081D01*
Y817460D01*
X1032541Y820000D01*
X1035081Y822540D01*
Y825080D01*
X1032541D01*
X1030001Y822540D01*
X1027461Y825080D01*
X1024921D01*
Y822540D01*
X1027461Y820000D01*
X1024921Y817460D01*
Y814920D01*
X1014921Y794920D02*
X1017461D01*
X1020001Y797460D01*
X1022541Y794920D01*
X1025081D01*
Y797460D01*
X1022541Y800000D01*
X1025081Y802540D01*
Y805080D01*
X1022541D01*
X1020001Y802540D01*
X1017461Y805080D01*
X1014921D01*
Y802540D01*
X1017461Y800000D01*
X1014921Y797460D01*
Y794920D01*
X1024921Y774920D02*
X1027461D01*
X1030001Y777460D01*
X1032541Y774920D01*
X1035081D01*
Y777460D01*
X1032541Y780000D01*
X1035081Y782540D01*
Y785080D01*
X1032541D01*
X1030001Y782540D01*
X1027461Y785080D01*
X1024921D01*
Y782540D01*
X1027461Y780000D01*
X1024921Y777460D01*
Y774920D01*
X1014921Y754920D02*
X1017461D01*
X1020001Y757460D01*
X1022541Y754920D01*
X1025081D01*
Y757460D01*
X1022541Y760000D01*
X1025081Y762540D01*
Y765080D01*
X1022541D01*
X1020001Y762540D01*
X1017461Y765080D01*
X1014921D01*
Y762540D01*
X1017461Y760000D01*
X1014921Y757460D01*
Y754920D01*
X1024921Y734920D02*
X1027461D01*
X1030001Y737460D01*
X1032541Y734920D01*
X1035081D01*
Y737460D01*
X1032541Y740000D01*
X1035081Y742540D01*
Y745080D01*
X1032541D01*
X1030001Y742540D01*
X1027461Y745080D01*
X1024921D01*
Y742540D01*
X1027461Y740000D01*
X1024921Y737460D01*
Y734920D01*
X1014921Y714920D02*
X1017461D01*
X1020001Y717460D01*
X1022541Y714920D01*
X1025081D01*
Y717460D01*
X1022541Y720000D01*
X1025081Y722540D01*
Y725080D01*
X1022541D01*
X1020001Y722540D01*
X1017461Y725080D01*
X1014921D01*
Y722540D01*
X1017461Y720000D01*
X1014921Y717460D01*
Y714920D01*
X1004921Y1454921D02*
X1007460D01*
X1010001Y1457461D01*
X1012541Y1454921D01*
X1015080D01*
Y1457461D01*
X1012541Y1460001D01*
X1015080Y1462541D01*
Y1465081D01*
X1012541D01*
X1010001Y1462541D01*
X1007460Y1465081D01*
X1004921D01*
Y1462541D01*
X1007460Y1460001D01*
X1004921Y1457461D01*
Y1454921D01*
X994921Y1434921D02*
X997460D01*
X1000001Y1437461D01*
X1002541Y1434921D01*
X1005080D01*
Y1437461D01*
X1002541Y1440001D01*
X1005080Y1442541D01*
Y1445081D01*
X1002541D01*
X1000001Y1442541D01*
X997460Y1445081D01*
X994921D01*
Y1442541D01*
X997460Y1440001D01*
X994921Y1437461D01*
Y1434921D01*
X1004921Y1414921D02*
X1007460D01*
X1010001Y1417461D01*
X1012541Y1414921D01*
X1015080D01*
Y1417461D01*
X1012541Y1420001D01*
X1015080Y1422541D01*
Y1425081D01*
X1012541D01*
X1010001Y1422541D01*
X1007460Y1425081D01*
X1004921D01*
Y1422541D01*
X1007460Y1420001D01*
X1004921Y1417461D01*
Y1414921D01*
X994921Y1394921D02*
X997460D01*
X1000001Y1397461D01*
X1002541Y1394921D01*
X1005080D01*
Y1397461D01*
X1002541Y1400001D01*
X1005080Y1402541D01*
Y1405081D01*
X1002541D01*
X1000001Y1402541D01*
X997460Y1405081D01*
X994921D01*
Y1402541D01*
X997460Y1400001D01*
X994921Y1397461D01*
Y1394921D01*
X1004921Y1374921D02*
X1007460D01*
X1010001Y1377461D01*
X1012541Y1374921D01*
X1015080D01*
Y1377461D01*
X1012541Y1380001D01*
X1015080Y1382541D01*
Y1385081D01*
X1012541D01*
X1010001Y1382541D01*
X1007460Y1385081D01*
X1004921D01*
Y1382541D01*
X1007460Y1380001D01*
X1004921Y1377461D01*
Y1374921D01*
X994921Y1354921D02*
X997460D01*
X1000001Y1357461D01*
X1002541Y1354921D01*
X1005080D01*
Y1357461D01*
X1002541Y1360001D01*
X1005080Y1362541D01*
Y1365081D01*
X1002541D01*
X1000001Y1362541D01*
X997460Y1365081D01*
X994921D01*
Y1362541D01*
X997460Y1360001D01*
X994921Y1357461D01*
Y1354921D01*
X1004921Y1334921D02*
X1007460D01*
X1010001Y1337461D01*
X1012541Y1334921D01*
X1015080D01*
Y1337461D01*
X1012541Y1340001D01*
X1015080Y1342541D01*
Y1345081D01*
X1012541D01*
X1010001Y1342541D01*
X1007460Y1345081D01*
X1004921D01*
Y1342541D01*
X1007460Y1340001D01*
X1004921Y1337461D01*
Y1334921D01*
X994921Y1314921D02*
X997460D01*
X1000001Y1317461D01*
X1002541Y1314921D01*
X1005080D01*
Y1317461D01*
X1002541Y1320001D01*
X1005080Y1322541D01*
Y1325081D01*
X1002541D01*
X1000001Y1322541D01*
X997460Y1325081D01*
X994921D01*
Y1322541D01*
X997460Y1320001D01*
X994921Y1317461D01*
Y1314921D01*
Y1114921D02*
X997460D01*
X1000001Y1117461D01*
X1002541Y1114921D01*
X1005080D01*
Y1117461D01*
X1002541Y1120001D01*
X1005080Y1122541D01*
Y1125081D01*
X1002541D01*
X1000001Y1122541D01*
X997460Y1125081D01*
X994921D01*
Y1122541D01*
X997460Y1120001D01*
X994921Y1117461D01*
Y1114921D01*
Y1074921D02*
X997460D01*
X1000001Y1077461D01*
X1002541Y1074921D01*
X1005080D01*
Y1077461D01*
X1002541Y1080001D01*
X1005080Y1082541D01*
Y1085081D01*
X1002541D01*
X1000001Y1082541D01*
X997460Y1085081D01*
X994921D01*
Y1082541D01*
X997460Y1080001D01*
X994921Y1077461D01*
Y1074921D01*
X1004921Y1014921D02*
X1007460D01*
X1010001Y1017461D01*
X1012541Y1014921D01*
X1015080D01*
Y1017461D01*
X1012541Y1020001D01*
X1015080Y1022541D01*
Y1025081D01*
X1012541D01*
X1010001Y1022541D01*
X1007460Y1025081D01*
X1004921D01*
Y1022541D01*
X1007460Y1020001D01*
X1004921Y1017461D01*
Y1014921D01*
X994921Y914921D02*
X997460D01*
X1000001Y917460D01*
X1002541Y914921D01*
X1005080D01*
Y917460D01*
X1002541Y920001D01*
X1005080Y922541D01*
Y925080D01*
X1002541D01*
X1000001Y922541D01*
X997460Y925080D01*
X994921D01*
Y922541D01*
X997460Y920001D01*
X994921Y917460D01*
Y914921D01*
X1004921Y854921D02*
X1007460D01*
X1010001Y857460D01*
X1012541Y854921D01*
X1015080D01*
Y857460D01*
X1012541Y860001D01*
X1015080Y862541D01*
Y865080D01*
X1012541D01*
X1010001Y862541D01*
X1007460Y865080D01*
X1004921D01*
Y862541D01*
X1007460Y860001D01*
X1004921Y857460D01*
Y854921D01*
X994921Y834921D02*
X997460D01*
X1000001Y837460D01*
X1002541Y834921D01*
X1005080D01*
Y837460D01*
X1002541Y840001D01*
X1005080Y842541D01*
Y845080D01*
X1002541D01*
X1000001Y842541D01*
X997460Y845080D01*
X994921D01*
Y842541D01*
X997460Y840001D01*
X994921Y837460D01*
Y834921D01*
X1004921Y814920D02*
X1007460D01*
X1010001Y817460D01*
X1012541Y814920D01*
X1015080D01*
Y817460D01*
X1012541Y820000D01*
X1015080Y822540D01*
Y825080D01*
X1012541D01*
X1010001Y822540D01*
X1007460Y825080D01*
X1004921D01*
Y822540D01*
X1007460Y820000D01*
X1004921Y817460D01*
Y814920D01*
X994921Y794920D02*
X997460D01*
X1000001Y797460D01*
X1002541Y794920D01*
X1005080D01*
Y797460D01*
X1002541Y800000D01*
X1005080Y802540D01*
Y805080D01*
X1002541D01*
X1000001Y802540D01*
X997460Y805080D01*
X994921D01*
Y802540D01*
X997460Y800000D01*
X994921Y797460D01*
Y794920D01*
X1004921Y774920D02*
X1007460D01*
X1010001Y777460D01*
X1012541Y774920D01*
X1015080D01*
Y777460D01*
X1012541Y780000D01*
X1015080Y782540D01*
Y785080D01*
X1012541D01*
X1010001Y782540D01*
X1007460Y785080D01*
X1004921D01*
Y782540D01*
X1007460Y780000D01*
X1004921Y777460D01*
Y774920D01*
X994921Y754920D02*
X997460D01*
X1000001Y757460D01*
X1002541Y754920D01*
X1005080D01*
Y757460D01*
X1002541Y760000D01*
X1005080Y762540D01*
Y765080D01*
X1002541D01*
X1000001Y762540D01*
X997460Y765080D01*
X994921D01*
Y762540D01*
X997460Y760000D01*
X994921Y757460D01*
Y754920D01*
X1004921Y734920D02*
X1007460D01*
X1010001Y737460D01*
X1012541Y734920D01*
X1015080D01*
Y737460D01*
X1012541Y740000D01*
X1015080Y742540D01*
Y745080D01*
X1012541D01*
X1010001Y742540D01*
X1007460Y745080D01*
X1004921D01*
Y742540D01*
X1007460Y740000D01*
X1004921Y737460D01*
Y734920D01*
X994921Y714920D02*
X997460D01*
X1000001Y717460D01*
X1002541Y714920D01*
X1005080D01*
Y717460D01*
X1002541Y720000D01*
X1005080Y722540D01*
Y725080D01*
X1002541D01*
X1000001Y722540D01*
X997460Y725080D01*
X994921D01*
Y722540D01*
X997460Y720000D01*
X994921Y717460D01*
Y714920D01*
X974921Y1474921D02*
X977460D01*
X980001Y1477461D01*
X982541Y1474921D01*
X985080D01*
Y1477461D01*
X982541Y1480001D01*
X985080Y1482541D01*
Y1485081D01*
X982541D01*
X980001Y1482541D01*
X977460Y1485081D01*
X974921D01*
Y1482541D01*
X977460Y1480001D01*
X974921Y1477461D01*
Y1474921D01*
X984921Y1454921D02*
X987460D01*
X990001Y1457461D01*
X992541Y1454921D01*
X995080D01*
Y1457461D01*
X992541Y1460001D01*
X995080Y1462541D01*
Y1465081D01*
X992541D01*
X990001Y1462541D01*
X987460Y1465081D01*
X984921D01*
Y1462541D01*
X987460Y1460001D01*
X984921Y1457461D01*
Y1454921D01*
X974921Y1434921D02*
X977460D01*
X980001Y1437461D01*
X982541Y1434921D01*
X985080D01*
Y1437461D01*
X982541Y1440001D01*
X985080Y1442541D01*
Y1445081D01*
X982541D01*
X980001Y1442541D01*
X977460Y1445081D01*
X974921D01*
Y1442541D01*
X977460Y1440001D01*
X974921Y1437461D01*
Y1434921D01*
X984921Y1414921D02*
X987460D01*
X990001Y1417461D01*
X992541Y1414921D01*
X995080D01*
Y1417461D01*
X992541Y1420001D01*
X995080Y1422541D01*
Y1425081D01*
X992541D01*
X990001Y1422541D01*
X987460Y1425081D01*
X984921D01*
Y1422541D01*
X987460Y1420001D01*
X984921Y1417461D01*
Y1414921D01*
Y1374921D02*
X987460D01*
X990001Y1377461D01*
X992541Y1374921D01*
X995080D01*
Y1377461D01*
X992541Y1380001D01*
X995080Y1382541D01*
Y1385081D01*
X992541D01*
X990001Y1382541D01*
X987460Y1385081D01*
X984921D01*
Y1382541D01*
X987460Y1380001D01*
X984921Y1377461D01*
Y1374921D01*
Y1334921D02*
X987460D01*
X990001Y1337461D01*
X992541Y1334921D01*
X995080D01*
Y1337461D01*
X992541Y1340001D01*
X995080Y1342541D01*
Y1345081D01*
X992541D01*
X990001Y1342541D01*
X987460Y1345081D01*
X984921D01*
Y1342541D01*
X987460Y1340001D01*
X984921Y1337461D01*
Y1334921D01*
Y1134921D02*
X987460D01*
X990001Y1137461D01*
X992541Y1134921D01*
X995080D01*
Y1137461D01*
X992541Y1140001D01*
X995080Y1142541D01*
Y1145081D01*
X992541D01*
X990001Y1142541D01*
X987460Y1145081D01*
X984921D01*
Y1142541D01*
X987460Y1140001D01*
X984921Y1137461D01*
Y1134921D01*
Y1054921D02*
X987460D01*
X990001Y1057461D01*
X992541Y1054921D01*
X995080D01*
Y1057461D01*
X992541Y1060001D01*
X995080Y1062541D01*
Y1065081D01*
X992541D01*
X990001Y1062541D01*
X987460Y1065081D01*
X984921D01*
Y1062541D01*
X987460Y1060001D01*
X984921Y1057461D01*
Y1054921D01*
X974921Y994921D02*
X977460D01*
X980001Y997460D01*
X982541Y994921D01*
X985080D01*
Y997460D01*
X982541Y1000001D01*
X985080Y1002541D01*
Y1005080D01*
X982541D01*
X980001Y1002541D01*
X977460Y1005080D01*
X974921D01*
Y1002541D01*
X977460Y1000001D01*
X974921Y997460D01*
Y994921D01*
X984921Y974921D02*
X987460D01*
X990001Y977460D01*
X992541Y974921D01*
X995080D01*
Y977460D01*
X992541Y980001D01*
X995080Y982541D01*
Y985080D01*
X992541D01*
X990001Y982541D01*
X987460Y985080D01*
X984921D01*
Y982541D01*
X987460Y980001D01*
X984921Y977460D01*
Y974921D01*
X974921Y954921D02*
X977460D01*
X980001Y957460D01*
X982541Y954921D01*
X985080D01*
Y957460D01*
X982541Y960001D01*
X985080Y962541D01*
Y965080D01*
X982541D01*
X980001Y962541D01*
X977460Y965080D01*
X974921D01*
Y962541D01*
X977460Y960001D01*
X974921Y957460D01*
Y954921D01*
X984921Y854921D02*
X987460D01*
X990001Y857460D01*
X992541Y854921D01*
X995080D01*
Y857460D01*
X992541Y860001D01*
X995080Y862541D01*
Y865080D01*
X992541D01*
X990001Y862541D01*
X987460Y865080D01*
X984921D01*
Y862541D01*
X987460Y860001D01*
X984921Y857460D01*
Y854921D01*
X974921Y834921D02*
X977460D01*
X980001Y837460D01*
X982541Y834921D01*
X985080D01*
Y837460D01*
X982541Y840001D01*
X985080Y842541D01*
Y845080D01*
X982541D01*
X980001Y842541D01*
X977460Y845080D01*
X974921D01*
Y842541D01*
X977460Y840001D01*
X974921Y837460D01*
Y834921D01*
X984921Y814920D02*
X987460D01*
X990001Y817460D01*
X992541Y814920D01*
X995080D01*
Y817460D01*
X992541Y820000D01*
X995080Y822540D01*
Y825080D01*
X992541D01*
X990001Y822540D01*
X987460Y825080D01*
X984921D01*
Y822540D01*
X987460Y820000D01*
X984921Y817460D01*
Y814920D01*
X974921Y794920D02*
X977460D01*
X980001Y797460D01*
X982541Y794920D01*
X985080D01*
Y797460D01*
X982541Y800000D01*
X985080Y802540D01*
Y805080D01*
X982541D01*
X980001Y802540D01*
X977460Y805080D01*
X974921D01*
Y802540D01*
X977460Y800000D01*
X974921Y797460D01*
Y794920D01*
X984921Y774920D02*
X987460D01*
X990001Y777460D01*
X992541Y774920D01*
X995080D01*
Y777460D01*
X992541Y780000D01*
X995080Y782540D01*
Y785080D01*
X992541D01*
X990001Y782540D01*
X987460Y785080D01*
X984921D01*
Y782540D01*
X987460Y780000D01*
X984921Y777460D01*
Y774920D01*
X974921Y754920D02*
X977460D01*
X980001Y757460D01*
X982541Y754920D01*
X985080D01*
Y757460D01*
X982541Y760000D01*
X985080Y762540D01*
Y765080D01*
X982541D01*
X980001Y762540D01*
X977460Y765080D01*
X974921D01*
Y762540D01*
X977460Y760000D01*
X974921Y757460D01*
Y754920D01*
X984921Y734920D02*
X987460D01*
X990001Y737460D01*
X992541Y734920D01*
X995080D01*
Y737460D01*
X992541Y740000D01*
X995080Y742540D01*
Y745080D01*
X992541D01*
X990001Y742540D01*
X987460Y745080D01*
X984921D01*
Y742540D01*
X987460Y740000D01*
X984921Y737460D01*
Y734920D01*
X974921Y714920D02*
X977460D01*
X980001Y717460D01*
X982541Y714920D01*
X985080D01*
Y717460D01*
X982541Y720000D01*
X985080Y722540D01*
Y725080D01*
X982541D01*
X980001Y722540D01*
X977460Y725080D01*
X974921D01*
Y722540D01*
X977460Y720000D01*
X974921Y717460D01*
Y714920D01*
X964921Y1494921D02*
X967460D01*
X970001Y1497461D01*
X972541Y1494921D01*
X975080D01*
Y1497461D01*
X972541Y1500001D01*
X975080Y1502541D01*
Y1505081D01*
X972541D01*
X970001Y1502541D01*
X967460Y1505081D01*
X964921D01*
Y1502541D01*
X967460Y1500001D01*
X964921Y1497461D01*
Y1494921D01*
X954921Y1474921D02*
X957460D01*
X960001Y1477461D01*
X962541Y1474921D01*
X965080D01*
Y1477461D01*
X962541Y1480001D01*
X965080Y1482541D01*
Y1485081D01*
X962541D01*
X960001Y1482541D01*
X957460Y1485081D01*
X954921D01*
Y1482541D01*
X957460Y1480001D01*
X954921Y1477461D01*
Y1474921D01*
X964921Y1454921D02*
X967460D01*
X970001Y1457461D01*
X972541Y1454921D01*
X975080D01*
Y1457461D01*
X972541Y1460001D01*
X975080Y1462541D01*
Y1465081D01*
X972541D01*
X970001Y1462541D01*
X967460Y1465081D01*
X964921D01*
Y1462541D01*
X967460Y1460001D01*
X964921Y1457461D01*
Y1454921D01*
X954921Y1434921D02*
X957460D01*
X960001Y1437461D01*
X962541Y1434921D01*
X965080D01*
Y1437461D01*
X962541Y1440001D01*
X965080Y1442541D01*
Y1445081D01*
X962541D01*
X960001Y1442541D01*
X957460Y1445081D01*
X954921D01*
Y1442541D01*
X957460Y1440001D01*
X954921Y1437461D01*
Y1434921D01*
X964921Y1414921D02*
X967460D01*
X970001Y1417461D01*
X972541Y1414921D01*
X975080D01*
Y1417461D01*
X972541Y1420001D01*
X975080Y1422541D01*
Y1425081D01*
X972541D01*
X970001Y1422541D01*
X967460Y1425081D01*
X964921D01*
Y1422541D01*
X967460Y1420001D01*
X964921Y1417461D01*
Y1414921D01*
X954921Y1394921D02*
X957460D01*
X960001Y1397461D01*
X962541Y1394921D01*
X965080D01*
Y1397461D01*
X962541Y1400001D01*
X965080Y1402541D01*
Y1405081D01*
X962541D01*
X960001Y1402541D01*
X957460Y1405081D01*
X954921D01*
Y1402541D01*
X957460Y1400001D01*
X954921Y1397461D01*
Y1394921D01*
Y1354921D02*
X957460D01*
X960001Y1357461D01*
X962541Y1354921D01*
X965080D01*
Y1357461D01*
X962541Y1360001D01*
X965080Y1362541D01*
Y1365081D01*
X962541D01*
X960001Y1362541D01*
X957460Y1365081D01*
X954921D01*
Y1362541D01*
X957460Y1360001D01*
X954921Y1357461D01*
Y1354921D01*
Y1314921D02*
X957460D01*
X960001Y1317461D01*
X962541Y1314921D01*
X965080D01*
Y1317461D01*
X962541Y1320001D01*
X965080Y1322541D01*
Y1325081D01*
X962541D01*
X960001Y1322541D01*
X957460Y1325081D01*
X954921D01*
Y1322541D01*
X957460Y1320001D01*
X954921Y1317461D01*
Y1314921D01*
Y1274921D02*
X957460D01*
X960001Y1277461D01*
X962541Y1274921D01*
X965080D01*
Y1277461D01*
X962541Y1280001D01*
X965080Y1282541D01*
Y1285081D01*
X962541D01*
X960001Y1282541D01*
X957460Y1285081D01*
X954921D01*
Y1282541D01*
X957460Y1280001D01*
X954921Y1277461D01*
Y1274921D01*
Y1234921D02*
X957460D01*
X960001Y1237461D01*
X962541Y1234921D01*
X965080D01*
Y1237461D01*
X962541Y1240001D01*
X965080Y1242541D01*
Y1245081D01*
X962541D01*
X960001Y1242541D01*
X957460Y1245081D01*
X954921D01*
Y1242541D01*
X957460Y1240001D01*
X954921Y1237461D01*
Y1234921D01*
Y1194921D02*
X957460D01*
X960001Y1197461D01*
X962541Y1194921D01*
X965080D01*
Y1197461D01*
X962541Y1200001D01*
X965080Y1202541D01*
Y1205081D01*
X962541D01*
X960001Y1202541D01*
X957460Y1205081D01*
X954921D01*
Y1202541D01*
X957460Y1200001D01*
X954921Y1197461D01*
Y1194921D01*
Y1034921D02*
X957460D01*
X960001Y1037461D01*
X962541Y1034921D01*
X965080D01*
Y1037461D01*
X962541Y1040001D01*
X965080Y1042541D01*
Y1045081D01*
X962541D01*
X960001Y1042541D01*
X957460Y1045081D01*
X954921D01*
Y1042541D01*
X957460Y1040001D01*
X954921Y1037461D01*
Y1034921D01*
Y994921D02*
X957460D01*
X960001Y997460D01*
X962541Y994921D01*
X965080D01*
Y997460D01*
X962541Y1000001D01*
X965080Y1002541D01*
Y1005080D01*
X962541D01*
X960001Y1002541D01*
X957460Y1005080D01*
X954921D01*
Y1002541D01*
X957460Y1000001D01*
X954921Y997460D01*
Y994921D01*
X964921Y974921D02*
X967460D01*
X970001Y977460D01*
X972541Y974921D01*
X975080D01*
Y977460D01*
X972541Y980001D01*
X975080Y982541D01*
Y985080D01*
X972541D01*
X970001Y982541D01*
X967460Y985080D01*
X964921D01*
Y982541D01*
X967460Y980001D01*
X964921Y977460D01*
Y974921D01*
X954921Y914921D02*
X957460D01*
X960001Y917460D01*
X962541Y914921D01*
X965080D01*
Y917460D01*
X962541Y920001D01*
X965080Y922541D01*
Y925080D01*
X962541D01*
X960001Y922541D01*
X957460Y925080D01*
X954921D01*
Y922541D01*
X957460Y920001D01*
X954921Y917460D01*
Y914921D01*
X964921Y854921D02*
X967460D01*
X970001Y857460D01*
X972541Y854921D01*
X975080D01*
Y857460D01*
X972541Y860001D01*
X975080Y862541D01*
Y865080D01*
X972541D01*
X970001Y862541D01*
X967460Y865080D01*
X964921D01*
Y862541D01*
X967460Y860001D01*
X964921Y857460D01*
Y854921D01*
X954921Y834921D02*
X957460D01*
X960001Y837460D01*
X962541Y834921D01*
X965080D01*
Y837460D01*
X962541Y840001D01*
X965080Y842541D01*
Y845080D01*
X962541D01*
X960001Y842541D01*
X957460Y845080D01*
X954921D01*
Y842541D01*
X957460Y840001D01*
X954921Y837460D01*
Y834921D01*
X964921Y814920D02*
X967460D01*
X970001Y817460D01*
X972541Y814920D01*
X975080D01*
Y817460D01*
X972541Y820000D01*
X975080Y822540D01*
Y825080D01*
X972541D01*
X970001Y822540D01*
X967460Y825080D01*
X964921D01*
Y822540D01*
X967460Y820000D01*
X964921Y817460D01*
Y814920D01*
X954921Y794920D02*
X957460D01*
X960001Y797460D01*
X962541Y794920D01*
X965080D01*
Y797460D01*
X962541Y800000D01*
X965080Y802540D01*
Y805080D01*
X962541D01*
X960001Y802540D01*
X957460Y805080D01*
X954921D01*
Y802540D01*
X957460Y800000D01*
X954921Y797460D01*
Y794920D01*
X964921Y774920D02*
X967460D01*
X970001Y777460D01*
X972541Y774920D01*
X975080D01*
Y777460D01*
X972541Y780000D01*
X975080Y782540D01*
Y785080D01*
X972541D01*
X970001Y782540D01*
X967460Y785080D01*
X964921D01*
Y782540D01*
X967460Y780000D01*
X964921Y777460D01*
Y774920D01*
X954921Y754920D02*
X957460D01*
X960001Y757460D01*
X962541Y754920D01*
X965080D01*
Y757460D01*
X962541Y760000D01*
X965080Y762540D01*
Y765080D01*
X962541D01*
X960001Y762540D01*
X957460Y765080D01*
X954921D01*
Y762540D01*
X957460Y760000D01*
X954921Y757460D01*
Y754920D01*
X964921Y734920D02*
X967460D01*
X970001Y737460D01*
X972541Y734920D01*
X975080D01*
Y737460D01*
X972541Y740000D01*
X975080Y742540D01*
Y745080D01*
X972541D01*
X970001Y742540D01*
X967460Y745080D01*
X964921D01*
Y742540D01*
X967460Y740000D01*
X964921Y737460D01*
Y734920D01*
X954921Y714920D02*
X957460D01*
X960001Y717460D01*
X962541Y714920D01*
X965080D01*
Y717460D01*
X962541Y720000D01*
X965080Y722540D01*
Y725080D01*
X962541D01*
X960001Y722540D01*
X957460Y725080D01*
X954921D01*
Y722540D01*
X957460Y720000D01*
X954921Y717460D01*
Y714920D01*
X944921Y1494921D02*
X947460D01*
X950001Y1497461D01*
X952541Y1494921D01*
X955080D01*
Y1497461D01*
X952541Y1500001D01*
X955080Y1502541D01*
Y1505081D01*
X952541D01*
X950001Y1502541D01*
X947460Y1505081D01*
X944921D01*
Y1502541D01*
X947460Y1500001D01*
X944921Y1497461D01*
Y1494921D01*
X934921Y1474921D02*
X937460D01*
X940001Y1477461D01*
X942541Y1474921D01*
X945080D01*
Y1477461D01*
X942541Y1480001D01*
X945080Y1482541D01*
Y1485081D01*
X942541D01*
X940001Y1482541D01*
X937460Y1485081D01*
X934921D01*
Y1482541D01*
X937460Y1480001D01*
X934921Y1477461D01*
Y1474921D01*
X944921Y1454921D02*
X947460D01*
X950001Y1457461D01*
X952541Y1454921D01*
X955080D01*
Y1457461D01*
X952541Y1460001D01*
X955080Y1462541D01*
Y1465081D01*
X952541D01*
X950001Y1462541D01*
X947460Y1465081D01*
X944921D01*
Y1462541D01*
X947460Y1460001D01*
X944921Y1457461D01*
Y1454921D01*
X934921Y1434921D02*
X937460D01*
X940001Y1437461D01*
X942541Y1434921D01*
X945080D01*
Y1437461D01*
X942541Y1440001D01*
X945080Y1442541D01*
Y1445081D01*
X942541D01*
X940001Y1442541D01*
X937460Y1445081D01*
X934921D01*
Y1442541D01*
X937460Y1440001D01*
X934921Y1437461D01*
Y1434921D01*
X944921Y1414921D02*
X947460D01*
X950001Y1417461D01*
X952541Y1414921D01*
X955080D01*
Y1417461D01*
X952541Y1420001D01*
X955080Y1422541D01*
Y1425081D01*
X952541D01*
X950001Y1422541D01*
X947460Y1425081D01*
X944921D01*
Y1422541D01*
X947460Y1420001D01*
X944921Y1417461D01*
Y1414921D01*
X934921Y1394921D02*
X937460D01*
X940001Y1397461D01*
X942541Y1394921D01*
X945080D01*
Y1397461D01*
X942541Y1400001D01*
X945080Y1402541D01*
Y1405081D01*
X942541D01*
X940001Y1402541D01*
X937460Y1405081D01*
X934921D01*
Y1402541D01*
X937460Y1400001D01*
X934921Y1397461D01*
Y1394921D01*
X944921Y1374921D02*
X947460D01*
X950001Y1377461D01*
X952541Y1374921D01*
X955080D01*
Y1377461D01*
X952541Y1380001D01*
X955080Y1382541D01*
Y1385081D01*
X952541D01*
X950001Y1382541D01*
X947460Y1385081D01*
X944921D01*
Y1382541D01*
X947460Y1380001D01*
X944921Y1377461D01*
Y1374921D01*
X934921Y1354921D02*
X937460D01*
X940001Y1357461D01*
X942541Y1354921D01*
X945080D01*
Y1357461D01*
X942541Y1360001D01*
X945080Y1362541D01*
Y1365081D01*
X942541D01*
X940001Y1362541D01*
X937460Y1365081D01*
X934921D01*
Y1362541D01*
X937460Y1360001D01*
X934921Y1357461D01*
Y1354921D01*
X944921Y1334921D02*
X947460D01*
X950001Y1337461D01*
X952541Y1334921D01*
X955080D01*
Y1337461D01*
X952541Y1340001D01*
X955080Y1342541D01*
Y1345081D01*
X952541D01*
X950001Y1342541D01*
X947460Y1345081D01*
X944921D01*
Y1342541D01*
X947460Y1340001D01*
X944921Y1337461D01*
Y1334921D01*
X934921Y1314921D02*
X937460D01*
X940001Y1317461D01*
X942541Y1314921D01*
X945080D01*
Y1317461D01*
X942541Y1320001D01*
X945080Y1322541D01*
Y1325081D01*
X942541D01*
X940001Y1322541D01*
X937460Y1325081D01*
X934921D01*
Y1322541D01*
X937460Y1320001D01*
X934921Y1317461D01*
Y1314921D01*
X944921Y1294921D02*
X947460D01*
X950001Y1297461D01*
X952541Y1294921D01*
X955080D01*
Y1297461D01*
X952541Y1300001D01*
X955080Y1302541D01*
Y1305081D01*
X952541D01*
X950001Y1302541D01*
X947460Y1305081D01*
X944921D01*
Y1302541D01*
X947460Y1300001D01*
X944921Y1297461D01*
Y1294921D01*
X934921Y1274921D02*
X937460D01*
X940001Y1277461D01*
X942541Y1274921D01*
X945080D01*
Y1277461D01*
X942541Y1280001D01*
X945080Y1282541D01*
Y1285081D01*
X942541D01*
X940001Y1282541D01*
X937460Y1285081D01*
X934921D01*
Y1282541D01*
X937460Y1280001D01*
X934921Y1277461D01*
Y1274921D01*
X944921Y1254921D02*
X947460D01*
X950001Y1257461D01*
X952541Y1254921D01*
X955080D01*
Y1257461D01*
X952541Y1260001D01*
X955080Y1262541D01*
Y1265081D01*
X952541D01*
X950001Y1262541D01*
X947460Y1265081D01*
X944921D01*
Y1262541D01*
X947460Y1260001D01*
X944921Y1257461D01*
Y1254921D01*
X934921Y1234921D02*
X937460D01*
X940001Y1237461D01*
X942541Y1234921D01*
X945080D01*
Y1237461D01*
X942541Y1240001D01*
X945080Y1242541D01*
Y1245081D01*
X942541D01*
X940001Y1242541D01*
X937460Y1245081D01*
X934921D01*
Y1242541D01*
X937460Y1240001D01*
X934921Y1237461D01*
Y1234921D01*
X944921Y1214921D02*
X947460D01*
X950001Y1217461D01*
X952541Y1214921D01*
X955080D01*
Y1217461D01*
X952541Y1220001D01*
X955080Y1222541D01*
Y1225081D01*
X952541D01*
X950001Y1222541D01*
X947460Y1225081D01*
X944921D01*
Y1222541D01*
X947460Y1220001D01*
X944921Y1217461D01*
Y1214921D01*
X934921Y1194921D02*
X937460D01*
X940001Y1197461D01*
X942541Y1194921D01*
X945080D01*
Y1197461D01*
X942541Y1200001D01*
X945080Y1202541D01*
Y1205081D01*
X942541D01*
X940001Y1202541D01*
X937460Y1205081D01*
X934921D01*
Y1202541D01*
X937460Y1200001D01*
X934921Y1197461D01*
Y1194921D01*
X944921Y1174921D02*
X947460D01*
X950001Y1177461D01*
X952541Y1174921D01*
X955080D01*
Y1177461D01*
X952541Y1180001D01*
X955080Y1182541D01*
Y1185081D01*
X952541D01*
X950001Y1182541D01*
X947460Y1185081D01*
X944921D01*
Y1182541D01*
X947460Y1180001D01*
X944921Y1177461D01*
Y1174921D01*
Y1094921D02*
X947460D01*
X950001Y1097461D01*
X952541Y1094921D01*
X955080D01*
Y1097461D01*
X952541Y1100001D01*
X955080Y1102541D01*
Y1105081D01*
X952541D01*
X950001Y1102541D01*
X947460Y1105081D01*
X944921D01*
Y1102541D01*
X947460Y1100001D01*
X944921Y1097461D01*
Y1094921D01*
Y1014921D02*
X947460D01*
X950001Y1017461D01*
X952541Y1014921D01*
X955080D01*
Y1017461D01*
X952541Y1020001D01*
X955080Y1022541D01*
Y1025081D01*
X952541D01*
X950001Y1022541D01*
X947460Y1025081D01*
X944921D01*
Y1022541D01*
X947460Y1020001D01*
X944921Y1017461D01*
Y1014921D01*
Y974921D02*
X947460D01*
X950001Y977460D01*
X952541Y974921D01*
X955080D01*
Y977460D01*
X952541Y980001D01*
X955080Y982541D01*
Y985080D01*
X952541D01*
X950001Y982541D01*
X947460Y985080D01*
X944921D01*
Y982541D01*
X947460Y980001D01*
X944921Y977460D01*
Y974921D01*
X934921Y914921D02*
X937460D01*
X940001Y917460D01*
X942541Y914921D01*
X945080D01*
Y917460D01*
X942541Y920001D01*
X945080Y922541D01*
Y925080D01*
X942541D01*
X940001Y922541D01*
X937460Y925080D01*
X934921D01*
Y922541D01*
X937460Y920001D01*
X934921Y917460D01*
Y914921D01*
X944921Y894921D02*
X947460D01*
X950001Y897460D01*
X952541Y894921D01*
X955080D01*
Y897460D01*
X952541Y900001D01*
X955080Y902541D01*
Y905080D01*
X952541D01*
X950001Y902541D01*
X947460Y905080D01*
X944921D01*
Y902541D01*
X947460Y900001D01*
X944921Y897460D01*
Y894921D01*
Y854921D02*
X947460D01*
X950001Y857460D01*
X952541Y854921D01*
X955080D01*
Y857460D01*
X952541Y860001D01*
X955080Y862541D01*
Y865080D01*
X952541D01*
X950001Y862541D01*
X947460Y865080D01*
X944921D01*
Y862541D01*
X947460Y860001D01*
X944921Y857460D01*
Y854921D01*
X934921Y834921D02*
X937460D01*
X940001Y837460D01*
X942541Y834921D01*
X945080D01*
Y837460D01*
X942541Y840001D01*
X945080Y842541D01*
Y845080D01*
X942541D01*
X940001Y842541D01*
X937460Y845080D01*
X934921D01*
Y842541D01*
X937460Y840001D01*
X934921Y837460D01*
Y834921D01*
X944921Y814920D02*
X947460D01*
X950001Y817460D01*
X952541Y814920D01*
X955080D01*
Y817460D01*
X952541Y820000D01*
X955080Y822540D01*
Y825080D01*
X952541D01*
X950001Y822540D01*
X947460Y825080D01*
X944921D01*
Y822540D01*
X947460Y820000D01*
X944921Y817460D01*
Y814920D01*
X934921Y794920D02*
X937460D01*
X940001Y797460D01*
X942541Y794920D01*
X945080D01*
Y797460D01*
X942541Y800000D01*
X945080Y802540D01*
Y805080D01*
X942541D01*
X940001Y802540D01*
X937460Y805080D01*
X934921D01*
Y802540D01*
X937460Y800000D01*
X934921Y797460D01*
Y794920D01*
X944921Y774920D02*
X947460D01*
X950001Y777460D01*
X952541Y774920D01*
X955080D01*
Y777460D01*
X952541Y780000D01*
X955080Y782540D01*
Y785080D01*
X952541D01*
X950001Y782540D01*
X947460Y785080D01*
X944921D01*
Y782540D01*
X947460Y780000D01*
X944921Y777460D01*
Y774920D01*
X934921Y754920D02*
X937460D01*
X940001Y757460D01*
X942541Y754920D01*
X945080D01*
Y757460D01*
X942541Y760000D01*
X945080Y762540D01*
Y765080D01*
X942541D01*
X940001Y762540D01*
X937460Y765080D01*
X934921D01*
Y762540D01*
X937460Y760000D01*
X934921Y757460D01*
Y754920D01*
X944921Y734920D02*
X947460D01*
X950001Y737460D01*
X952541Y734920D01*
X955080D01*
Y737460D01*
X952541Y740000D01*
X955080Y742540D01*
Y745080D01*
X952541D01*
X950001Y742540D01*
X947460Y745080D01*
X944921D01*
Y742540D01*
X947460Y740000D01*
X944921Y737460D01*
Y734920D01*
X934921Y714920D02*
X937460D01*
X940001Y717460D01*
X942541Y714920D01*
X945080D01*
Y717460D01*
X942541Y720000D01*
X945080Y722540D01*
Y725080D01*
X942541D01*
X940001Y722540D01*
X937460Y725080D01*
X934921D01*
Y722540D01*
X937460Y720000D01*
X934921Y717460D01*
Y714920D01*
X924921Y1494921D02*
X927460D01*
X930001Y1497461D01*
X932541Y1494921D01*
X935080D01*
Y1497461D01*
X932541Y1500001D01*
X935080Y1502541D01*
Y1505081D01*
X932541D01*
X930001Y1502541D01*
X927460Y1505081D01*
X924921D01*
Y1502541D01*
X927460Y1500001D01*
X924921Y1497461D01*
Y1494921D01*
X914921Y1474921D02*
X917460D01*
X920001Y1477461D01*
X922541Y1474921D01*
X925080D01*
Y1477461D01*
X922541Y1480001D01*
X925080Y1482541D01*
Y1485081D01*
X922541D01*
X920001Y1482541D01*
X917460Y1485081D01*
X914921D01*
Y1482541D01*
X917460Y1480001D01*
X914921Y1477461D01*
Y1474921D01*
X924921Y1454921D02*
X927460D01*
X930001Y1457461D01*
X932541Y1454921D01*
X935080D01*
Y1457461D01*
X932541Y1460001D01*
X935080Y1462541D01*
Y1465081D01*
X932541D01*
X930001Y1462541D01*
X927460Y1465081D01*
X924921D01*
Y1462541D01*
X927460Y1460001D01*
X924921Y1457461D01*
Y1454921D01*
X914921Y1434921D02*
X917460D01*
X920001Y1437461D01*
X922541Y1434921D01*
X925080D01*
Y1437461D01*
X922541Y1440001D01*
X925080Y1442541D01*
Y1445081D01*
X922541D01*
X920001Y1442541D01*
X917460Y1445081D01*
X914921D01*
Y1442541D01*
X917460Y1440001D01*
X914921Y1437461D01*
Y1434921D01*
X924921Y1414921D02*
X927460D01*
X930001Y1417461D01*
X932541Y1414921D01*
X935080D01*
Y1417461D01*
X932541Y1420001D01*
X935080Y1422541D01*
Y1425081D01*
X932541D01*
X930001Y1422541D01*
X927460Y1425081D01*
X924921D01*
Y1422541D01*
X927460Y1420001D01*
X924921Y1417461D01*
Y1414921D01*
X914921Y1394921D02*
X917460D01*
X920001Y1397461D01*
X922541Y1394921D01*
X925080D01*
Y1397461D01*
X922541Y1400001D01*
X925080Y1402541D01*
Y1405081D01*
X922541D01*
X920001Y1402541D01*
X917460Y1405081D01*
X914921D01*
Y1402541D01*
X917460Y1400001D01*
X914921Y1397461D01*
Y1394921D01*
X924921Y1374921D02*
X927460D01*
X930001Y1377461D01*
X932541Y1374921D01*
X935080D01*
Y1377461D01*
X932541Y1380001D01*
X935080Y1382541D01*
Y1385081D01*
X932541D01*
X930001Y1382541D01*
X927460Y1385081D01*
X924921D01*
Y1382541D01*
X927460Y1380001D01*
X924921Y1377461D01*
Y1374921D01*
X914921Y1354921D02*
X917460D01*
X920001Y1357461D01*
X922541Y1354921D01*
X925080D01*
Y1357461D01*
X922541Y1360001D01*
X925080Y1362541D01*
Y1365081D01*
X922541D01*
X920001Y1362541D01*
X917460Y1365081D01*
X914921D01*
Y1362541D01*
X917460Y1360001D01*
X914921Y1357461D01*
Y1354921D01*
X924921Y1334921D02*
X927460D01*
X930001Y1337461D01*
X932541Y1334921D01*
X935080D01*
Y1337461D01*
X932541Y1340001D01*
X935080Y1342541D01*
Y1345081D01*
X932541D01*
X930001Y1342541D01*
X927460Y1345081D01*
X924921D01*
Y1342541D01*
X927460Y1340001D01*
X924921Y1337461D01*
Y1334921D01*
X914921Y1314921D02*
X917460D01*
X920001Y1317461D01*
X922541Y1314921D01*
X925080D01*
Y1317461D01*
X922541Y1320001D01*
X925080Y1322541D01*
Y1325081D01*
X922541D01*
X920001Y1322541D01*
X917460Y1325081D01*
X914921D01*
Y1322541D01*
X917460Y1320001D01*
X914921Y1317461D01*
Y1314921D01*
X924921Y1294921D02*
X927460D01*
X930001Y1297461D01*
X932541Y1294921D01*
X935080D01*
Y1297461D01*
X932541Y1300001D01*
X935080Y1302541D01*
Y1305081D01*
X932541D01*
X930001Y1302541D01*
X927460Y1305081D01*
X924921D01*
Y1302541D01*
X927460Y1300001D01*
X924921Y1297461D01*
Y1294921D01*
X914921Y1274921D02*
X917460D01*
X920001Y1277461D01*
X922541Y1274921D01*
X925080D01*
Y1277461D01*
X922541Y1280001D01*
X925080Y1282541D01*
Y1285081D01*
X922541D01*
X920001Y1282541D01*
X917460Y1285081D01*
X914921D01*
Y1282541D01*
X917460Y1280001D01*
X914921Y1277461D01*
Y1274921D01*
X924921Y1254921D02*
X927460D01*
X930001Y1257461D01*
X932541Y1254921D01*
X935080D01*
Y1257461D01*
X932541Y1260001D01*
X935080Y1262541D01*
Y1265081D01*
X932541D01*
X930001Y1262541D01*
X927460Y1265081D01*
X924921D01*
Y1262541D01*
X927460Y1260001D01*
X924921Y1257461D01*
Y1254921D01*
X914921Y1234921D02*
X917460D01*
X920001Y1237461D01*
X922541Y1234921D01*
X925080D01*
Y1237461D01*
X922541Y1240001D01*
X925080Y1242541D01*
Y1245081D01*
X922541D01*
X920001Y1242541D01*
X917460Y1245081D01*
X914921D01*
Y1242541D01*
X917460Y1240001D01*
X914921Y1237461D01*
Y1234921D01*
X924921Y1214921D02*
X927460D01*
X930001Y1217461D01*
X932541Y1214921D01*
X935080D01*
Y1217461D01*
X932541Y1220001D01*
X935080Y1222541D01*
Y1225081D01*
X932541D01*
X930001Y1222541D01*
X927460Y1225081D01*
X924921D01*
Y1222541D01*
X927460Y1220001D01*
X924921Y1217461D01*
Y1214921D01*
X914921Y1194921D02*
X917460D01*
X920001Y1197461D01*
X922541Y1194921D01*
X925080D01*
Y1197461D01*
X922541Y1200001D01*
X925080Y1202541D01*
Y1205081D01*
X922541D01*
X920001Y1202541D01*
X917460Y1205081D01*
X914921D01*
Y1202541D01*
X917460Y1200001D01*
X914921Y1197461D01*
Y1194921D01*
Y1154921D02*
X917460D01*
X920001Y1157461D01*
X922541Y1154921D01*
X925080D01*
Y1157461D01*
X922541Y1160001D01*
X925080Y1162541D01*
Y1165081D01*
X922541D01*
X920001Y1162541D01*
X917460Y1165081D01*
X914921D01*
Y1162541D01*
X917460Y1160001D01*
X914921Y1157461D01*
Y1154921D01*
Y1114921D02*
X917460D01*
X920001Y1117461D01*
X922541Y1114921D01*
X925080D01*
Y1117461D01*
X922541Y1120001D01*
X925080Y1122541D01*
Y1125081D01*
X922541D01*
X920001Y1122541D01*
X917460Y1125081D01*
X914921D01*
Y1122541D01*
X917460Y1120001D01*
X914921Y1117461D01*
Y1114921D01*
Y1074921D02*
X917460D01*
X920001Y1077461D01*
X922541Y1074921D01*
X925080D01*
Y1077461D01*
X922541Y1080001D01*
X925080Y1082541D01*
Y1085081D01*
X922541D01*
X920001Y1082541D01*
X917460Y1085081D01*
X914921D01*
Y1082541D01*
X917460Y1080001D01*
X914921Y1077461D01*
Y1074921D01*
Y1034921D02*
X917460D01*
X920001Y1037461D01*
X922541Y1034921D01*
X925080D01*
Y1037461D01*
X922541Y1040001D01*
X925080Y1042541D01*
Y1045081D01*
X922541D01*
X920001Y1042541D01*
X917460Y1045081D01*
X914921D01*
Y1042541D01*
X917460Y1040001D01*
X914921Y1037461D01*
Y1034921D01*
Y994921D02*
X917460D01*
X920001Y997460D01*
X922541Y994921D01*
X925080D01*
Y997460D01*
X922541Y1000001D01*
X925080Y1002541D01*
Y1005080D01*
X922541D01*
X920001Y1002541D01*
X917460Y1005080D01*
X914921D01*
Y1002541D01*
X917460Y1000001D01*
X914921Y997460D01*
Y994921D01*
Y954921D02*
X917460D01*
X920001Y957460D01*
X922541Y954921D01*
X925080D01*
Y957460D01*
X922541Y960001D01*
X925080Y962541D01*
Y965080D01*
X922541D01*
X920001Y962541D01*
X917460Y965080D01*
X914921D01*
Y962541D01*
X917460Y960001D01*
X914921Y957460D01*
Y954921D01*
Y914921D02*
X917460D01*
X920001Y917460D01*
X922541Y914921D01*
X925080D01*
Y917460D01*
X922541Y920001D01*
X925080Y922541D01*
Y925080D01*
X922541D01*
X920001Y922541D01*
X917460Y925080D01*
X914921D01*
Y922541D01*
X917460Y920001D01*
X914921Y917460D01*
Y914921D01*
Y874921D02*
X917460D01*
X920001Y877460D01*
X922541Y874921D01*
X925080D01*
Y877460D01*
X922541Y880001D01*
X925080Y882541D01*
Y885080D01*
X922541D01*
X920001Y882541D01*
X917460Y885080D01*
X914921D01*
Y882541D01*
X917460Y880001D01*
X914921Y877460D01*
Y874921D01*
X924921Y854921D02*
X927460D01*
X930001Y857460D01*
X932541Y854921D01*
X935080D01*
Y857460D01*
X932541Y860001D01*
X935080Y862541D01*
Y865080D01*
X932541D01*
X930001Y862541D01*
X927460Y865080D01*
X924921D01*
Y862541D01*
X927460Y860001D01*
X924921Y857460D01*
Y854921D01*
X914921Y834921D02*
X917460D01*
X920001Y837460D01*
X922541Y834921D01*
X925080D01*
Y837460D01*
X922541Y840001D01*
X925080Y842541D01*
Y845080D01*
X922541D01*
X920001Y842541D01*
X917460Y845080D01*
X914921D01*
Y842541D01*
X917460Y840001D01*
X914921Y837460D01*
Y834921D01*
X924921Y814920D02*
X927460D01*
X930001Y817460D01*
X932541Y814920D01*
X935080D01*
Y817460D01*
X932541Y820000D01*
X935080Y822540D01*
Y825080D01*
X932541D01*
X930001Y822540D01*
X927460Y825080D01*
X924921D01*
Y822540D01*
X927460Y820000D01*
X924921Y817460D01*
Y814920D01*
X914921Y794920D02*
X917460D01*
X920001Y797460D01*
X922541Y794920D01*
X925080D01*
Y797460D01*
X922541Y800000D01*
X925080Y802540D01*
Y805080D01*
X922541D01*
X920001Y802540D01*
X917460Y805080D01*
X914921D01*
Y802540D01*
X917460Y800000D01*
X914921Y797460D01*
Y794920D01*
X924921Y774920D02*
X927460D01*
X930001Y777460D01*
X932541Y774920D01*
X935080D01*
Y777460D01*
X932541Y780000D01*
X935080Y782540D01*
Y785080D01*
X932541D01*
X930001Y782540D01*
X927460Y785080D01*
X924921D01*
Y782540D01*
X927460Y780000D01*
X924921Y777460D01*
Y774920D01*
X914921Y754920D02*
X917460D01*
X920001Y757460D01*
X922541Y754920D01*
X925080D01*
Y757460D01*
X922541Y760000D01*
X925080Y762540D01*
Y765080D01*
X922541D01*
X920001Y762540D01*
X917460Y765080D01*
X914921D01*
Y762540D01*
X917460Y760000D01*
X914921Y757460D01*
Y754920D01*
X924921Y734920D02*
X927460D01*
X930001Y737460D01*
X932541Y734920D01*
X935080D01*
Y737460D01*
X932541Y740000D01*
X935080Y742540D01*
Y745080D01*
X932541D01*
X930001Y742540D01*
X927460Y745080D01*
X924921D01*
Y742540D01*
X927460Y740000D01*
X924921Y737460D01*
Y734920D01*
X914921Y714920D02*
X917460D01*
X920001Y717460D01*
X922541Y714920D01*
X925080D01*
Y717460D01*
X922541Y720000D01*
X925080Y722540D01*
Y725080D01*
X922541D01*
X920001Y722540D01*
X917460Y725080D01*
X914921D01*
Y722540D01*
X917460Y720000D01*
X914921Y717460D01*
Y714920D01*
X904921Y1494921D02*
X907460D01*
X910001Y1497461D01*
X912541Y1494921D01*
X915080D01*
Y1497461D01*
X912541Y1500001D01*
X915080Y1502541D01*
Y1505081D01*
X912541D01*
X910001Y1502541D01*
X907460Y1505081D01*
X904921D01*
Y1502541D01*
X907460Y1500001D01*
X904921Y1497461D01*
Y1494921D01*
X894921Y1474921D02*
X897460D01*
X900001Y1477461D01*
X902541Y1474921D01*
X905080D01*
Y1477461D01*
X902541Y1480001D01*
X905080Y1482541D01*
Y1485081D01*
X902541D01*
X900001Y1482541D01*
X897460Y1485081D01*
X894921D01*
Y1482541D01*
X897460Y1480001D01*
X894921Y1477461D01*
Y1474921D01*
X904921Y1454921D02*
X907460D01*
X910001Y1457461D01*
X912541Y1454921D01*
X915080D01*
Y1457461D01*
X912541Y1460001D01*
X915080Y1462541D01*
Y1465081D01*
X912541D01*
X910001Y1462541D01*
X907460Y1465081D01*
X904921D01*
Y1462541D01*
X907460Y1460001D01*
X904921Y1457461D01*
Y1454921D01*
X894921Y1434921D02*
X897460D01*
X900001Y1437461D01*
X902541Y1434921D01*
X905080D01*
Y1437461D01*
X902541Y1440001D01*
X905080Y1442541D01*
Y1445081D01*
X902541D01*
X900001Y1442541D01*
X897460Y1445081D01*
X894921D01*
Y1442541D01*
X897460Y1440001D01*
X894921Y1437461D01*
Y1434921D01*
X904921Y1414921D02*
X907460D01*
X910001Y1417461D01*
X912541Y1414921D01*
X915080D01*
Y1417461D01*
X912541Y1420001D01*
X915080Y1422541D01*
Y1425081D01*
X912541D01*
X910001Y1422541D01*
X907460Y1425081D01*
X904921D01*
Y1422541D01*
X907460Y1420001D01*
X904921Y1417461D01*
Y1414921D01*
X894921Y1394921D02*
X897460D01*
X900001Y1397461D01*
X902541Y1394921D01*
X905080D01*
Y1397461D01*
X902541Y1400001D01*
X905080Y1402541D01*
Y1405081D01*
X902541D01*
X900001Y1402541D01*
X897460Y1405081D01*
X894921D01*
Y1402541D01*
X897460Y1400001D01*
X894921Y1397461D01*
Y1394921D01*
X904921Y1374921D02*
X907460D01*
X910001Y1377461D01*
X912541Y1374921D01*
X915080D01*
Y1377461D01*
X912541Y1380001D01*
X915080Y1382541D01*
Y1385081D01*
X912541D01*
X910001Y1382541D01*
X907460Y1385081D01*
X904921D01*
Y1382541D01*
X907460Y1380001D01*
X904921Y1377461D01*
Y1374921D01*
X894921Y1354921D02*
X897460D01*
X900001Y1357461D01*
X902541Y1354921D01*
X905080D01*
Y1357461D01*
X902541Y1360001D01*
X905080Y1362541D01*
Y1365081D01*
X902541D01*
X900001Y1362541D01*
X897460Y1365081D01*
X894921D01*
Y1362541D01*
X897460Y1360001D01*
X894921Y1357461D01*
Y1354921D01*
X904921Y1334921D02*
X907460D01*
X910001Y1337461D01*
X912541Y1334921D01*
X915080D01*
Y1337461D01*
X912541Y1340001D01*
X915080Y1342541D01*
Y1345081D01*
X912541D01*
X910001Y1342541D01*
X907460Y1345081D01*
X904921D01*
Y1342541D01*
X907460Y1340001D01*
X904921Y1337461D01*
Y1334921D01*
X894921Y1314921D02*
X897460D01*
X900001Y1317461D01*
X902541Y1314921D01*
X905080D01*
Y1317461D01*
X902541Y1320001D01*
X905080Y1322541D01*
Y1325081D01*
X902541D01*
X900001Y1322541D01*
X897460Y1325081D01*
X894921D01*
Y1322541D01*
X897460Y1320001D01*
X894921Y1317461D01*
Y1314921D01*
X904921Y1294921D02*
X907460D01*
X910001Y1297461D01*
X912541Y1294921D01*
X915080D01*
Y1297461D01*
X912541Y1300001D01*
X915080Y1302541D01*
Y1305081D01*
X912541D01*
X910001Y1302541D01*
X907460Y1305081D01*
X904921D01*
Y1302541D01*
X907460Y1300001D01*
X904921Y1297461D01*
Y1294921D01*
X894921Y1274921D02*
X897460D01*
X900001Y1277461D01*
X902541Y1274921D01*
X905080D01*
Y1277461D01*
X902541Y1280001D01*
X905080Y1282541D01*
Y1285081D01*
X902541D01*
X900001Y1282541D01*
X897460Y1285081D01*
X894921D01*
Y1282541D01*
X897460Y1280001D01*
X894921Y1277461D01*
Y1274921D01*
X904921Y1254921D02*
X907460D01*
X910001Y1257461D01*
X912541Y1254921D01*
X915080D01*
Y1257461D01*
X912541Y1260001D01*
X915080Y1262541D01*
Y1265081D01*
X912541D01*
X910001Y1262541D01*
X907460Y1265081D01*
X904921D01*
Y1262541D01*
X907460Y1260001D01*
X904921Y1257461D01*
Y1254921D01*
X894921Y1234921D02*
X897460D01*
X900001Y1237461D01*
X902541Y1234921D01*
X905080D01*
Y1237461D01*
X902541Y1240001D01*
X905080Y1242541D01*
Y1245081D01*
X902541D01*
X900001Y1242541D01*
X897460Y1245081D01*
X894921D01*
Y1242541D01*
X897460Y1240001D01*
X894921Y1237461D01*
Y1234921D01*
X904921Y1214921D02*
X907460D01*
X910001Y1217461D01*
X912541Y1214921D01*
X915080D01*
Y1217461D01*
X912541Y1220001D01*
X915080Y1222541D01*
Y1225081D01*
X912541D01*
X910001Y1222541D01*
X907460Y1225081D01*
X904921D01*
Y1222541D01*
X907460Y1220001D01*
X904921Y1217461D01*
Y1214921D01*
X894921Y1194921D02*
X897460D01*
X900001Y1197461D01*
X902541Y1194921D01*
X905080D01*
Y1197461D01*
X902541Y1200001D01*
X905080Y1202541D01*
Y1205081D01*
X902541D01*
X900001Y1202541D01*
X897460Y1205081D01*
X894921D01*
Y1202541D01*
X897460Y1200001D01*
X894921Y1197461D01*
Y1194921D01*
X904921Y1174921D02*
X907460D01*
X910001Y1177461D01*
X912541Y1174921D01*
X915080D01*
Y1177461D01*
X912541Y1180001D01*
X915080Y1182541D01*
Y1185081D01*
X912541D01*
X910001Y1182541D01*
X907460Y1185081D01*
X904921D01*
Y1182541D01*
X907460Y1180001D01*
X904921Y1177461D01*
Y1174921D01*
X894921Y1154921D02*
X897460D01*
X900001Y1157461D01*
X902541Y1154921D01*
X905080D01*
Y1157461D01*
X902541Y1160001D01*
X905080Y1162541D01*
Y1165081D01*
X902541D01*
X900001Y1162541D01*
X897460Y1165081D01*
X894921D01*
Y1162541D01*
X897460Y1160001D01*
X894921Y1157461D01*
Y1154921D01*
X904921Y1134921D02*
X907460D01*
X910001Y1137461D01*
X912541Y1134921D01*
X915080D01*
Y1137461D01*
X912541Y1140001D01*
X915080Y1142541D01*
Y1145081D01*
X912541D01*
X910001Y1142541D01*
X907460Y1145081D01*
X904921D01*
Y1142541D01*
X907460Y1140001D01*
X904921Y1137461D01*
Y1134921D01*
X894921Y1114921D02*
X897460D01*
X900001Y1117461D01*
X902541Y1114921D01*
X905080D01*
Y1117461D01*
X902541Y1120001D01*
X905080Y1122541D01*
Y1125081D01*
X902541D01*
X900001Y1122541D01*
X897460Y1125081D01*
X894921D01*
Y1122541D01*
X897460Y1120001D01*
X894921Y1117461D01*
Y1114921D01*
X904921Y1094921D02*
X907460D01*
X910001Y1097461D01*
X912541Y1094921D01*
X915080D01*
Y1097461D01*
X912541Y1100001D01*
X915080Y1102541D01*
Y1105081D01*
X912541D01*
X910001Y1102541D01*
X907460Y1105081D01*
X904921D01*
Y1102541D01*
X907460Y1100001D01*
X904921Y1097461D01*
Y1094921D01*
X894921Y1074921D02*
X897460D01*
X900001Y1077461D01*
X902541Y1074921D01*
X905080D01*
Y1077461D01*
X902541Y1080001D01*
X905080Y1082541D01*
Y1085081D01*
X902541D01*
X900001Y1082541D01*
X897460Y1085081D01*
X894921D01*
Y1082541D01*
X897460Y1080001D01*
X894921Y1077461D01*
Y1074921D01*
X904921Y1054921D02*
X907460D01*
X910001Y1057461D01*
X912541Y1054921D01*
X915080D01*
Y1057461D01*
X912541Y1060001D01*
X915080Y1062541D01*
Y1065081D01*
X912541D01*
X910001Y1062541D01*
X907460Y1065081D01*
X904921D01*
Y1062541D01*
X907460Y1060001D01*
X904921Y1057461D01*
Y1054921D01*
X894921Y1034921D02*
X897460D01*
X900001Y1037461D01*
X902541Y1034921D01*
X905080D01*
Y1037461D01*
X902541Y1040001D01*
X905080Y1042541D01*
Y1045081D01*
X902541D01*
X900001Y1042541D01*
X897460Y1045081D01*
X894921D01*
Y1042541D01*
X897460Y1040001D01*
X894921Y1037461D01*
Y1034921D01*
X904921Y1014921D02*
X907460D01*
X910001Y1017461D01*
X912541Y1014921D01*
X915080D01*
Y1017461D01*
X912541Y1020001D01*
X915080Y1022541D01*
Y1025081D01*
X912541D01*
X910001Y1022541D01*
X907460Y1025081D01*
X904921D01*
Y1022541D01*
X907460Y1020001D01*
X904921Y1017461D01*
Y1014921D01*
X894921Y994921D02*
X897460D01*
X900001Y997460D01*
X902541Y994921D01*
X905080D01*
Y997460D01*
X902541Y1000001D01*
X905080Y1002541D01*
Y1005080D01*
X902541D01*
X900001Y1002541D01*
X897460Y1005080D01*
X894921D01*
Y1002541D01*
X897460Y1000001D01*
X894921Y997460D01*
Y994921D01*
X904921Y974921D02*
X907460D01*
X910001Y977460D01*
X912541Y974921D01*
X915080D01*
Y977460D01*
X912541Y980001D01*
X915080Y982541D01*
Y985080D01*
X912541D01*
X910001Y982541D01*
X907460Y985080D01*
X904921D01*
Y982541D01*
X907460Y980001D01*
X904921Y977460D01*
Y974921D01*
X894921Y954921D02*
X897460D01*
X900001Y957460D01*
X902541Y954921D01*
X905080D01*
Y957460D01*
X902541Y960001D01*
X905080Y962541D01*
Y965080D01*
X902541D01*
X900001Y962541D01*
X897460Y965080D01*
X894921D01*
Y962541D01*
X897460Y960001D01*
X894921Y957460D01*
Y954921D01*
X904921Y934921D02*
X907460D01*
X910001Y937460D01*
X912541Y934921D01*
X915080D01*
Y937460D01*
X912541Y940001D01*
X915080Y942541D01*
Y945080D01*
X912541D01*
X910001Y942541D01*
X907460Y945080D01*
X904921D01*
Y942541D01*
X907460Y940001D01*
X904921Y937460D01*
Y934921D01*
X894921Y914921D02*
X897460D01*
X900001Y917460D01*
X902541Y914921D01*
X905080D01*
Y917460D01*
X902541Y920001D01*
X905080Y922541D01*
Y925080D01*
X902541D01*
X900001Y922541D01*
X897460Y925080D01*
X894921D01*
Y922541D01*
X897460Y920001D01*
X894921Y917460D01*
Y914921D01*
X904921Y894921D02*
X907460D01*
X910001Y897460D01*
X912541Y894921D01*
X915080D01*
Y897460D01*
X912541Y900001D01*
X915080Y902541D01*
Y905080D01*
X912541D01*
X910001Y902541D01*
X907460Y905080D01*
X904921D01*
Y902541D01*
X907460Y900001D01*
X904921Y897460D01*
Y894921D01*
X894921Y874921D02*
X897460D01*
X900001Y877460D01*
X902541Y874921D01*
X905080D01*
Y877460D01*
X902541Y880001D01*
X905080Y882541D01*
Y885080D01*
X902541D01*
X900001Y882541D01*
X897460Y885080D01*
X894921D01*
Y882541D01*
X897460Y880001D01*
X894921Y877460D01*
Y874921D01*
X904921Y854921D02*
X907460D01*
X910001Y857460D01*
X912541Y854921D01*
X915080D01*
Y857460D01*
X912541Y860001D01*
X915080Y862541D01*
Y865080D01*
X912541D01*
X910001Y862541D01*
X907460Y865080D01*
X904921D01*
Y862541D01*
X907460Y860001D01*
X904921Y857460D01*
Y854921D01*
X894921Y834921D02*
X897460D01*
X900001Y837460D01*
X902541Y834921D01*
X905080D01*
Y837460D01*
X902541Y840001D01*
X905080Y842541D01*
Y845080D01*
X902541D01*
X900001Y842541D01*
X897460Y845080D01*
X894921D01*
Y842541D01*
X897460Y840001D01*
X894921Y837460D01*
Y834921D01*
X904921Y814920D02*
X907460D01*
X910001Y817460D01*
X912541Y814920D01*
X915080D01*
Y817460D01*
X912541Y820000D01*
X915080Y822540D01*
Y825080D01*
X912541D01*
X910001Y822540D01*
X907460Y825080D01*
X904921D01*
Y822540D01*
X907460Y820000D01*
X904921Y817460D01*
Y814920D01*
X894921Y794920D02*
X897460D01*
X900001Y797460D01*
X902541Y794920D01*
X905080D01*
Y797460D01*
X902541Y800000D01*
X905080Y802540D01*
Y805080D01*
X902541D01*
X900001Y802540D01*
X897460Y805080D01*
X894921D01*
Y802540D01*
X897460Y800000D01*
X894921Y797460D01*
Y794920D01*
X904921Y774920D02*
X907460D01*
X910001Y777460D01*
X912541Y774920D01*
X915080D01*
Y777460D01*
X912541Y780000D01*
X915080Y782540D01*
Y785080D01*
X912541D01*
X910001Y782540D01*
X907460Y785080D01*
X904921D01*
Y782540D01*
X907460Y780000D01*
X904921Y777460D01*
Y774920D01*
X894921Y754920D02*
X897460D01*
X900001Y757460D01*
X902541Y754920D01*
X905080D01*
Y757460D01*
X902541Y760000D01*
X905080Y762540D01*
Y765080D01*
X902541D01*
X900001Y762540D01*
X897460Y765080D01*
X894921D01*
Y762540D01*
X897460Y760000D01*
X894921Y757460D01*
Y754920D01*
X904921Y734920D02*
X907460D01*
X910001Y737460D01*
X912541Y734920D01*
X915080D01*
Y737460D01*
X912541Y740000D01*
X915080Y742540D01*
Y745080D01*
X912541D01*
X910001Y742540D01*
X907460Y745080D01*
X904921D01*
Y742540D01*
X907460Y740000D01*
X904921Y737460D01*
Y734920D01*
X1047280Y1198038D02*
Y1208198D01*
X1057440D01*
Y1198038D01*
X1047280D01*
X1049312Y1200070D02*
Y1206166D01*
X1055408D01*
Y1200070D01*
X1049312D01*
X1033280Y1192907D02*
X1035820D01*
X1038360Y1195447D01*
X1040900Y1192907D01*
X1043440D01*
Y1195447D01*
X1040900Y1197987D01*
X1043440Y1200527D01*
Y1203067D01*
X1040900D01*
X1038360Y1200527D01*
X1035820Y1203067D01*
X1033280D01*
Y1200527D01*
X1035820Y1197987D01*
X1033280Y1195447D01*
Y1192907D01*
X1318514Y849630D02*
Y859790D01*
X1328674D01*
Y849630D01*
X1318514D01*
X1320546Y851662D02*
Y857758D01*
X1326642D01*
Y851662D01*
X1320546D01*
X1229936Y1067540D02*
Y1077700D01*
X1240096D01*
Y1067540D01*
X1229936D01*
X1231968Y1069572D02*
Y1075668D01*
X1238064D01*
Y1069572D01*
X1231968D01*
X1161034Y1079246D02*
X1163574D01*
X1166114Y1081786D01*
X1168654Y1079246D01*
X1171194D01*
Y1081786D01*
X1168654Y1084326D01*
X1171194Y1086866D01*
Y1089406D01*
X1168654D01*
X1166114Y1086866D01*
X1163574Y1089406D01*
X1161034D01*
Y1086866D01*
X1163574Y1084326D01*
X1161034Y1081786D01*
Y1079246D01*
X1096010Y1076960D02*
X1098550D01*
X1101090Y1079500D01*
X1103630Y1076960D01*
X1106170D01*
Y1079500D01*
X1103630Y1082040D01*
X1106170Y1084580D01*
Y1087120D01*
X1103630D01*
X1101090Y1084580D01*
X1098550Y1087120D01*
X1096010D01*
Y1084580D01*
X1098550Y1082040D01*
X1096010Y1079500D01*
Y1076960D01*
X1161034Y961390D02*
X1163574D01*
X1166114Y963930D01*
X1168654Y961390D01*
X1171194D01*
Y963930D01*
X1168654Y966470D01*
X1171194Y969010D01*
Y971550D01*
X1168654D01*
X1166114Y969010D01*
X1163574Y971550D01*
X1161034D01*
Y969010D01*
X1163574Y966470D01*
X1161034Y963930D01*
Y961390D01*
X1350010Y958553D02*
X1352550D01*
X1355090Y961093D01*
X1357630Y958553D01*
X1360170D01*
Y961093D01*
X1357630Y963633D01*
X1360170Y966173D01*
Y968713D01*
X1357630D01*
X1355090Y966173D01*
X1352550Y968713D01*
X1350010D01*
Y966173D01*
X1352550Y963633D01*
X1350010Y961093D01*
Y958553D01*
X1290320Y939800D02*
X1292860D01*
X1295400Y942340D01*
X1297940Y939800D01*
X1300480D01*
Y942340D01*
X1297940Y944880D01*
X1300480Y947420D01*
Y949960D01*
X1297940D01*
X1295400Y947420D01*
X1292860Y949960D01*
X1290320D01*
Y947420D01*
X1292860Y944880D01*
X1290320Y942340D01*
Y939800D01*
X1242060Y891540D02*
X1244600D01*
X1247140Y894080D01*
X1249680Y891540D01*
X1252220D01*
Y894080D01*
X1249680Y896620D01*
X1252220Y899160D01*
Y901700D01*
X1249680D01*
X1247140Y899160D01*
X1244600Y901700D01*
X1242060D01*
Y899160D01*
X1244600Y896620D01*
X1242060Y894080D01*
Y891540D01*
X1181608Y1023366D02*
X1184148D01*
X1186688Y1025906D01*
X1189228Y1023366D01*
X1191768D01*
Y1025906D01*
X1189228Y1028446D01*
X1191768Y1030986D01*
Y1033526D01*
X1189228D01*
X1186688Y1030986D01*
X1184148Y1033526D01*
X1181608D01*
Y1030986D01*
X1184148Y1028446D01*
X1181608Y1025906D01*
Y1023366D01*
X1107440Y1173988D02*
X1109980D01*
X1112520Y1176528D01*
X1115060Y1173988D01*
X1117600D01*
Y1176528D01*
X1115060Y1179068D01*
X1117600Y1181608D01*
Y1184148D01*
X1115060D01*
X1112520Y1181608D01*
X1109980Y1184148D01*
X1107440D01*
Y1181608D01*
X1109980Y1179068D01*
X1107440Y1176528D01*
Y1173988D01*
X1170280Y1163860D02*
X1172820D01*
X1175360Y1166400D01*
X1177900Y1163860D01*
X1180440D01*
Y1166400D01*
X1177900Y1168940D01*
X1180440Y1171480D01*
Y1174020D01*
X1177900D01*
X1175360Y1171480D01*
X1172820Y1174020D01*
X1170280D01*
Y1171480D01*
X1172820Y1168940D01*
X1170280Y1166400D01*
Y1163860D01*
X998220Y1197610D02*
X1000760D01*
X1003300Y1200150D01*
X1005840Y1197610D01*
X1008380D01*
Y1200150D01*
X1005840Y1202690D01*
X1008380Y1205230D01*
Y1207770D01*
X1005840D01*
X1003300Y1205230D01*
X1000760Y1207770D01*
X998220D01*
Y1205230D01*
X1000760Y1202690D01*
X998220Y1200150D01*
Y1197610D01*
X1261364Y1025906D02*
X1263904D01*
X1266444Y1028446D01*
X1268984Y1025906D01*
X1271524D01*
Y1028446D01*
X1268984Y1030986D01*
X1271524Y1033526D01*
Y1036066D01*
X1268984D01*
X1266444Y1033526D01*
X1263904Y1036066D01*
X1261364D01*
Y1033526D01*
X1263904Y1030986D01*
X1261364Y1028446D01*
Y1025906D01*
X1256284Y1127760D02*
X1258824D01*
X1261364Y1130300D01*
X1263904Y1127760D01*
X1266444D01*
Y1130300D01*
X1263904Y1132840D01*
X1266444Y1135380D01*
Y1137920D01*
X1263904D01*
X1261364Y1135380D01*
X1258824Y1137920D01*
X1256284D01*
Y1135380D01*
X1258824Y1132840D01*
X1256284Y1130300D01*
Y1127760D01*
X1046480Y1272540D02*
X1049020D01*
X1051560Y1275080D01*
X1054100Y1272540D01*
X1056640D01*
Y1275080D01*
X1054100Y1277620D01*
X1056640Y1280160D01*
Y1282700D01*
X1054100D01*
X1051560Y1280160D01*
X1049020Y1282700D01*
X1046480D01*
Y1280160D01*
X1049020Y1277620D01*
X1046480Y1275080D01*
Y1272540D01*
X958960Y1185020D02*
X961500D01*
X964040Y1187560D01*
X966580Y1185020D01*
X969120D01*
Y1187560D01*
X966580Y1190100D01*
X969120Y1192640D01*
Y1195180D01*
X966580D01*
X964040Y1192640D01*
X961500Y1195180D01*
X958960D01*
Y1192640D01*
X961500Y1190100D01*
X958960Y1187560D01*
Y1185020D01*
Y1073658D02*
X961500D01*
X964040Y1076198D01*
X966580Y1073658D01*
X969120D01*
Y1076198D01*
X966580Y1078738D01*
X969120Y1081278D01*
Y1083818D01*
X966580D01*
X964040Y1081278D01*
X961500Y1083818D01*
X958960D01*
Y1081278D01*
X961500Y1078738D01*
X958960Y1076198D01*
Y1073658D01*
X1150874Y1117962D02*
X1153414D01*
X1155954Y1120502D01*
X1158494Y1117962D01*
X1161034D01*
Y1120502D01*
X1158494Y1123042D01*
X1161034Y1125582D01*
Y1128122D01*
X1158494D01*
X1155954Y1125582D01*
X1153414Y1128122D01*
X1150874D01*
Y1125582D01*
X1153414Y1123042D01*
X1150874Y1120502D01*
Y1117962D01*
X1147826Y1217168D02*
X1150366D01*
X1152906Y1219708D01*
X1155446Y1217168D01*
X1157986D01*
Y1219708D01*
X1155446Y1222248D01*
X1157986Y1224788D01*
Y1227328D01*
X1155446D01*
X1152906Y1224788D01*
X1150366Y1227328D01*
X1147826D01*
Y1224788D01*
X1150366Y1222248D01*
X1147826Y1219708D01*
Y1217168D01*
X1396238Y1308608D02*
X1398778D01*
X1401318Y1311148D01*
X1403858Y1308608D01*
X1406398D01*
Y1311148D01*
X1403858Y1313688D01*
X1406398Y1316228D01*
Y1318768D01*
X1403858D01*
X1401318Y1316228D01*
X1398778Y1318768D01*
X1396238D01*
Y1316228D01*
X1398778Y1313688D01*
X1396238Y1311148D01*
Y1308608D01*
X1052322Y1424432D02*
X1054862D01*
X1057402Y1426972D01*
X1059942Y1424432D01*
X1062482D01*
Y1426972D01*
X1059942Y1429512D01*
X1062482Y1432052D01*
Y1434592D01*
X1059942D01*
X1057402Y1432052D01*
X1054862Y1434592D01*
X1052322D01*
Y1432052D01*
X1054862Y1429512D01*
X1052322Y1426972D01*
Y1424432D01*
X1128522Y1037590D02*
X1131062D01*
X1133602Y1040130D01*
X1136142Y1037590D01*
X1138682D01*
Y1040130D01*
X1136142Y1042670D01*
X1138682Y1045210D01*
Y1047750D01*
X1136142D01*
X1133602Y1045210D01*
X1131062Y1047750D01*
X1128522D01*
Y1045210D01*
X1131062Y1042670D01*
X1128522Y1040130D01*
Y1037590D01*
X1285240Y1082040D02*
X1287780D01*
X1290320Y1084580D01*
X1292860Y1082040D01*
X1295400D01*
Y1084580D01*
X1292860Y1087120D01*
X1295400Y1089660D01*
Y1092200D01*
X1292860D01*
X1290320Y1089660D01*
X1287780Y1092200D01*
X1285240D01*
Y1089660D01*
X1287780Y1087120D01*
X1285240Y1084580D01*
Y1082040D01*
X1068070Y878840D02*
X1070610D01*
X1073150Y881380D01*
X1075690Y878840D01*
X1078230D01*
Y881380D01*
X1075690Y883920D01*
X1078230Y886460D01*
Y889000D01*
X1075690D01*
X1073150Y886460D01*
X1070610Y889000D01*
X1068070D01*
Y886460D01*
X1070610Y883920D01*
X1068070Y881380D01*
Y878840D01*
X1026414Y903224D02*
X1028954D01*
X1031494Y905764D01*
X1034034Y903224D01*
X1036574D01*
Y905764D01*
X1034034Y908304D01*
X1036574Y910844D01*
Y913384D01*
X1034034D01*
X1031494Y910844D01*
X1028954Y913384D01*
X1026414D01*
Y910844D01*
X1028954Y908304D01*
X1026414Y905764D01*
Y903224D01*
X1049020Y990600D02*
X1051560D01*
X1054100Y993140D01*
X1056640Y990600D01*
X1059180D01*
Y993140D01*
X1056640Y995680D01*
X1059180Y998220D01*
Y1000760D01*
X1056640D01*
X1054100Y998220D01*
X1051560Y1000760D01*
X1049020D01*
Y998220D01*
X1051560Y995680D01*
X1049020Y993140D01*
Y990600D01*
X983996Y1235456D02*
X986536D01*
X989076Y1237996D01*
X991616Y1235456D01*
X994156D01*
Y1237996D01*
X991616Y1240536D01*
X994156Y1243076D01*
Y1245616D01*
X991616D01*
X989076Y1243076D01*
X986536Y1245616D01*
X983996D01*
Y1243076D01*
X986536Y1240536D01*
X983996Y1237996D01*
Y1235456D01*
X1111250Y1093978D02*
X1113790D01*
X1116330Y1096518D01*
X1118870Y1093978D01*
X1121410D01*
Y1096518D01*
X1118870Y1099058D01*
X1121410Y1101598D01*
Y1104138D01*
X1118870D01*
X1116330Y1101598D01*
X1113790Y1104138D01*
X1111250D01*
Y1101598D01*
X1113790Y1099058D01*
X1111250Y1096518D01*
Y1093978D01*
X1019200Y1071220D02*
X1021740D01*
X1024280Y1073760D01*
X1026820Y1071220D01*
X1029360D01*
Y1073760D01*
X1026820Y1076300D01*
X1029360Y1078840D01*
Y1081380D01*
X1026820D01*
X1024280Y1078840D01*
X1021740Y1081380D01*
X1019200D01*
Y1078840D01*
X1021740Y1076300D01*
X1019200Y1073760D01*
Y1071220D01*
X1077722Y942340D02*
X1080262D01*
X1082802Y944880D01*
X1085342Y942340D01*
X1087882D01*
Y944880D01*
X1085342Y947420D01*
X1087882Y949960D01*
Y952500D01*
X1085342D01*
X1082802Y949960D01*
X1080262Y952500D01*
X1077722D01*
Y949960D01*
X1080262Y947420D01*
X1077722Y944880D01*
Y942340D01*
X1346340Y947766D02*
X1348880D01*
X1351420Y950306D01*
X1353960Y947766D01*
X1356500D01*
Y950306D01*
X1353960Y952847D01*
X1356500Y955387D01*
Y957926D01*
X1353960D01*
X1351420Y955387D01*
X1348880Y957926D01*
X1346340D01*
Y955387D01*
X1348880Y952847D01*
X1346340Y950306D01*
Y947766D01*
X1299210Y839549D02*
X1301750D01*
X1304290Y842089D01*
X1306830Y839549D01*
X1309370D01*
Y842089D01*
X1306830Y844629D01*
X1309370Y847169D01*
Y849709D01*
X1306830D01*
X1304290Y847169D01*
X1301750Y849709D01*
X1299210D01*
Y847169D01*
X1301750Y844629D01*
X1299210Y842089D01*
Y839549D01*
X1075944Y1221232D02*
X1078484D01*
X1081024Y1223772D01*
X1083564Y1221232D01*
X1086104D01*
Y1223772D01*
X1083564Y1226312D01*
X1086104Y1228852D01*
Y1231392D01*
X1083564D01*
X1081024Y1228852D01*
X1078484Y1231392D01*
X1075944D01*
Y1228852D01*
X1078484Y1226312D01*
X1075944Y1223772D01*
Y1221232D01*
X1158630Y1097534D02*
X1161170D01*
X1163710Y1100074D01*
X1166250Y1097534D01*
X1168790D01*
Y1100074D01*
X1166250Y1102614D01*
X1168790Y1105154D01*
Y1107694D01*
X1166250D01*
X1163710Y1105154D01*
X1161170Y1107694D01*
X1158630D01*
Y1105154D01*
X1161170Y1102614D01*
X1158630Y1100074D01*
Y1097534D01*
X1019200Y965556D02*
X1021740D01*
X1024280Y968096D01*
X1026820Y965556D01*
X1029360D01*
Y968096D01*
X1026820Y970636D01*
X1029360Y973176D01*
Y975716D01*
X1026820D01*
X1024280Y973176D01*
X1021740Y975716D01*
X1019200D01*
Y973176D01*
X1021740Y970636D01*
X1019200Y968096D01*
Y965556D01*
X1163320Y1304798D02*
X1165860D01*
X1168400Y1307338D01*
X1170940Y1304798D01*
X1173480D01*
Y1307338D01*
X1170940Y1309878D01*
X1173480Y1312418D01*
Y1314958D01*
X1170940D01*
X1168400Y1312418D01*
X1165860Y1314958D01*
X1163320D01*
Y1312418D01*
X1165860Y1309878D01*
X1163320Y1307338D01*
Y1304798D01*
X1250442Y1062736D02*
X1252982D01*
X1255522Y1065276D01*
X1258062Y1062736D01*
X1260602D01*
Y1065276D01*
X1258062Y1067816D01*
X1260602Y1070356D01*
Y1072896D01*
X1258062D01*
X1255522Y1070356D01*
X1252982Y1072896D01*
X1250442D01*
Y1070356D01*
X1252982Y1067816D01*
X1250442Y1065276D01*
Y1062736D01*
X1080008Y1304036D02*
X1082548D01*
X1085088Y1306576D01*
X1087628Y1304036D01*
X1090168D01*
Y1306576D01*
X1087628Y1309116D01*
X1090168Y1311656D01*
Y1314196D01*
X1087628D01*
X1085088Y1311656D01*
X1082548Y1314196D01*
X1080008D01*
Y1311656D01*
X1082548Y1309116D01*
X1080008Y1306576D01*
Y1304036D01*
X1004780Y1273048D02*
X1007320D01*
X1009860Y1275588D01*
X1012400Y1273048D01*
X1014940D01*
Y1275588D01*
X1012400Y1278128D01*
X1014940Y1280668D01*
Y1283208D01*
X1012400D01*
X1009860Y1280668D01*
X1007320Y1283208D01*
X1004780D01*
Y1280668D01*
X1007320Y1278128D01*
X1004780Y1275588D01*
Y1273048D01*
X1244092Y1317752D02*
X1246632D01*
X1249172Y1320292D01*
X1251712Y1317752D01*
X1254252D01*
Y1320292D01*
X1251712Y1322832D01*
X1254252Y1325372D01*
Y1327912D01*
X1251712D01*
X1249172Y1325372D01*
X1246632Y1327912D01*
X1244092D01*
Y1325372D01*
X1246632Y1322832D01*
X1244092Y1320292D01*
Y1317752D01*
X1165860Y1214120D02*
X1168400D01*
X1170940Y1216660D01*
X1173480Y1214120D01*
X1176020D01*
Y1216660D01*
X1173480Y1219200D01*
X1176020Y1221740D01*
Y1224280D01*
X1173480D01*
X1170940Y1221740D01*
X1168400Y1224280D01*
X1165860D01*
Y1221740D01*
X1168400Y1219200D01*
X1165860Y1216660D01*
Y1214120D01*
X1144778Y1230204D02*
X1147318D01*
X1149858Y1232744D01*
X1152398Y1230204D01*
X1154938D01*
Y1232744D01*
X1152398Y1235284D01*
X1154938Y1237824D01*
Y1240364D01*
X1152398D01*
X1149858Y1237824D01*
X1147318Y1240364D01*
X1144778D01*
Y1237824D01*
X1147318Y1235284D01*
X1144778Y1232744D01*
Y1230204D01*
X1039876Y1183183D02*
X1042416D01*
X1044956Y1185723D01*
X1047496Y1183183D01*
X1050036D01*
Y1185723D01*
X1047496Y1188263D01*
X1050036Y1190803D01*
Y1193343D01*
X1047496D01*
X1044956Y1190803D01*
X1042416Y1193343D01*
X1039876D01*
Y1190803D01*
X1042416Y1188263D01*
X1039876Y1185723D01*
Y1183183D01*
X1308100Y1329944D02*
X1310640D01*
X1313180Y1332484D01*
X1315720Y1329944D01*
X1318260D01*
Y1332484D01*
X1315720Y1335024D01*
X1318260Y1337564D01*
Y1340104D01*
X1315720D01*
X1313180Y1337564D01*
X1310640Y1340104D01*
X1308100D01*
Y1337564D01*
X1310640Y1335024D01*
X1308100Y1332484D01*
Y1329944D01*
X1229106Y861314D02*
X1231646D01*
X1234186Y863854D01*
X1236726Y861314D01*
X1239266D01*
Y863854D01*
X1236726Y866394D01*
X1239266Y868934D01*
Y871474D01*
X1236726D01*
X1234186Y868934D01*
X1231646Y871474D01*
X1229106D01*
Y868934D01*
X1231646Y866394D01*
X1229106Y863854D01*
Y861314D01*
X1343602Y871670D02*
X1346142D01*
X1348682Y874210D01*
X1351222Y871670D01*
X1353762D01*
Y874210D01*
X1351222Y876750D01*
X1353762Y879290D01*
Y881830D01*
X1351222D01*
X1348682Y879290D01*
X1346142Y881830D01*
X1343602D01*
Y879290D01*
X1346142Y876750D01*
X1343602Y874210D01*
Y871670D01*
X1192276Y847344D02*
X1194816D01*
X1197356Y849884D01*
X1199896Y847344D01*
X1202436D01*
Y849884D01*
X1199896Y852424D01*
X1202436Y854964D01*
Y857504D01*
X1199896D01*
X1197356Y854964D01*
X1194816Y857504D01*
X1192276D01*
Y854964D01*
X1194816Y852424D01*
X1192276Y849884D01*
Y847344D01*
X1350018Y845320D02*
X1352558D01*
X1355098Y847860D01*
X1357638Y845320D01*
X1360178D01*
Y847860D01*
X1357638Y850400D01*
X1360178Y852940D01*
Y855480D01*
X1357638D01*
X1355098Y852940D01*
X1352558Y855480D01*
X1350018D01*
Y852940D01*
X1352558Y850400D01*
X1350018Y847860D01*
Y845320D01*
D63*
X1059180Y927100D02*
X1058598Y929461D01*
X1056986Y931281D01*
X1054712Y932143D01*
X1052299Y931850D01*
X1050298Y930469D01*
X1049168Y928316D01*
Y925884D01*
X1050298Y923731D01*
X1052299Y922350D01*
X1054712Y922057D01*
X1056986Y922919D01*
X1058598Y924739D01*
X1059180Y927100D01*
X1084580D02*
X1083998Y929461D01*
X1082386Y931281D01*
X1080112Y932143D01*
X1077699Y931850D01*
X1075698Y930469D01*
X1074568Y928316D01*
Y925884D01*
X1075698Y923731D01*
X1077699Y922350D01*
X1080112Y922057D01*
X1082386Y922919D01*
X1083998Y924739D01*
X1084580Y927100D01*
X1083480Y1426210D02*
X1082898Y1428571D01*
X1081286Y1430391D01*
X1079013Y1431253D01*
X1076599Y1430960D01*
X1074598Y1429579D01*
X1073468Y1427426D01*
Y1424994D01*
X1074598Y1422841D01*
X1076599Y1421460D01*
X1079013Y1421167D01*
X1081286Y1422029D01*
X1082898Y1423849D01*
X1083480Y1426210D01*
X1113480D02*
X1112898Y1428571D01*
X1111286Y1430391D01*
X1109012Y1431253D01*
X1106599Y1430960D01*
X1104598Y1429579D01*
X1103468Y1427426D01*
Y1424994D01*
X1104598Y1422841D01*
X1106599Y1421460D01*
X1109012Y1421167D01*
X1111286Y1422029D01*
X1112898Y1423849D01*
X1113480Y1426210D01*
X1143480D02*
X1142898Y1428571D01*
X1141286Y1430391D01*
X1139012Y1431253D01*
X1136599Y1430960D01*
X1134598Y1429579D01*
X1133468Y1427426D01*
Y1424994D01*
X1134598Y1422841D01*
X1136599Y1421460D01*
X1139012Y1421167D01*
X1141286Y1422029D01*
X1142898Y1423849D01*
X1143480Y1426210D01*
X1173480D02*
X1172898Y1428571D01*
X1171286Y1430391D01*
X1169012Y1431253D01*
X1166599Y1430960D01*
X1164598Y1429579D01*
X1163468Y1427426D01*
Y1424994D01*
X1164598Y1422841D01*
X1166599Y1421460D01*
X1169012Y1421167D01*
X1171286Y1422029D01*
X1172898Y1423849D01*
X1173480Y1426210D01*
X1203480D02*
X1202898Y1428571D01*
X1201286Y1430391D01*
X1199012Y1431253D01*
X1196599Y1430960D01*
X1194597Y1429579D01*
X1193468Y1427426D01*
Y1424994D01*
X1194597Y1422841D01*
X1196599Y1421460D01*
X1199012Y1421167D01*
X1201286Y1422029D01*
X1202898Y1423849D01*
X1203480Y1426210D01*
X1233480D02*
X1232898Y1428571D01*
X1231286Y1430391D01*
X1229012Y1431253D01*
X1226599Y1430960D01*
X1224597Y1429579D01*
X1223467Y1427426D01*
Y1424994D01*
X1224597Y1422841D01*
X1226599Y1421460D01*
X1229012Y1421167D01*
X1231286Y1422029D01*
X1232898Y1423849D01*
X1233480Y1426210D01*
X1263480D02*
X1262898Y1428571D01*
X1261286Y1430391D01*
X1259012Y1431253D01*
X1256598Y1430960D01*
X1254597Y1429579D01*
X1253467Y1427426D01*
Y1424994D01*
X1254597Y1422841D01*
X1256598Y1421460D01*
X1259012Y1421167D01*
X1261286Y1422029D01*
X1262898Y1423849D01*
X1263480Y1426210D01*
X1098480Y1401210D02*
X1097898Y1403571D01*
X1096286Y1405391D01*
X1094012Y1406253D01*
X1091599Y1405960D01*
X1089597Y1404579D01*
X1088467Y1402426D01*
Y1399994D01*
X1089597Y1397841D01*
X1091599Y1396460D01*
X1094012Y1396167D01*
X1096286Y1397029D01*
X1097898Y1398849D01*
X1098480Y1401210D01*
X1128480D02*
X1127898Y1403571D01*
X1126286Y1405391D01*
X1124012Y1406253D01*
X1121598Y1405960D01*
X1119597Y1404579D01*
X1118467Y1402426D01*
Y1399994D01*
X1119597Y1397841D01*
X1121598Y1396460D01*
X1124012Y1396167D01*
X1126286Y1397029D01*
X1127898Y1398849D01*
X1128480Y1401210D01*
X1158480D02*
X1157898Y1403571D01*
X1156285Y1405391D01*
X1154012Y1406253D01*
X1151598Y1405960D01*
X1149597Y1404579D01*
X1148467Y1402426D01*
Y1399994D01*
X1149597Y1397841D01*
X1151598Y1396460D01*
X1154012Y1396167D01*
X1156285Y1397029D01*
X1157898Y1398849D01*
X1158480Y1401210D01*
X1188480D02*
X1187898Y1403571D01*
X1186286Y1405391D01*
X1184013Y1406253D01*
X1181599Y1405960D01*
X1179598Y1404579D01*
X1178468Y1402426D01*
Y1399994D01*
X1179598Y1397841D01*
X1181599Y1396460D01*
X1184013Y1396167D01*
X1186286Y1397029D01*
X1187898Y1398849D01*
X1188480Y1401210D01*
X1218480D02*
X1217898Y1403571D01*
X1216286Y1405391D01*
X1214013Y1406253D01*
X1211599Y1405960D01*
X1209598Y1404579D01*
X1208468Y1402426D01*
Y1399994D01*
X1209598Y1397841D01*
X1211599Y1396460D01*
X1214013Y1396167D01*
X1216286Y1397029D01*
X1217898Y1398849D01*
X1218480Y1401210D01*
X1248480D02*
X1247898Y1403571D01*
X1246286Y1405391D01*
X1244012Y1406253D01*
X1241599Y1405960D01*
X1239598Y1404579D01*
X1238468Y1402426D01*
Y1399994D01*
X1239598Y1397841D01*
X1241599Y1396460D01*
X1244012Y1396167D01*
X1246286Y1397029D01*
X1247898Y1398849D01*
X1248480Y1401210D01*
X1083480Y1346210D02*
X1082898Y1348571D01*
X1081286Y1350391D01*
X1079013Y1351253D01*
X1076599Y1350960D01*
X1074598Y1349579D01*
X1073468Y1347426D01*
Y1344994D01*
X1074598Y1342841D01*
X1076599Y1341460D01*
X1079013Y1341167D01*
X1081286Y1342029D01*
X1082898Y1343849D01*
X1083480Y1346210D01*
X1098480Y1371210D02*
X1097898Y1373571D01*
X1096286Y1375391D01*
X1094012Y1376253D01*
X1091599Y1375960D01*
X1089597Y1374579D01*
X1088467Y1372426D01*
Y1369994D01*
X1089597Y1367841D01*
X1091599Y1366460D01*
X1094012Y1366167D01*
X1096286Y1367029D01*
X1097898Y1368849D01*
X1098480Y1371210D01*
X1113480Y1346210D02*
X1112898Y1348571D01*
X1111286Y1350391D01*
X1109012Y1351253D01*
X1106599Y1350960D01*
X1104598Y1349579D01*
X1103468Y1347426D01*
Y1344994D01*
X1104598Y1342841D01*
X1106599Y1341460D01*
X1109012Y1341167D01*
X1111286Y1342029D01*
X1112898Y1343849D01*
X1113480Y1346210D01*
X1128480Y1371210D02*
X1127898Y1373571D01*
X1126286Y1375391D01*
X1124012Y1376253D01*
X1121598Y1375960D01*
X1119597Y1374579D01*
X1118467Y1372426D01*
Y1369994D01*
X1119597Y1367841D01*
X1121598Y1366460D01*
X1124012Y1366167D01*
X1126286Y1367029D01*
X1127898Y1368849D01*
X1128480Y1371210D01*
X1143480Y1346210D02*
X1142898Y1348571D01*
X1141286Y1350391D01*
X1139012Y1351253D01*
X1136599Y1350960D01*
X1134598Y1349579D01*
X1133468Y1347426D01*
Y1344994D01*
X1134598Y1342841D01*
X1136599Y1341460D01*
X1139012Y1341167D01*
X1141286Y1342029D01*
X1142898Y1343849D01*
X1143480Y1346210D01*
X1158480Y1371210D02*
X1157898Y1373571D01*
X1156285Y1375391D01*
X1154012Y1376253D01*
X1151598Y1375960D01*
X1149597Y1374579D01*
X1148467Y1372426D01*
Y1369994D01*
X1149597Y1367841D01*
X1151598Y1366460D01*
X1154012Y1366167D01*
X1156285Y1367029D01*
X1157898Y1368849D01*
X1158480Y1371210D01*
X1173480Y1346210D02*
X1172898Y1348571D01*
X1171286Y1350391D01*
X1169012Y1351253D01*
X1166599Y1350960D01*
X1164598Y1349579D01*
X1163468Y1347426D01*
Y1344994D01*
X1164598Y1342841D01*
X1166599Y1341460D01*
X1169012Y1341167D01*
X1171286Y1342029D01*
X1172898Y1343849D01*
X1173480Y1346210D01*
X1188480Y1371210D02*
X1187898Y1373571D01*
X1186286Y1375391D01*
X1184013Y1376253D01*
X1181599Y1375960D01*
X1179598Y1374579D01*
X1178468Y1372426D01*
Y1369994D01*
X1179598Y1367841D01*
X1181599Y1366460D01*
X1184013Y1366167D01*
X1186286Y1367029D01*
X1187898Y1368849D01*
X1188480Y1371210D01*
X1203480Y1346210D02*
X1202898Y1348571D01*
X1201286Y1350391D01*
X1199012Y1351253D01*
X1196599Y1350960D01*
X1194597Y1349579D01*
X1193468Y1347426D01*
Y1344994D01*
X1194597Y1342841D01*
X1196599Y1341460D01*
X1199012Y1341167D01*
X1201286Y1342029D01*
X1202898Y1343849D01*
X1203480Y1346210D01*
X1218480Y1371210D02*
X1217898Y1373571D01*
X1216286Y1375391D01*
X1214013Y1376253D01*
X1211599Y1375960D01*
X1209598Y1374579D01*
X1208468Y1372426D01*
Y1369994D01*
X1209598Y1367841D01*
X1211599Y1366460D01*
X1214013Y1366167D01*
X1216286Y1367029D01*
X1217898Y1368849D01*
X1218480Y1371210D01*
X1233480Y1346210D02*
X1232898Y1348571D01*
X1231286Y1350391D01*
X1229012Y1351253D01*
X1226599Y1350960D01*
X1224597Y1349579D01*
X1223467Y1347426D01*
Y1344994D01*
X1224597Y1342841D01*
X1226599Y1341460D01*
X1229012Y1341167D01*
X1231286Y1342029D01*
X1232898Y1343849D01*
X1233480Y1346210D01*
X1248480Y1371210D02*
X1247898Y1373571D01*
X1246286Y1375391D01*
X1244012Y1376253D01*
X1241599Y1375960D01*
X1239598Y1374579D01*
X1238468Y1372426D01*
Y1369994D01*
X1239598Y1367841D01*
X1241599Y1366460D01*
X1244012Y1366167D01*
X1246286Y1367029D01*
X1247898Y1368849D01*
X1248480Y1371210D01*
X1263480Y1346210D02*
X1262898Y1348571D01*
X1261286Y1350391D01*
X1259012Y1351253D01*
X1256598Y1350960D01*
X1254597Y1349579D01*
X1253467Y1347426D01*
Y1344994D01*
X1254597Y1342841D01*
X1256598Y1341460D01*
X1259012Y1341167D01*
X1261286Y1342029D01*
X1262898Y1343849D01*
X1263480Y1346210D01*
D64*
X1057148Y927100D02*
X1056255Y929255D01*
X1054100Y930148D01*
X1051945Y929255D01*
X1051052Y927100D01*
X1051945Y924945D01*
X1054100Y924052D01*
X1056255Y924945D01*
X1057148Y927100D01*
X1082548D02*
X1081655Y929255D01*
X1079500Y930148D01*
X1077345Y929255D01*
X1076452Y927100D01*
X1077345Y924945D01*
X1079500Y924052D01*
X1081655Y924945D01*
X1082548Y927100D01*
M02*
